<svg xmlns="http://www.w3.org/2000/svg" viewBox="0 0 3277.76 540.56"><defs><style>.cls-1{fill:#010101;}.cls-2{fill:#ea0029;}.cls-3{fill:#fff;}</style></defs><title>Logo 1</title><g id="Layer_2" data-name="Layer 2"><g id="Layer_1-2" data-name="Layer 1"><rect class="cls-1" x="28.68" y="28.68" width="3220.4" height="483.2"/><path class="cls-2" d="M3220.4,57.36V483.2H57.36V57.36h3163M3277.76,0H0V540.56H3277.76V0Z"/><polygon class="cls-3" points="420.59 333.09 406.55 333.09 406.55 220.12 376.13 220.12 376.13 207.1 451.33 207.1 451.33 220.12 420.59 220.12 420.59 333.09"/><polygon class="cls-3" points="611.72 258.23 611.72 207.09 625.75 207.09 625.75 333.1 611.72 333.1 611.72 271.27 547.2 271.27 547.2 333.1 533.16 333.1 533.16 207.09 547.2 207.09 547.2 258.23 611.72 258.23"/><polygon class="cls-3" points="718.58 207.09 783.93 207.09 783.93 220.12 732.62 220.12 732.62 257.56 782.43 257.56 782.43 270.58 732.62 270.58 732.62 320.06 783.93 320.06 783.93 333.08 718.58 333.08 718.58 207.09"/><path class="cls-3" d="M1006.77,333.09h-14v-126h20.73c10.86,0,22,.33,31.25,6.69s14.2,17.54,14.2,28.73c0,10.2-4.18,20.56-12.05,27.08-8.51,7-19.36,8.36-29.89,8.36h-10.2Zm0-68.18h9.36c15.54,0,28.75-4.67,28.75-22.73,0-20.55-16.56-22.06-32.93-22.06h-5.18Z"/><polygon class="cls-3" points="1143.56 207.09 1208.91 207.09 1208.91 220.12 1157.6 220.12 1157.6 257.56 1207.41 257.56 1207.41 270.58 1157.6 270.58 1157.6 320.06 1208.91 320.06 1208.91 333.08 1143.56 333.08 1143.56 207.09"/><path class="cls-3" d="M1313.47,333.1h-14v-126h18.23c23.89,0,46.12,6.35,46.12,34.76,0,19.38-12.2,33.09-31.59,34.76l40.1,56.49h-17.2L1317,277.78h-3.52Zm0-67.69h4.36c15.86,0,31.91-3,31.91-22.55,0-20.73-15.21-22.73-32.08-22.73h-4.19Z"/><polygon class="cls-3" points="1470.84 220.12 1470.84 257.55 1512.76 257.55 1512.76 270.6 1470.84 270.6 1470.84 333.09 1456.79 333.09 1456.79 207.09 1514.11 207.09 1514.11 220.12 1470.84 220.12"/><path class="cls-3" d="M1617.17,282.12c0,9.36-.31,20.07,5.53,28.07,5.51,7.7,16.2,12,25.39,12,9,0,18.88-4.18,24.73-11.2,6.69-8,6.18-19,6.18-28.91v-75h14V286c0,13.71-1,24.58-11,34.94a46.34,46.34,0,0,1-33.92,14.37c-11.87,0-24.08-4.52-32.58-12.87-11-10.54-12.37-22.06-12.37-36.44V207.09h14Z"/><polygon class="cls-3" points="1800.91 199.9 1846.7 305.69 1892.66 199.9 1918.23 333.09 1903.85 333.09 1887.65 247.86 1887.31 247.86 1846.7 338.27 1806.26 247.86 1805.92 247.86 1789.72 333.09 1775.35 333.09 1800.91 199.9"/><polygon class="cls-3" points="2000.87 207.09 2066.22 207.09 2066.22 220.12 2014.92 220.12 2014.92 257.56 2064.72 257.56 2064.72 270.58 2014.92 270.58 2014.92 320.06 2066.22 320.06 2066.22 333.08 2000.87 333.08 2000.87 207.09"/><path class="cls-3" d="M2332.16,231.65c-5-8.69-11-13.7-21.73-13.7-11.2,0-20.89,8-20.89,19.55,0,10.87,11.2,15.88,19.72,19.73l8.35,3.66c16.38,7.2,30.25,15.39,30.25,35.44,0,22.05-17.72,38.94-39.6,38.94-20.22,0-35.27-13-39.27-32.59l13.71-3.82c1.83,12.84,11.7,23.36,25.21,23.36s25.91-10.36,25.91-24.55c0-14.71-11.52-19.73-23.21-25.07l-7.71-3.34c-14.7-6.69-27.39-14.21-27.39-32.27,0-19.54,16.54-32.07,35.26-32.07,14,0,25.89,7.18,32.59,19.55Z"/><polygon class="cls-3" points="2514.43 258.23 2514.43 207.09 2528.46 207.09 2528.46 333.1 2514.43 333.1 2514.43 271.27 2449.91 271.27 2449.91 333.1 2435.87 333.1 2435.87 207.09 2449.91 207.09 2449.91 258.23 2514.43 258.23"/><path class="cls-3" d="M2746.29,270.26c0,36.26-29.75,65-65.66,65s-65.68-28.75-65.68-65c0-36.09,29.74-65.35,65.68-65.35s65.66,29.26,65.66,65.35m-117.3-.17c0,28.42,23.06,52.14,51.64,52.14s51.63-23.72,51.63-52.14c0-28.58-22.72-52.13-51.63-52.13S2629,241.51,2629,270.09"/><path class="cls-3" d="M2846,333.09h-14v-126h20.73c10.86,0,22.05.33,31.25,6.69,9.35,6.51,14.2,17.54,14.2,28.73,0,10.2-4.18,20.56-12,27.08-8.52,7-19.38,8.36-29.91,8.36H2846Zm0-68.18h9.37c15.54,0,28.75-4.67,28.75-22.73,0-20.55-16.55-22.06-32.93-22.06H2846Z"/></g></g></svg>
