<svg width="1080" height="1080" viewBox="0 0 1080 1080" fill="none" xmlns="http://www.w3.org/2000/svg">
<rect width="1080" height="1080" rx="100" fill="black"/>
<path d="M679.211 336.217H670.062L668.267 303.681C663.524 238.126 612.866 186.143 551.258 186.143H527.727C466.282 186.143 415.455 238.132 410.718 303.687H410.228L408.591 336.223H399.442V368.922H406.796L401.079 476.818C399.937 483.196 399.442 489.9 399.442 496.598C399.442 498.889 400.094 507.226 400.094 509.348C405.98 565.26 450.099 609.234 503.211 609.234H575.442C628.553 609.234 672.679 565.418 678.559 509.348C678.722 507.057 679.211 498.883 679.211 496.598C679.211 489.567 678.559 482.7 677.416 476.002L671.531 368.922H679.211V336.217ZM539.492 316.437H636.566V321.176H539.492V316.437ZM504.848 328.207H512.692H636.566V414.527H549.457H541.614H536.713L499.778 328.207H504.848V328.207ZM474.289 328.207L511.224 414.527H506.323L469.388 328.207H474.289V328.207ZM498.31 414.527H442.419V328.207H461.376L498.31 414.527ZM424.931 292.896C424.931 292.896 443.235 237.31 459.412 229.953C475.758 222.596 434.738 275.238 424.931 292.896ZM442.419 431.364V426.624H636.56V431.364H442.419ZM635.092 570.326C618.915 577.684 659.276 527.006 668.92 509.348C668.92 509.348 651.269 562.969 635.092 570.326Z" fill="white"/>
<path d="M932.676 763.074C914.372 735.774 886.592 739.044 866.33 752.773C836.75 772.717 819.268 801.166 813.545 835.986C808.971 863.94 821.063 882.578 848.679 888.139C867.636 892.062 887.571 892.063 906.854 893.695C908.323 893.858 909.96 893.042 913.066 892.389C910.124 890.098 908.492 888.629 906.528 887.323C895.578 879.639 884.629 871.956 873.516 864.599C868.125 861.165 865.835 856.589 866.651 850.374C869.594 829.941 878.906 813.262 897.047 802.471C904.727 797.895 912.571 797.569 920.252 803.288C930.222 810.808 940.514 817.675 950.811 824.706C952.938 826.175 955.222 827.324 957.512 828.793C958.328 828.466 958.981 828.14 959.802 827.65C958.008 820.293 957.512 812.446 954.412 805.579C947.874 791.191 941.504 776.15 932.676 763.074ZM142.218 641.28C158.722 669.723 186.67 668.254 207.748 655.994C238.47 638.009 257.916 610.872 265.76 576.378C272.135 548.751 261.349 529.46 234.222 521.94C215.592 516.874 195.819 515.399 176.536 512.624C175.068 512.461 173.43 512.95 170.161 513.44C172.941 515.894 174.572 517.527 176.373 518.996C186.833 527.332 197.293 535.832 207.911 543.848C212.975 547.771 215.102 552.348 213.797 558.399C209.385 578.506 199.251 594.531 180.458 604.337C172.451 608.424 164.77 608.26 157.253 601.883C147.772 593.709 137.97 586.352 128.162 578.669C126.199 577.036 123.914 575.725 121.787 574.256C120.971 574.582 120.319 574.909 119.497 575.235C120.802 582.755 120.802 590.602 123.419 597.633C128.815 612.178 134.211 627.545 142.218 641.28ZM858.487 752.283C815.672 762.258 786.419 750.814 783.639 749.829H783.476L761.576 742.635L757.817 741.329L634.107 700.621L538.344 669.07L352.7 607.928L338.644 603.189L334.232 601.719L329.821 600.25L316.587 595.837C286.517 585.863 274.262 558.072 274.262 558.072C267.561 626.245 222.783 650.928 222.783 650.928C265.597 640.953 294.851 652.397 297.63 653.382H297.793L319.693 660.576L352.869 671.694L442.751 701.285L538.513 732.836L738.703 798.717L742.462 800.023L764.525 807.217C794.594 817.192 806.85 844.982 806.85 844.982C813.708 776.966 858.487 752.283 858.487 752.283ZM212.818 752.773C192.556 739.202 164.607 735.937 146.472 763.074C137.65 776.15 131.274 791.191 124.899 805.742C121.956 812.609 121.304 820.456 119.509 827.813C120.325 828.14 120.977 828.466 121.799 828.956C123.926 827.65 126.373 826.338 128.5 824.869C138.634 817.839 149.089 810.971 159.06 803.451C166.903 797.563 174.584 797.895 182.264 802.635C200.405 813.589 209.554 830.262 212.66 850.537C213.639 856.589 211.192 861.165 205.796 864.762C194.683 872.119 183.733 879.966 172.783 887.486C170.988 888.792 169.188 890.267 166.245 892.552C169.351 893.205 170.982 893.858 172.457 893.858C191.903 892.226 211.675 892.062 230.632 888.302C258.248 882.747 270.177 863.946 265.766 836.15C259.88 801.002 242.392 772.553 212.818 752.773ZM957.355 574.087C955.228 575.556 953.107 576.867 950.98 578.5C941.172 586.183 931.207 593.704 921.889 601.714C914.535 608.091 906.691 608.255 898.684 604.168C879.891 594.52 869.594 578.5 865.345 558.23C864.04 552.179 866.161 547.439 871.231 543.679C881.855 535.669 892.315 527.169 902.769 518.827C904.564 517.358 906.202 515.72 908.981 513.271C905.875 512.781 904.244 512.292 902.606 512.455C883.323 515.399 863.551 516.705 844.92 521.771C817.794 529.128 807.007 548.582 813.382 576.209C821.226 610.703 840.672 637.84 871.394 655.825C892.478 668.085 920.584 669.56 936.924 641.111C944.931 627.376 950.158 612.172 955.717 597.131C958.334 590.101 958.334 582.254 959.639 574.734C958.987 574.576 958.171 574.25 957.355 574.087ZM321.325 741.329L317.566 742.635L295.666 749.829H295.503C292.887 750.809 263.476 762.252 220.656 752.283C220.656 752.283 265.434 776.966 272.135 845.139C272.135 845.139 284.39 817.186 314.46 807.374L336.523 800.18L340.281 798.875L528.543 736.916L431.632 705.039L321.325 741.329ZM856.36 650.922C856.36 650.922 811.581 626.233 804.88 558.067C804.88 558.067 792.625 586.02 762.555 595.831L749.321 600.245L744.91 601.714L740.498 603.183L726.443 607.922L550.442 665.957L647.353 697.834L726.122 671.839L759.298 660.722L781.197 653.528H781.36C784.128 652.397 813.545 640.953 856.36 650.922Z" fill="white"/>
</svg>
