<svg xmlns="http://www.w3.org/2000/svg" width="375" height="667" fill="none"><g clip-path="url(#a)"><path fill="#202020" d="m8 643 .062 7.346a11233.673 11233.673 0 0 0 .027 9.577c7.236 0 14.49 0 21.682.003 6.956 0 13.848-.015 20.583-.073-.385.012-.648.026-.895.039-.51.026-.95.049-2.251.049 2.09.06 5.958.063 9.309.035 1.675-.013 3.224-.033 4.357-.055l.061-.002c.54-.012.98-.021 1.291-.033.324-.013.509-.026.517-.038 1.731.005 1.744.033 1.759.064.011.025.024.052.857.074 2.017.034 4.53 0 6.842-.032 2.497-.034 4.76-.064 5.917-.003.22.012-.216.023-.77.032-.466.004-.868.009-1.176.016.32-.004.778-.009 1.176-.016 1.105-.008 2.571-.01 4.015-.013 3.333-.004 6.548-.009 4.928-.095 3.61.032 7.066.018 10.347.005 3.473-.014 6.748-.027 9.797.016 1.798-.073 4.676-.062 7.363-.051 3.09.012 5.928.023 6.585-.095-.534.226 13.027.183 17.727.075-.73.032.099.049 1.012.068 1.053.022 2.218.047 1.231.098 5.361-.003 10.276-.045 9.342-.163 4.831.132 9.686.083 14.037.039 4.545-.046 8.54-.087 11.382.091 15.931-.123 30.669-.203 44.999-.258-.254.111-4.094.118-7.855.125-3.882.008-7.681.015-7.368.136 4.72-.032 8.746-.077 12.556-.119 7.163-.08 13.56-.151 22.361-.115 2.473.022.444.062-1.367.098-.744.015-1.451.029-1.794.04 6.333-.043 12.47-.041 18.442-.04 6.826.002 13.436.003 19.876-.062l.019.001c-.044.01-.369.022-.83.031l-.84.015-.893.015c.602-.002 1.253-.001 1.886.001 1.872.003 3.584.006 3.383-.071l-2.322.027a18.909 18.909 0 0 1-.384-.018l.005-.002-.024.001c-1.423-.091 2.842-.184 6.311-.26a233.86 233.86 0 0 0 3.797-.098c-1.542.126.864.151 3.306.176 2.877.029 5.806.059 2.389.257 1.567-.02 3.533-.068 3.173-.138 2.326.02 3.064.06.705.138 4.065-.027 5.505-.065 6.734-.099 1.351-.036 2.449-.066 6.496-.064-.016.028-.527.047-1.112.068-.443.017-.929.035-1.274.06 3.912-.098 7.843-.194 14.377-.154-.117.009-.132.019-.147.028-.028.018-.054.035-.8.039l-.638.001a1288.001 1288.001 0 0 0 12.589-.094c5.803-.064 11.547-.127 18.836-.072-1.952.117-.595.128 1.178.143 1.525.013 3.358.029 3.66.116l6.616-.055-2.654-.091c1.598 0 3.146-.01 4.653-.022l.75-.007 4.014-.036-.025-3.463v-.007c0-1.03 0-2.05.016-3.063l.086 3.913-.039-9.868-.077 5.586c-.049-2.461-.108-2.527-.152-2.576-.051-.057-.082-.091-.053-3.862.008.487.01.027.015-.899.003-.624.008-1.459.016-2.36h-.549c-.001.351-.004.72-.007 1.109.066-1.027.241-1.999.301 4.009-.025 5.611-.276 6.897-.329 3.356-.005-1.347.017-1.995.039-1.939l-.003-.244c-.024-1.772-.053-3.85-.121-1.726l.066.729c-.025 1.027-.039 2.728-.053 4.373-.025 2.811-.048 5.461-.116 4.317l.015.88.007.409v.191c0 .025.003.048.006.068l.009.091.002.019c.014.123.025.141.039.055a3.394 3.394 0 0 0 .019-.298c0-.061 0-.123.003-.191 0-.086.002-.174.004-.266a8.03 8.03 0 0 0 .004-.159l.011-.868.017-1.259-.021 1.792-.015 1.34c-.666-.001-1.309-.004-1.937-.006l-1.613-.004h-.021c-1.295 0-2.554 0-3.844.002h-.023c-2.587 0-5.295 0-8.614-.022 1.296.032 2.491.103 1.2.103-6.802-.042-7.571.001-8.459.049-.674.037-1.416.078-4.912.089-1.987-.039-1.951-.085-1.924-.118.034-.044.052-.066-4.584-.023-4.982-.06-1.053-.158.926-.206-5.189.081-9.903.012-13.72-.043a441.057 441.057 0 0 0-4.411-.052l3.915-.048c-2.339.028-4.252.028-6.201.028l2.225.118-1.425-.012-1.553-.013c-.768-.01-1.244-.023-1.222-.046-.994.033-.834.073-.661.117.239.06.502.126-2.225.187-1.215-.024-2.934-.018-4.632-.013-2.583.008-5.119.016-5.758-.08 4.924.027 4.539-.015 4.072-.065-.352-.039-.749-.082 1.034-.104a194.35 194.35 0 0 0 1.986-.014c-.853.003-1.5.007-1.986.014-1.131.002-2.399-.004-3.812-.016-.346-.018.326-.033.954-.043-4.838-.074-5.766-.021-6.935.045-1.06.06-2.318.132-6.861.131 1.213-.088-2.215-.169-3.774-.151 3.851 0 1.841.148-1.692.216-3.796-.044-5.444-.013-6.912.014-.902.017-1.736.032-2.958.029l3.663.032c-.955.068-2.989.078-5.821.091-.849.004-1.77.008-2.755.015-.102-.02.151-.032.537-.04l.773-.011.632-.006c.655-.005 1.069-.008.413-.021-.342.011-.69.02-1.045.027-.274.002-.546.006-.773.011-1.952.02-4.078-.015-6.344-.051-2.858-.047-5.938-.096-9.17-.045-1.58-.031-1.609-.075-1.636-.115-.025-.038-.049-.074-1.353-.093-3.762.058-5.774.026-7.862-.008a242.417 242.417 0 0 0-7.958-.02c.937.05 1.551.074 1.551.094-.001.027-1.201.046-4.398.115l12.809-.086-8.22.173c1.85 0 3.798-.017 5.58-.033 1.941-.017 3.685-.032 4.893-.022-2.179.055-3.021.07-3.021.089 0 .016.536.035 1.357.079-2.786-.095-5.546-.06-8.429-.025-2.59.033-5.279.066-8.174.008l.185-.296c-4.755-.069-8.961-.026-13.565.022-4.297.044-8.94.092-14.701.055l3.834.053c-.947.07-3.353.063-5.96.056-1.801-.005-3.697-.01-5.276.009.272-.075-1.04-.114-2.409-.154-.444-.013-.894-.027-1.298-.041.076.027-1.178.033-2.818.04-2.659.012-6.332.028-7.003.15l-5.327-.13c-4.941-.027-7.707.047-10.477.122-2.634.071-5.271.142-9.786.127 1.123-.044 1.113-.081 1.103-.115-.015-.051-.027-.095 3.683-.142h-4.103c-1.09.005-1.797.018-1.82.051-.811-.029-2.623-.005-4.631.022-2.464.032-5.222.069-6.79.018-.366.012-.663.029-.978.047-.806.046-1.728.098-4.225.091-.219-.012-.18-.026-.109-.036a.547.547 0 0 0 .123-.012s-.07.005-.123.012c-.223.012-.721.022-1.26.033-1.371.027-3.003.06-1.02.131-4.94-.16-11.917-.148-18.648-.137-6.25.011-12.287.021-16.282-.107l-21.012.073c.114-.009.163-.016.205-.023.1-.016.15-.024.973-.017-4.096-.045-5.443.02-6.838.088-1.483.071-3.02.146-7.978.093-3.005-.099-.424-.109 1.334-.117 1.117-.005 1.902-.008.712-.031-.72-.177-4.052-.149-7.984-.117-3.345.028-7.125.059-10.1-.029l1.567-.02c-2.682-.06-6.003-.019-9.769.028-3.184.039-6.686.083-10.389.072 0 0 .393-.03.047-.05-2.151.065-5.046.113-8.236.151l-.235.002-9.566.083a3599.556 3599.556 0 0 1-.036-4.837c.05.769.073 1.393.09 1.822.03.796.035.918.128.046-.008-1.312-.049-1.378-.096-1.454-.068-.109-.15-.239-.172-3.941.022-.595.044-1.4.067-2.258.056-2.106.12-4.533.229-4.963l.008 5.963c.116-1.802.093-4.163.062-6.442H8.2c-.008.538-.019 1.117-.031 1.742L8.072 643H8Z"/></g><g fill="#202020" clip-path="url(#b)"><path d="M8.17 277.121 8.168 277h.01a7.417 7.417 0 0 0-.008.121ZM8.263 277.369a17.385 17.385 0 0 0-.026-.369h1.421c-.01.659-.017 1.33-.01 2.002l.004.347c.015 1.156.03 2.313.046 3.408l.008.696H9.63c-.014 2.305-.056 4.279-.159 5.371l.006-1.101c-.136-.296-.11 1.576-.079 3.785.02 1.447.043 3.037.023 4.257.022 2.34.169 4.677.213 2.667-.062 5.496-.072 12.107-.08 18.539-.013 8.96-.025 17.572-.18 22.336.035 4.705.087 8.998.137 13.221.092 7.608.181 14.989.162 24.145l-.033-.166c-.02 2.402-.05 6.008-.105 9.009-.056 3.004-.136 5.4-.257 5.388.021 3.984.085 7.407.148 10.82.1 5.372.2 10.721.133 18.196l-.094-2.647c-.045 2.991.062 7.724.094 9.166l.003.145c-.004.813-.033.571-.061.335-.01-.078-.019-.156-.027-.193-.056 1.957-.016 3.382.024 4.81.02.707.04 1.414.048 2.188l-.083-.951c-.095 5.496-.031 12.782.035 20.341.052 5.838.104 11.839.086 17.302-.022-2.31-.116-1.083-.154-.156.187 3.591.212 11.557.232 17.821.009 2.702.016 5.087.036 6.667l-.105-3.231c.09 5.117.018 7.328-.053 9.532-.071 2.199-.142 4.391-.052 9.454l.154-5.824c-.047 4.136.006 7.643.127 6.659-.038 2.065-.081 2.463-.12 2.823-.053.477-.097.886-.112 5.024-.032.132-.046-.841-.059-1.786-.017-1.226-.034-2.406-.09-1.062l-.202 10.042c-.022.295-.027 1.559-.005 4.873.17-.437.175 1.651.178 3.212.004 1.556.006 2.589.17.069.01 5.776-.02 11.186-.05 16.393-.044 7.621-.085 14.805.009 22.061-.15 2.31-.165 7.649-.178 12.608-.015 5.785-.029 11.052-.256 10.393-.006 6.905.08 12.496.251 16.746.026-1.062 0-2.351-.023-3.525l-.018-1.008c.108 1.805.124 10.115.124 13.579-.027-1.309-.053-2.85-.08-4.467-.068-3.987-.144-8.429-.26-10.955.033 4.966.139 11.491.207 15.725v.001l.045 2.784-.219 1.599c.078 2.541.04 3.663.003 4.731-.039 1.153-.076 2.245.036 4.994l.066-1.002c-.008 5.184.05 7.631.11 10.166.053 2.204.107 4.475.12 8.67l-.086-.397c-.012 1.124.007 2.446.026 3.818.022 1.523.045 3.108.027 4.553h-.084l-.005-3.538c-.085.333-.143 1.882-.191 3.538h-.964l-.047-5.506.183 3.215c.13-6.305.022-7.897-.095-9.618-.093-1.372-.191-2.825-.179-6.809.028-7.658.072-15.407.117-23.172.098-17.141.197-34.358.115-50.848-.03-.997-.046-.535-.069.104-.017.488-.038 1.079-.072 1.207.01-.746.034-1.301.058-1.836.044-.96.084-1.854.022-3.671l-.1.632c.122-4.965.097-11.931.071-18.817-.03-8.292-.06-16.468.167-20.898-.071-4.767-.055-8.893-.038-13.172.02-5.124.042-10.468-.086-17.398.045-2.042.088-.801.122.198.034.966.06 1.707.072-.959l-.153-11.638c-.134-5.788-.044-13.363.049-21.259.09-7.672.185-15.648.081-22.586l.014.61c.07.33.15-2.615.127-4.922-.036-.588-.059.082-.091 1.024-.012.348-.026.733-.041 1.105a2729.985 2729.985 0 0 1-.143-25.366v-.203c.054 2.314.075 1.017.105-.765.026-1.561.058-3.494.123-3.696-.037-1.073-.068-1.028-.097-.985-.042.063-.08.119-.126-3.384-.01-5.774.045-11.233.096-16.345.023-2.309.046-4.547.061-6.711-.05-1.146-.075-2.437-.097-3.578-.031-1.669-.057-3.018-.149-3.129L8.07 346.47l.053-.298c-.11-1.764-.065-4.745-.025-7.396.031-2.046.059-3.896.01-4.839.03.139.052.451.072.734.026.37.048.69.078.515l-.064-5.279c.058 2.493.24 3.916.263-.426-.075-2.503-.096-1.849-.118-1.144-.018.567-.037 1.168-.087.187l.18-1.363c-.022-3.41-.224-4.367-.279-.198 0-5.043-.016-10.057-.032-14.964-.02-6.406-.04-12.629-.023-18.494l.119 1.101a885.927 885.927 0 0 1-.014-11.797l.005-.61h.063c-.004-.808-.008-1.557-.01-2.235 0-.85 0-1.589.036-2.191a5.32 5.32 0 0 1-.034-.404ZM367.563 662l.006-.794c.007.479.01.026.015-.887.009-1.76.027-5.227.109-7.013v-.006l-.001-.026c-.066-2.556-.134-5.193-.082-9.013.037-.554.104-.246.163.027.047.219.09.416.108.127-.084-1.246-.097-4.208-.11-7.279v-.005c-.013-2.991-.026-6.085-.106-7.797.05.778.138.792.158.476l-.141-2.129c.044-2.406.067-2.758.152-2.369.012-3.535-.05-3.069-.104-2.668-.056.421-.103.772-.045-3.625.004.271.011.381.018.507.01.187.023.409.034 1.25.029-4.239.008-8.336-.012-12.348v-.001c-.021-4.156-.042-8.22-.007-12.255.107-1.211.117.687.126 2.43.008 1.624.015 3.112.101 1.82-.016-4.536-.058-9.199-.1-13.865v-.016c-.065-7.091-.129-14.188-.099-20.858l-.022 2.062c-.155-.811-.106-3.066-.046-5.839.052-2.388.112-5.16.058-7.722.034 1.151.154 1.495.123 1.15.034-5.507-.019-11.191-.086-18.292-.025-2.671-.052-5.544-.077-8.683l.075 1.423c.04-2.695.045-6.42.051-10.01v-.011c.004-2.356.007-4.653.02-6.564a67.035 67.035 0 0 1-.054-1.709c-.027-1.093-.046-1.906-.117-.804.223-7.747.152-15.12.082-22.273-.064-6.578-.126-12.971.045-19.294 0 1.579.067 3.76.067 2.506l-.069-11.239c-.079.55-.09.984-.111 1.793-.012.499-.028 1.141-.066 2.041-.075-1.423-.136-4.595-.136-7.381.075 4.392.174 1.12.246-1.246l.031-.982c-.022.201-.044.068-.067-.063-.019-.109-.037-.218-.055-.135.108-2.79.055-3.15-.014-3.621-.075-.519-.171-1.172-.091-5.38l.066.423c-.011-1.03-.029-2.033-.047-3.036v-.006c-.034-1.916-.069-3.836-.058-5.959.08-.725.093.269.108 1.367.013.932.027 1.939.083 2.033-.003-1.787-.047-3.556-.09-5.294-.067-2.681-.131-5.29-.043-7.786l.042 3.318.041 3.319c.134-3.45.139-4.551.147-6.397.002-.55.004-1.166.011-1.93v.327l.074-7.696-.047 1.961c-.211-3.134-.211-6.329-.21-9.849v-.001c.001-2.769.001-5.738-.101-9.035.135 4.188.154 3.608.185 2.638.02-.626.045-1.413.11-1.193l.025-1.111v-.004c.04-1.779.083-3.664.121-2.967-.061-1.641-.045-3.036-.027-4.546.021-1.823.045-3.815-.064-6.609.02-.085.025-.64.032-1.263.011-1.056.024-2.307.109-1.793-.025-2.839-.054-1.85-.088-.704-.022.755-.046 1.578-.072 1.421-.085-3.329-.045-7.194-.001-11.409.051-4.973.108-10.435-.03-16.084-.053-4.529-.124-7.2-.194-9.8v-.007a505.088 505.088 0 0 1-.181-9.209c.085-2.818.196 2.307.196 2.307.08-4.547.063-7.967.002-12.255.046.84.084.027.141-1.211l.006-.122c-.006-1.454-.042-2.089-.075-2.681-.046-.809-.087-1.537-.041-4.154l.032.396c.059.722.135 1.649.183 3.038l-.089-5.493-.11-6.757c.067-.793.112.829.154 2.362.017.619.033 1.223.051 1.648l-.014-1.648-.001-.092c-.038-4.636-.088-10.647-.22-11.933l-.038 2.221c-.011.151-.016.411-.014.805l.014-.805c.034-.507.119.212.14 1.189.116 4.04-.052 5.829-.105 6.057l-.033-2.989c-.2 1.952-.126 6.276-.049 10.713v.007c.044 2.536.088 5.108.082 7.295l-.229-2.508.191 6.169c-.061 1.311-.188 2.211-.224-.761-.057 2.154-.036 3.109-.017 3.986.019.879.036 1.682-.027 3.536-.02.409-.031.223-.039-.156l.069 4.213c-.017-.301-.043-.289-.068-.278-.044.019-.083.036-.062-1.611-.069 3.921-.02 7.054.019 9.559.036 2.326.064 4.111-.019 5.482l-.014-.632c.041 5.585.087 5.511.15 5.408.055-.091.125-.204.218 3.477l-.417 5.296.168 1.031c-.005 1.083-.019 3.225-.086 2.828.063 2.18.08 1.799.099 1.361.016-.371.034-.782.084.29-.068 2.28-.063 5.316-.058 8.107v.004c.007 3.586.012 6.768-.138 7.428.059.871.085-.154.104-.932.022-.89.036-1.457.084 1.512-.16.872-.129 2.729-.091 5.016.031 1.871.067 4.031.008 6.173-.064-.618-.086-1.783-.1-2.559-.02-1.058-.027-1.395-.105 1.353.155 1.764.099 4.858.043 7.912-.035 1.918-.069 3.821-.051 5.369.099.094.121 2.277.124 5.276.002.876.002 1.821.002 2.804 0 2.387 0 4.999.023 7.385-.04-.259-.072 4.456-.107 9.604v.004c-.023 3.342-.047 6.868-.075 9.334l-.033-.186c.152.913.169 4.814.186 8.695.005 1.267.011 2.531.021 3.689-.122-.186-.169-1.031-.224-3.581v4.424c.066 1.043.099 2.423.124 5.293l-.152-1.112c.003 2.103.027 4.217.052 6.411.044 3.948.091 8.155.026 13.026.043.132.098-.394.155-.947.128-1.235.269-2.601.334 2.932-.072.274-.187.546-.229-1.055l.001.058c.018.846.047 2.209.021 3.327l-.13-3.202c-.03 1.872.004 2.243.04 2.632.03.328.061.669.056 1.93-.056-.027-.075.507-.092.983v.002c-.016.454-.03.855-.073.661-.004-.261.001-.658.006-1.11v-.003c.01-.766.021-1.685-.006-2.349-.02 3.11-.083 6.872-.166 8.114.061-.27.146 0 .16 2.278.005 3.384-.04 3.544-.089 3.72-.036.13-.075.269-.099 1.729.029.553.035 1.455.041 2.359.01 1.429.02 2.862.119 2.923 0 1.309-.044 1.808-.085 2.263l-.016.181c-.007.084-.014.171-.02.265.025 1.082.035 3.191.045 5.307.018 3.843.036 7.71.148 5.493l.011-.781c0 .147.006.32.009.499.092 5.642.051 11.531.01 17.375v.003c-.031 4.501-.063 8.975-.032 13.288l-.056-.014c.024 2.235.035 4.661.046 7.042.018 3.923.035 7.724.109 10.353 0 1.75-.099 4.131-.166 3.383.01 1.069.021 1.913.031 2.666.031 2.433.05 3.909-.02 8.898-.049-2.368-.07-1.845-.077-1.679l-.002.04.001-.37.009-2.653a699.444 699.444 0 0 1-.038 3.626v.003c-.038 3.194-.061 5.119.052 9.89-.141-2.148-.177 4.424-.135 7.22l.099-4.119c.019 3.123.008 5.86-.002 8.635l-.001.044-.185-1.509c-.105 5.659-.027 10.795.046 15.6v.004c.083 5.406.159 10.395-.04 15.241.063 1.56.087.02.111-1.621v-.001c.026-1.704.053-3.516.129-2.066-.015 3.479-.125 7.051-.205 9.653v.006c-.047 1.532-.084 2.728-.085 3.37-.052 3.835.018 5.6.09 7.435.07 1.791.143 3.65.109 7.566.062-.95.219-1.852.288 2.916h.231ZM367.011 662c-.015-.461-.035-.583-.062 0h.062ZM367.196 278.338c-.012.573-.063-.076-.127-1.338h.118c0 .469.003.93.009 1.338ZM367.373 277.716l-.02-.716h.555c-.038.985-.087 1.46-.146 1.633-.079.244-.168-.106-.259-.465a4.647 4.647 0 0 0-.13-.452Z"/></g><path fill="#202020" d="m305.981 75.754 1.101.959-.025-.049s-.493-.422-1.076-.91Z"/><path fill="#202020" fill-rule="evenodd" d="M336.4 110.199a3940.127 3940.127 0 0 0-2.369-3.499l-1.066-1.515-1.114-1.584c-.248-.182-1.488-1.65-2.949-3.452l-1.027-1.21-1.324-1.56-.269-.316-.313-.367-.576-.641-.098-.108-.955-1.053c-1.946-2.457-.949-1.39.124-.242.837.894 1.719 1.837 1.288 1.199.011.081-.386-.332-.968-.973-.218-.238-.459-.509-.716-.797a59.33 59.33 0 0 0-1.395-1.53c-.758-.816-1.48-1.59-1.94-2.072-.458-.481-.673-.65-.37-.283-.828-.932-1.382-1.552-1.787-2.006a75.927 75.927 0 0 1-2.093-2.411c-.361-.174-1.067-.875-2.012-1.83-.209-.2-.428-.412-.656-.634-.835-.81-1.798-1.745-2.858-2.65-1.772-1.7-2.291-2.253-2.596-2.579a11.41 11.41 0 0 0-.213-.223c-.336-.337-.733-.718-3.329-2.917-1.215-1.068-.645-.653.226.035.298.241.63.516.936.773l-.509-.444c-.334-.287-.614-.51-.842-.69l-.183-.147c-.515-.405-.714-.533-.785-.552-.05-.012-.038.03-.026.071.023.08.047.16-.347-.12-1.02-.854-1.8-1.48-2.389-1.953a68.628 68.628 0 0 1-.81-.656c-.609-.503-.835-.713-.926-.822-.051-.059-.059-.087-.066-.117-.02-.077-.043-.164-.822-.815-1.039-.77-2.02-1.49-2.96-2.17-.623-.439-1.233-.855-1.824-1.26-.308-.21-.612-.417-.91-.623a85.607 85.607 0 0 0-2.097-1.406l-.458-.301-.497-.332c-.654-.437-1.298-.866-1.936-1.294a6.98 6.98 0 0 0-.235-.18c-.224-.168-.402-.302.152.022-.584-.356-1.235-.76-1.935-1.204-.35-.223-.714-.454-1.089-.69l-1.171-.715-.769-.47c-.563-.346-1.142-.7-1.731-1.06l-.491-.287c-.715-.418-1.443-.843-2.174-1.272l-.451-.262a50.17 50.17 0 0 0-.905-.52l-.878-.483a1197.273 1197.273 0 0 0-1.325-.727c-.626-.343-1.244-.683-1.859-.998l-.621-.316c-1.541-.785-2.985-1.52-4.274-2.087-.351-.19-.553-.305-.669-.375l-.056-.035.056.035c.83.518.915.67.696.642-1.34-.673-2.612-1.245-3.682-1.727-1.148-.516-2.064-.928-2.582-1.247 1.288.597 1.708.76 2.181.944.162.063.33.128.542.214l-2.982-1.313c-.653-.335-.722-.395-.46-.3.264.09.859.351 1.532.661l.249.113c1.297.589 2.779 1.262 2.805 1.208l-.78-.351c-1.208-.545-2.45-1.106-3.707-1.644l-2.307-.96-.475-.198c-.225-.093-.449-.186-.672-.28l-1.143-.449c-.466-.18-.927-.361-1.383-.54a102.17 102.17 0 0 0-2.994-1.142c-.559-.205-1.1-.409-1.623-.606-.776-.292-1.51-.569-2.197-.808-.226-.125.339.038 1.21.329.865.307 2.042.742 3.056 1.117.599.214 1.136.424 1.523.574.272.106.469.183.561.212.22.079-.174-.128-1.678-.748 2.331.941 4.66 1.898 6.948 2.936-2.543-1.257-1.571-.834-.488-.362 1.12.488 2.359 1.028-.05-.187-.368-.162-.725-.317-1.069-.467l-.549-.24-1.093-.447-.376-.153-.901-.364-1.637-.658a336.486 336.486 0 0 0-3.29-1.218l-.877-.321c-1.315-.449-2.629-.897-4.2-1.436a779.069 779.069 0 0 1-4.104-1.32l-.578-.175-1.109-.334c-1.086-.266-.92-.178-.754-.09.166.089.332.177-.754-.09l-.362-.102a200.24 200.24 0 0 1-.861-.243c-.394-.103-.775-.2-1.141-.293l-1.751-.462-.272-.071a81.178 81.178 0 0 0-2.087-.544c-.392-.099-.759-.19-1.105-.282-.822-.214-1.522-.404-2.147-.574l-.179-.049c-.672-.174-1.26-.326-1.819-.473a98.023 98.023 0 0 1-.823-.217c-.818-.219-1.636-.437-2.666-.64l-.143-.028a73.552 73.552 0 0 0-5.524-.942c-.642-.076-1.192-.129-1.758-.184l-.066-.006c-.267-.027-.539-.05-.828-.073a47.862 47.862 0 0 1-1.129-.101 87.512 87.512 0 0 1-2.822-.332 190.363 190.363 0 0 1-4.438-.535l2.525.076c-.336-.038-.655-.074-.959-.11a60.083 60.083 0 0 0-2.048-.214 424.27 424.27 0 0 1-2.056-.152l-.306-.018c-.95-.058-1.586-.097-2.235-.104a71.57 71.57 0 0 1-2.627-.098c-.692-.048-1.539-.087-2.63-.138-.768-.036-1.656-.077-2.697-.131.896-.003 2.789.035 4.275.103l.954.053c.935.052 1.439.08.881.037l-.309-.026-1.769-.146a40.916 40.916 0 0 0-1.472-.067 38.415 38.415 0 0 0-1.833-.022l-.628.01-.92.014c-.629.017-1.453.025-2.707.008L188.457 32c-5.132 0-10.523.231-16.027.728a190.27 190.27 0 0 0-16.704 2.265c.143-.038.358-.088.569-.138.687-.16 1.332-.31-.68-.014-7.041 1.316-14.486 3.08-21.731 5.298-7.241 2.232-14.293 4.855-20.602 7.652l-2.359 1.178-1.177.59-1.163.617c-1.1.538-2.073.937-.896.326-2.431 1.152-2.464 1.237-2.202 1.136l.112-.04c.275-.1.594-.215-.393.33-2.704 1.423-3.624 1.787-1.927.85a91.31 91.31 0 0 0-2.672 1.486l-.731.416c-.213.123-.43.245-.649.368-.407.23-.822.465-1.237.714l-.591.354-1.377.826c-2.69 1.6-5.534 3.438-8.364 5.32-5.65 3.787-11.096 7.965-14.982 11.075.485-.43.97-.857 1.471-1.267-.578.444-1.09.876-1.565 1.276l-.457.385c-.599.505-1.133.965-1.621 1.389-.689.614-1.28 1.17-1.843 1.698-.227.215-.45.424-.673.632-.433.4-.854.804-1.296 1.23-.352.337-.716.688-1.11 1.059-.444.418-.927.867-1.467 1.359-.406.382-.843.791-1.32 1.237l-.452.424.97-.976-1.186 1.138-1.101 1.056-.039.038c-.737.74-1.476 1.483-2.216 2.229-.725.717-1.424 1.462-2.125 2.208l-.105.11c-.244.263-.49.524-.738.785-.492.52-.985 1.04-1.458 1.578l-.72.803-1.43 1.595-1.132 1.322-.954 1.113c-.596.685-1.165 1.385-1.733 2.083l-.298.367c-.237.295-.477.588-.716.88-.427.52-.852 1.038-1.255 1.572l-.569.732-1.33 1.714c-.381.498-.751.999-1.118 1.497-.233.316-.465.631-.698.942l-.378.509-.513.692-.854 1.205-1.182 1.67-.488.689c-2.133 3.14-4.101 6.103-5.78 8.824-.13.275-.363.704-.67 1.245l-.09.16c-.13.226-.27.471-.422.732l-.398.715-.18.326c-.414.734-.872 1.541-1.348 2.381-.291.525-.582 1.067-.874 1.611-.179.332-.358.666-.538.996-.234.438-.468.873-.7 1.3-.155.296-.303.591-.45.881l-.194.388-.462.931-.671 1.35c-.654 1.368-1.064 2.373-1.111 2.645l-.128.26a81.599 81.599 0 0 0-1.203 2.497l-.951 2.033-.254.541-.137.291-.053.118a392.517 392.517 0 0 1-.753 1.708l-.181.411-.717 1.642c-.199.477-.41 1.005-.648 1.604-.07.172-.14.351-.214.536-.675 1.652-1.505 3.854-2.613 7.029a79.473 79.473 0 0 0-1.034 3.35l-.205.788-.065.25-.762 2.912-.558 2.131-.193.06-.355 1.465-.177.731-.16.737-.634 2.944a59.155 59.155 0 0 0-.59 1.992c-.103.364-.206.728-.314 1.091l-.128.615c-.1.474-.2.947-.29 1.423l-.375 2.047a70.53 70.53 0 0 1 .496-2.299c.162-.623.275-1.012.273-.884a75.184 75.184 0 0 0-.422 2.134l-.069.364-.227 1.161-.285 1.46-.268 1.511a1024.714 1024.714 0 0 1-.372 2.084c-.094.508-.185 1.004-.256 1.483a313.754 313.754 0 0 1-.64 3.92c-.143.989-.242 1.596-.27 1.634-.56 5.094-.91 10.213-1.006 15.334-.027-.171-.022-.899-.005-1.84.007-.426.017-.897.027-1.378l.003-.15.025-.591c.015-.337.03-.67.041-.991l-.03.674-.03.696-.017.636-.01.427a84.122 84.122 0 0 1-.048 1.376c-.03.641-.06.804-.088.948a3.944 3.944 0 0 1-.01.054c-.053.271-.13.667-.092 4.193.036-.694.067-.175.093.272.012.202.023.39.034.443-.036.66-.036 1.47-.036 2.403.002.743.006 1.565.01 2.452h-.062l-.006.668c-.025 3.92-.014 8.89.014 12.94l-.119-1.207c-.017 6.433.003 13.259.024 20.286.015 5.382.031 10.882.031 16.413.056-4.572.257-3.523.279.218l-.18 1.495c.05 1.076.069.417.087-.206.022-.773.043-1.49.118 1.255-.022 4.763-.204 3.202-.262.468l.063 5.79c-.03.193-.052-.159-.078-.565-.02-.31-.042-.652-.07-.805.047 1.035.02 3.064-.011 5.307-.04 2.909-.085 6.179.024 8.114l-.052.326.06 24.976h1.531c-.024-6.519-.088-12.361-.153-18.331-.051-4.632-.103-9.34-.137-14.501.154-5.226.166-14.672.178-24.501.01-7.055.019-14.306.08-20.334-.043 2.204-.19-.359-.211-2.926.02-1.338-.003-3.083-.023-4.669-.031-2.423-.057-4.477.078-4.152l-.006 1.207c.103-1.197.144-3.363.16-5.891h.074l-.008-.764-.045-3.738-.004-.38c-.01-.929.004-1.857.018-2.759.007-.452.014-.897.017-1.332l-.278-.9c.389-7.076 1.091-16.335 2.508-24.697 1.317-8.378 3.282-15.822 4.531-19.486l.563-1.987.17-.604.112-.386c.092-.322.185-.647.285-.97l.187-.589.246-.776.014-.046.846-2.659.857-2.536.085.223.083-.23.502-1.393.23-.595c.123-.313.242-.621.36-.925.142-.361.279-.716.414-1.065.235-.607.463-1.197.699-1.773.24-.569.473-1.129.703-1.685.5-1.206.99-2.388 1.535-3.583 1.538-3.512 3.29-7.236 6.038-12.421l-1.028 2.162a136.443 136.443 0 0 0 1.919-3.725 129.47 129.47 0 0 0 1.452-2.887l.336-.682.358-.68.301-.559.463-.862c.27-.495.56-1.017.88-1.577.305-.52.648-1.069 1.022-1.669l.08-.128 1.18-1.435c3.13-4.861 6.564-9.569 10.194-14.101 3.63-4.531 7.453-8.884 11.36-13.073l-.022.032c-.106.15-.313.447-1.26 1.476 1.927-2.064 5.47-5.55 8.506-8.35.331-.302.653-.6.964-.89.443-.412.866-.805 1.269-1.162.683-.61 1.281-1.148 1.75-1.58.79-.733 1.221-1.152 1.076-1.106.237-.159.757-.572 1.473-1.161.3-.25.634-.53.998-.832l.656-.546a826.2 826.2 0 0 0 2.056-1.661c.97-.805 2.034-1.63 3.102-2.457.527-.408 1.054-.817 1.572-1.224a2241.373 2241.373 0 0 0 2.764-2.055c.22-.163.434-.322.643-.479l1.011-.715-.716.677c.59-.435 1.099-.815 1.556-1.155 1.194-.89 2.031-1.514 3.008-2.175l.145-.1c.632-.434 1.32-.907 2.206-1.493l.768-.486c.813-.515 1.771-1.123 2.952-1.854 1.257-.712 1.385-.717.275-.053-.28.163-.583.34-.911.534.364-.21.668-.388.911-.534l.62-.36c.512-.295.94-.543 1.313-.77.321-.19.603-.363.867-.527.312-.192.601-.37.905-.544a115.47 115.47 0 0 1 2.317-1.333 42.47 42.47 0 0 1 1.164-.638l.972-.498 1.076-.551-2.299 1.313a464.263 464.263 0 0 0 3.141-1.648c.716-.378 1.234-.652 1.685-.88l1.312-.703 1.703-.912c.855-.41 1.932-.916 3.085-1.444.573-.269 1.171-.524 1.772-.774.426-.18.853-.36 1.272-.535l.5-.21c1.058-.453 2.066-.828 2.879-1.131l.205-.076c.846-.313 1.458-.525 1.676-.577.358-.2 1.306-.6 2.579-1.117l.202-.08a72.925 72.925 0 0 1 1.923-.752c.775-.277 1.602-.562 2.445-.848.471-.108-.741.348-1.353.577 4.744-1.641 8.324-2.718 11.529-3.681l.055-.017.929-.259c.486-.136.966-.27 1.441-.401l.55-.152c.59-.163 1.175-.326 1.768-.462l.8-.191 1.553-.37.584-.133.629-.144.496-.097.761-.15c.151.019.601-.052 1.166-.158a180.872 180.872 0 0 0-13.127 3.312l-.319.093-.004-.004c-.051.018-.049.018.004.004.062.033.887-.174 1.688-.375.297-.074.59-.148.841-.208.477-.103.799-.163.694-.103-.077.046-.386.15-1.029.368l-.828.281c2.475-.783 5.859-1.75 9.406-2.647.592-.147 1.191-.284 1.79-.422l.897-.206.728-.166c.652-.15 1.301-.3 1.949-.419l.956-.186c1.427-.28 2.802-.55 4.082-.73l.09-.01c.273-.032.533-.062.742-.077l-.642.122c.704-.106 1.37-.219 2.009-.327a85.669 85.669 0 0 1 1.929-.312c.422-.053.811-.102 1.18-.15 1.383-.177 2.492-.319 4.013-.478.153 0 .55-.029 1.112-.077l-.219.026c.149 0 .402-.014.884-.06l.116-.011c.22-.023.482-.05.797-.081l.724-.067.629-.058v-.006l.143-.02c2.204-.199 4.774-.42 6.438-.486-.119-.063.588-.134 1.125-.187.704-.07 1.115-.112-1.016-.07a.807.807 0 0 0-.122.002l.122-.002c-.032.01-1.106.084-2.876.2-.485.033-1.055.077-1.372.117l.096-.014c.038-.006.08-.013.122-.018-1.059.095-2.274.204-3.622.323-.889.085-1.83.194-2.818.309-.507.058-1.026.119-1.556.178l.41-.058c1.135-.162 2.301-.328 3.573-.48a109.91 109.91 0 0 1 4.771-.378l.984-.12c1.349-.163 2.684-.325 3.511-.4 1.11.011 2.475.009 3.916-.002 1.442.019 2.96.038 4.38.054 1.063.02 2.071.064 2.944.102l.823.034c.518.024.965.046 1.32.065.356.028.618.055.764.076 4.933.074 10.735.492 16.057 1.085.954.09 1.888.21 2.801.33l1.079.138.777.097 1.062.134.753.11.988.145c.475.071.938.136 1.388.2.618.087 1.211.17 1.771.26.967.155 1.846.29 2.615.4a27.014 27.014 0 0 1 3.395.774c.25.073.484.142.767.215-.794-.16-1.662-.337-2.442-.498a35.31 35.31 0 0 0-1.904-.331c1.114.181 2.43.457 3.841.754l1.048.219c.697.138 1.401.305 2.108.473l.632.15 1.588.377 1.124.267c.811.214 1.598.415 2.333.603a169.5 169.5 0 0 1 2.311.6c1.262.346 2.174.577 2.51.623.847.259 1.42.444 1.789.58.372.13.546.198.595.225.1.054-.3-.054-.62-.141l-.052-.014c-.601-.161-.779-.21 3.718 1.226l-1.268-.345c.794.26 1.565.54 2.324.817l.975.352.551.197c.884.317 1.752.627 2.599.958l1.069.405 1.958.742c.476.19.948.38 1.418.566l1.497.598c3.826 1.563 7.456 3.107 11.069 4.844 1.33.611 2.643 1.278 3.974 1.954.492.25.987.5 1.486.751.565.306 1.134.612 1.709.922l1.058.57c.914.484 1.819 1.011 2.74 1.547l.079.046a134.587 134.587 0 0 1 10.402 6.642c.306.226.778.562 1.467 1.053l.189.135c-.557-.406-1.109-.802-1.656-1.189a6.959 6.959 0 0 1-.361-.28c9.927 6.818 19.513 14.756 28.134 23.586 8.632 8.813 16.244 18.55 22.448 28.601.444.712.838 1.345 1.194 1.913.216.345.41.671.593.977a129.32 129.32 0 0 0 1.755 2.859c.29.484.562.928.841 1.384.48.783.981 1.601 1.634 2.721l.537 1.359c1.103 1.897 2.132 3.834 3.162 5.772l.201.377c2.229 4.442 3.828 8.444 5.443 12.774 1.607 4.339 3.192 9.025 5.068 15.014l-.358-1.582c.16.541.345 1.161.546 1.827l.587 2.136c.076.283.156.568.236.854.129.466.26.935.381 1.403l.201.806.348 1.404.157.635c.118.472.229.921.325 1.338.13.601.243 1.134.333 1.564.18.861.262 1.323.191 1.147.019.073.045.162.074.265.15.523.413 1.442.634 2.896l-.061.15c.065.318.132.635.199.953.123.585.246 1.171.358 1.757l.741 4.086.637 4.102c.43 3.846.363 3.961.301 4.066-.007.012-.014.023-.02.039-.038.081-.033.285.02 1.248.027.481.074 1.152.151 2.09l.135 1.62.132 2.088c.025.36.055.743.086 1.143.068.889.144 1.862.187 2.848l.127 2.134.051.856.01.171c.014.335.025.661.036.976.099 2.509.19 4.222.206 3.349-.025-1.878.006-4.8.064-4.942.039.929.059 1.858.079 2.788.01.49.02.981.034 1.472.043.123.086.311.129.496.091.394.18.778.259.51.061-.196.11-.745.149-1.9.019-.579.036-1.308.05-2.221.015-.65-.001-1.392-.02-2.239l-.022-1.083-.11-1.827-.154-1.824-.157-1.821-.08-.911-.102-.908-.086-2.357.279 3.066c.051.684.096 1.369.14 2.055l.066 1.017a84.357 84.357 0 0 0-.104-2.403c-.028-.564-.083-1.093-.135-1.601-.017-.155-.032-.308-.047-.459l-.142-1.247-.07-.621a49.618 49.618 0 0 0-.24-1.819c0-.59-.075-1.614-.215-3.061-.114-.767-.252-1.53-.389-2.293-.075-.416-.149-.832-.22-1.249a68.209 68.209 0 0 1-.111-.625 40.845 40.845 0 0 0-.209-1.142l-.358-1.761c-.017-.324.079.023.169.347.152.551.286 1.036-.183-1.967-.317-1.489-.274-.975-.231-.47.051.612.101 1.211-.491-1.781a89.953 89.953 0 0 1-.31-2.069c-.053-.375-.093-.664-.145-.965-.124-.685-.292-1.438-.78-3.433-.052-.494.107.044.39 1.199.052.224.104.44.156.649l-.156-.649-.14-.6c-.13-.56-.268-1.151-.421-1.755l-.819-3.228-.008-.031c-.199-.779-.415-1.524-.611-2.201-.072-.249-.142-.489-.207-.719-.251-.851-.46-1.552-.626-1.995-.229-.884-.568-2.063-.942-3.333-.147-.52-.321-1.048-.495-1.579l-.117-.357-.297-.906-.329-1.002c-.217-.69-.443-1.336-.643-1.909a46.36 46.36 0 0 1-.41-1.203c-.259-.781-.386-1.243-.297-1.178-.117-.304-.37-.913-.698-1.701-.251-.604-.546-1.313-.857-2.072-.3-.752-.642-1.542-.98-2.322l-.169-.391-1.097-2.566c.664 1.386.684 1.359.375.549-.225-.58-.65-1.545-1.147-2.672l-.617-1.406a114.24 114.24 0 0 0-.729-1.566c-.154-.329-.308-.656-.456-.975-.148-.313-.289-.621-.426-.917-.223-.483-.431-.936-.63-1.334-.623-1.291-.975-2.085-.725-1.756l-2.254-4.037-.378-.69-.325-.593-.564-.982-.21-.364c-.199-.341-.397-.691-.598-1.045a73.071 73.071 0 0 0-1.059-1.823c-2.298-3.933-5.032-8.123-7.389-11.401l.105.136c.179.232.424.548.663.881ZM171.041 34.054c.319-.046.519-.089.695-.13a7.368 7.368 0 0 1-.126.021l-.125.02-.516.05-1.557.146-.992.117-.453.053c.518-.044 1.176-.104 1.913-.171l1.161-.106Zm-15.326.988v.003h.002l2.225-.378-2.227.375Zm-13.314 2.901c1.986-.46 5.098-1.16 4.384-.957 1.337-.308 1.833-.454 1.353-.41-.735.15-1.449.324-2.14.492-.316.077-.627.153-.933.225-.373.092-.738.179-1.092.263-.556.132-1.084.257-1.572.387Z" clip-rule="evenodd"/><path fill="#202020" d="m336.837 110.846-.437-.647c.154.215.306.436.437.647ZM366.376 309l.003-.659-.168-1.131.416-5.81c-.093-4.038-.162-3.913-.217-3.814-.063.113-.108.194-.149-5.931l.013.693c.083-1.504.055-3.462.019-6.013-.039-2.748-.087-6.185-.019-10.485-.021 1.806.018 1.787.062 1.766.025-.012.051-.025.068.305l-.069-4.621c.008.416.019.62.039.171a64.38 64.38 0 0 0 .027-3.878c-.019-.963-.04-2.009.017-4.372.036 3.259.162 2.272.223.834l-.19-6.766.229 2.751c.006-2.401-.039-5.225-.083-8.009-.076-4.867-.15-9.611.049-11.751l.034 3.278c.052-.25.22-2.213.104-6.644-.021-1.072-.106-1.861-.14-1.304l.038-2.436c.132 1.411.182 8.01.22 13.095l.015 1.902c-.018-.465-.034-1.128-.051-1.806-.042-1.682-.087-3.462-.153-2.592l.11 7.46.088 5.977a72.103 72.103 0 0 0-.183-3.334l-.032-.434c-.046 2.872-.005 3.67.041 4.557.033.65.069 1.347.075 2.941l-.006.135c-.057 1.358-.095 2.249-.14 1.327.06 4.703.077 8.455-.003 13.443 0 0-.11-5.622-.196-2.531.045 4.55.112 7.29.181 10.105.07 2.854.141 5.784.194 10.754.098 4.42.097 8.736.07 12.827h-.536Z"/><path fill="#202020" d="M366.63 238.493c-.002-.432.004-.718.014-.883l-.014.883Z"/><defs><clipPath id="a"><path fill="#fff" d="M8 643h360v17H8z"/></clipPath><clipPath id="b"><path fill="#fff" d="M8 309h361.003v334H8z"/></clipPath></defs></svg>