<svg xmlns="http://www.w3.org/2000/svg" width="96" height="97" fill="none"><path fill="#202020" fill-rule="evenodd" d="M47.866 95.694c26.343 0 47.698-21.375 47.698-47.743C95.564 21.584 74.209.21 47.866.21S.168 21.584.168 47.951c0 26.368 21.355 47.743 47.698 47.743Zm0-5.025c23.57 0 42.679-19.125 42.679-42.718 0-23.592-19.108-42.718-42.679-42.718-23.57 0-42.678 19.126-42.678 42.718 0 23.593 19.108 42.718 42.678 42.718Z" clip-rule="evenodd" opacity=".25"/><ellipse cx="47.866" cy="47.951" fill="#fff" opacity=".1" rx="42.678" ry="42.718"/><path fill="#fff" d="M78.436 24.601a42.56 42.56 0 0 1 9.096 26.366 42.584 42.584 0 0 1-11.031 28.66C68.929 86.49 58.885 90.67 47.866 90.67a42.83 42.83 0 0 1-8.644-.876 42.163 42.163 0 0 1-8.259-2.743c-4.218-1.903-2.5-7.112 2.126-7.115 4.963-.002 10.771-.005 17.507-.075 24.702-.255 22.472-21.243 20.791-37.051-.718-6.762-1.336-12.577.298-15.415 1.607-2.791 4.114-3.47 6.75-2.793Z" opacity=".15"/><path fill="#fff" d="M11.055 40.516c.224-4.864 2.056-8.816 4.22-11.756 3.187-4.331 8.086-4.547 7.78.826-.364 6.376-1.819 5.465-4.91 12.388-3.09 6.922-.908 8.744-4.363 12.387-3.454 3.644-3.272-2.004-2.727-13.845Z" opacity=".8"/><g fill="#202020" opacity=".35"><path d="m88.88 71.966-.094.167c.043-.089.078-.156.078-.156l.017-.011Z"/><path fill-rule="evenodd" d="M92.23 65.317c-.177.426-.288.655-.399.883-.058.119-.116.238-.183.385.043.088-.149.599-.34 1.11-.097.257-.193.513-.26.717-.27.449-.2.213-.126-.04.058-.198.119-.405.025-.308.05-.002-.092.376-.232.718-.15.337-.286.644-.18.521-.114.178-.187.297-.24.384-.127.206-.142.23-.317.428.04.107-.069.308-.212.574-.09.169-.195.364-.284.577-.25.373-.329.452-.382.505-.068.069-.093.094-.39.656-.22.32-.04-.06.076-.294-.28.5-.234.504-.185.51.026.002.053.005.03.084-.454.749-.494.742-.541.734-.027-.004-.056-.009-.163.122-.194.326-.356.625-.506.905l-.058.107a9.962 9.962 0 0 1-.534.838.414.414 0 0 0-.038.032c-.035.032-.063.058-.015-.037-.114.196-.267.432-.443.688l-.276.398-.267.344-.047.06c-.426.544-.851 1.111-1.149 1.551a1.562 1.562 0 0 1-.094.078l-.016.01a.156.156 0 0 0 .016-.01c.141-.085.196-.07.202-.02-.12.138-.228.276-.325.4-.176.224-.317.404-.434.47.154-.176.192-.243.234-.316.015-.026.031-.053.053-.086l-.332.429c-.216.166-.057-.025.121-.24.147-.175.306-.366.28-.388a749.044 749.044 0 0 0-1.022 1.28 18.43 18.43 0 0 1-.987 1.068c-.092.027.216-.309.457-.57.25-.272.426-.465.016-.099l.066-.065.112-.11c.089-.088.178-.175.266-.265l.423-.458c-.364.304-.248.172-.119.025.133-.151.28-.32-.073-.038l-.366.413-.31.327-.34.371-.155.17c-.155.168-.31.336-.494.54l-.03.032-.053.056c-.07.075-.144.155-.23.234l-.24.224-.164.152c-.114.147-.078.14-.042.133.036-.007.072-.013-.044.133-.404.419-.702.697-.935.897a5.093 5.093 0 0 1-.582.412l-.04.025c-.31.196-.575.364-1.155.948-.06.065-.11.125-.16.185-.202.243-.401.482-1.204 1.047l.26-.343c-.483.374-.685.564-.833.703-.045.041-.084.078-.125.114-.174.163-.36.325-1.061.776.127-.121.45-.36.652-.51.142-.105.226-.167.142-.114-.537.32-.649.434-.778.567-.095.097-.199.203-.486.406-.064.007-.13.013-.196.016l-1.083.717c-.108.071-.215.144-.324.217-.261.177-.527.357-.806.518-.174.104-.35.21-.525.317-.612.373-1.233.752-1.887 1.076a.39.39 0 0 1 .016-.014l.054-.044c.095-.074.192-.15-.123-.015l-.43.228c-.12.064-.243.128-.365.194l-.139.071-.147.077-.12.063-.423.192c-.565.254-1.139.511-1.712.757l-.657.245-1.083.405c-.058.02-.115.042-.172.064h-.001c-.085.031-.17.063-.254.092l-.427.133-.833.258-.798.36c-.192.063-.372.068-.165-.005-.482.118-.434.124-.368.132.052.006.115.014-.063.08-.465.138-.642.135-.388.036-1.479.558-4.287 1.205-5.92 1.382l.313-.081c-.094.013-.182.029-.265.043l-.163.028a8.06 8.06 0 0 0-.35.059c-.211.04-.386.083-.557.123a6.652 6.652 0 0 1-1.277.193l.227-.045-.032.003c-1.384.12-2.84.245-4.22.255l-.322.007c-.237.006-.471.012-.702.013l-.744-.028-.233-.008a71.202 71.202 0 0 1-.915-.046l-.431-.028a4.32 4.32 0 0 1-.277-.032 8.412 8.412 0 0 0-.13-.017c-.19.04-.783-.011-1.39-.064l-.166-.015-.482-.04-.194-.02c-.08-.01-.157-.019-.228-.025-.252-.023-.435-.026-.484.011-.586-.105-.89-.168-1.154-.222a40.319 40.319 0 0 0-.27-.055l-.167-.038c-.336-.078-.79-.182-1.726-.372-.258-.045-.461-.066-.67-.087a8.86 8.86 0 0 1-.954-.136v-.09l-1.002-.136a6.472 6.472 0 0 1-.422-.203l-.07-.036-.675-.168c.264.08.556.198.51.211a21.331 21.331 0 0 1-1.665-.494c-.498-.183-.86-.353-.865-.376l-1.23-.376a7.088 7.088 0 0 1-.467-.157h-.002l-.138-.05-.606-.219c.049-.008.28.068.527.15l.269.088c-.668-.214-.705-.256-.741-.297-.035-.039-.07-.077-.655-.265.103.056.012.041-.064.03-.033-.006-.064-.01-.074-.009-.283-.132-.748-.351-1.26-.593l-.467-.21-.327-.148-.003-.002-.392-.171c-.074-.033-.146-.068-.216-.103a7.668 7.668 0 0 0-.155-.075l.208.038a5249.47 5249.47 0 0 0-1.562-.799c-.137-.069-.276-.138-.413-.212a170.925 170.925 0 0 1-1.168-.658c-.287-.16-.577-.323-.865-.493l-.718-.456-.628-.399c.63.437.425.432-.11.1l-.16-.213c-.167-.076-.079-.008.005.056.103.08.197.153-.213-.063-.652-.464-.38-.396.01-.156l-.811-.534c-.017-.032.037-.007.1.021.048.022.102.046.132.049-.175-.093-.495-.342-.835-.606-.354-.276-.728-.567-.982-.716l-.026-.056-.575-.448-.012-.009-.526-.41a25.12 25.12 0 0 1-.555-.464l-.33-.28-.32-.269-.508-.429c-.192-.166-.383-.347-.587-.542a45.724 45.724 0 0 0-.284-.268c-.047.02-.236-.141-.47-.342-.16-.136-.341-.291-.513-.418l-.826-.913-.533-.588-.042-.046-.047-.052-.09-.1a29.982 29.982 0 0 1-.078-.093c-.03-.038-.063-.077-.095-.115l-.071-.085-.28-.336c-.24-.283-.484-.57-.738-.86a52.302 52.302 0 0 0-.224-.238 5.327 5.327 0 0 0-.128-.14c-.061-.063-.081-.074-.09-.07-.003.001-.005.005-.006.009-.007.015-.015.032-.151-.11.003-.051-.204-.342-.371-.576-.19-.267-.329-.46-.044-.143l-.108-.136a78.254 78.254 0 0 0-.29-.363 8.186 8.186 0 0 1-.335-.436l-.578-.793-.334-.451-.001-.002a340.32 340.32 0 0 0-.304-.41l-.456-.674-.364-.538c.031.064.065.13.095.188.078.152.133.259.06.18-.24-.352-.497-.832-.434-.8l.067.09c-.735-1.091-1.446-2.436-2.044-3.756-.21-.421-.39-.847-.564-1.258a35.501 35.501 0 0 0-.672-1.509c-.101-.24-.2-.467-.3-.677l-.428-.98-.078-.177a13.923 13.923 0 0 1-.138-.322l-.194-.508c-.15-.467-.095-.342-.021-.179.076.168.17.377.071.014a39.635 39.635 0 0 1-.559-1.494 55.137 55.137 0 0 1-.372-1.32l-.06-.222-.11-.402-.086-.31-.073-.316a32.515 32.515 0 0 0-.333-1.32 7.594 7.594 0 0 0-.089-.655c-.032-.249-.07-.525-.117-.82a50.154 50.154 0 0 0-.16-.932l-.027-.142-.065-.354c-.021-.107-.035-.216-.05-.325-.007-.061-.015-.123-.025-.185l-.087-.641a52.575 52.575 0 0 1-.183-1.406 28.794 28.794 0 0 1-.089-1.776l-.041.119c-.062-.36-.05-.524-.034-.72.006-.085.014-.177.015-.292-.016.024-.025.133-.031.222-.01.119-.016.205-.036.022L.625 48.83l-.011-.42c-.005-.14-.009-.28-.002-.42l.012-.423.011-.422a173.557 173.557 0 0 1 .033-1.02c.007-.226.014-.453.039-.679v-.003l.15-1.702.04-.427.06-.425.243-1.697.03-.212.04-.21.082-.42.326-1.676.245-1.007.156-.642c.183-.803.204-1.04.227-1.33.029-.29.085-.632.428-1.617l-.071.596.053-.212c.032-.132.065-.264.101-.395l.189-.6.39-1.204c.087-.284.197-.562.307-.839l.137-.351v-.001l.468-1.18c.104-.253.218-.501.332-.749.062-.136.125-.272.186-.41.075-.163.148-.327.222-.49.098-.22.197-.44.299-.657l.187-.374.372-.743.183-.375.089-.181.134-.277c.033-.067.069-.132.104-.197l.04-.074c-.026.063-.042.106-.057.147a2.47 2.47 0 0 1-.147.332c.025-.038.052-.082.08-.13l.08-.133c.06-.092.12-.196.185-.304l.013-.022c.137-.234.283-.493.413-.736.264-.485.47-.907.45-.926.157-.238.171-.232.188-.224.013.006.027.012.112-.097.197-.272.407-.635.6-.969l.017-.029c.196-.341.373-.647.513-.774.033-.032-.03.068-.093.167l-.01.017a2.942 2.942 0 0 0-.058.093c.016-.026.036-.06.058-.093.106-.164.277-.408.443-.644.308-.438.596-.847.406-.663.25-.344.502-.67.745-.986l.315-.41.495-.64c.081-.104.162-.204.242-.3.084-.095.168-.186.254-.275.165-.253.487-.614.786-.95l.054-.06c.148-.164.283-.323.394-.453l.021-.025c.116-.131.195-.235.206-.293.029.116.878-.78 1.533-1.47.22-.232.417-.441.554-.58-.074.096.032.009.148-.087.134-.11.283-.233.186-.1.201-.199.4-.39.574-.554.366-.349.612-.583.5-.551.426-.3.817-.64 1.192-.966.215-.187.425-.369.632-.536.28-.236.543-.456.787-.643.123-.094.242-.179.355-.255.116-.072.23-.13.338-.177l1.55-1.159.962-.646h.001l.593-.398.147-.098c.078-.053.157-.106.238-.157l.196-.118.197-.117a171.959 171.959 0 0 0 .78-.466l.772-.459.515-.273.274-.144c-.005.038-.152.133-.368.253-.107.06-.233.127-.366.197-.084.046-.17.097-.255.147l-.149.087c-.545.318-1.069.623-.99.658.48-.29.904-.555 1.305-.805a61.538 61.538 0 0 1 1.18-.664l.306-.17.277-.152.142-.077.157-.084.163-.078.15-.071c.425-.2.88-.406 1.39-.627.378-.158.077.003-.188.145a8.488 8.488 0 0 0-.256.14l.754-.357c.173-.081.35-.15.526-.22.078-.03.155-.061.232-.093l.862-.34.629-.248 1.06-.364.412-.14c.242-.087.48-.171.72-.255l.717-.227c-.262.019.473-.25 1.027-.452.24-.088.447-.164.523-.197-.226.124.163.049.558-.028.47-.09.947-.183.42.053.25-.068.56-.168.494-.194.378-.076.501-.08.13.052l1.105-.295a9.637 9.637 0 0 1 1.022-.217c0 .016-.078.04-.167.068a1.894 1.894 0 0 0-.208.073c.313-.084.628-.168.997-.251l.13-.028.159-.035.148-.022.168-.025c.22-.03.462-.06.731-.089-.019.008-.02.014-.022.02-.004.01-.007.02-.16.042l-.072.01a45.478 45.478 0 0 0 1.6-.239l.304-.034.605-.069c.405-.046.816-.088 1.252-.128a6.93 6.93 0 0 1 .639-.031h.039c.235-.005.478-.008.732-.008-.32.075-.095.076.199.077.252 0 .554.002.604.05l.181-.01c.122-.007.243-.014.366-.016h.546L48.207.7c.424.012.826.007 1.214.003l.153-.001.237-.002c.35-.002.692-.005 1.028.044l-.357-.005-.357.013c.281-.002.56.017.841.036l.056.004.897.058-1.012-.117c.45.009.463-.021.474-.043.012-.026.019-.041.705.027-.075-.001-.026.003.093.014.293.026 1.01.089 1.356.193h-.002c.474.026.965.053 1.668.168.098.031.037.058-.017.082-.044.02-.084.037-.032.053.205-.012.642.06 1.123.14l.24.04c.558.094 1.135.177 1.436.21-.182-.018-.2.033-.14.058l.397.017c.43.123.49.148.41.176.633.152.557.102.491.058-.069-.046-.127-.084.658.127-.05-.009-.07-.01-.095-.012-.034-.003-.077-.006-.228-.033.076.02.153.038.229.056.116.028.232.055.346.088l.563.159 1.104.3.198.053c.115.03.23.062.346.095l.213.07.316.105c.352.117.7.237 1.043.363.194.124-.142.016-.449-.083-.284-.091-.543-.175-.332-.057 2.014.616 4.136 1.419 5.969 2.325l-.335-.183c.16-.006.49.185.9.427.204.121.43.254.66.383.168.095.342.181.512.266l.08.04.075.038c-.196-.094-.285-.066-.221-.051.602.356 1.224.706 1.931 1.09.224.128.452.267.69.412.134.081.27.164.412.248l.608.368.322.194c.08.051.16.106.241.16l.084.057-.236-.12a44.673 44.673 0 0 0 1.452 1.065c.144.103.288.204.42.31l.18.145.003.002.392.316c.08.046.178.113.266.172.167.114.291.2.155.045.19.177.384.346.575.514l.188.164c.246.228.493.45.74.665.248.216.497.426.745.633l.186.155.177.161.355.322.316.285.386.35.12.108.002.003c.19.173.38.346.554.534.429.446.844.9 1.23 1.37-.202-.21-.504-.478-.345-.31l.365.368c.073.076.144.154.214.233l.135.15.693.771c-.036-.103-.084-.168-.175-.288-.055-.074-.127-.169-.22-.306.201.173.61.597.947.986-.323-.34-.342-.32-.25-.176.04.064.103.153.17.247.083.118.171.243.23.34-.014-.037.01-.025.034-.013.02.01.04.019.038 0 .275.44.338.476.419.522.09.052.203.116.652.753l-.075-.04.074.088.192.225.207.262.044.057c.168.214.337.436.507.682.044.133-.069-.013-.193-.174-.105-.137-.219-.283-.252-.28.176.246.367.479.556.708.334.405.659.8.872 1.243a17.071 17.071 0 0 1-.349-.504c-.095-.145-.202-.282-.298-.402l-.026-.034-.044-.056.42.74c.058.1.114.19.18.296.046.071.095.15.153.245l.25.416c.16.264.32.528.472.797a4.837 4.837 0 0 0-.156-.298l-.013-.022c.183.186.326.4.473.62l.014.02c.148.229.29.469.435.72l.456.788c.138.258.289.524.462.8-.407-.642-.366-.54-.298-.374.043.107.098.242.05.221l.088.2c.13.299.264.608.189.505.181.281.302.532.427.818.12.289.258.608.498 1.015a1.18 1.18 0 0 0 .083.224c.075.179.162.387.083.319.228.47.167.3.096.1-.047-.13-.099-.275-.074-.254.27.472.48 1.054.708 1.686l.166.456.122.333.03.084.074.2.137.419.075.228c.147.436.31.88.496 1.327.062.153.11.298.154.432a23.516 23.516 0 0 0 .185.544l.169.466.348.962c.08.259.16.555.26.925l.001.007c.075.519-.194-.391-.194-.391a21.324 21.324 0 0 0 .334 1.548c.054.212.109.43.155.662-.05-.15-.043.01-.032.246v.012c.051.263.09.375.126.48.05.143.095.272.157.751l-.033-.078c-.053-.126-.12-.285-.19-.526.07.318.142.633.216.951v.001l.032.141.016.09c.061.34.123.683.179 1.035-.016.148-.075-.14-.132-.416-.023-.114-.046-.227-.066-.304.13.858.338 2.227.413 2.49l-.012-.412a.89.89 0 0 0-.004-.148l.004.148c-.01.096-.062-.032-.093-.21-.154-.732-.109-1.07-.087-1.115l.087.546c.046-.29-.031-.842-.136-1.457-.03-.211-.08-.427-.131-.643l-.068-.297c-.07-.313-.134-.617-.181-.892l.199.436-.298-1.104c-.004-.123-.006-.228.016-.235.021-.007.067.082.121.35-.01-.1-.02-.185-.031-.26a4.243 4.243 0 0 0-.108-.447l-.01-.031a3.488 3.488 0 0 1-.128-.628c-.007-.075.005-.044.027.023l-.21-.753c.021.052.034.047.046.042.02-.01.04-.017.097.284a9.868 9.868 0 0 0-.205-.932c-.08-.27-.16-.51-.23-.725l-.028-.084c-.13-.397-.232-.703-.258-.954l.038.11-.057-.186c-.045-.145-.081-.262-.116-.357a9.076 9.076 0 0 0-.113-.283c-.053-.122-.069-.126-.08-.115a.045.045 0 0 0-.003.004l-.002.001c-.022.025-.049.056-.313-.573l-.111-1-.143-.152-.016-.044-.018-.05c-.07-.195-.166-.458-.115-.41-.179-.364-.16-.297-.14-.218.017.067.037.142-.06-.034-.07-.232-.17-.502-.276-.78l-.044-.11-.121-.31a5.885 5.885 0 0 0-.172-.408c-.237-.52-.429-.959-.412-1.086-.094-.134-.028.044.022.18.058.155.095.254-.155-.237.007-.164-.121-.434-.289-.766l-.119-.214a8.644 8.644 0 0 1-.46-.902c.08.087.19.274.262.399.1.17.131.225-.066-.247-.18-.208-.37-.593-.56-1.01a6.76 6.76 0 0 0-.221-.451v-.001c-.03-.055-.057-.11-.085-.163a9.01 9.01 0 0 0-.305-.546c-.054.01-.264-.335-.545-.816l-.108-.186a14.066 14.066 0 0 0-.053-.082l-.07-.11-.116-.18-.142-.221c-.176-.273-.36-.552-.535-.81.09.036-1.266-1.985-1.962-2.921l.036.017c-.111-.057-.349-.324-.628-.662a68.23 68.23 0 0 0-.44-.54c-.105-.132-.219-.258-.328-.378l-.13-.145c.068-.013.196.086.52.432-.113-.14-.23-.274-.349-.41a27.544 27.544 0 0 1-.187-.215c-.153-.124-.335-.307-.692-.701l.194.104c-.18-.206-.365-.41-.556-.614l-.614-.606a35.62 35.62 0 0 1-.94-.967l-.042-.044c-.118-.117-.24-.238-.363-.364-.033 0 .018.088.071.18.12.204.25.429-.515-.253-.012-.066-.005-.153.288.103l-.08-.07c-.121-.101-.309-.26-.445-.409l.476.362c-.24-.251-.303-.287-.368-.323-.055-.03-.111-.063-.278-.226.023-.018-.042-.094-.1-.161-.056-.064-.105-.121-.064-.112.038.032.09.086.15.147.099.102.217.223.316.297-.207-.203-.43-.431-.62-.633a9.639 9.639 0 0 0-.228-.238c-.09-.09-.162-.164-.201-.217.017.057-.05.057-.376-.215-.477-.41-.485-.446-.494-.487-.006-.03-.013-.062-.21-.25-.06-.037-.138-.1-.222-.17a4.42 4.42 0 0 0-.24-.188c-.17-.125-.317-.228-.351-.201a1.515 1.515 0 0 1-.302-.293 1.334 1.334 0 0 0-.056-.067 14.41 14.41 0 0 1-.518-.383c-.073-.054-.147-.112-.223-.17a6.547 6.547 0 0 0-.43-.314c-.422-.29-.726-.485-.491-.263l.114.088-.077-.05a31.9 31.9 0 0 1-1.169-.794c-.212-.146-.429-.288-.646-.43a146.716 146.716 0 0 1-1.002-.666l-.149-.1a12.69 12.69 0 0 1-.1-.067c-.066-.044-.133-.089-.2-.13l-.308-.184c-.41-.241-.817-.477-1.22-.698l.016-.023c-.325-.185-.686-.362-1.045-.537-.17-.083-.338-.166-.502-.25l-.258-.125c-.415-.204-.794-.39-1.106-.493-.296-.134-.676-.363-.536-.336l-.083-.034-.78-.324a19.04 19.04 0 0 0-.49-.214c-.169-.071-.37-.157-.624-.268.42.138.332.092.305.077l-.006-.003.055.022c.065.027.2.082.466.188-.266-.11-.476-.202-.662-.283-.522-.226-.855-.371-1.683-.624.403.06-.75-.35-1.25-.496l.709.294c-.514-.163-.964-.32-1.416-.479l-.114-.04h.295c-.228-.096-.46-.165-.687-.233l-.091-.028a23.531 23.531 0 0 0-.969-.264c-.418-.108-.821-.211-1.222-.276a32.744 32.744 0 0 1-1.343-.272 13.61 13.61 0 0 1-.369-.09l-.27-.067c-.21-.048-.418-.101-.624-.163-.292-.018-.013.043.284.11.31.068.642.142.368.133-.607-.115-1.223-.28-1.687-.403-.308-.082-.549-.146-.677-.167a7.98 7.98 0 0 0-1.369-.128c-.17-.003-.342-.006-.562-.022a8.23 8.23 0 0 1-.373-.036L52.498.48c.186.05.354.152-.745.1C50.73.49 50.5.344 51.152.366c.246.015.365.035.353.045l.032.002c.328.012.725.028.334-.037l-.136.024c-.194-.028-.523-.061-.835-.092l-.275-.028-.23-.019c-.244-.02-.38-.03-.249-.051-.68.011-.43.039.027.067A41.002 41.002 0 0 0 48.41.217a9.65 9.65 0 0 0-.526-.005c-.282.006-.584.01-.924.011.217.013.416.049.202.053-1 .004-1.218.026-1.357.053l-.06.013a8.288 8.288 0 0 1-.808.103c-.332.003-.328-.024-.325-.043.004-.025.006-.038-.764.046-.833.028-.184-.076.145-.129-.31.04-.608.067-.895.09a26.485 26.485 0 0 1-1.39.13c-.276.022-.525.041-.739.064l.512-.087a9.58 9.58 0 0 0 .135-.023l-.135.023c-.169.028-.325.05-.477.07-.142.019-.28.038-.418.06.09-.002.18.003.271.009l.11.006-.165.016-.107.01-.125.02-.098.014c-.128.017-.208.024-.206.01-.161.047-.131.065-.099.084.045.027.095.057-.348.171-.2.023-.478.075-.754.127l-.224.042c-.17.031-.332.06-.462.076-.13.021-.228.033-.275.02.066-.015.125-.027.18-.038l.077-.017.073-.012.118-.02c.105-.02.171-.033.21-.045.077-.021.046-.028.006-.035l-.006-.001c-.063-.012-.134-.024.171-.092.113-.02.218-.042.314-.063-.133.025-.236.046-.314.063-.19.035-.403.07-.642.108-.058.003.049-.031.152-.053-.804.136-.947.2-1.13.282-.165.073-.362.161-1.1.329.094-.048-.002-.05-.154-.032-.15.02-.353.073-.477.112.62-.175.317-.002-.24.195-.62.15-.88.242-1.111.324-.142.05-.272.096-.468.15l.594-.15a2.992 2.992 0 0 1-.494.185c-.178.059-.391.136-.634.223l-.218.079c-.023-.006.03-.032.103-.062l.064-.025.125-.047c.105-.038.172-.063.065-.035a3.758 3.758 0 0 1-.254.107c-.302.117-.643.212-1.006.313l-.22.061c-.166.046-.338.093-.507.156a9.437 9.437 0 0 0-.748.303c-.253.08-.266.06-.278.04-.012-.019-.023-.036-.23.033-.282.129-.504.22-.694.293a8.002 8.002 0 0 0-.285.112c-.076.03-.149.06-.223.088l-.026.01c-.312.121-.64.248-1.207.533l.11-.028c.09-.023.146-.038.149-.03.005.011-.11.074-.403.231l-.24.13 1.93-.924-1.21.656c.293-.133.6-.282.877-.418l.167-.08.222-.108c.102-.05.197-.085.28-.115l.04-.015c-.294.141-.421.218-.441.237-.015.014.026.003.104-.017.032-.009.072-.02.116-.03-.422.134-.814.327-1.22.531l-.144.072a19.987 19.987 0 0 1-.81.388c-.111.055-.224.106-.341.156l-.048-.166c-.35.159-.675.32-.992.488a161.267 161.267 0 0 1-.626.338l-.085.048-.145.088-.039.024-.051.032-.004.002c-.313.195-.638.397-.993.61-.137.084-.28.167-.428.253-.236.137-.484.282-.743.447.068-.038.135-.077.202-.117.117-.069.234-.138.356-.198-.114.11-.442.316-.8.541-.261.164-.539.34-.762.494.015-.061-.193.045-.404.152l-.178.09c.02.005-.153.132-.378.297-.357.262-.847.621-.897.741-.085.052-.17.102-.257.152-.171.1-.343.2-.506.313a13.56 13.56 0 0 0-1.48 1.279c-.271.264-.567.552-1.05.966.126-.141.111-.156.097-.17-.02-.02-.038-.038.413-.463l-.198.17c-.305.262-.548.47-.531.498-.125.088-.388.33-.657.6-.263.274-.544.56-.734.704-.039.046-.068.087-.098.13-.08.112-.169.239-.474.524-.032.02-.033.01-.029-.002.008-.01.012-.017.01-.02l-.01.02a2.084 2.084 0 0 1-.1.114c-.046.052-.1.112-.145.165-.103.128-.158.212.039.052-.923.752-2.146 2.182-3.092 3.289-.325.379-.616.72-.852.982l-.497.652-.036.047c-.111.15-.218.306-.325.462-.066.095-.131.191-.198.285l-.183.263c-.11.16-.22.317-.327.469-.059.087-.118.171-.177.254-.102.144-.201.283-.285.422.007-.019.007-.028.008-.036.002-.019.002-.029.08-.141-.393.567-.483.774-.577.992-.099.228-.203.469-.662 1.144-.244.33-.148.14-.028-.08.048-.086.102-.174.14-.238.062-.1.086-.14-.008-.016-.142.038-.359.436-.627.928l-.033.06c-.277.522-.619 1.13-.9 1.591l.11-.237c-.349.577-.715 1.416-1.133 2.373l-.294.672s.011-.066-.023-.018c-.073.22-.172.484-.286.775a7.432 7.432 0 0 0-.157.426l-.012.036a46.14 46.14 0 0 0-.175.494l-.37 1.02c-.022.061-.045.123-.069.184-.04.106-.079.21-.111.314-.04.123-.077.243-.114.36l-.038.12c.021-.144.047-.257.064-.335.032-.14.036-.16-.06-.026-.073.229-.057.248-.038.27.027.03.058.066-.148.711l-.147.34c-.156.364-.345.805-.414.87.045-.172.101-.338.158-.506l.006-.016.173-.519c-.136.25-.256.585-.35.929l-.075.31c-.058.239-.114.47-.175.662l-.023-.083c-.251.887-.322 1.305-.404 1.79-.067.4-.143.846-.332 1.635l.074-.174c-.063.489-.099.691-.157.889l-.008.026c-.052.19-.107.393-.151.861l-.163.273-.028.207-.058.436c-.022.262-.047.562-.075.877l-.05.583-.035.39-.01.097c-.028.29-.056.573-.066.835-.024-.288.006-.706.04-1.156l.014-.208.034-.442c.03-.382.058-.754.086-1.059-.091.639-.272 2.175-.26 2.514l.014-.19c.016-.218.033-.455.07-.649-.009.216-.016.45-.024.702-.022.674-.047 1.477-.124 2.406-.113-.12-.152.715-.182 1.696-.009.246-.017.5-.024.75-.01.152-.007.303-.005.449.002.095.003.19.002.28 0 .463-.012.862-.049 1.096l.043.81.003.042.039.463.032.389.028.382.034.477a44.008 44.008 0 0 1 .028.434c.009.146.018.292.036.437l.073.647c.042.377.084.759.129 1.148l.02.165c.01.1.022.2.036.3a39.812 39.812 0 0 1 .08.468l.172.962c.001-.479.036-.287.09 0 .052.285.123.664.194.568.039.216.079.382.109.51.012.052.023.097.031.137.032.138.045.21.045.239.035.198.068.396.102.595.072.416.143.832.221 1.248.037.22-.014.081-.073-.106l-.016-.06c-.047-.174-.098-.36-.11-.331a43.546 43.546 0 0 1 .086.405l.037.16.022.092c.027.127.033.184.034.229v.031c-.002.07-.004.145.083.527.01-.193.215.429.404 1.178l-.22-1.068c.15.45.245.772.313 1.036l.058.222c.043.16.08.299.112.439.096.4.194.804.543 1.692l-.246-.553c.155.46.495 1.288.834 2.115l.008.018.147.353.11.264.136.276.142.289c.179.354.343.659.473.862.053.165.105.394-.086.007.89 1.968 2.267 4.182 3.226 5.724l.234.376-.132-.126c.084.123.166.232.249.34l.115.153c.01.016.021.031.033.047.01.015.02.03.032.045.1.14.208.29.324.481a.226.226 0 0 1-.035-.022c-.037-.027-.072-.053.013.07l.015.018c.168.207.728.897 1.033 1.366l-.325-.374c.312.479.63.87.924 1.23.295.36.572.685.843.998.169.184.34.361.512.54.114.117.228.235.342.356.148.152.295.311.447.476.147.16.299.324.461.493-.048.04.23.391.596.817.183.213.387.443.585.662.134.154.274.293.4.417l.156.156-.036-.009.06.058c.458.438.883.845 1.303 1.218.45.378.882.73 1.31 1.08.302.255.62.487.941.72l.001.001c.127.093.254.185.381.28.142.102.282.207.425.313.317.235.642.477.998.709.29.248.698.563 1.174.917.164.127.346.246.534.368l.249.164.334.217a228.744 228.744 0 0 0 .976.633c.095.059.193.115.29.171l.175.102.017.01.915.532c.423.259.85.488 1.253.704.174.094.344.185.506.274-.323-.191.1-.06.492.127a6.777 6.777 0 0 0 .745.353l.163.066c.29.12.5.216.434.249l-.186-.086c.351.274 1.433.765 2.301 1.085l.198-.084c.542.27 1.178.561 1.87.785.344.119.696.238 1.05.353l.083.027.109.036c.112.037.224.073.336.106l.529.142c.349.092.69.184 1.014.271l.141.039c.113.03.224.06.333.091l.07.02.156.043.112.026.108.025c.574.136 1.049.263 1.36.386.145.023.297.052.453.082.156.031.316.063.478.084.322.049.644.096.933.129l-.046.074.392.075h.003l.678.13c.149.03.294.05.44.069l.166.022.361.048c.325.042.66.085 1.04.132l.605.073.697.047-.412.027c.564.046.923.014 1.27-.019l.02-.002c.168-.016.333-.032.517-.04.096-.005.197-.006.306-.005h.109c.079-.002.16-.003.249 0l.307.129c.491.011.985.03 1.477.051l.37.016.371-.003.74-.007.294-.005c.395-.005.79-.011 1.182-.035.49-.043.976-.093 1.458-.157h-.001c-.03.02-.087.059-.401.088.891-.022 3.37-.29 3.243-.413.05.01.163.005.32-.011.165-.016.376-.058.613-.106l.092-.018.094-.019c.312-.064.655-.139.984-.211.107-.025.212-.048.314-.07.215-.047.416-.092.588-.145l-.145.116.385-.137c.512-.184.701-.252 1.697-.505.146-.027.212-.03.195-.013-.018.02-.12.05-.314.086a3.61 3.61 0 0 0 .54-.131c.126-.04.222-.077.32-.114l.009-.003a7.504 7.504 0 0 1 1.016-.305l-.415.17c.489-.135.712-.204.878-.266.122-.043.212-.085.351-.152l.177-.083c.592-.236 1.828-.592 1.993-.58.113-.092.608-.35 1.17-.55.085-.004-.111.092-.21.14.4-.144.744-.278 1.053-.405.22-.097.42-.196.61-.29l.215-.106a18.86 18.86 0 0 1 1.497-.682c.033.013.107-.01.196-.047-.227.121-.454.223-.665.317a35.171 35.171 0 0 1-.192.086l-.695.312a24.71 24.71 0 0 1-.57.25l-.001-.002c-.008.005-.008.005 0 .002.017.021.158-.022.294-.064.235-.073.456-.14-.017.142.129-.067.272-.144.425-.226.312-.167.669-.357 1.035-.547l.208-.116c.473-.264.95-.53 1.37-.725a.967.967 0 0 1 .137-.042l-.094.057c.221-.105.415-.21.59-.318l.106-.056c.243-.128.42-.221.668-.363.07-.004.345-.154.663-.334l.486-.282c.099-.057.19-.117.273-.171l.144-.092c-.034-.018.053-.095.121-.155.093-.081.152-.133-.173.032a.083.083 0 0 0-.018.009l.018-.01c.006.001-.144.105-.403.269-.07.042-.152.091-.196.122l.028-.024-1.167.677a8.13 8.13 0 0 1 1.266-.761c.115-.098.233-.206.337-.302a7.71 7.71 0 0 1 .235-.211c.334-.148.799-.396 1.212-.616l.032-.017.042-.023.075-.04c.064-.034.125-.066.183-.1.093-.055.177-.105.253-.147.152-.088.265-.146.315-.162l.692-.512.375-.278.097-.07c.06-.045.122-.09.18-.137l.271-.219.002-.001.53-.433c.347-.288.679-.562.963-.816.277-.266.513-.508.686-.706.252-.237.37-.3.473-.354.038-.02.074-.04.113-.065-.075.073-.158.148-.237.22-.126.116-.242.222-.302.292.172-.162.39-.358.62-.563l.351-.315.334-.329c.432-.428.792-.8.837-.914.439-.385.345-.265.276-.176l-.003.004c-.034.045-.06.078-.004.03l.015-.015c.064-.058.205-.187.457-.463l-.129.181a27.613 27.613 0 0 0 1.558-1.59c.403-.484.778-.959 1.155-1.436l.118-.15c.099-.12.189-.246.28-.373l.024-.035.303-.417c.205-.28.418-.566.642-.857.15-.187.294-.384.442-.588v-.001a33.655 33.655 0 0 1 .866-1.139.767.767 0 0 1-.116.124l.124-.166c.11-.148.221-.297.328-.448l.422-.64.17-.262c.224-.344.448-.69.667-1.039l.3-.524.47-.828c.047-.085.096-.17.144-.254.08-.141.162-.282.237-.426l.35-.697c.093-.187.187-.372.281-.558.141-.277.282-.555.417-.834.213-.472.427-.942.64-1.41.039-.087.08-.174.12-.26.068-.146.136-.292.199-.44l.292-.707c.19-.457.385-.91.579-1.358l.014-.034c.288-.778.352-1.063.433-1.42.03-.133.063-.276.11-.457l.161-.208c.056-.248.105-.498.153-.748l.082-.418c.097-.408.207-.783.328-1.15l.134-.46.001-.004.188-.644c.11-.377.222-.767.326-1.196.092-.431.162-.903.223-1.433l-.105.26c.035-.187.078-.43.123-.687.021-.129.044-.26.067-.39.024-.13.044-.259.057-.382.06-.489.114-.867.139-.8l-.002-.054a1.638 1.638 0 0 1 .04-.495l.048-.017.03-.349c.016-.195.034-.39.045-.587l.033-.939c.065-.653.104-.667.144-.682l.012-.005c.022-.012.045-.044.073-.207.026-.163.072-.455.079-.986.003-.794-.075-2.252-.113-1.955-.01.318-.049.813-.094.836l-.006-.72c-.02-.021-.04-.051-.06-.082-.109-.165-.215-.327-.33 1.155l.05 1.226-.095.388c.03-.324.035-.65.04-.976l.001-.051c-.034.25-.039.462-.043.655l-.002.09c-.005.163-.002.314.001.467l.003.155a2.105 2.105 0 0 0-.11.506l.034 1.208c-.024.049-.035-.003-.047-.057a.475.475 0 0 0-.017-.064c-.022-.055-.033-.025-.102.372-.006.26.032.17.068.089.042-.097.08-.186.038.317-.043.184-.075.29-.1.374-.053.176-.073.244-.097.712-.045.088-.05-.045-.033-.299-.021.301-.057.691-.11 1.042-.056.363-.102.69-.095.852-.077.25-.15.653-.219 1.03l-.036.198c-.088.423-.181.758-.234.717-.015.193-.146 1.07-.268 1.62.028-.373-.017-.212-.113.127-.037.133-.083.294-.134.46l-.003.01c-.173.593-.37 1.269-.41 1.117a3.71 3.71 0 0 1-.054.337c-.024.127-.056.27-.101.419-.088.3-.2.644-.317 1.005l-.132.402v.002c-.077.233-.154.469-.234.699-.137.361-.266.714-.372 1.034.014-.06.04-.168.076-.265ZM69.855 90.35v-.001l.302-.158.19-.1-.104.055-.386.204h-.002Zm-2.03.992.136-.06c.225-.1.487-.215.757-.345.081-.014.021.06-.188.15.07-.045-.128.033-.363.124-.114.044-.238.092-.342.13Zm4.52-1.725c-.308.19-.42.237-.472.247l.216-.129.183-.108.144-.086c.009-.007.025-.023.032-.03a.486.486 0 0 1-.103.106Z" clip-rule="evenodd"/><path d="m92.23 65.317.01-.026a.906.906 0 0 1 .016-.036l-.026.062ZM34.198 2.834c.19-.064.394-.135.397-.148a.941.941 0 0 0 .064-.008l.364-.12c.044.033-.229.11-.527.192-.1.028-.203.056-.298.084Z"/><path fill-rule="evenodd" d="m80.085 19.935.058.047.014.012c.24.2.489.408.817.795l-.278-.245.412.472.198.253.14.177a300.411 300.411 0 0 1 .777 1.006l.09.117c.08.104.16.209.234.323l.35.514.202.296-.076.018c.162.204.337.438.51.673.09.116.171.238.25.357.08.117.158.232.235.338.12.275.342.657.62 1.107l.107.172.045.08.059.104.153.269.065.113.03.05c.141.247.29.503.442.765l.247.426c.05.092.098.186.146.28l.082.161c.151.298.3.596.442.889.298.58.518 1.17.691 1.684l.179.072c.349.753.725 1.75.775 2.145l-.064-.172c-.063-.021.01.173.119.433l.061.145a6.095 6.095 0 0 1 .25.694c.131.369.316.72.232.393.046.16.096.325.148.495.119.392.245.808.35 1.24l.193.722.056.211.047.175c.027.098.053.195.076.293l.101.467.12.558.074.343c.017.089.036.176.055.262.042.196.083.387.106.57.078.527.139.984.166 1.325.08.372.133.731.185 1.08.024.158.047.314.072.468l.066.42c.056.351.112.7.142 1.052.051.492.103.989.15 1.513.03.502.044 1.029.058 1.596l.001.074-.017-.028v.197c.002.159.004.336-.008.518-.013.264-.028.539-.047.79-.036.5-.082.899-.138.893-.003.21-.01.41-.018.604-.007.2-.014.394-.017.584-.004.15-.006.296-.008.442-.003.222-.006.443-.015.666-.026.37-.055.75-.095 1.165-.04.414-.086.863-.19 1.363l.03-.443c-.102.49-.183 1.28-.207 1.518l-.002.021c-.023.132-.029.093-.035.053-.003-.015-.005-.03-.008-.037a6.565 6.565 0 0 0-.098.51l-.017.1-.023.169c-.017.12-.033.241-.057.372l-.004-.163-.09.387c-.364 1.58-.887 3.853-1.564 5.66.123-.365.012-.188-.06-.05-.045.21-.132.507-.242.845l-.093.273-.087.259-.097.237-.13.316-.006.016c-.306.738-.613 1.476-.805 1.865l.192-.505c-.338.782-.53 1.1-.722 1.413-.068.108-.132.22-.206.348l-.102.177c-.125.21-.268.473-.455.853l.533-.814c-.352.592-.614 1.115-.486 1-.186.296-.234.342-.28.385a1.108 1.108 0 0 0-.143.186l-.047.076a16.57 16.57 0 0 1-.074.12l-.202.31c-.025.012.06-.138.14-.279l.028-.048c.08-.155.135-.275.02-.113-.212.313-.43.62-.647.928-.104.147-.208.294-.31.441a1.414 1.414 0 0 0-.123.18l-.066.105c-.062.1-.142.23-.253.392.106-.016-.089.268-.235.482-.147.214-.245.358.057.056a428.936 428.936 0 0 1-.603.866l-.14.197c-.053.072-.11.143-.165.213l-.092.116-.642.807-.362.454a5.7 5.7 0 0 1-.253.299l-.256.292-.277.321-.225.26c-.165.196-.33.39-.492.584l-.025.028-.483.538c-.172.124-.43.369-.722.661-.059.057-.117.117-.177.178a5.45 5.45 0 0 1-.285.28c-.162.154-.328.309-.488.459-.639.6-1.19 1.103-1.185.955-.635.538-1.158 1.028-1.596 1.44-.165.154-.317.297-.459.428.146-.099.307-.238.453-.365l.13-.111c-.207.22-1.29 1.076-1.75 1.421.209-.174.462-.391.721-.614l.3-.257c.048-.04.095-.081.141-.122.305-.263.588-.507.755-.705-.172.16-.368.32-.569.485l-.068.056-.667.56c-.217.181-.422.354-.6.506l-.313.238-.148.113-.275.07c-.323.267-.486.36-.64.447l-.02.012c-.162.087-.313.192-.66.46l.156-.062c-.618.378-.947.611-1.242.82-.358.255-.666.474-1.385.875l.037-.067c-.16.082-.34.192-.528.307-.08.049-.161.099-.243.147a3.976 3.976 0 0 1-.807.365l.437-.218c.146-.071.291-.142.432-.225-.084-.003-.482.155-.811.286-.117.047-.225.09-.307.12-.538.277-.54.32-.543.357-.002.025-.004.047-.194.146-.146.024-.13.014-.022-.055a3.9 3.9 0 0 0 .252-.17l-.1.051-.299.155c-.086.045-.177.086-.268.127a9.53 9.53 0 0 0-.16.073l-.584.272-.294.136-.206.098-.216.104-.03.014c-.127.062-.25.12-.369.17a14.19 14.19 0 0 0-.67.308c-.052.008-.003-.026-.003-.026-.209.08-.412.16-.61.237-.869.34-1.63.637-2.215.78l.219-.08c-.47.113-1.07.279-1.576.433l-.058.017c-.48.14-.868.253-.983.188-.138.019-.097.009.005-.016.065-.016.155-.037.24-.061.214-.063.395-.122.032-.068-.717.135-.934.22-1.14.302-.198.078-.386.151-.992.26.12-.022.126-.028.139-.039.005-.004.012-.01.028-.017-.141.034-.291.06-.447.085-.09.015-.18.03-.273.048a353.807 353.807 0 0 0-1.09.193c-.166.03-.332.061-.498.085l-.058.008-.72.095c-.315.016-.715.046-1.16.08-1.297.098-2.975.224-4.035.113.226.024.138.042-.008.057-.062.006-.134.01-.197.012-.058.003-.109.005-.134.009.01-.005.016-.013-.017-.02-.374-.013-.51.01-.631.03-.047.008-.09.016-.145.02-.212-.03-.57-.027-.91-.02a6.18 6.18 0 0 1-.794-.04c-.007.029-.292.006-.651-.022a49.733 49.733 0 0 0-.233-.018c.555.018.555-.005.554-.03 0-.018 0-.037.168-.047-.566-.044-.936-.05-1.275-.056-.484-.008-.904-.015-1.745-.132-.174-.032-.346-.078-.517-.124-.087-.023-.173-.046-.26-.067-.107.044-.644-.04-1.036-.101-.246-.039-.436-.069-.427-.052-.053-.019-.111-.038-.17-.057-.201-.066-.4-.132-.351-.16-.24-.044-.526-.11-.795-.172-.37-.085-.707-.163-.849-.167.116.04.233.07.352.102.066.017.134.035.2.054-.267-.06-.516-.126-.752-.19-.148-.04-.291-.077-.43-.112-.36-.09-.694-.169-1.016-.245h-.003c-.08-.02-.16-.04-.24-.058l-.084-.025-.15-.043-.46-.14c-.307-.096-.615-.2-.937-.323l.074-.135a6.14 6.14 0 0 0-.314-.117 7.063 7.063 0 0 1-.155-.058c-.05-.019-.1-.038-.15-.055a17.815 17.815 0 0 0-.59-.203c-.387-.128-.757-.255-1.11-.439l.093.055c.062.037.095.056.077.055-.024 0-.154-.033-.43-.13l.036.016c.072.033.154.071.25.105l.223.078.142.05c.262.09.55.19.82.293l-1.182-.354 1.807.641c-.458-.137-.63-.192-.635-.18-.004.01.078.054.201.128-.54-.18-.827-.308-1.102-.43l-.023-.01a6.543 6.543 0 0 0-.196-.085 7.247 7.247 0 0 1-.252-.11 10.699 10.699 0 0 0-.625-.256c-.175-.088-.17-.106-.166-.125.004-.02.01-.042-.202-.152a8.446 8.446 0 0 1-.665-.283 5.222 5.222 0 0 1-.42-.224c-.06-.035-.12-.068-.178-.1-.294-.168-.57-.323-.836-.442.066.028.115.045.105.027l-.188-.089c-.21-.099-.393-.185-.543-.262a2.686 2.686 0 0 0-.43-.197l.47.283c-.157-.09-.269-.144-.39-.202-.199-.096-.421-.203-.908-.5-.478-.23-.78-.314-.276-.03a3.016 3.016 0 0 1-.373-.233c-.108-.084-.167-.147-.079-.117-.572-.362-.753-.432-.904-.49-.168-.065-.299-.115-.894-.54.079.052.169.098.13.063a21.817 21.817 0 0 0-.475-.34c.236.152.198.099.165.051l-.002-.004c-.021-.03-.037-.054.026-.019.032.018.081.051.161.106l.087.062.055.038.197.13a.77.77 0 0 0-.187-.163 7.342 7.342 0 0 0-.34-.245 50.512 50.512 0 0 0-.17-.116c-.207-.142-.417-.286-.557-.399-.353-.208-.34-.158-.329-.113.008.033.016.064-.116-.009.01-.008-.045-.054-.137-.124l-.071-.053-.091-.068-.075-.061-.114-.094.065.073c.055.06.109.121.167.177-.102-.073-.201-.149-.304-.227-.108-.083-.221-.17-.346-.259l.38.27c-.15-.121-.32-.267-.51-.429a23.928 23.928 0 0 0-.964-.8 16.47 16.47 0 0 0-.623-.51c.242.175.719.52.173.01-.541-.436-.532-.443-.513-.456.014-.01.033-.025-.18-.233a7.446 7.446 0 0 0-.577-.448l-.046-.03c-.105-.071-.257-.197-.893-.828-.14-.133-.036.015.094.162a50.738 50.738 0 0 0-.593-.58 8.657 8.657 0 0 1-.33-.337l-.173-.18c-.287-.3-.573-.6-.908-.977.271.308.414.485-.025.06.097.07.017-.023-.126-.19l-.134-.158-.157-.192a20.48 20.48 0 0 1-.471-.588l-.102-.072c-.207-.289.035-.027.236.19l.019.02c-.014 0 .049.087.195.254.4.426.347.188-.245-.518-.664-.73-.623-.559-.536-.41a68.03 68.03 0 0 1-.493-.594c-.13-.15-.237-.26-.343-.37a7.196 7.196 0 0 1-.788-.95 8.348 8.348 0 0 1-.323-.535c-.217-.373-.504-.868-.816-1.325-.168-.18-.004.077.149.318.147.23.284.446.112.25a9.058 9.058 0 0 0-.294-.5l-.128-.214a12.424 12.424 0 0 0-.178-.29c-.21-.338-.44-.675-.68-1.025-.213-.295-.404-.616-.601-.95l-.101-.17a21.206 21.206 0 0 1-.347-.611l-.04-.076a5.827 5.827 0 0 1-.288-.583l.187.187-.047-.097a46.093 46.093 0 0 0-.596-1.201l.264.636c-.225-.41-.698-1.4-.48-1.107a11.553 11.553 0 0 1-.673-1.462c-.067-.17-.143-.36-.241-.599.165.387.196.464.197.463.001 0-.062-.166.143.237a59.934 59.934 0 0 0-.226-.566 17.05 17.05 0 0 1-.177-.446l-.292-.704-.029-.07c.072.106-.025-.28-.128-.552-.133-.263-.256-.621-.39-1.013a67.8 67.8 0 0 0-.085-.243 39.37 39.37 0 0 0-.161-.476c-.117-.339-.234-.68-.324-1.002l.025-.004a40.892 40.892 0 0 1-.333-1.216l-.04-.156a68.978 68.978 0 0 1-.04-.155c-.017-.07-.03-.14-.045-.21l-.021-.105-.032-.157a127.4 127.4 0 0 0-.096-.476c-.038-.194-.078-.388-.12-.58-.047-.229-.095-.456-.137-.683a28.66 28.66 0 0 0-.24-1.243l-.01-.042a1.877 1.877 0 0 0-.008-.039l.017.129c.009.289-.06-.028-.146-.478-.032-.147-.053-.31-.074-.472a11.582 11.582 0 0 0-.035-.248 13.025 13.025 0 0 0-.087-.571l.008-.078a1.358 1.358 0 0 0-.007-.376c-.04-.005-.068-.163-.096-.35-.015-.088-.024-.183-.033-.27a2.094 2.094 0 0 0-.034-.249c-.007-.244.009-.269.024-.292.02-.03.038-.059-.006-.62-.035-.379-.078-.421-.103-.374.009-.06.01-.151.01-.265 0-.087.001-.188.005-.295.007-.248.01-.534.007-.793.015.109.014.26.013.388-.001.076-.002.144.001.187.02.032.026-.034.03-.11.007-.08.013-.17.039-.165a1.045 1.045 0 0 0-.034-.32c-.018-.064-.036-.126-.03-.437l.074.53c.007-.18-.011-.4-.023-.54a5.836 5.836 0 0 1-.008-.095c.025.347.084.297.118.247-.056-.916-.114-.69-.168-.486-.024.092-.047.18-.068.159.002-.158.001-.311 0-.46l.001-.052.01-.387c.005-.285.005-.557.003-.823-.001-.265-.004-.52-.007-.772.008-.25.02-.496.035-.74l.058.188c.022-.475.022-.706.003-.882l.017-.255c.01-.16.02-.32.037-.48-.013.425.006.568.058.603l.008-.174c.007-.145.014-.297.03-.447l.032-.314.03-.306c.036-.39.054-.71.02-.817l.011.034c.15-1.032.564-3.169.599-3.089a35.58 35.58 0 0 1 .261-1.268l.025-.113.018-.086.048-.186c.126-.482.21-.833.17-.861.037-.163.091-.347.15-.538l.05-.158c.044-.142.09-.287.145-.425.141-.384.265-.747.281-.992.173-.424.159-.37.114-.199-.033.125-.082.312-.085.419.118-.289.202-.59.277-.862l.06-.21c.102-.316.191-.568.3-.668.15-.468.111-.382.05-.248-.053.118-.124.273-.1.128.092-.07.247-.468.425-.947.042-.12.094-.243.148-.366l.119-.275.041-.095c.108-.244.216-.477.317-.668.05-.173.015-.113-.016-.06-.037.063-.068.117.048-.226.002.063.108-.164.186-.333l.038-.08.004-.186.56-.702c.23-.565.194-.563.164-.561h-.006c-.015 0-.022-.013.021-.123.022-.055.056-.136.107-.25.038-.082.089-.18.152-.3l.08-.153-.044.094c.141-.176.27-.433.438-.767l.03-.062.004-.007c.091-.181.193-.383.312-.605.122-.224.28-.459.458-.718-.153.226-.136.233-.118.24.011.005.023.01.003.056l.342-.609c-.029.057-.04.085.003.032.183-.237.246-.354.314-.478l.014-.026a3.76 3.76 0 0 1 .213-.35c.04-.054.088-.115.144-.184-.134.204-.161.289-.143.298.018.009.083-.058.158-.138l.508-.886-.15.401c.144-.203.295-.436.448-.678l.145-.23c.104-.169.208-.337.322-.49.321-.454.62-.851.832-1.006l-.289.4c.043-.015.284-.199.649-.76.092-.131.14-.245.073-.19l.252-.268c-.118.213-.85 1.21-1.31 1.834.038-.062.094-.147.151-.234.138-.21.283-.43.179-.346-.186.258-.364.514-.54.766l-.046.067-.068.11c-.154.247-.307.492-.465.737a3.816 3.816 0 0 0 .241-.522c-.263.342-.316.452-.375.574-.043.089-.089.184-.223.383l-.007.007c-.142.157-.238.262-.175.135-.118.177-.22.348-.32.517a18.834 18.834 0 0 1-.764 1.19s.403-.746.123-.372l-.003.006c-.17.297-.307.534-.418.749l-.283.606-.1.216-.191.408a60.727 60.727 0 0 0-.225.46c-.057.113-.118.235-.176.371a18.229 18.229 0 0 1-.616 1.34l-.18.355-.112.245c-.045.097-.09.193-.133.289l-.182.392c-.254.544-.488 1.044-.615 1.515.003.028.061-.096.114-.209.08-.17.15-.316-.003.125-.007-.093-.083.094-.148.254-.04.097-.075.184-.09.194-.104.41-.217.698-.323.957-.1.26-.183.495-.245.788.017-.113-.093.167-.198.438l-.072.182c-.017-.044-.067.076-.107.172-.062.148-.1.238.047-.425-.064.283-.137.547-.212.798l-.207.786c-.067.251-.129.492-.178.731l-.005.022c-.045.232-.09.457-.09.691l.006-.022a4.31 4.31 0 0 1 .088-.287c-.073.265-.138.533-.204.802l-.103.422-.058.251c-.025.11-.046.202-.071.302-.024.086-.05.178-.08.292l-.121.441.012-.1c.015-.137.033-.291.065-.443.036-.191.073-.382.096-.54-.144.414-.187.87-.23 1.338-.026.264-.051.533-.095.8-.023-.02-.002-.184.017-.337.022-.18.043-.344-.013-.232-.047.263-.08.51-.109.752l-.007.063-.034.298-.02.264-.009.102-.022-.073c-.118.687-.086.8-.062.89.023.08.04.142-.063.594.01-.013.017.006.023.025.008.023.016.045.03.014-.023.098-.046.233-.068.36a6.166 6.166 0 0 1-.048.264c-.033.15-.057.15-.048-.27-.03.46-.04.986-.02 1.224.026-.147.04-.252.052-.333a.877.877 0 0 1 .072-.293l-.048.926-.009.18c-.005.095-.01.19-.011.284l-.001.464c-.005.206-.027-.155-.022-.416a20.613 20.613 0 0 0-.085 1.647 7.81 7.81 0 0 0 .014.688l.007.148a243.946 243.946 0 0 1 .068 1.274l.01.215.021.215c.026.288.052.579.073.872.02.294.038.59.05.891l.015.222c.016.228.032.458.041.69.01-.184.036-.051.07.127.018.093.038.198.06.277l.05.452.022.205c.018.151.045.306.071.462l.044.26c.081.488.159.968.206 1.335l-.074-.226.017.089c.017.086.033.171.052.254l.081.327.075.298a252.692 252.692 0 0 1 .184.739c.06.242.117.474.178.697.205.691.38 1.307.537 1.914.031.05-.044.011-.108-.172l.049.147c.054.162.11.327.156.493.066.228.125.455.178.661.107.412.196.743.301.84l-.097-.327c.59 1.735 1.43 3.589 2.319 5.256.06.209-.052-.009-.175-.247-.132-.257-.277-.539-.232-.337a33.51 33.51 0 0 0 .567 1.158l.09.18.16.279.092.16.345.6.166.29.257.457c.051.093.107.184.164.275l.11.18c-.079-.112-.104-.141-.124-.165a.624.624 0 0 1-.053-.068c.365.632.352.57.337.498-.014-.07-.03-.15.275.35-.068-.035-.046.02.149.37l.241.263c.023.054-.021.074-.125-.053.17.212.484.63.778 1.045l.126.176c.255.356.487.679.625.802.022.043-.014.029-.054.013-.05-.02-.105-.04-.063.041.374.519.668.847.953 1.165l-.002-.002c.154.286.568.78.738.983.069.083.097.117.05.068.392.478.406.473.43.465.02-.008.048-.017.328.273l-.568-.716.532.606.033.038c.166.19.331.379.51.557l-.234-.219-.222-.23c.181.244.4.46.624.68l.15.15.099.096c.248.244.506.496.767.772l-.237-.318.347.347c.078.076.16.15.242.222l.12.109c.002.062.193.254.352.415.186.187.328.33.077.174.162.162.318.314.47.46l.025.025c.142.138.28.27.424.386.302.252.59.486.875.714l.285.227.142.114.214.17.104.076.12.088c.287.208.58.424.89.662-.11-.084-.119-.08-.128-.075-.005.003-.01.005-.027-.002.189.153.361.287.52.408l.122.091.108.08.123.08.1.064c.286.182.539.329.79.474a1.684 1.684 0 0 1-.177-.086c-.075-.039-.14-.072-.149-.062.47.329.62.417.785.51l.418.244.468.272c-.318-.152-.237-.077.05.115-.026-.058.234.076.436.19-.483-.184-.122.061.232.301.3.203.594.402.372.338.07.026.248.11.456.207.479.224 1.114.52.936.366l.598.313.617.296.355.174.897.442.555.242.761.332.206.089c.155.068.311.136.473.195l.703.253c-.049-.012-.147-.042-.251-.074-.258-.079-.55-.168-.21-.027a45.9 45.9 0 0 0 1.276.486l.293.105.152.046.14.042.27.079.301.087.315.09c.277.08.558.16.853.24.411.096.848.2 1.334.32.029.072-.496-.068-1.042-.213l-.149-.04c-.087-.022-.172-.045-.255-.068-.128-.04-.25-.078-.356-.108-.213-.062-.366-.096-.393-.074l.264.082.5.155a216.862 216.862 0 0 0 1.567.402l.398.1c.083.02.166.036.25.053l.154.031.627.125 1.02.204.832.122.88.13c.099.038.207.075.327.102.12.024.248.046.385.065.273.037.579.065.905.093.237.026.485.044.739.063.443.033.905.067 1.365.147-.091-.05.213-.043.665-.03.213.005.46.012.714.014-.147.022.025.04.18.055.134.013.256.025.148.039.175 0 .432-.007.718-.014.85-.02 1.954-.047 1.9.044.042-.029.158-.044.315-.054l.029-.002c.152-.012.338-.026.535-.036l.073-.004c.4-.022.832-.045 1.096-.1a8.29 8.29 0 0 0 .335-.012c.112-.01.226-.023.342-.036l.718-.09.458-.06c.354-.044.72-.09 1.095-.148-.236-.006.204-.081.676-.162.254-.043.516-.088.687-.125l-.017.004c-.103.023-.206.046-.165.047.17.008.474-.072.814-.163l.029-.008c.333-.088.694-.184.991-.23.123-.016.128-.003.132.01.006.014.011.028.262-.023-.001-.024.395-.16.868-.3.236-.07.492-.14.727-.201.116-.03.228-.058.33-.08l.135-.033c.048-.013.093-.024.133-.032-.176.057-.237.085-.303.116a2.136 2.136 0 0 1-.129.056l.072-.02.19-.058.26-.09c.174-.06.348-.12.523-.178l.707-.234.353-.117c.201-.072.402-.148.603-.224l.45-.17.378-.14c.228-.084.456-.168.681-.262l1.042-.449c.103-.046.206-.09.309-.134.244-.106.49-.211.723-.336l1.007-.511.498-.26c.106-.06.21-.122.314-.184.056-.034.111-.068.167-.1l-.421.33c.839-.403 1.09-.584 1.29-.749.199-.17.361-.304.984-.695l.506-.308.788-.479 1.264-.851.317-.213.158-.108.152-.114 1.225-.917.306-.23.295-.244 1.17-.981c.159-.127.306-.266.453-.405l.112-.104.472-.443a42.575 42.575 0 0 0 10.384-27.93c0-23.592-19.108-42.718-42.678-42.718-11.02 0-21.063 4.18-28.635 11.042.453-.5.917-.99 1.392-1.467.002-.017.006-.035.01-.053a.506.506 0 0 0 .013-.09l.45-.458c-.043-.014-.38.273-.587.468-.212.163.66-.807 1.162-1.306.34-.33.552-.486.671-.572.121-.085.157-.091.177-.085l.012.005c.034.016.068.032.52-.34l.614-.572c.13-.116.265-.229.4-.34l.238-.202.04.019c.186-.116.283-.224.339-.287l.032-.035c-.026.058.247-.147.593-.417.086-.07.18-.138.277-.205l.289-.203c.19-.134.37-.26.511-.356l-.23.097c.373-.296.714-.549 1.045-.763.336-.204.653-.38.96-.548l.53-.289.374-.205c.308-.156.614-.322.934-.518.105-.07.21-.14.315-.212.188-.127.377-.254.569-.375l.233-.029c.144-.085.255-.154.357-.219.278-.174.498-.313 1.171-.622l.03-.011c.406-.16.815-.322 1.225-.49l.63-.261c.133-.054.269-.103.404-.152l.24-.088 1.295-.484c.262-.09.526-.176.79-.262.177-.057.354-.115.53-.174l.663-.217c.138-.043.278-.081.418-.119.084-.023.168-.045.252-.07a368.834 368.834 0 0 1 1.34-.364c.36-.082.72-.157 1.078-.232l.273-.058.667-.135h.005c.163-.029.327-.052.49-.075l.184-.027a.687.687 0 0 0-.152.005c.314-.035.613-.074.9-.115.125-.017.248-.036.368-.055.223-.034.439-.068.651-.09a37.206 37.206 0 0 0 1.404-.205l.036-.006c.138-.023.275-.046.413-.059l.17-.019c.54-.062 1.077-.124 1.638-.174a24.663 24.663 0 0 1 1.99-.015l-.195.033a5.81 5.81 0 0 1 .6-.002c.065.005.03.01-.018.015l-.008.001c-.054.007-.12.015-.08.027h.005c.199 0 .397.001.594.004.208-.013.525-.014.875-.012l.42.004.42.025c.276.016.538.03.748.038-.081.006-.222-.001-.375-.008-.095-.005-.196-.01-.29-.012.042.009.077.02.113.031l.01.003c.295.017.59.037.885.06.155-.002.326 0 .509.004.34.02.724.057 1.126.097.2.02.404.04.609.062h.001l.31.034c.067.007.134.018.2.029l.106.016.417.064.759.115c.041.022.15.056.301.098l.183.049.07.018a4.577 4.577 0 0 1 .265.08c.444.087.886.18 1.325.282-.191-.067-.126-.063-.03-.056.082.005.185.012.176-.021l.148.033c.087.019.183.04.282.065.158.043.328.09.486.131.315.088.583.168.63.21a18.59 18.59 0 0 1 .755.227c.18.043.369.1.576.173l-.096-.023c.03.02.072.04.113.06.39.144.86.279 1.326.412l.206.059c.352.113.698.219 1.001.311l.412.127c-.478-.121-.296-.024-.1.08.05.027.103.054.144.079a42.53 42.53 0 0 1 7.617 3.927l.222.105-.072-.008c.322.212.641.428.958.648a55.092 55.092 0 0 1 .555.365c.18.12.34.227.456.322.106.087.18.154.207.193l.002.001c.008-.147 1.74 1.25 2.317 1.8-.217-.18-.277-.193-.31-.2l.003.003c.345.265.684.54 1.02.823.264.235.518.481.772.728l.19.184.473.465.237.234.225.245c.299.326.6.65.904.97l.013.032c.278.302.551.607.82.917ZM58.164 6.485l-.023-.006.033.002a2.86 2.86 0 0 1-.161-.036l-.04-.01a16.604 16.604 0 0 0-.174-.039l.364.089Zm.832.152c-.038-.026-.14-.068-.455-.143a.435.435 0 0 0-.132 0l.04.002.329.085.218.056Z" clip-rule="evenodd"/><path d="M39.769 5.92ZM56.088 89.69ZM27.653 85.331ZM27.653 85.331a.83.83 0 0 0-.045-.035l-.307-.156c-.007-.049.214.077.456.214l.241.136c-.161-.081-.335-.165-.345-.159ZM22.27 81.856ZM14.661 21.078a.78.78 0 0 1 .091-.097l-.09.096ZM21.818 82.259l.1.071-.1-.071ZM23.595 83.489ZM28.533 86.25ZM28.533 86.25a3.317 3.317 0 0 0-.172-.07c-.086-.05-.027-.023.063.02l.11.05ZM47.682 90.962c0-.002.007-.004.019-.006-.008.004-.019.006-.019.006Z"/></g></svg>