<?xml version="1.0" encoding="utf-8"?>
<!-- Generator: Adobe Illustrator 27.2.0, SVG Export Plug-In . SVG Version: 6.00 Build 0)  -->
<svg version="1.1" id="Layer_2" xmlns="http://www.w3.org/2000/svg" xmlns:xlink="http://www.w3.org/1999/xlink" x="0px" y="0px"
	 viewBox="0 0 200 200" style="enable-background:new 0 0 200 200;" xml:space="preserve">
<style type="text/css">
	.st0{fill:none;}
	.st1{fill:#ABABA1;}
</style>
<g>
	<circle class="st0" cx="100" cy="100" r="60"/>
	<path class="st1" d="M162.6,100l33.3-8.4l-34.3-2.5l31.4-14l-34.2,3.5l28.4-19.3l-33.1,9.4l24.7-23.9l-30.9,15l20.1-27.8
		l-27.8,20.1l15-30.9l-23.9,24.7l9.4-33.1l-19.3,28.4L124.9,7l-14,31.4l-2.5-34.3L100,37.4L91.6,4.1l-2.5,34.3L75.1,7l3.5,34.2
		L59.3,12.8l9.4,33.1L44.8,21.2l15,30.9L31.9,31.9l20.1,27.8l-30.9-15l24.7,23.9l-33.1-9.4l28.4,19.3L7,75.1l31.4,14L4.1,91.6
		l33.3,8.4l-33.3,8.4l34.3,2.5L7,124.9l34.2-3.5l-28.4,19.3l33.1-9.4l-24.7,23.9l30.9-15l-20.1,27.8l27.8-20.1l-15,30.9l23.9-24.7
		l-9.4,33.1l19.3-28.4L75.1,193l14-31.4l2.5,34.3l8.4-33.3l8.4,33.3l2.5-34.3l14,31.4l-3.5-34.2l19.3,28.4l-9.4-33.1l23.9,24.7
		l-15-30.9l27.8,20.1l-20.1-27.8l30.9,15l-24.7-23.9l33.1,9.4l-28.4-19.3l34.2,3.5l-31.4-14l34.3-2.5L162.6,100z M100,161
		c-33.6,0-61-27.4-61-61c0-33.6,27.4-61,61-61s61,27.4,61,61C161,133.6,133.6,161,100,161z"/>
</g>
<circle class="st1" cx="100" cy="100" r="57.3"/>
</svg>
