<?xml version="1.0" encoding="utf-8"?>
<!-- Generator: Adobe Illustrator 27.2.0, SVG Export Plug-In . SVG Version: 6.00 Build 0)  -->
<svg version="1.1" id="Layer_2" xmlns="http://www.w3.org/2000/svg" xmlns:xlink="http://www.w3.org/1999/xlink" x="0px" y="0px"
	 viewBox="0 0 200 200" style="enable-background:new 0 0 200 200;" xml:space="preserve">
<style type="text/css">
	.st0{opacity:1.000000e-02;fill:#AB9B55;enable-background:new    ;}
</style>
<rect class="st0" width="200" height="200"/>
<g>
	<path d="M100.8,93.6l9.3-16.7c1.2-2.3,1.8-4.5,1.8-6.4c0-1.1-0.4-2.2-1-2.8l0.3-0.8c1.8,0.3,4.6,0.6,6.8,0.6c2.3,0,4.2-0.2,6.1-0.6
		l0.2,0.8c-2.2,2.5-4.2,4.6-8,10.7l-11.7,19.6l11,17.9c6.7,10.9,7.3,11.8,10.9,16.6l-0.4,0.8c-2.6-0.4-5-0.5-8-0.5
		c-2.1,0-5.7,0-8.1,0.5l-0.3-0.8c0.8-0.9,1.3-2.3,1.3-3.7c0-1.8-0.9-4.7-4.4-10.8l-8.1-13.8l-7.7,14.1c-3.3,6.2-3.7,8.6-3.7,10.4
		c0,1.6,0.4,2.8,0.9,3.8l-0.3,0.8c-1.6-0.5-4.3-0.5-6.4-0.5c-2.4,0-5.5,0.1-7.2,0.5l-0.4-0.8c2.2-2.6,4.4-5.8,10.5-16l10.3-17.1
		L82.2,77.7c-2.7-4.3-5-7.3-7.4-10l0.4-0.8c1.9,0.5,5.6,0.6,7.9,0.6c1.9,0,4.9-0.1,7.3-0.6l0.3,0.8c-0.6,0.7-1,2-1,3
		c0,1.7,0.5,3.4,1.8,5.7L100.8,93.6z"/>
</g>
</svg>
