<?xml version="1.0" encoding="UTF-8"?>
<svg width="620px" height="285px" viewBox="0 0 620 285" version="1.1" xmlns="http://www.w3.org/2000/svg" xmlns:xlink="http://www.w3.org/1999/xlink">
    <!-- Generator: Sketch 44.1 (41455) - http://www.bohemiancoding.com/sketch -->
    <title>Logo-light</title>
    <desc>Created with Sketch.</desc>
    <defs></defs>
    <g id="Logo-01" stroke="none" stroke-width="1" fill="none" fill-rule="evenodd">
        <g id="Logo-light" fill="#FFFFFF">
            <path d="M127.0677,129.0673 L127.0677,222.9623 L113.6537,222.9623 L113.6537,115.6533 L140.4817,115.6533 C155.2967,115.6533 167.3077,127.6603 167.3077,142.4703 C167.3077,157.2803 155.2967,169.2863 140.4817,169.2863 L140.4817,155.8733 C147.8907,155.8733 153.8947,149.8713 153.8947,142.4703 C153.8947,135.0693 147.8907,129.0673 140.4817,129.0673 L127.0677,129.0673 Z M140.4813,102.2402 L100.2403,102.2402 L100.2403,222.9622 L86.8273,222.9622 L86.8273,88.8262 L140.4813,88.8262 C170.1133,88.8262 194.1353,112.8392 194.1353,142.4602 C194.1353,172.0802 170.1133,196.0932 140.4813,196.0932 L140.4813,182.6792 C162.7063,182.6792 180.7213,164.6712 180.7213,142.4602 C180.7213,120.2482 162.7063,102.2402 140.4813,102.2402 Z M140.4813,75.4135 L73.4133,75.4135 L73.4133,222.9625 L60.0003,222.9625 L60.0003,61.9995 L140.4813,61.9995 C184.9293,61.9995 220.9623,98.0185 220.9623,142.4505 C220.9623,186.8815 184.9293,222.8995 140.4813,222.8995 L140.4813,209.4865 C177.5233,209.4865 207.5483,179.4725 207.5483,142.4505 C207.5483,105.4275 177.5233,75.4135 140.4813,75.4135 Z" id="Combined-Shape"></path>
            <path d="M282.4412,103.6581 L282.4412,73.5221 L272.0992,73.5221 L272.0992,62.4241 L306.0812,62.4241 L306.0812,73.5221 L295.7382,73.5221 L295.7382,103.6581 L282.4412,103.6581 Z M343.4992,103.6581 L343.4992,87.6691 L331.1182,87.6691 L331.1182,103.6581 L317.8202,103.6581 L317.8202,62.4241 L331.0592,62.4241 L331.0592,76.6901 L343.4402,76.6901 L343.4402,62.4241 L356.7962,62.4241 L356.7962,103.6581 L343.4992,103.6581 Z M372.6892,103.6581 L372.6892,62.4241 L400.7852,62.4241 L400.7852,73.3441 L385.1532,73.3441 L385.1532,77.8191 L399.8352,77.8191 L399.8352,87.9661 L385.1532,87.9661 L385.1532,92.7391 L401.7962,92.7391 L401.7962,103.6581 L372.6892,103.6581 Z M289.2262,151.8221 L292.2662,151.8221 C295.6792,151.8221 298.3492,151.0601 300.2012,149.5571 C302.0812,148.0331 303.0332,145.5331 303.0332,142.1241 C303.0332,139.2731 302.0842,137.0141 300.2102,135.4111 C298.3562,133.8251 295.8632,133.0211 292.8012,133.0211 L289.2262,133.0211 L289.2262,151.8221 Z M276.4642,163.0981 L276.4642,121.8641 L291.7312,121.8641 C295.0152,121.8641 298.1942,122.1911 301.1822,122.8351 C304.1442,123.4741 306.7932,124.5921 309.0542,126.1581 C311.3042,127.7151 313.1282,129.8141 314.4762,132.3941 C315.8242,134.9751 316.5082,138.2891 316.5082,142.2431 C316.5082,145.8471 315.8532,149.0031 314.5612,151.6251 C313.2682,154.2491 311.5192,156.4291 309.3622,158.1051 C307.1962,159.7871 304.6642,161.0521 301.8372,161.8661 C298.9972,162.6831 295.9972,163.0981 292.9202,163.0981 L276.4642,163.0981 Z M330.1602,163.0981 L343.5762,163.0981 L343.5762,121.8641 L330.1602,121.8641 L330.1602,163.0981 Z M411.2812,163.0981 L424.6972,163.0981 L424.6972,121.8641 L411.2812,121.8641 L411.2812,163.0981 Z M447.0872,163.0981 L447.0872,132.9621 L436.7442,132.9621 L436.7442,121.8641 L470.7272,121.8641 L470.7272,132.9621 L460.3842,132.9621 L460.3842,163.0981 L447.0872,163.0981 Z M493.7672,146.9481 L501.7762,146.9481 L497.8072,134.7591 L493.7672,146.9481 Z M506.8402,163.0981 L504.6422,156.9161 L490.6622,156.9161 L488.5812,163.0981 L474.5322,163.0981 L490.7812,121.8641 L505.2402,121.8641 L521.3142,163.0981 L506.8402,163.0981 Z M532.1912,163.0981 L532.1912,121.8641 L545.6072,121.8641 L545.6072,151.8221 L559.5742,151.8221 L559.5742,163.0981 L532.1912,163.0981 Z M380.1042,164.1671 C376.8412,164.1671 373.7792,163.6561 371.0062,162.6481 C368.2382,161.6411 365.8072,160.1811 363.7782,158.3071 C361.7512,156.4341 360.1362,154.1311 358.9772,151.4651 C357.8162,148.7971 357.2282,145.7751 357.2282,142.4811 C357.2282,139.1871 357.8162,136.1641 358.9772,133.4961 C360.1372,130.8271 361.7442,128.5141 363.7522,126.6231 C365.7632,124.7281 368.1542,123.2481 370.8622,122.2231 C373.5752,121.1961 376.5242,120.6751 379.6282,120.6751 C382.8532,120.6751 385.9542,121.2071 388.8462,122.2551 C391.5802,123.2461 393.8622,124.6011 395.6342,126.2841 L387.9402,135.5281 C387.1082,134.6321 386.1392,133.8961 385.0542,133.3361 C383.8102,132.6931 382.2652,132.3671 380.4602,132.3671 C379.2602,132.3671 378.0752,132.6081 376.9382,133.0831 C375.8002,133.5591 374.7832,134.2511 373.9152,135.1401 C373.0502,136.0261 372.3412,137.0991 371.8092,138.3291 C371.2722,139.5661 371.0002,140.9631 371.0002,142.4811 C371.0002,145.5001 371.8032,148.0011 373.3872,149.9141 C374.9892,151.8511 377.5692,152.8321 381.0552,152.8321 C381.6652,152.8321 382.3082,152.7811 382.9632,152.6791 C383.6522,152.5711 384.1842,152.4091 384.5892,152.1851 L384.8082,152.0641 L384.8082,148.1781 L378.0322,148.1781 L378.0322,137.9121 L396.5002,137.9121 L396.5002,160.2481 C395.5822,160.7821 394.5252,161.2791 393.3552,161.7291 C392.0922,162.2151 390.7302,162.6401 389.3052,162.9911 C387.8802,163.3421 386.3642,163.6291 384.8012,163.8441 C383.2432,164.0591 381.6632,164.1671 380.1042,164.1671 L380.1042,164.1671 Z M289.7012,199.0761 L293.0982,199.0761 C294.2412,199.0761 295.3052,198.7861 296.2592,198.2131 C297.2842,197.5991 297.8032,196.5671 297.8032,195.1441 C297.8032,194.3981 297.6642,193.7781 297.3902,193.2981 C297.1162,192.8191 296.7332,192.4351 296.2522,192.1591 C295.7972,191.9001 295.2832,191.7141 294.7242,191.6061 C294.1862,191.5021 293.6392,191.4501 293.0982,191.4501 L289.7012,191.4501 L289.7012,199.0761 Z M276.4642,222.5371 L276.4642,181.3041 L294.1092,181.3041 C296.2092,181.3041 298.2982,181.5311 300.3172,181.9781 C302.3172,182.4191 304.1282,183.1791 305.7002,184.2341 C307.2612,185.2801 308.5352,186.6901 309.4882,188.4241 C310.4392,190.1551 310.9212,192.3761 310.9212,195.0261 C310.9212,197.5591 310.4482,199.7311 309.5152,201.4831 C308.5802,203.2391 307.3232,204.6901 305.7792,205.7951 C304.2252,206.9081 302.4142,207.7251 300.3972,208.2251 C298.3592,208.7291 296.2442,208.9851 294.1092,208.9851 L289.7012,208.9851 L289.7012,222.5371 L276.4642,222.5371 Z M334.9722,206.3871 L342.9812,206.3871 L339.0122,194.1991 L334.9722,206.3871 Z M348.0452,222.5371 L345.8462,216.3561 L331.8662,216.3561 L329.7862,222.5371 L315.7372,222.5371 L331.9862,181.3041 L346.4452,181.3041 L362.5192,222.5371 L348.0452,222.5371 Z M397.9422,222.5371 L386.2932,202.4471 L385.3722,202.4471 L385.9672,222.5371 L373.3962,222.5371 L373.3962,181.3041 L386.8102,181.3041 L398.8162,202.6421 L399.7392,202.6421 L399.1452,181.3041 L411.7172,181.3041 L411.7172,222.5371 L397.9422,222.5371 Z M440.0322,211.2611 L443.0732,211.2611 C446.4862,211.2611 449.1552,210.4991 451.0082,208.9961 C452.8872,207.4721 453.8402,204.9721 453.8402,201.5641 C453.8402,198.7121 452.8902,196.4541 451.0172,194.8511 C449.1622,193.2651 446.6702,192.4611 443.6082,192.4611 L440.0322,192.4611 L440.0322,211.2611 Z M427.2712,222.5371 L427.2712,181.3041 L442.5382,181.3041 C445.8212,181.3041 449.0012,181.6301 451.9882,182.2751 C454.9512,182.9131 457.6002,184.0321 459.8602,185.5971 C462.1102,187.1551 463.9352,189.2531 465.2832,191.8341 C466.6322,194.4151 467.3162,197.7291 467.3162,201.6831 C467.3162,205.2841 466.6602,208.4411 465.3682,211.0651 C464.0752,213.6891 462.3262,215.8681 460.1682,217.5441 C458.0032,219.2271 455.4722,220.4921 452.6452,221.3061 C449.8032,222.1221 446.8022,222.5371 443.7272,222.5371 L427.2712,222.5371 Z M495.5262,206.3871 L503.5362,206.3871 L499.5672,194.1991 L495.5262,206.3871 Z M508.6012,222.5371 L506.4012,216.3561 L492.4222,216.3561 L490.3422,222.5371 L476.2932,222.5371 L492.5412,181.3041 L507.0002,181.3041 L523.0732,222.5371 L508.6012,222.5371 Z" id="Fill-10"></path>
        </g>
    </g>
</svg>