<?xml version="1.0" encoding="utf-8"?>
<!-- Generator: Adobe Illustrator 26.5.0, SVG Export Plug-In . SVG Version: 6.00 Build 0)  -->
<svg version="1.1" id="Layer_2" xmlns="http://www.w3.org/2000/svg" xmlns:xlink="http://www.w3.org/1999/xlink" x="0px" y="0px"
	 viewBox="0 0 200 200" enable-background="new 0 0 200 200" xml:space="preserve">
<defs>
	<filter id="Adobe_OpacityMaskFilter" filterUnits="userSpaceOnUse" x="0" y="0" width="200" height="200">
		<feColorMatrix  type="matrix" values="1 0 0 0 0  0 1 0 0 0  0 0 1 0 0  0 0 0 1 0"/>
	</filter>
</defs>
<mask maskUnits="userSpaceOnUse" x="0" y="0" width="200" height="200" id="SVGID_1_">
	<g filter="url(#Adobe_OpacityMaskFilter)">
		<defs>
			
				<filter id="Adobe_OpacityMaskFilter_00000018954559134978699160000007032245306851312786_" filterUnits="userSpaceOnUse" x="0" y="0" width="200" height="200">
				<feFlood  style="flood-color:white;flood-opacity:1" result="back"/>
				<feBlend  in="SourceGraphic" in2="back" mode="normal"/>
			</filter>
		</defs>
		<mask maskUnits="userSpaceOnUse" x="0" y="0" width="200" height="200" id="SVGID_1_">
			<g filter="url(#Adobe_OpacityMaskFilter_00000018954559134978699160000007032245306851312786_)">
			</g>
		</mask>
		
			<radialGradient id="SVGID_00000024694253989815204740000011595610544782041247_" cx="516.7707" cy="354.6679" r="88.9742" gradientTransform="matrix(1.1258 0 0 1.122 -481.7934 -299.8809)" gradientUnits="userSpaceOnUse">
			<stop  offset="0.1475" style="stop-color:#000000"/>
			<stop  offset="0.1896" style="stop-color:#121212"/>
			<stop  offset="0.3652" style="stop-color:#595959"/>
			<stop  offset="0.531" style="stop-color:#949494"/>
			<stop  offset="0.6819" style="stop-color:#C2C2C2"/>
			<stop  offset="0.8151" style="stop-color:#E3E3E3"/>
			<stop  offset="0.9257" style="stop-color:#F8F8F8"/>
			<stop  offset="1" style="stop-color:#FFFFFF"/>
		</radialGradient>
		<path mask="url(#SVGID_1_)" fill="url(#SVGID_00000024694253989815204740000011595610544782041247_)" d="M134.52,14.06
			c0.72,0.32,1.56,0,1.89-0.71l0.63-1.4c0.01-0.01,0.02-0.03,0.02-0.05c0.3-0.74-0.06-1.59-0.8-1.89c-0.74-0.3-1.59,0.06-1.9,0.8
			l-0.58,1.43C133.49,12.93,133.82,13.74,134.52,14.06z M124.54,37.34c0.48,0.21,1.04,0,1.26-0.48l7.96-17.64
			c0.01-0.01,0.01-0.03,0.02-0.04c0.27-0.67-0.05-1.43-0.72-1.7c-0.67-0.27-1.43,0.05-1.7,0.72l-7.3,17.92
			C123.86,36.59,124.07,37.13,124.54,37.34z M126.32,9.46c0.42,0,0.84-0.17,1.14-0.47c0.3-0.3,0.47-0.72,0.47-1.14
			c0-0.42-0.17-0.84-0.47-1.14c-0.3-0.3-0.72-0.47-1.14-0.47c-0.43,0-0.84,0.17-1.14,0.47c-0.3,0.3-0.47,0.72-0.47,1.14
			c0,0.43,0.17,0.84,0.47,1.14C125.47,9.29,125.89,9.46,126.32,9.46z M129.7,62.73c0.23,0.21,0.6,0.2,0.81-0.04l19.6-21.45
			c0.01-0.01,0.02-0.02,0.03-0.03c0.39-0.46,0.33-1.15-0.13-1.53c-0.46-0.39-1.15-0.33-1.54,0.13l-18.83,22.13
			C129.45,62.17,129.47,62.52,129.7,62.73z M136.17,30.88c0.62,0.36,1.43,0.16,1.79-0.46l3.58-6.09c0.01-0.02,0.02-0.04,0.03-0.05
			c0.38-0.71,0.11-1.59-0.6-1.96c-0.71-0.38-1.59-0.11-1.97,0.6l-3.33,6.23C135.35,29.75,135.57,30.52,136.17,30.88z M141.05,35.68
			l-1.12,1.66c-0.41,0.62-0.28,1.46,0.33,1.91c0.62,0.46,1.5,0.33,1.97-0.29l1.2-1.61c0.01-0.02,0.03-0.04,0.04-0.06
			c0.45-0.67,0.27-1.57-0.4-2.01C142.4,34.84,141.49,35.02,141.05,35.68z M117.25,33.75l-6.22,21.7c-0.08,0.3,0.08,0.61,0.38,0.71
			c0.31,0.1,0.64-0.07,0.74-0.37l7.08-21.43c0-0.01,0.01-0.03,0.01-0.04c0.16-0.55-0.16-1.12-0.71-1.28
			C117.98,32.88,117.4,33.2,117.25,33.75z M119.78,28.97c0.61,0.2,1.27-0.13,1.47-0.74l4.5-13.61c0.01-0.02,0.01-0.04,0.02-0.06
			c0.22-0.77-0.23-1.57-1-1.79c-0.77-0.22-1.58,0.23-1.8,1l-3.95,13.78C118.85,28.14,119.18,28.77,119.78,28.97z M107.22,53.41
			c0.3,0.06,0.59-0.13,0.65-0.42l5.41-25.22c0-0.01,0.01-0.02,0.01-0.04c0.1-0.55-0.27-1.07-0.82-1.17
			c-0.55-0.1-1.08,0.27-1.17,0.82l-4.5,25.39C106.74,53.07,106.93,53.35,107.22,53.41z M103.47,40.31c0.54,0.06,1.02-0.33,1.08-0.87
			l1.05-9.61c0-0.02,0-0.04,0-0.05c0.04-0.66-0.46-1.23-1.12-1.27c-0.66-0.04-1.23,0.46-1.27,1.12l-0.62,9.65
			C102.57,39.79,102.95,40.25,103.47,40.31z M104.69,26.18c0.72,0.08,1.36-0.44,1.44-1.16l0.71-6.46c0-0.02,0-0.04,0.01-0.06
			c0.05-0.8-0.56-1.49-1.36-1.54c-0.8-0.05-1.49,0.56-1.55,1.36l-0.41,6.48C103.48,25.49,103.99,26.1,104.69,26.18z M112.99,23.89
			c0.59,0.13,1.18-0.25,1.3-0.84l4.17-19.44c0-0.01,0.01-0.04,0.01-0.05c0.14-0.79-0.39-1.54-1.18-1.68
			c-0.79-0.14-1.55,0.39-1.69,1.18l-3.47,19.58C112.04,23.21,112.41,23.77,112.99,23.89z M152.29,38.86l11.6-12.69
			c0.01-0.01,0.02-0.03,0.03-0.04c0.52-0.61,0.44-1.53-0.17-2.04c-0.61-0.52-1.53-0.44-2.05,0.17l-11.14,13.09
			c-0.4,0.47-0.36,1.17,0.1,1.59C151.14,39.36,151.87,39.33,152.29,38.86z M154.58,121.88l-17.9-7.47
			c-0.22-0.09-0.48,0.01-0.58,0.22c-0.1,0.22,0,0.49,0.22,0.59l17.63,8.08c0.01,0,0.02,0.01,0.02,0.01c0.4,0.17,0.85-0.02,1.02-0.42
			C155.16,122.5,154.98,122.05,154.58,121.88z M165.52,148.05c0.63,0.43,1.49,0.28,1.93-0.35c0.44-0.63,0.28-1.49-0.35-1.92
			l-7.98-5.5c-0.52-0.36-1.24-0.25-1.62,0.26c-0.39,0.52-0.29,1.26,0.23,1.66l7.75,5.82C165.49,148.03,165.51,148.04,165.52,148.05z
			 M153.89,139.32c0.49,0.34,1.17,0.22,1.51-0.28c0.34-0.49,0.22-1.17-0.28-1.51l-7.98-5.5c-0.39-0.27-0.93-0.19-1.22,0.2
			c-0.3,0.39-0.22,0.95,0.18,1.24l7.75,5.82C153.86,139.3,153.87,139.31,153.89,139.32z M158.2,153.42
			c0.01,0.01,0.03,0.03,0.05,0.04c0.61,0.52,1.53,0.45,2.05-0.16c0.52-0.61,0.45-1.52-0.16-2.05l-5.74-4.91
			c-0.52-0.44-1.31-0.41-1.78,0.1c-0.49,0.52-0.46,1.33,0.06,1.81L158.2,153.42z M147.99,143.89c0.48,0.41,1.2,0.35,1.61-0.12
			c0.41-0.48,0.36-1.2-0.12-1.61l-17.19-14.69c-0.26-0.22-0.65-0.2-0.89,0.05c-0.24,0.26-0.23,0.66,0.03,0.91l16.52,15.43
			C147.97,143.87,147.98,143.88,147.99,143.89z M114.28,125.82c0.1,0.16,0.3,0.21,0.46,0.11c0.16-0.1,0.21-0.3,0.11-0.46
			l-8.43-13.75l7.85,14.09C114.28,125.82,114.28,125.82,114.28,125.82z M168.82,47.64l10.56-7.54c0.01-0.01,0.03-0.02,0.04-0.03
			c0.64-0.49,0.76-1.4,0.27-2.03c-0.49-0.63-1.4-0.75-2.04-0.27l-10.29,7.9c-0.52,0.4-0.64,1.15-0.25,1.69
			C167.5,47.91,168.27,48.03,168.82,47.64z M118.98,126.63c0.12,0.16,0.36,0.19,0.52,0.07s0.19-0.35,0.07-0.52l-11.78-15.37
			l11.18,15.81C118.98,126.62,118.98,126.62,118.98,126.63z M128.29,131.56c0.19,0.2,0.5,0.21,0.7,0.02c0.2-0.19,0.21-0.5,0.02-0.7
			l-19.96-21.12l19.22,21.78C128.28,131.55,128.28,131.55,128.29,131.56z M163.25,133.62l-14.21-7.7c-0.45-0.24-1.02-0.09-1.29,0.35
			c-0.28,0.46-0.13,1.05,0.33,1.33l13.84,8.34c0.02,0.01,0.04,0.02,0.05,0.03c0.65,0.35,1.47,0.11,1.82-0.54
			C164.14,134.79,163.9,133.98,163.25,133.62z M164.25,112.76l18.92,4.29c0.01,0,0.03,0.01,0.05,0.01c0.73,0.14,1.43-0.34,1.56-1.07
			c0.14-0.72-0.34-1.42-1.07-1.56l-19.07-3.58c-0.51-0.1-1.01,0.23-1.13,0.74C163.4,112.12,163.73,112.64,164.25,112.76z
			 M185.28,98.85c0.68-0.02,1.21-0.58,1.2-1.25c-0.02-0.67-0.58-1.21-1.25-1.19l-19.4,0.45c-0.48,0.01-0.87,0.4-0.87,0.88
			c-0.01,0.49,0.39,0.89,0.88,0.9l19.4,0.21C185.25,98.85,185.26,98.85,185.28,98.85z M113.3,129.95l-8.33-17.47l7.67,17.77
			c0,0,0,0.01,0.01,0.01c0.09,0.18,0.3,0.26,0.48,0.17C113.31,130.35,113.39,130.13,113.3,129.95z M102.25,54.44
			c0.36,0.04,0.68-0.22,0.72-0.58l1.05-9.61c0-0.01,0-0.03,0-0.04c0.03-0.48-0.33-0.89-0.82-0.92c-0.48-0.03-0.9,0.33-0.93,0.81
			l-0.62,9.65C101.65,54.1,101.91,54.4,102.25,54.44z M162.38,119.66c0.55,0.16,1.13-0.15,1.29-0.7c0.16-0.55-0.15-1.12-0.7-1.29
			l-21.69-6.46c-0.3-0.09-0.62,0.07-0.72,0.37c-0.1,0.3,0.06,0.64,0.36,0.74l21.42,7.32C162.35,119.65,162.36,119.66,162.38,119.66z
			 M179.69,107.53c0.3-0.3,0.47-0.72,0.47-1.14c0-0.43-0.17-0.84-0.47-1.14c-0.3-0.3-0.72-0.47-1.14-0.47
			c-0.42,0-0.84,0.17-1.14,0.47c-0.3,0.3-0.48,0.72-0.48,1.14c0,0.42,0.17,0.84,0.48,1.14c0.3,0.3,0.72,0.47,1.14,0.47
			C178.97,108,179.39,107.83,179.69,107.53z M68.52,131.56c0,0-0.01,0.01-0.01,0.01c-0.19,0.22-0.16,0.55,0.06,0.74
			c0.22,0.19,0.55,0.16,0.74-0.06l18.74-22.2L68.52,131.56z M65.5,113.57c-0.1-0.22-0.36-0.32-0.58-0.22l-14.78,6.54
			c-0.01,0-0.02,0.01-0.03,0.01c-0.38,0.19-0.54,0.65-0.35,1.03c0.19,0.38,0.65,0.54,1.04,0.35l14.49-7.15
			C65.51,114.03,65.6,113.78,65.5,113.57z M76.06,136.99l-4.89,8.35c0,0.01-0.01,0.02-0.01,0.02c-0.18,0.34-0.05,0.77,0.29,0.95
			c0.34,0.18,0.77,0.05,0.95-0.29l4.58-8.52c0.13-0.25,0.05-0.56-0.2-0.7C76.54,136.66,76.21,136.74,76.06,136.99z M85.18,60.19
			c-0.25,0.09-0.38,0.37-0.28,0.61l3.37,9.07c0.05,0.14,0.21,0.22,0.36,0.17c0.15-0.05,0.23-0.21,0.18-0.36l-3.01-9.19
			c0-0.01,0-0.01-0.01-0.02C85.71,60.23,85.43,60.1,85.18,60.19z M77.49,127.85c-0.19-0.14-0.46-0.1-0.6,0.09l-9.58,12.99
			c-0.01,0.01-0.01,0.02-0.02,0.02c-0.23,0.34-0.14,0.81,0.2,1.04c0.35,0.23,0.81,0.14,1.05-0.2l9.04-13.36
			C77.72,128.24,77.67,127.99,77.49,127.85z M59.71,120.81l-8.4,4.84c-0.01,0-0.01,0.01-0.02,0.01c-0.32,0.2-0.42,0.62-0.22,0.94
			c0.2,0.32,0.62,0.41,0.94,0.22l8.22-5.13c0.23-0.15,0.31-0.45,0.17-0.69C60.27,120.75,59.95,120.67,59.71,120.81z M84.66,69.13
			c-0.22,0.11-0.3,0.37-0.19,0.59l7.34,14.37l-6.55-14.74c0-0.01-0.01-0.01-0.01-0.02C85.14,69.1,84.88,69.02,84.66,69.13z
			 M87.16,46.77c0-0.01,0-0.02-0.01-0.03c-0.1-0.4-0.51-0.64-0.91-0.54c-0.4,0.1-0.64,0.51-0.54,0.91l4,15.62
			c0.06,0.22,0.27,0.35,0.5,0.31c0.23-0.05,0.37-0.27,0.32-0.5L87.16,46.77z M69.82,77.94c-0.18-0.12-0.43-0.07-0.56,0.11
			c-0.12,0.18-0.07,0.43,0.11,0.55l16.2,10.65L69.83,77.95C69.83,77.95,69.82,77.95,69.82,77.94z M54.89,89.94
			c0.06-0.27-0.12-0.54-0.39-0.6l-9.5-1.97c-0.01,0-0.02,0-0.02,0c-0.37-0.06-0.72,0.18-0.78,0.55c-0.06,0.37,0.18,0.72,0.55,0.78
			l9.56,1.63C54.57,90.38,54.83,90.21,54.89,89.94z M63.31,99.26L82.7,98.5l-19.41,0.07c0,0-0.01,0-0.01,0
			c-0.19,0.01-0.34,0.17-0.33,0.36C62.96,99.12,63.12,99.27,63.31,99.26z M68.94,92.59c0.03-0.14-0.06-0.27-0.2-0.3l-9.5-1.97
			c0,0-0.01,0-0.01,0c-0.23-0.04-0.45,0.11-0.49,0.34c-0.04,0.23,0.12,0.45,0.35,0.49l9.56,1.63
			C68.78,92.81,68.91,92.72,68.94,92.59z M45.61,94.94l16.15,0.84c0.3,0.01,0.56-0.2,0.59-0.5c0.03-0.31-0.19-0.58-0.5-0.62
			l-16.09-1.7c-0.02,0-0.04,0-0.05,0c-0.55-0.03-1.02,0.39-1.05,0.94C44.64,94.45,45.06,94.91,45.61,94.94z M79.34,81.55
			C79.34,81.55,79.34,81.54,79.34,81.55c-0.08-0.06-0.18-0.05-0.24,0.02c-0.06,0.07-0.05,0.18,0.02,0.23l7.46,6.18L79.34,81.55z
			 M90.32,74.27c-0.04-0.1-0.15-0.15-0.25-0.11c-0.1,0.04-0.15,0.15-0.11,0.25l3.37,9.07L90.32,74.27
			C90.32,74.28,90.32,74.28,90.32,74.27z M97,28.71c-0.8,0.04-1.42,0.72-1.38,1.52l0.99,20.21c0.02,0.47,0.41,0.84,0.89,0.85
			c0.49,0,0.9-0.39,0.9-0.89l0.14-20.23c0-0.03,0-0.05,0-0.08C98.49,29.29,97.81,28.67,97,28.71z M96.54,82.75l-1.86-17.63
			c0,0,0-0.01,0-0.01c-0.03-0.18-0.2-0.31-0.38-0.29c-0.18,0.03-0.31,0.2-0.29,0.38L96.54,82.75z M97.53,52.82
			c-0.44,0.02-0.79,0.4-0.76,0.84l1.41,28.98l0.2-29.02c0-0.01,0-0.03,0-0.04C98.35,53.14,97.97,52.8,97.53,52.82z M96.9,23.57
			c0.42,0,0.84-0.17,1.14-0.47c0.3-0.3,0.48-0.72,0.48-1.14c0-0.43-0.17-0.84-0.48-1.14c-0.3-0.3-0.71-0.47-1.14-0.47
			c-0.43,0-0.84,0.17-1.14,0.47c-0.3,0.3-0.47,0.72-0.47,1.14c0,0.42,0.17,0.84,0.47,1.14C96.06,23.39,96.48,23.57,96.9,23.57z
			 M100.87,73.08c0.01-0.12-0.08-0.22-0.2-0.23c-0.12-0.01-0.22,0.08-0.23,0.2l-0.62,9.65L100.87,73.08
			C100.87,73.09,100.87,73.09,100.87,73.08z M98.25,142.96c0.01,0.33,0.29,0.59,0.62,0.58c0.33-0.01,0.59-0.29,0.58-0.62l-0.85-29
			l-0.36,29.01C98.25,142.94,98.25,142.95,98.25,142.96z M83.93,56.62c0.3-0.1,0.47-0.42,0.37-0.72l-3.01-9.19
			c0-0.01-0.01-0.02-0.01-0.03c-0.15-0.4-0.59-0.6-0.99-0.45s-0.6,0.59-0.45,0.98l3.37,9.07C83.32,56.56,83.64,56.71,83.93,56.62z
			 M74.65,60.42l15.71,24.43L75.77,59.73c0-0.01-0.01-0.02-0.02-0.03c-0.2-0.31-0.6-0.39-0.91-0.2
			C74.54,59.71,74.45,60.11,74.65,60.42z M91.55,67.27c0,0,0-0.01,0-0.01c-0.04-0.17-0.22-0.28-0.4-0.23
			c-0.17,0.04-0.28,0.22-0.23,0.39l4,15.62L91.55,67.27z M101.04,68.57c0.18,0.02,0.34-0.11,0.36-0.29l1.05-9.61
			c0-0.01,0-0.02,0-0.02c0.02-0.3-0.21-0.56-0.51-0.58c-0.3-0.02-0.56,0.21-0.58,0.51l-0.62,9.65
			C100.73,68.4,100.86,68.55,101.04,68.57z M48.26,143.25L36.39,153.8c-0.01,0.01-0.03,0.03-0.05,0.04
			c-0.58,0.56-0.59,1.48-0.03,2.05c0.56,0.57,1.48,0.59,2.06,0.03l11.4-11.05c0.42-0.41,0.45-1.09,0.05-1.53
			C49.42,142.88,48.72,142.84,48.26,143.25z M63.03,124.79c-0.18-0.25-0.53-0.31-0.78-0.12L43.91,137.9
			c-0.01,0.01-0.02,0.02-0.03,0.02c-0.43,0.34-0.51,0.96-0.17,1.4c0.34,0.43,0.97,0.51,1.4,0.17l17.81-13.93
			C63.16,125.37,63.21,125.03,63.03,124.79z M76.73,50.13c-0.25-0.49-0.86-0.69-1.36-0.44c-0.5,0.25-0.69,0.86-0.44,1.35l7.34,14.37
			c0.14,0.27,0.46,0.38,0.74,0.26c0.29-0.13,0.42-0.46,0.29-0.75l-6.55-14.74C76.74,50.16,76.74,50.14,76.73,50.13z M127.22,84.73
			l-14.57,6.99l14.9-6.27c0.01,0,0.01-0.01,0.02-0.01c0.2-0.09,0.28-0.33,0.19-0.53C127.65,84.72,127.41,84.64,127.22,84.73z
			 M141.03,84.56l9.26-2.9c0.01,0,0.02-0.01,0.02-0.01c0.36-0.13,0.55-0.52,0.42-0.88c-0.13-0.36-0.52-0.55-0.88-0.42l-9.15,3.22
			c-0.26,0.09-0.41,0.38-0.32,0.64C140.46,84.49,140.75,84.64,141.03,84.56z M164.2,77.31c0.5-0.17,0.76-0.72,0.58-1.21
			c-0.18-0.49-0.72-0.75-1.22-0.58l-9.15,3.22c-0.39,0.14-0.61,0.56-0.48,0.96c0.13,0.41,0.57,0.64,0.98,0.51l9.26-2.9
			C164.18,77.32,164.19,77.31,164.2,77.31z M166.34,69.11c0.71-0.34,1.01-1.19,0.67-1.9c-0.34-0.71-1.19-1-1.9-0.66l-14.57,6.99
			c-0.49,0.24-0.72,0.82-0.5,1.32c0.22,0.52,0.82,0.77,1.35,0.55l14.9-6.27C166.3,69.13,166.32,69.12,166.34,69.11z M181.77,81.47
			c0.78-0.19,1.26-0.97,1.07-1.75c-0.19-0.78-0.97-1.26-1.76-1.07l-17.08,4.1c-0.56,0.14-0.92,0.69-0.81,1.26
			c0.12,0.59,0.69,0.97,1.28,0.85l17.23-3.38C181.73,81.48,181.75,81.47,181.77,81.47z M178.39,87.93l-6.69,0.88
			c-0.69,0.09-1.19,0.71-1.13,1.4c0.06,0.72,0.69,1.24,1.41,1.18l6.73-0.58c0.02,0,0.04,0,0.06-0.01c0.8-0.11,1.36-0.83,1.25-1.63
			C179.92,88.38,179.18,87.83,178.39,87.93z M135.16,123.79c-0.26-0.18-0.62-0.12-0.81,0.13c-0.2,0.26-0.14,0.63,0.12,0.83
			l7.75,5.82c0.01,0.01,0.02,0.01,0.03,0.02c0.36,0.25,0.85,0.16,1.1-0.2c0.25-0.36,0.16-0.85-0.2-1.1L135.16,123.79z
			 M143.95,125.12c0.42,0.23,0.94,0.07,1.16-0.34c0.23-0.42,0.07-0.93-0.34-1.16l-14.21-7.7c-0.23-0.12-0.51-0.05-0.65,0.17
			c-0.14,0.23-0.07,0.53,0.16,0.66l13.84,8.34C143.93,125.11,143.94,125.12,143.95,125.12z M138.45,89.41
			c0.06,0.29,0.34,0.48,0.64,0.43l19.04-3.73c0.01,0,0.03-0.01,0.04-0.01c0.51-0.12,0.82-0.63,0.7-1.14
			c-0.12-0.51-0.64-0.82-1.15-0.7l-18.87,4.53C138.57,88.85,138.39,89.13,138.45,89.41z M66.68,95.17c-0.01,0-0.02,0-0.02,0
			c-0.24-0.01-0.44,0.17-0.45,0.41c-0.01,0.24,0.17,0.44,0.41,0.45l16.15,0.84L66.68,95.17z M126.81,88.73
			c0.04,0.14,0.19,0.21,0.33,0.17l9.26-2.9c0,0,0.01,0,0.01,0c0.23-0.08,0.34-0.33,0.26-0.55c-0.08-0.22-0.33-0.34-0.55-0.26
			l-9.15,3.22C126.84,88.46,126.77,88.6,126.81,88.73z M114.08,98.07l19.4,0.21c0,0,0.01,0,0.01,0c0.18,0,0.33-0.16,0.33-0.34
			c0-0.18-0.16-0.33-0.34-0.33L114.08,98.07z M130.46,112.53c0.17,0.07,0.37-0.01,0.44-0.18c0.07-0.17-0.01-0.36-0.18-0.43
			l-17.9-7.47l17.63,8.08C130.45,112.53,130.46,112.53,130.46,112.53z M160.08,60.7l-22.03,13.52c-0.27,0.17-0.36,0.52-0.21,0.8
			c0.16,0.29,0.52,0.39,0.81,0.23l22.54-12.66c0.01-0.01,0.03-0.01,0.04-0.02c0.52-0.32,0.68-0.99,0.36-1.5
			C161.27,60.55,160.59,60.39,160.08,60.7z M131.34,83.3c0.11,0.26,0.41,0.38,0.67,0.27l14.9-6.27c0.01-0.01,0.03-0.01,0.04-0.02
			c0.45-0.22,0.64-0.76,0.43-1.21c-0.22-0.45-0.76-0.64-1.22-0.42l-14.57,6.99C131.34,82.75,131.23,83.04,131.34,83.3z
			 M136.56,94.47c0.28-0.04,0.47-0.29,0.44-0.57s-0.29-0.47-0.57-0.43l-22.45,2.96l22.56-1.96
			C136.54,94.47,136.55,94.47,136.56,94.47z M127.18,147.17c-0.42,0.23-0.57,0.76-0.34,1.18l7.85,14.09
			c0.01,0.01,0.02,0.03,0.03,0.04c0.35,0.57,1.09,0.75,1.66,0.4c0.57-0.35,0.75-1.09,0.4-1.66l-8.43-13.75
			C128.11,147.09,127.59,146.95,127.18,147.17z M108.03,141.35c-0.29,0.06-0.47,0.34-0.42,0.62l1.92,9.48c0,0.01,0,0.02,0.01,0.03
			c0.09,0.38,0.47,0.61,0.85,0.52c0.38-0.09,0.61-0.47,0.52-0.85l-2.26-9.4C108.58,141.47,108.31,141.3,108.03,141.35z
			 M123.49,131.3c-0.16-0.21-0.46-0.26-0.68-0.1c-0.22,0.16-0.28,0.46-0.12,0.68l11.18,15.81c0.01,0.01,0.01,0.02,0.02,0.03
			c0.29,0.38,0.83,0.45,1.21,0.16c0.38-0.29,0.45-0.83,0.16-1.2L123.49,131.3z M111.88,140.9c0.13,0.38,0.55,0.57,0.93,0.44
			c0.38-0.13,0.57-0.55,0.44-0.92l-9.8-27.32l8.42,27.77C111.87,140.88,111.88,140.89,111.88,140.9z M187.19,87.16
			c-0.3,0.3-0.48,0.72-0.48,1.14c0,0.43,0.17,0.84,0.48,1.14c0.3,0.3,0.72,0.47,1.14,0.47c0.42,0,0.84-0.17,1.14-0.47
			c0.3-0.3,0.47-0.72,0.47-1.14c0-0.43-0.17-0.84-0.47-1.14c-0.3-0.3-0.72-0.47-1.14-0.47C187.91,86.69,187.49,86.86,187.19,87.16z
			 M182.69,71.53l8.37-2.62c0.01,0,0.03-0.01,0.05-0.02c0.76-0.27,1.15-1.1,0.89-1.85c-0.27-0.76-1.1-1.15-1.86-0.88l-8.27,2.91
			c-0.66,0.23-1.02,0.94-0.81,1.61C181.27,71.37,182,71.75,182.69,71.53z M104.95,127.44c-0.14,0.03-0.24,0.17-0.21,0.31l1.92,9.48
			c0,0,0,0.01,0,0.02c0.06,0.24,0.3,0.38,0.53,0.33c0.24-0.06,0.38-0.29,0.33-0.53l-2.26-9.4
			C105.22,127.5,105.09,127.42,104.95,127.44z M103.78,123.02c0.02,0.09,0.12,0.15,0.21,0.13c0.1-0.02,0.15-0.12,0.13-0.21
			l-2.26-9.4L103.78,123.02C103.78,123.02,103.78,123.02,103.78,123.02z M163.01,41.2c0.3-0.3,0.47-0.71,0.47-1.14
			c0-0.43-0.17-0.84-0.47-1.14c-0.3-0.3-0.72-0.47-1.14-0.47c-0.42,0-0.84,0.17-1.14,0.47c-0.3,0.3-0.47,0.72-0.47,1.14
			c0,0.43,0.17,0.84,0.47,1.14c0.3,0.3,0.72,0.47,1.14,0.47C162.29,41.67,162.71,41.5,163.01,41.2z M123.85,62.38
			c0.31,0.23,0.75,0.17,0.98-0.14l5.8-7.76c0.01-0.01,0.02-0.03,0.03-0.04c0.29-0.43,0.17-1.01-0.26-1.3
			c-0.43-0.29-1.01-0.17-1.3,0.25l-5.41,8.03C123.48,61.73,123.54,62.16,123.85,62.38z M156.11,47.26l0.93-0.81
			c0.02-0.01,0.03-0.03,0.05-0.05c0.58-0.56,0.6-1.47,0.04-2.05c-0.56-0.58-1.48-0.59-2.06-0.04l-0.89,0.85
			c-0.54,0.52-0.59,1.39-0.08,1.96C154.61,47.72,155.51,47.78,156.11,47.26z M135.03,32.91c-0.59-0.31-1.32-0.09-1.63,0.5
			l-7.6,14.23c-0.22,0.41-0.08,0.92,0.33,1.16c0.42,0.24,0.95,0.1,1.19-0.31l8.18-13.9c0.01-0.01,0.02-0.03,0.02-0.04
			C135.85,33.95,135.62,33.22,135.03,32.91z M132.05,50.82c0.47,0.35,1.13,0.25,1.48-0.22l5.8-7.76c0.01-0.02,0.03-0.03,0.04-0.05
			c0.4-0.59,0.24-1.39-0.35-1.78c-0.59-0.4-1.39-0.24-1.79,0.35l-5.41,8.03C131.49,49.85,131.6,50.48,132.05,50.82z M139.03,68.14
			c0.2,0.28,0.58,0.34,0.86,0.14l23.67-16.89c0.01-0.01,0.02-0.02,0.03-0.02c0.49-0.38,0.58-1.08,0.2-1.56
			c-0.38-0.49-1.08-0.58-1.57-0.2l-23.07,17.69C138.9,67.49,138.84,67.87,139.03,68.14z M177.29,70.69l-9.15,3.22
			c-0.52,0.19-0.81,0.75-0.65,1.29c0.17,0.55,0.75,0.85,1.3,0.68l9.26-2.9c0.01,0,0.03-0.01,0.04-0.01
			c0.63-0.22,0.96-0.91,0.74-1.54C178.61,70.79,177.92,70.46,177.29,70.69z M128.35,65.06c0.18-0.22,0.16-0.54-0.06-0.73
			c-0.22-0.18-0.54-0.16-0.73,0.06l-18.83,22.13l19.6-21.45C128.34,65.07,128.34,65.06,128.35,65.06z M116.14,73.87l5.8-7.76
			c0.01-0.01,0.01-0.02,0.02-0.02c0.18-0.27,0.11-0.63-0.16-0.81c-0.27-0.18-0.63-0.11-0.81,0.16l-5.41,8.03
			c-0.1,0.15-0.07,0.36,0.08,0.48C115.8,74.06,116.02,74.03,116.14,73.87z M113.18,77.42c-0.11-0.07-0.25-0.04-0.33,0.06l-5.41,8.03
			l5.8-7.76c0,0,0-0.01,0.01-0.01C113.32,77.63,113.29,77.49,113.18,77.42z M134.63,72.03c0,0,0.01-0.01,0.01-0.01
			c0.22-0.17,0.26-0.48,0.09-0.7c-0.17-0.22-0.49-0.26-0.71-0.09l-23.07,17.69L134.63,72.03z M175.91,50.99l-11.7,7.18
			c-0.54,0.33-0.73,1.04-0.41,1.59c0.32,0.57,1.05,0.77,1.62,0.45l11.97-6.72c0.01-0.01,0.03-0.02,0.05-0.03
			c0.68-0.42,0.9-1.31,0.48-2C177.49,50.78,176.59,50.57,175.91,50.99z M150.68,48.52l-18.64,17.89c-0.27,0.26-0.29,0.69-0.04,0.98
			c0.26,0.3,0.71,0.32,1.01,0.07l19.45-17.01c0.01-0.01,0.03-0.03,0.04-0.04c0.52-0.5,0.54-1.33,0.03-1.85
			C152.04,48.04,151.2,48.02,150.68,48.52z M128.55,69.77l-18.64,17.89l19.45-17.01c0.01-0.01,0.01-0.01,0.02-0.02
			c0.24-0.23,0.25-0.61,0.02-0.85C129.17,69.55,128.79,69.54,128.55,69.77z M112.34,65.79c-0.18-0.07-0.39,0.01-0.46,0.2l-7.3,17.92
			l7.96-17.64c0,0,0-0.01,0.01-0.01C112.61,66.07,112.53,65.86,112.34,65.79z M109.81,61.33c-0.24-0.07-0.49,0.07-0.56,0.31
			l-6.22,21.7l7.08-21.43c0-0.01,0-0.01,0.01-0.02C110.2,61.65,110.06,61.4,109.81,61.33z M106.48,57.17
			c-0.25-0.04-0.49,0.12-0.54,0.37l-4.5,25.39l5.41-25.22c0,0,0-0.01,0-0.02C106.9,57.45,106.73,57.21,106.48,57.17z M114.1,70.26
			c-0.16-0.09-0.37-0.02-0.45,0.14l-7.6,14.23l8.18-13.9c0,0,0-0.01,0.01-0.01C114.33,70.55,114.27,70.35,114.1,70.26z
			 M124.57,51.59c-0.38-0.2-0.84-0.06-1.04,0.32l-7.6,14.23c-0.11,0.2-0.04,0.46,0.16,0.58c0.21,0.12,0.47,0.05,0.6-0.15l8.18-13.9
			c0-0.01,0.01-0.02,0.02-0.03C125.09,52.25,124.94,51.79,124.57,51.59z M122.7,41.64c-0.43-0.17-0.91,0.03-1.08,0.46l-7.3,17.92
			c-0.1,0.23,0.01,0.51,0.25,0.61c0.24,0.11,0.52,0,0.63-0.24l7.96-17.64c0-0.01,0.01-0.02,0.01-0.03
			C123.33,42.29,123.12,41.81,122.7,41.64z M133.91,76.76l-22.03,13.52l22.54-12.66c0,0,0.01-0.01,0.02-0.01
			c0.24-0.14,0.31-0.45,0.16-0.69C134.45,76.68,134.15,76.61,133.91,76.76z M165.59,91.95c0.63-0.08,1.08-0.66,1-1.3
			c-0.08-0.63-0.67-1.08-1.3-0.99l-22.45,2.96c-0.34,0.05-0.59,0.35-0.56,0.7c0.03,0.36,0.35,0.62,0.71,0.59l22.56-1.96
			C165.55,91.96,165.57,91.95,165.59,91.95z M126.72,124.02c0,0,0.01,0.01,0.02,0.01c0.21,0.18,0.53,0.16,0.71-0.05
			c0.18-0.21,0.16-0.52-0.05-0.7l-17.19-14.69L126.72,124.02z M118.96,113.12C118.97,113.12,118.97,113.12,118.96,113.12
			c0.1,0.07,0.22,0.04,0.28-0.05c0.06-0.09,0.04-0.21-0.05-0.27l-7.98-5.5L118.96,113.12z M132.73,105.62
			c0.2,0.04,0.39-0.09,0.43-0.29c0.04-0.2-0.09-0.39-0.29-0.43l-19.07-3.58l18.92,4.29C132.72,105.61,132.72,105.62,132.73,105.62z
			 M122.52,90.35c0.09-0.03,0.14-0.13,0.11-0.22c-0.03-0.09-0.13-0.14-0.22-0.11l-9.15,3.22L122.52,90.35
			C122.51,90.35,122.51,90.35,122.52,90.35z M132.76,91.08c0.22-0.05,0.35-0.27,0.3-0.49c-0.05-0.22-0.27-0.35-0.49-0.3l-18.87,4.53
			l19.04-3.73C132.74,91.08,132.75,91.08,132.76,91.08z M112.09,105.92l13.84,8.34c0,0,0.01,0.01,0.01,0.01
			c0.18,0.1,0.41,0.03,0.51-0.15c0.1-0.18,0.03-0.41-0.15-0.5L112.09,105.92z M139.02,107.04l18.92,4.29c0.01,0,0.02,0,0.03,0.01
			c0.46,0.09,0.91-0.22,1-0.68c0.09-0.46-0.22-0.91-0.68-0.99l-19.07-3.58c-0.26-0.05-0.51,0.11-0.57,0.37
			C138.59,106.72,138.76,106.98,139.02,107.04z M167.21,106.67c0.8,0.06,1.5-0.54,1.56-1.34c0.06-0.8-0.54-1.5-1.34-1.56
			l-17.93-1.37c-0.51-0.04-0.97,0.33-1.03,0.84c-0.07,0.53,0.3,1.01,0.83,1.08l17.83,2.34
			C167.16,106.67,167.19,106.67,167.21,106.67z M159.35,97.01l-19.4,0.45c-0.24,0.01-0.43,0.2-0.44,0.44c0,0.25,0.19,0.45,0.44,0.45
			l19.4,0.21c0.01,0,0.02,0,0.03,0c0.43-0.01,0.77-0.37,0.76-0.8C160.14,97.34,159.78,97,159.35,97.01z M142.93,103.49
			c0.44,0.03,0.82-0.29,0.85-0.73s-0.29-0.81-0.73-0.85l-29.03-2.21l28.87,3.78C142.9,103.49,142.92,103.49,142.93,103.49z
			 M130.61,121.85c0.22,0.15,0.53,0.1,0.69-0.13s0.1-0.53-0.13-0.69l-7.98-5.5c-0.13-0.09-0.31-0.06-0.41,0.07
			c-0.1,0.13-0.07,0.32,0.06,0.41l7.75,5.82C130.6,121.84,130.6,121.85,130.61,121.85z M135.08,109.37l-21.69-6.46l21.42,7.32
			c0.01,0,0.01,0,0.02,0.01c0.24,0.07,0.49-0.06,0.57-0.3C135.46,109.69,135.32,109.44,135.08,109.37z M46.87,122.29
			c-0.2-0.44-0.71-0.64-1.15-0.44l-14.78,6.54c-0.01,0.01-0.03,0.01-0.05,0.02c-0.6,0.3-0.85,1.02-0.55,1.62
			c0.3,0.6,1.02,0.84,1.62,0.55l14.49-7.15C46.87,123.22,47.06,122.72,46.87,122.29z M47.98,186.51c-0.42,0-0.84,0.17-1.14,0.47
			c-0.3,0.3-0.47,0.72-0.47,1.14c0,0.42,0.17,0.84,0.47,1.14c0.3,0.3,0.72,0.47,1.14,0.47c0.43,0,0.84-0.17,1.14-0.47
			c0.3-0.3,0.48-0.71,0.48-1.14c0-0.43-0.17-0.84-0.47-1.14C48.82,186.68,48.41,186.51,47.98,186.51z M68.42,167.82
			c-0.62-0.28-1.34-0.01-1.62,0.61L61.98,179c-0.01,0.02-0.02,0.04-0.02,0.05c-0.3,0.74,0.06,1.59,0.8,1.89
			c0.74,0.3,1.59-0.05,1.9-0.8l4.39-10.76C69.29,168.79,69.02,168.09,68.42,167.82z M62.84,161.67c-0.5-0.29-1.15-0.12-1.45,0.38
			l-4.89,8.35c-0.01,0.01-0.02,0.03-0.02,0.04c-0.32,0.6-0.1,1.34,0.5,1.66c0.6,0.32,1.35,0.1,1.67-0.5l4.58-8.52
			C63.51,162.58,63.34,161.96,62.84,161.67z M55.87,174.11c-0.63-0.37-1.44-0.15-1.81,0.47l-3.71,6.34
			c-0.01,0.01-0.02,0.03-0.03,0.05c-0.38,0.71-0.11,1.59,0.6,1.96c0.71,0.38,1.59,0.11,1.97-0.59l3.48-6.48
			C56.7,175.24,56.49,174.46,55.87,174.11z M40.31,162.63l-6.36,7c-0.01,0.01-0.02,0.03-0.03,0.04c-0.52,0.61-0.44,1.53,0.18,2.04
			c0.62,0.52,1.53,0.44,2.05-0.18l6.1-7.23c0.44-0.52,0.39-1.31-0.12-1.77C41.6,162.06,40.79,162.1,40.31,162.63z M65.15,137.18
			c0.22-0.26,0.2-0.65-0.06-0.89c-0.26-0.24-0.67-0.22-0.91,0.05l-19.53,21.51c-0.01,0.01-0.02,0.02-0.03,0.03
			c-0.42,0.49-0.35,1.23,0.14,1.64c0.49,0.41,1.23,0.35,1.65-0.14L65.15,137.18z M51.99,161.71l-5.2,7.06
			c-0.01,0.01-0.02,0.03-0.03,0.05c-0.45,0.66-0.27,1.57,0.39,2.01c0.67,0.45,1.57,0.27,2.02-0.39l4.91-7.26
			c0.38-0.56,0.25-1.33-0.3-1.74C53.21,161.02,52.41,161.14,51.99,161.71z M83.14,174.14c-0.62-0.14-1.23,0.25-1.37,0.87
			l-3.48,15.74c0,0.02-0.01,0.04-0.01,0.05c-0.14,0.78,0.38,1.53,1.16,1.67c0.78,0.14,1.54-0.38,1.68-1.16l2.9-15.86
			C84.13,174.86,83.74,174.27,83.14,174.14z M88.66,150.09l2.9-15.86c0.04-0.2-0.09-0.4-0.29-0.44c-0.21-0.05-0.41,0.08-0.46,0.29
			l-3.48,15.74c0,0.01,0,0.02,0,0.02c-0.07,0.37,0.18,0.72,0.54,0.79C88.24,150.7,88.6,150.46,88.66,150.09z M87.21,153.97
			c-0.41-0.09-0.82,0.17-0.91,0.58l-3.48,15.74c0,0.01-0.01,0.03-0.01,0.04c-0.11,0.57,0.28,1.12,0.85,1.23
			c0.58,0.1,1.13-0.28,1.23-0.85l2.9-15.86C87.87,154.45,87.61,154.06,87.21,153.97z M89.72,187.64c-0.42,0-0.84,0.17-1.14,0.47
			c-0.3,0.3-0.48,0.72-0.48,1.14c0,0.42,0.17,0.84,0.48,1.14c0.3,0.3,0.72,0.47,1.14,0.47c0.43,0,0.84-0.17,1.14-0.47
			c0.3-0.3,0.47-0.72,0.47-1.14c0-0.43-0.17-0.84-0.47-1.14C90.56,187.81,90.14,187.64,89.72,187.64z M72.95,179.74
			c-0.66-0.22-1.38,0.14-1.6,0.8l-3.4,10.22c0,0.01-0.01,0.03-0.02,0.05c-0.23,0.77,0.22,1.57,0.99,1.8
			c0.77,0.23,1.58-0.22,1.81-0.98l3.03-10.34C73.96,180.64,73.6,179.95,72.95,179.74z M31.72,158.51c-0.43,0-0.84,0.17-1.14,0.47
			c-0.3,0.3-0.48,0.72-0.48,1.14c0,0.43,0.17,0.84,0.48,1.14c0.3,0.3,0.72,0.47,1.14,0.47c0.43,0,0.84-0.17,1.14-0.47
			c0.3-0.3,0.47-0.72,0.47-1.14c0-0.42-0.17-0.84-0.47-1.14C32.57,158.68,32.15,158.51,31.72,158.51z M83.35,146.48
			c-0.33-0.11-0.69,0.07-0.8,0.4l-9.16,27.54c0,0.01-0.01,0.03-0.01,0.04c-0.18,0.61,0.17,1.24,0.78,1.42
			c0.61,0.18,1.25-0.17,1.42-0.78l8.17-27.84C83.85,146.93,83.67,146.59,83.35,146.48z M41.82,50.89c0.41,0.34,1.03,0.3,1.39-0.1
			c0.37-0.41,0.33-1.04-0.08-1.41l-7.24-6.43c-0.01-0.01-0.02-0.02-0.03-0.03c-0.5-0.41-1.23-0.34-1.64,0.15
			c-0.41,0.49-0.34,1.23,0.15,1.64L41.82,50.89z M71.16,54.99c0.23,0.36,0.71,0.48,1.08,0.26c0.39-0.22,0.52-0.71,0.29-1.1
			L58.16,29.42c-0.01-0.02-0.02-0.04-0.03-0.06c-0.43-0.67-1.33-0.87-2.01-0.44c-0.68,0.43-0.87,1.33-0.44,2L71.16,54.99z
			 M30.63,41.62c0.52,0.43,1.28,0.37,1.73-0.13c0.46-0.51,0.41-1.3-0.1-1.76l-7.24-6.43c-0.01-0.01-0.03-0.02-0.04-0.03
			c-0.6-0.5-1.5-0.42-2,0.18c-0.5,0.6-0.42,1.49,0.18,1.99L30.63,41.62z M21.78,47c0.43,0,0.84-0.17,1.14-0.47
			c0.3-0.3,0.48-0.72,0.48-1.14c0-0.42-0.17-0.84-0.48-1.14c-0.3-0.3-0.71-0.47-1.14-0.47c-0.43,0-0.84,0.17-1.14,0.47
			c-0.3,0.3-0.48,0.72-0.48,1.14c0,0.43,0.17,0.84,0.48,1.14C20.94,46.83,21.35,47,21.78,47z M40.23,141.93
			c-0.36-0.5-1.06-0.61-1.57-0.25l-14.01,10.11c-0.01,0.01-0.03,0.02-0.04,0.03c-0.63,0.49-0.74,1.41-0.25,2.04
			c0.5,0.63,1.41,0.74,2.04,0.25l13.61-10.64C40.49,143.09,40.59,142.42,40.23,141.93z M49.88,36.45c0.39,0.48,1.09,0.58,1.6,0.22
			c0.52-0.38,0.63-1.1,0.25-1.62l-9.48-12.9c-0.01-0.01-0.02-0.03-0.03-0.04c-0.5-0.63-1.41-0.74-2.04-0.24
			c-0.63,0.5-0.74,1.41-0.24,2.04L49.88,36.45z M62.91,52.89c0.26,0.32,0.73,0.39,1.06,0.14c0.34-0.25,0.42-0.73,0.17-1.08l-9.56-13
			c-0.01-0.01-0.02-0.02-0.02-0.03c-0.37-0.46-1.04-0.54-1.5-0.18c-0.46,0.37-0.54,1.04-0.18,1.5L62.91,52.89z M91.56,170.39
			c-0.69-0.08-1.31,0.41-1.39,1.1l-1.08,9.12c0,0.02,0,0.04-0.01,0.06c-0.06,0.8,0.54,1.49,1.34,1.55c0.8,0.06,1.5-0.54,1.56-1.34
			l0.68-9.16C92.71,171.06,92.23,170.47,91.56,170.39z M17.53,126.17c-0.22-0.68-0.96-1.05-1.64-0.83l-8.18,2.66
			c-0.01,0-0.04,0.01-0.05,0.02c-0.75,0.28-1.14,1.11-0.86,1.86c0.28,0.75,1.11,1.14,1.87,0.86l8.08-2.96
			C17.4,127.55,17.75,126.84,17.53,126.17z M14,138.4c0-0.43-0.17-0.84-0.47-1.14c-0.3-0.3-0.72-0.47-1.14-0.47
			c-0.42,0-0.84,0.17-1.14,0.47c-0.3,0.3-0.48,0.72-0.48,1.14c0,0.42,0.17,0.84,0.48,1.14c0.3,0.3,0.72,0.47,1.14,0.47
			c0.43,0,0.84-0.17,1.14-0.47C13.82,139.24,14,138.83,14,138.4z M21.91,142.59l-8.4,4.84c-0.01,0.01-0.03,0.02-0.04,0.03
			c-0.68,0.42-0.88,1.32-0.46,1.99c0.43,0.68,1.32,0.88,2,0.46l8.22-5.13c0.58-0.36,0.77-1.12,0.43-1.72
			C23.3,142.44,22.52,142.23,21.91,142.59z M1.71,81.35l9.56,1.63c0.67,0.11,1.32-0.32,1.46-0.99c0.14-0.68-0.3-1.35-0.98-1.49
			l-9.5-1.97c-0.01,0-0.03-0.01-0.05-0.01c-0.78-0.13-1.53,0.39-1.66,1.17C0.4,80.47,0.93,81.21,1.71,81.35z M6.47,100.16
			c0-0.77-0.63-1.38-1.4-1.38L1.45,98.8c-0.02,0-0.04,0-0.05,0c-0.8,0.03-1.43,0.71-1.4,1.51c0.03,0.8,0.71,1.42,1.51,1.39
			l3.62-0.14C5.88,101.52,6.47,100.91,6.47,100.16z M27.42,114.75c-0.12-0.56-0.68-0.92-1.25-0.8l-22.1,4.74
			c-0.01,0-0.04,0.01-0.05,0.01c-0.78,0.2-1.25,0.99-1.05,1.76c0.2,0.78,0.99,1.25,1.77,1.05l21.91-5.53
			C27.19,115.85,27.54,115.3,27.42,114.75z M12.22,52.77l9.46,4.95c0.6,0.31,1.35,0.1,1.69-0.49c0.35-0.6,0.14-1.38-0.47-1.72
			l-9.28-5.28c-0.01-0.01-0.03-0.02-0.05-0.02c-0.71-0.37-1.59-0.1-1.96,0.61C11.23,51.52,11.5,52.39,12.22,52.77z M133.45,135.57
			c-0.22-0.24-0.6-0.26-0.85-0.04c-0.25,0.22-0.28,0.6-0.06,0.86l19.22,21.78c0.01,0.01,0.02,0.02,0.03,0.03
			c0.42,0.44,1.12,0.46,1.56,0.05c0.44-0.42,0.47-1.12,0.05-1.56L133.45,135.57z M139.2,151.8c-0.32-0.42-0.92-0.51-1.35-0.21
			c-0.44,0.31-0.55,0.93-0.24,1.37l11.18,15.81c0.01,0.01,0.02,0.03,0.03,0.04c0.45,0.59,1.3,0.71,1.9,0.25
			c0.59-0.45,0.71-1.3,0.25-1.89L139.2,151.8z M157.84,161.38c-0.45-0.47-1.2-0.51-1.69-0.08c-0.5,0.44-0.55,1.21-0.11,1.71
			l9.18,10.4c0.01,0.01,0.02,0.03,0.03,0.04c0.55,0.58,1.47,0.61,2.06,0.06c0.59-0.55,0.61-1.47,0.06-2.05L157.84,161.38z
			 M157.07,176.11c-0.43,0-0.84,0.17-1.14,0.47c-0.3,0.3-0.48,0.72-0.48,1.14c0,0.42,0.17,0.84,0.48,1.14
			c0.3,0.3,0.71,0.47,1.14,0.47c0.43,0,0.84-0.17,1.14-0.47c0.3-0.3,0.47-0.72,0.47-1.14c0-0.43-0.17-0.84-0.47-1.14
			C157.91,176.28,157.5,176.11,157.07,176.11z M139.31,165.36c-0.36-0.59-1.14-0.8-1.75-0.46c-0.63,0.35-0.86,1.14-0.51,1.78
			l3.4,6.11c0.01,0.02,0.02,0.04,0.03,0.05c0.42,0.68,1.31,0.9,2,0.48c0.69-0.42,0.9-1.31,0.48-1.99L139.31,165.36z M135.51,176.54
			l-8.33-17.47c-0.22-0.47-0.78-0.68-1.26-0.47c-0.49,0.21-0.72,0.78-0.51,1.27l7.67,17.77c0.01,0.01,0.01,0.03,0.02,0.05
			c0.32,0.66,1.11,0.94,1.78,0.63C135.54,177.99,135.83,177.2,135.51,176.54z M138.29,182.36c-0.33-0.7-1.17-1.02-1.89-0.71
			c-0.74,0.32-1.08,1.17-0.76,1.9l0.04,0.08c0.01,0.01,0.02,0.03,0.02,0.05c0.35,0.72,1.21,1.03,1.94,0.69
			c0.73-0.34,1.03-1.21,0.69-1.93L138.29,182.36z M92.91,156.26c-0.52-0.06-0.99,0.31-1.05,0.82l-1.13,9.6c0,0.01,0,0.03,0,0.05
			c-0.05,0.63,0.43,1.18,1.06,1.23c0.63,0.05,1.19-0.43,1.23-1.06l0.72-9.64C93.78,156.76,93.41,156.32,92.91,156.26z
			 M125.82,143.35l-8.43-13.75c-0.12-0.2-0.38-0.27-0.58-0.15c-0.21,0.12-0.29,0.38-0.17,0.59l7.85,14.09
			c0,0.01,0.01,0.02,0.02,0.03c0.22,0.36,0.7,0.48,1.06,0.26C125.93,144.19,126.04,143.72,125.82,143.35z M190.98,137.08l-6.57-2.74
			c-0.66-0.27-1.43,0.02-1.73,0.67c-0.31,0.67-0.01,1.46,0.65,1.76l6.47,2.96c0.01,0.01,0.03,0.01,0.05,0.02
			c0.74,0.31,1.59-0.04,1.9-0.78C192.07,138.23,191.72,137.38,190.98,137.08z M172.26,138.7c-0.43,0-0.84,0.17-1.14,0.47
			c-0.3,0.3-0.47,0.72-0.47,1.14c0,0.43,0.17,0.84,0.48,1.14c0.3,0.3,0.71,0.47,1.14,0.47c0.42,0,0.84-0.17,1.14-0.47
			c0.3-0.3,0.48-0.72,0.48-1.14c0-0.42-0.17-0.84-0.48-1.14C173.1,138.88,172.68,138.7,172.26,138.7z M198.51,96.1l-6.82,0.16
			c-0.72,0.02-1.3,0.6-1.31,1.32c-0.01,0.74,0.58,1.34,1.32,1.35l6.83,0.08c0.01,0,0.04,0,0.05,0c0.8-0.02,1.44-0.68,1.42-1.48
			C199.98,96.71,199.31,96.08,198.51,96.1z M178.45,131.84l-17.9-7.47c-0.44-0.18-0.95,0.01-1.15,0.45
			c-0.21,0.44-0.01,0.97,0.44,1.17l17.63,8.08c0.01,0.01,0.03,0.01,0.04,0.02c0.62,0.26,1.34-0.03,1.6-0.65
			C179.36,132.82,179.07,132.1,178.45,131.84z M183.87,125.41c0.23-0.77-0.21-1.58-0.98-1.81l-13.72-4.09
			c-0.6-0.18-1.24,0.15-1.44,0.74c-0.21,0.61,0.12,1.27,0.73,1.48l13.54,4.63c0.02,0.01,0.04,0.01,0.06,0.02
			C182.83,126.62,183.64,126.18,183.87,125.41z M190.6,125.98c-0.43,0-0.84,0.17-1.14,0.47c-0.3,0.3-0.47,0.72-0.47,1.14
			c0,0.43,0.17,0.84,0.47,1.14c0.3,0.3,0.72,0.47,1.14,0.47c0.42,0,0.84-0.17,1.14-0.47c0.3-0.3,0.48-0.72,0.48-1.14
			c0-0.43-0.17-0.84-0.48-1.14C191.44,126.15,191.02,125.98,190.6,125.98z M98.92,148.65c-0.41-0.01-0.74,0.32-0.75,0.73
			l-0.36,29.01c0,0.02,0,0.04,0,0.06c0.02,0.74,0.64,1.32,1.38,1.3c0.74-0.02,1.32-0.64,1.3-1.37l-0.85-29
			C99.63,148.98,99.31,148.66,98.92,148.65z M116.08,135.78c-0.11-0.23-0.39-0.34-0.63-0.24c-0.25,0.11-0.36,0.39-0.25,0.63
			l7.67,17.77c0,0.01,0.01,0.02,0.01,0.03c0.2,0.42,0.71,0.6,1.13,0.4c0.42-0.2,0.6-0.7,0.4-1.13L116.08,135.78z M95.83,123.47
			c-0.01,0.12,0.08,0.22,0.19,0.22c0.12,0.01,0.22-0.08,0.22-0.19l0.72-9.64L95.83,123.47C95.83,123.47,95.83,123.47,95.83,123.47z
			 M95.61,127.99c-0.17-0.02-0.33,0.1-0.35,0.27l-1.13,9.6c0,0.01,0,0.02,0,0.02c-0.02,0.29,0.2,0.54,0.48,0.56
			c0.29,0.02,0.54-0.19,0.56-0.48l0.72-9.64C95.9,128.16,95.78,128.01,95.61,127.99z M94.26,142.12c-0.34-0.04-0.66,0.21-0.7,0.55
			l-1.13,9.6c0,0.01,0,0.02,0,0.04c-0.03,0.46,0.31,0.86,0.77,0.89c0.46,0.03,0.86-0.31,0.9-0.77l0.72-9.64
			C94.84,142.46,94.6,142.16,94.26,142.12z M106.21,165.94c0.48-0.06,0.82-0.5,0.76-0.99l-2.94-22.37
			c-0.03-0.26-0.27-0.45-0.54-0.43c-0.27,0.03-0.47,0.27-0.45,0.54l2.18,22.46c0,0.01,0,0.02,0,0.03
			C105.29,165.66,105.73,166,106.21,165.94z M103.19,136.19l-2.94-22.37l2.18,22.46c0,0,0,0.01,0,0.01
			c0.03,0.21,0.22,0.36,0.43,0.33C103.07,136.59,103.22,136.4,103.19,136.19z M120.63,196.78c-0.42,0-0.84,0.17-1.14,0.47
			c-0.3,0.3-0.48,0.71-0.48,1.14c0,0.43,0.17,0.84,0.48,1.14c0.3,0.3,0.72,0.47,1.14,0.47c0.43,0,0.84-0.17,1.14-0.47
			c0.3-0.3,0.47-0.72,0.47-1.14c0-0.43-0.17-0.84-0.47-1.14C121.47,196.95,121.05,196.78,120.63,196.78z M115.97,148
			c-0.17-0.46-0.67-0.72-1.14-0.57c-0.49,0.15-0.77,0.66-0.62,1.15l6.15,20.29c0.01,0.02,0.02,0.05,0.02,0.07
			c0.27,0.75,1.1,1.15,1.86,0.88c0.76-0.27,1.15-1.1,0.88-1.85L115.97,148z M119.4,192.72c0.78-0.19,1.26-0.97,1.08-1.75l-1.66-6.9
			c-0.17-0.69-0.85-1.13-1.55-0.99c-0.72,0.14-1.18,0.84-1.04,1.56l1.41,6.96c0,0.02,0.01,0.04,0.01,0.05
			C117.83,192.43,118.62,192.91,119.4,192.72z M113.58,166.43c0.52-0.12,0.84-0.65,0.72-1.17l-2.26-9.4
			c-0.1-0.41-0.51-0.68-0.93-0.59c-0.43,0.09-0.71,0.5-0.62,0.93l1.92,9.48c0,0.01,0.01,0.02,0.01,0.03
			C112.53,166.23,113.06,166.55,113.58,166.43z M116.77,180.85c0.66-0.16,1.07-0.82,0.92-1.49l-2.26-9.4
			c-0.13-0.55-0.68-0.9-1.24-0.79c-0.57,0.12-0.95,0.67-0.83,1.24l1.92,9.48c0,0.01,0.01,0.03,0.01,0.04
			C115.44,180.6,116.11,181.01,116.77,180.85z M107.81,171.34c-0.07-0.53-0.55-0.91-1.08-0.86c-0.55,0.05-0.94,0.54-0.89,1.08
			l2.18,22.46c0,0.01,0,0.03,0.01,0.05c0.1,0.75,0.79,1.28,1.55,1.18c0.75-0.1,1.29-0.79,1.19-1.54L107.81,171.34z M43.5,38.08
			c-0.57-0.57-1.49-0.58-2.06-0.01c-0.57,0.56-0.58,1.48-0.01,2.05l46.3,46.68L43.54,38.13C43.53,38.11,43.51,38.1,43.5,38.08z
			 M56.21,113.33l27.32-10.01l-27.67,9.01c-0.01,0-0.01,0-0.02,0.01c-0.28,0.1-0.42,0.41-0.32,0.68
			C55.63,113.29,55.94,113.43,56.21,113.33z M72.38,121.8c-0.17,0.16-0.17,0.42-0.01,0.59s0.43,0.17,0.59,0.01l13.91-13.49
			L72.4,121.78C72.39,121.79,72.39,121.79,72.38,121.8z M68.01,121.58l17.81-13.93l-18.34,13.23c0,0-0.01,0.01-0.01,0.01
			c-0.19,0.15-0.22,0.42-0.07,0.61C67.55,121.69,67.82,121.72,68.01,121.58z M64.35,119.12l8.22-5.13c0.12-0.07,0.16-0.22,0.09-0.34
			c-0.07-0.12-0.23-0.16-0.35-0.09l-8.4,4.84c0,0-0.01,0.01-0.01,0.01c-0.2,0.12-0.26,0.39-0.14,0.59
			C63.88,119.18,64.15,119.24,64.35,119.12z M27.07,92.53c-0.04,0.8,0.58,1.48,1.38,1.52l12.31,0.64c0.59,0.03,1.11-0.41,1.18-1
			c0.07-0.62-0.38-1.17-1-1.23l-12.26-1.29c-0.02,0-0.05,0-0.08-0.01C27.8,91.11,27.11,91.73,27.07,92.53z M54.02,104.44l28.79-4.31
			l-28.95,3.04c-0.01,0-0.02,0-0.03,0c-0.35,0.05-0.59,0.38-0.54,0.73C53.34,104.26,53.67,104.5,54.02,104.44z M37.45,100.28
			l19.39-0.76c0.25-0.01,0.45-0.21,0.45-0.46c0-0.26-0.21-0.46-0.47-0.46l-19.41,0.07c-0.01,0-0.02,0-0.03,0
			c-0.45,0.02-0.8,0.39-0.78,0.84C36.63,99.95,37.01,100.3,37.45,100.28z M85.91,120.53c0.09,0.05,0.19,0.01,0.24-0.07l4.58-8.52
			l-4.89,8.35c0,0,0,0,0,0.01C85.79,120.38,85.83,120.48,85.91,120.53z M80.3,124.42l9.04-13.36l-9.58,12.99
			c0,0-0.01,0.01-0.01,0.01c-0.1,0.15-0.06,0.35,0.09,0.45C80,124.61,80.2,124.57,80.3,124.42z M28.42,48.19
			c-0.67-0.44-1.57-0.26-2.02,0.41c-0.44,0.67-0.26,1.57,0.41,2.01l15.57,10.24c0.48,0.31,1.12,0.2,1.46-0.27
			c0.35-0.48,0.24-1.14-0.24-1.49L28.47,48.22C28.45,48.21,28.43,48.2,28.42,48.19z M67,55.83c-0.23-0.3-0.66-0.35-0.96-0.11
			c-0.3,0.23-0.35,0.66-0.11,0.96l10.03,12.64c0.13,0.16,0.36,0.19,0.53,0.07c0.17-0.13,0.21-0.37,0.08-0.54l-9.56-13
			C67.01,55.85,67,55.84,67,55.83z M73.5,93.27C73.49,93.27,73.49,93.27,73.5,93.27c-0.1-0.02-0.19,0.04-0.2,0.14
			c-0.02,0.09,0.05,0.18,0.14,0.19L83,95.24L73.5,93.27z M79.43,72.75c-0.1-0.13-0.29-0.15-0.42-0.05c-0.13,0.1-0.15,0.29-0.05,0.42
			l10.03,12.64L79.43,72.75C79.43,72.75,79.43,72.75,79.43,72.75z M30.74,84.43c-0.01,0-0.02,0-0.03-0.01
			c-0.51-0.09-0.99,0.25-1.07,0.76c-0.09,0.5,0.25,0.98,0.76,1.07l9.56,1.63c0.4,0.07,0.79-0.19,0.87-0.59
			c0.09-0.41-0.18-0.81-0.59-0.9L30.74,84.43z M19.95,63.98c-0.75-0.29-1.59,0.07-1.89,0.82s0.08,1.59,0.82,1.88l10.88,4.25
			c0.6,0.23,1.29-0.04,1.55-0.64c0.27-0.61-0.01-1.32-0.62-1.59L20.01,64C19.99,63.99,19.97,63.98,19.95,63.98z M63.25,83.01
			c-0.01,0-0.01-0.01-0.02-0.01c-0.24-0.09-0.52,0.02-0.61,0.27c-0.1,0.24,0.02,0.51,0.27,0.61l21.08,8.24L63.25,83.01z
			 M76.68,111.42l8.22-5.13l-8.4,4.84c0,0,0,0,0,0c-0.08,0.05-0.11,0.16-0.06,0.24C76.5,111.45,76.6,111.47,76.68,111.42z
			 M69.36,111.38c0,0-0.01,0-0.01,0.01c-0.17,0.08-0.23,0.28-0.15,0.45c0.08,0.17,0.28,0.23,0.45,0.15l14.49-7.15L69.36,111.38z
			 M58.77,85.74c-0.01,0-0.02-0.01-0.03-0.01c-0.32-0.09-0.65,0.1-0.73,0.42c-0.09,0.32,0.1,0.64,0.42,0.73l24.97,6.78L58.77,85.74z
			 M60.94,106.49c-0.22,0.06-0.35,0.28-0.3,0.49c0.06,0.22,0.28,0.35,0.5,0.29l21.95-5.54l-22.13,4.75
			C60.95,106.49,60.94,106.49,60.94,106.49z M29.47,76.32c-0.7-0.19-1.41,0.22-1.6,0.91c-0.19,0.69,0.22,1.41,0.92,1.6l24.97,6.78
			c0.36,0.1,0.74-0.1,0.86-0.46c0.12-0.37-0.08-0.77-0.46-0.89l-24.63-7.92C29.51,76.33,29.49,76.32,29.47,76.32z M68.48,71.9
			c0,0-0.01-0.01-0.01-0.01c-0.18-0.15-0.44-0.12-0.59,0.05c-0.15,0.18-0.12,0.44,0.05,0.59l7.46,6.18c0.1,0.09,0.26,0.07,0.35-0.03
			c0.09-0.1,0.08-0.26-0.02-0.35L68.48,71.9z M28.48,58.68c-0.56-0.29-1.26-0.08-1.55,0.48c-0.3,0.56-0.08,1.25,0.48,1.55
			l25.78,13.47c0.3,0.16,0.67,0.05,0.84-0.25c0.17-0.3,0.07-0.69-0.24-0.86L28.51,58.7C28.5,58.69,28.49,58.68,28.48,58.68z
			 M46.75,52.59c-0.01-0.01-0.02-0.01-0.02-0.02c-0.39-0.32-0.97-0.27-1.29,0.12c-0.32,0.39-0.27,0.96,0.12,1.29l7.46,6.18
			c0.31,0.26,0.77,0.22,1.04-0.08c0.28-0.31,0.25-0.78-0.06-1.06L46.75,52.59z M35.79,73.28l21.08,8.24
			c0.3,0.12,0.64-0.02,0.78-0.32c0.14-0.31,0-0.66-0.31-0.8L36.62,71.3c-0.01-0.01-0.03-0.01-0.04-0.02
			c-0.55-0.22-1.18,0.06-1.4,0.61C34.96,72.44,35.23,73.07,35.79,73.28z M59.4,76.26c-0.25-0.13-0.57-0.04-0.7,0.22
			c-0.13,0.25-0.04,0.56,0.22,0.7l25.78,13.47L59.41,76.27C59.41,76.27,59.4,76.26,59.4,76.26z M48.81,62.85
			c-0.43-0.28-1.01-0.17-1.3,0.26c-0.28,0.43-0.17,1.01,0.27,1.29l16.2,10.66c0.24,0.16,0.56,0.1,0.73-0.13
			c0.17-0.24,0.12-0.57-0.12-0.74L48.84,62.87C48.83,62.86,48.82,62.85,48.81,62.85z M57.61,62.24c0,0-0.01-0.01-0.02-0.01
			c-0.28-0.23-0.7-0.2-0.94,0.09c-0.24,0.28-0.2,0.7,0.09,0.94l7.46,6.18c0.21,0.17,0.51,0.15,0.69-0.05
			c0.18-0.21,0.17-0.52-0.04-0.7L57.61,62.24z M69.71,20.01l3.37,9.07c0.21,0.57,0.85,0.88,1.44,0.69c0.6-0.2,0.93-0.84,0.74-1.45
			l-3.01-9.19c0-0.02-0.01-0.04-0.02-0.05c-0.26-0.69-1.03-1.05-1.73-0.79C69.81,18.54,69.46,19.31,69.71,20.01z M91.31,41.02
			c-0.43,0.06-0.73,0.46-0.67,0.89l2.53,17.55c0.03,0.24,0.25,0.41,0.49,0.38c0.25-0.03,0.42-0.25,0.4-0.49L92.2,41.72
			c0-0.01,0-0.02,0-0.03C92.13,41.26,91.73,40.96,91.31,41.02z M86.39,3.22c0.43,0,0.84-0.17,1.14-0.47c0.3-0.3,0.48-0.72,0.48-1.14
			c0-0.42-0.17-0.84-0.48-1.14C87.23,0.17,86.82,0,86.39,0c-0.42,0-0.84,0.17-1.14,0.47c-0.3,0.3-0.47,0.72-0.47,1.14
			c0,0.43,0.17,0.84,0.47,1.14C85.55,3.05,85.97,3.22,86.39,3.22z M86.85,5.46c-0.8,0.11-1.35,0.85-1.23,1.64l0.83,5.77
			c0.1,0.71,0.75,1.22,1.47,1.14c0.74-0.08,1.27-0.74,1.2-1.47l-0.61-5.8c0-0.02,0-0.04-0.01-0.05C88.38,5.9,87.64,5.35,86.85,5.46z
			 M88.32,17.23c-0.67,0.1-1.14,0.72-1.05,1.39l2.53,17.55c0.07,0.47,0.5,0.81,0.98,0.76c0.49-0.05,0.85-0.49,0.8-0.98l-1.86-17.63
			c0-0.01,0-0.03-0.01-0.05C89.62,17.6,89,17.13,88.32,17.23z M81.78,136.83c0.26,0.11,0.56-0.02,0.67-0.28l9.75-23.89l-10.7,23.48
			c0,0.01-0.01,0.01-0.01,0.02C81.39,136.42,81.52,136.72,81.78,136.83z M84.93,141.42c0.27,0.08,0.56-0.08,0.64-0.35l8.17-27.84
			l-9.16,27.54c0,0.01,0,0.01-0.01,0.02C84.5,141.05,84.66,141.34,84.93,141.42z M92.1,129.72c0.16,0.03,0.31-0.08,0.34-0.24
			l2.9-15.86l-3.48,15.74c0,0,0,0.01,0,0.01C91.83,129.54,91.94,129.69,92.1,129.72z M83.76,124.37c-0.13-0.07-0.29-0.03-0.36,0.09
			l-4.89,8.35c0,0-0.01,0.01-0.01,0.01c-0.11,0.21-0.03,0.48,0.18,0.59c0.21,0.11,0.48,0.03,0.6-0.18l4.58-8.52
			C83.93,124.6,83.88,124.44,83.76,124.37z M68.03,15.47c0.27,0.72,1.06,1.1,1.8,0.86c0.76-0.25,1.17-1.06,0.92-1.81l-0.25-0.77
			c-0.01-0.02-0.01-0.04-0.02-0.05c-0.28-0.75-1.12-1.13-1.87-0.86c-0.75,0.28-1.14,1.11-0.86,1.86L68.03,15.47z M64.71,28.89
			c0.43,0,0.84-0.17,1.14-0.47c0.3-0.3,0.47-0.72,0.47-1.14c0-0.43-0.17-0.84-0.47-1.14c-0.3-0.3-0.72-0.47-1.14-0.47
			c-0.43,0-0.84,0.17-1.14,0.47c-0.3,0.3-0.47,0.72-0.47,1.14c0,0.42,0.17,0.84,0.47,1.14C63.86,28.71,64.28,28.89,64.71,28.89z
			 M72.73,46.73c0.27,0.53,0.92,0.77,1.48,0.52c0.58-0.25,0.84-0.92,0.58-1.5l-4.72-10.63c-0.01-0.02-0.02-0.05-0.03-0.07
			c-0.36-0.71-1.24-1-1.96-0.63c-0.72,0.36-1,1.24-0.64,1.95L72.73,46.73z M81.35,25.39c-0.63,0.16-1,0.79-0.84,1.42l4,15.62
			c0.11,0.43,0.55,0.71,0.99,0.61c0.46-0.1,0.75-0.54,0.65-1l-3.37-15.76c0-0.01-0.01-0.03-0.01-0.05
			C82.61,25.61,81.97,25.23,81.35,25.39z M79.3,22.13c0.17,0.65,0.82,1.06,1.49,0.92c0.68-0.15,1.12-0.82,0.97-1.5l-1.96-9.16
			c0-0.02-0.01-0.04-0.01-0.06c-0.2-0.78-0.99-1.24-1.77-1.05c-0.78,0.2-1.25,0.99-1.05,1.76L79.3,22.13z M74.78,33.61l3.37,9.07
			c0.16,0.43,0.64,0.66,1.08,0.52c0.45-0.15,0.7-0.63,0.55-1.09l-3.01-9.19c0-0.01-0.01-0.03-0.01-0.04
			c-0.2-0.54-0.81-0.82-1.36-0.62C74.85,32.46,74.57,33.06,74.78,33.61z M16.45,81.47c-0.64-0.11-1.26,0.32-1.37,0.96
			c-0.11,0.64,0.32,1.25,0.97,1.36l9.56,1.63c0.54,0.09,1.05-0.26,1.17-0.79c0.11-0.55-0.24-1.08-0.79-1.2l-9.5-1.97
			C16.48,81.48,16.47,81.47,16.45,81.47z M17.73,109.88l28.3-4.24c0.43-0.07,0.74-0.46,0.7-0.9c-0.05-0.45-0.45-0.78-0.9-0.73
			L17.36,107c-0.02,0-0.04,0.01-0.06,0.01c-0.8,0.12-1.34,0.86-1.22,1.65C16.19,109.46,16.93,110,17.73,109.88z M32.92,114.4
			l21.95-5.54c0.27-0.07,0.44-0.34,0.38-0.62c-0.06-0.28-0.34-0.46-0.62-0.4l-22.13,4.75c-0.01,0-0.02,0.01-0.03,0.01
			c-0.5,0.13-0.8,0.63-0.67,1.13C31.91,114.23,32.42,114.53,32.92,114.4z M11.5,98.76c-0.7,0.03-1.25,0.62-1.22,1.32
			c0.03,0.7,0.62,1.25,1.32,1.22l19.39-0.76c0.5-0.02,0.89-0.43,0.89-0.93c0-0.51-0.42-0.92-0.93-0.92l-19.41,0.07
			C11.53,98.76,11.51,98.76,11.5,98.76z M23.31,74.34c-0.02-0.01-0.04-0.01-0.06-0.02c-0.78-0.21-1.58,0.25-1.79,1.02
			c-0.21,0.77,0.25,1.57,1.02,1.78l1.62,0.44c0.73,0.2,1.49-0.21,1.72-0.93c0.24-0.74-0.17-1.54-0.91-1.78L23.31,74.34z M22,123.36
			c-0.61,0.22-0.93,0.9-0.7,1.51c0.22,0.61,0.9,0.92,1.52,0.7l27.32-10.01c0.33-0.12,0.5-0.48,0.39-0.81
			c-0.11-0.34-0.48-0.53-0.82-0.41l-27.67,9.01C22.03,123.35,22.02,123.35,22,123.36z M16.4,90.6c-0.3,0.3-0.48,0.72-0.48,1.14
			c0,0.43,0.17,0.84,0.48,1.14c0.3,0.3,0.72,0.47,1.14,0.47c0.43,0,0.84-0.17,1.14-0.47c0.3-0.3,0.47-0.71,0.47-1.14
			c0-0.43-0.17-0.84-0.47-1.14c-0.3-0.3-0.72-0.47-1.14-0.47C17.12,90.13,16.7,90.3,16.4,90.6z M69.41,165.53
			c0.58,0.23,1.23-0.04,1.47-0.62l9.75-23.89c0.12-0.3-0.01-0.65-0.31-0.78c-0.31-0.14-0.67,0-0.81,0.3l-10.7,23.48
			c-0.01,0.01-0.01,0.03-0.02,0.04C68.55,164.64,68.83,165.29,69.41,165.53z M64.44,144.83l-9.58,12.99
			c-0.01,0.01-0.02,0.03-0.03,0.04c-0.36,0.54-0.22,1.27,0.32,1.63c0.54,0.36,1.27,0.22,1.64-0.32l9.04-13.36
			c0.25-0.38,0.17-0.89-0.2-1.16C65.25,144.37,64.72,144.45,64.44,144.83z M20.17,133.16c-0.72,0.36-1.02,1.23-0.66,1.94
			c0.36,0.72,1.23,1.01,1.95,0.66l6.15-3.04c0.63-0.31,0.9-1.06,0.62-1.7c-0.29-0.66-1.07-0.96-1.73-0.66l-6.28,2.78
			C20.21,133.14,20.18,133.15,20.17,133.16z M64.22,159.21c0.47,0.25,1.06,0.07,1.31-0.4l4.58-8.52c0.2-0.37,0.07-0.84-0.3-1.06
			c-0.38-0.22-0.86-0.09-1.08,0.28l-4.89,8.35c-0.01,0.01-0.01,0.02-0.02,0.03C63.57,158.38,63.75,158.96,64.22,159.21z
			 M54.42,140.37l13.91-13.49c0.21-0.21,0.23-0.54,0.03-0.77c-0.2-0.23-0.56-0.25-0.79-0.04l-14.48,12.88
			c-0.01,0.01-0.02,0.02-0.03,0.03c-0.39,0.37-0.39,0.99-0.02,1.37C53.41,140.74,54.03,140.75,54.42,140.37z M27.34,142.21
			l8.22-5.13c0.46-0.29,0.62-0.9,0.34-1.38c-0.28-0.49-0.91-0.65-1.4-0.37l-8.4,4.84c-0.01,0.01-0.03,0.02-0.04,0.02
			c-0.56,0.35-0.73,1.08-0.38,1.64C26.04,142.39,26.78,142.56,27.34,142.21z M39.67,134.51l8.22-5.13c0.35-0.22,0.46-0.67,0.26-1.03
			c-0.21-0.37-0.68-0.49-1.05-0.28l-8.4,4.84c-0.01,0-0.02,0.01-0.03,0.02c-0.44,0.27-0.57,0.85-0.3,1.29
			C38.66,134.65,39.24,134.78,39.67,134.51z"/>
	</g>
</mask>
<path fill="#15201C" d="M134.52,14.06c0.72,0.32,1.56,0,1.89-0.71l0.63-1.4c0.01-0.01,0.02-0.03,0.02-0.05
	c0.3-0.74-0.06-1.59-0.8-1.89c-0.74-0.3-1.59,0.06-1.9,0.8l-0.58,1.43C133.49,12.93,133.82,13.74,134.52,14.06z M124.54,37.34
	c0.48,0.21,1.04,0,1.26-0.48l7.96-17.64c0.01-0.01,0.01-0.03,0.02-0.04c0.27-0.67-0.05-1.43-0.72-1.7c-0.67-0.27-1.43,0.05-1.7,0.72
	l-7.3,17.92C123.86,36.59,124.07,37.13,124.54,37.34z M126.32,9.46c0.42,0,0.84-0.17,1.14-0.47c0.3-0.3,0.47-0.72,0.47-1.14
	c0-0.42-0.17-0.84-0.47-1.14c-0.3-0.3-0.72-0.47-1.14-0.47c-0.43,0-0.84,0.17-1.14,0.47c-0.3,0.3-0.47,0.72-0.47,1.14
	c0,0.43,0.17,0.84,0.47,1.14C125.47,9.29,125.89,9.46,126.32,9.46z M129.7,62.73c0.23,0.21,0.6,0.2,0.81-0.04l19.6-21.45
	c0.01-0.01,0.02-0.02,0.03-0.03c0.39-0.46,0.33-1.15-0.13-1.53c-0.46-0.39-1.15-0.33-1.54,0.13l-18.83,22.13
	C129.45,62.17,129.47,62.52,129.7,62.73z M136.17,30.88c0.62,0.36,1.43,0.16,1.79-0.46l3.58-6.09c0.01-0.02,0.02-0.04,0.03-0.05
	c0.38-0.71,0.11-1.59-0.6-1.96c-0.71-0.38-1.59-0.11-1.97,0.6l-3.33,6.23C135.35,29.75,135.57,30.52,136.17,30.88z M141.05,35.68
	l-1.12,1.66c-0.41,0.62-0.28,1.46,0.33,1.91c0.62,0.46,1.5,0.33,1.97-0.29l1.2-1.61c0.01-0.02,0.03-0.04,0.04-0.06
	c0.45-0.67,0.27-1.57-0.4-2.01C142.4,34.84,141.49,35.02,141.05,35.68z M117.25,33.75l-6.22,21.7c-0.08,0.3,0.08,0.61,0.38,0.71
	c0.31,0.1,0.64-0.07,0.74-0.37l7.08-21.43c0-0.01,0.01-0.03,0.01-0.04c0.16-0.55-0.16-1.12-0.71-1.28
	C117.98,32.88,117.4,33.2,117.25,33.75z M119.78,28.97c0.61,0.2,1.27-0.13,1.47-0.74l4.5-13.61c0.01-0.02,0.01-0.04,0.02-0.06
	c0.22-0.77-0.23-1.57-1-1.79c-0.77-0.22-1.58,0.23-1.8,1l-3.95,13.78C118.85,28.14,119.18,28.77,119.78,28.97z M107.22,53.41
	c0.3,0.06,0.59-0.13,0.65-0.42l5.41-25.22c0-0.01,0.01-0.02,0.01-0.04c0.1-0.55-0.27-1.07-0.82-1.17c-0.55-0.1-1.08,0.27-1.17,0.82
	l-4.5,25.39C106.74,53.07,106.93,53.35,107.22,53.41z M103.47,40.31c0.54,0.06,1.02-0.33,1.08-0.87l1.05-9.61c0-0.02,0-0.04,0-0.05
	c0.04-0.66-0.46-1.23-1.12-1.27c-0.66-0.04-1.23,0.46-1.27,1.12l-0.62,9.65C102.57,39.79,102.95,40.25,103.47,40.31z M104.69,26.18
	c0.72,0.08,1.36-0.44,1.44-1.16l0.71-6.46c0-0.02,0-0.04,0.01-0.06c0.05-0.8-0.56-1.49-1.36-1.54c-0.8-0.05-1.49,0.56-1.55,1.36
	l-0.41,6.48C103.48,25.49,103.99,26.1,104.69,26.18z M112.99,23.89c0.59,0.13,1.18-0.25,1.3-0.84l4.17-19.44
	c0-0.01,0.01-0.04,0.01-0.05c0.14-0.79-0.39-1.54-1.18-1.68c-0.79-0.14-1.55,0.39-1.69,1.18l-3.47,19.58
	C112.04,23.21,112.41,23.77,112.99,23.89z M152.29,38.86l11.6-12.69c0.01-0.01,0.02-0.03,0.03-0.04c0.52-0.61,0.44-1.53-0.17-2.04
	c-0.61-0.52-1.53-0.44-2.05,0.17l-11.14,13.09c-0.4,0.47-0.36,1.17,0.1,1.59C151.14,39.36,151.87,39.33,152.29,38.86z
	 M154.58,121.88l-17.9-7.47c-0.22-0.09-0.48,0.01-0.58,0.22c-0.1,0.22,0,0.49,0.22,0.59l17.63,8.08c0.01,0,0.02,0.01,0.02,0.01
	c0.4,0.17,0.85-0.02,1.02-0.42C155.16,122.5,154.98,122.05,154.58,121.88z M165.52,148.05c0.63,0.43,1.49,0.28,1.93-0.35
	c0.44-0.63,0.28-1.49-0.35-1.92l-7.98-5.5c-0.52-0.36-1.24-0.25-1.62,0.26c-0.39,0.52-0.29,1.26,0.23,1.66l7.75,5.82
	C165.49,148.03,165.51,148.04,165.52,148.05z M153.89,139.32c0.49,0.34,1.17,0.22,1.51-0.28c0.34-0.49,0.22-1.17-0.28-1.51
	l-7.98-5.5c-0.39-0.27-0.93-0.19-1.22,0.2c-0.3,0.39-0.22,0.95,0.18,1.24l7.75,5.82C153.86,139.3,153.87,139.31,153.89,139.32z
	 M158.2,153.42c0.01,0.01,0.03,0.03,0.05,0.04c0.61,0.52,1.53,0.45,2.05-0.16c0.52-0.61,0.45-1.52-0.16-2.05l-5.74-4.91
	c-0.52-0.44-1.31-0.41-1.78,0.1c-0.49,0.52-0.46,1.33,0.06,1.81L158.2,153.42z M147.99,143.89c0.48,0.41,1.2,0.35,1.61-0.12
	c0.41-0.48,0.36-1.2-0.12-1.61l-17.19-14.69c-0.26-0.22-0.65-0.2-0.89,0.05c-0.24,0.26-0.23,0.66,0.03,0.91l16.52,15.43
	C147.97,143.87,147.98,143.88,147.99,143.89z M114.28,125.82c0.1,0.16,0.3,0.21,0.46,0.11c0.16-0.1,0.21-0.3,0.11-0.46l-8.43-13.75
	l7.85,14.09C114.28,125.82,114.28,125.82,114.28,125.82z M168.82,47.64l10.56-7.54c0.01-0.01,0.03-0.02,0.04-0.03
	c0.64-0.49,0.76-1.4,0.27-2.03c-0.49-0.63-1.4-0.75-2.04-0.27l-10.29,7.9c-0.52,0.4-0.64,1.15-0.25,1.69
	C167.5,47.91,168.27,48.03,168.82,47.64z M118.98,126.63c0.12,0.16,0.36,0.19,0.52,0.07s0.19-0.35,0.07-0.52l-11.78-15.37
	l11.18,15.81C118.98,126.62,118.98,126.62,118.98,126.63z M128.29,131.56c0.19,0.2,0.5,0.21,0.7,0.02c0.2-0.19,0.21-0.5,0.02-0.7
	l-19.96-21.12l19.22,21.78C128.28,131.55,128.28,131.55,128.29,131.56z M163.25,133.62l-14.21-7.7c-0.45-0.24-1.02-0.09-1.29,0.35
	c-0.28,0.46-0.13,1.05,0.33,1.33l13.84,8.34c0.02,0.01,0.04,0.02,0.05,0.03c0.65,0.35,1.47,0.11,1.82-0.54
	C164.14,134.79,163.9,133.98,163.25,133.62z M164.25,112.76l18.92,4.29c0.01,0,0.03,0.01,0.05,0.01c0.73,0.14,1.43-0.34,1.56-1.07
	c0.14-0.72-0.34-1.42-1.07-1.56l-19.07-3.58c-0.51-0.1-1.01,0.23-1.13,0.74C163.4,112.12,163.73,112.64,164.25,112.76z
	 M185.28,98.85c0.68-0.02,1.21-0.58,1.2-1.25c-0.02-0.67-0.58-1.21-1.25-1.19l-19.4,0.45c-0.48,0.01-0.87,0.4-0.87,0.88
	c-0.01,0.49,0.39,0.89,0.88,0.9l19.4,0.21C185.25,98.85,185.26,98.85,185.28,98.85z M113.3,129.95l-8.33-17.47l7.67,17.77
	c0,0,0,0.01,0.01,0.01c0.09,0.18,0.3,0.26,0.48,0.17C113.31,130.35,113.39,130.13,113.3,129.95z M102.25,54.44
	c0.36,0.04,0.68-0.22,0.72-0.58l1.05-9.61c0-0.01,0-0.03,0-0.04c0.03-0.48-0.33-0.89-0.82-0.92c-0.48-0.03-0.9,0.33-0.93,0.81
	l-0.62,9.65C101.65,54.1,101.91,54.4,102.25,54.44z M162.38,119.66c0.55,0.16,1.13-0.15,1.29-0.7c0.16-0.55-0.15-1.12-0.7-1.29
	l-21.69-6.46c-0.3-0.09-0.62,0.07-0.72,0.37c-0.1,0.3,0.06,0.64,0.36,0.74l21.42,7.32C162.35,119.65,162.36,119.66,162.38,119.66z
	 M179.69,107.53c0.3-0.3,0.47-0.72,0.47-1.14c0-0.43-0.17-0.84-0.47-1.14c-0.3-0.3-0.72-0.47-1.14-0.47c-0.42,0-0.84,0.17-1.14,0.47
	c-0.3,0.3-0.48,0.72-0.48,1.14c0,0.42,0.17,0.84,0.48,1.14c0.3,0.3,0.72,0.47,1.14,0.47C178.97,108,179.39,107.83,179.69,107.53z
	 M68.52,131.56c0,0-0.01,0.01-0.01,0.01c-0.19,0.22-0.16,0.55,0.06,0.74c0.22,0.19,0.55,0.16,0.74-0.06l18.74-22.2L68.52,131.56z
	 M65.5,113.57c-0.1-0.22-0.36-0.32-0.58-0.22l-14.78,6.54c-0.01,0-0.02,0.01-0.03,0.01c-0.38,0.19-0.54,0.65-0.35,1.03
	c0.19,0.38,0.65,0.54,1.04,0.35l14.49-7.15C65.51,114.03,65.6,113.78,65.5,113.57z M76.06,136.99l-4.89,8.35
	c0,0.01-0.01,0.02-0.01,0.02c-0.18,0.34-0.05,0.77,0.29,0.95c0.34,0.18,0.77,0.05,0.95-0.29l4.58-8.52c0.13-0.25,0.05-0.56-0.2-0.7
	C76.54,136.66,76.21,136.74,76.06,136.99z M85.18,60.19c-0.25,0.09-0.38,0.37-0.28,0.61l3.37,9.07c0.05,0.14,0.21,0.22,0.36,0.17
	c0.15-0.05,0.23-0.21,0.18-0.36l-3.01-9.19c0-0.01,0-0.01-0.01-0.02C85.71,60.23,85.43,60.1,85.18,60.19z M77.49,127.85
	c-0.19-0.14-0.46-0.1-0.6,0.09l-9.58,12.99c-0.01,0.01-0.01,0.02-0.02,0.02c-0.23,0.34-0.14,0.81,0.2,1.04
	c0.35,0.23,0.81,0.14,1.05-0.2l9.04-13.36C77.72,128.24,77.67,127.99,77.49,127.85z M59.71,120.81l-8.4,4.84
	c-0.01,0-0.01,0.01-0.02,0.01c-0.32,0.2-0.42,0.62-0.22,0.94c0.2,0.32,0.62,0.41,0.94,0.22l8.22-5.13c0.23-0.15,0.31-0.45,0.17-0.69
	C60.27,120.75,59.95,120.67,59.71,120.81z M84.66,69.13c-0.22,0.11-0.3,0.37-0.19,0.59l7.34,14.37l-6.55-14.74
	c0-0.01-0.01-0.01-0.01-0.02C85.14,69.1,84.88,69.02,84.66,69.13z M87.16,46.77c0-0.01,0-0.02-0.01-0.03
	c-0.1-0.4-0.51-0.64-0.91-0.54c-0.4,0.1-0.64,0.51-0.54,0.91l4,15.62c0.06,0.22,0.27,0.35,0.5,0.31c0.23-0.05,0.37-0.27,0.32-0.5
	L87.16,46.77z M69.82,77.94c-0.18-0.12-0.43-0.07-0.56,0.11c-0.12,0.18-0.07,0.43,0.11,0.55l16.2,10.65L69.83,77.95
	C69.83,77.95,69.82,77.95,69.82,77.94z M54.89,89.94c0.06-0.27-0.12-0.54-0.39-0.6l-9.5-1.97c-0.01,0-0.02,0-0.02,0
	c-0.37-0.06-0.72,0.18-0.78,0.55c-0.06,0.37,0.18,0.72,0.55,0.78l9.56,1.63C54.57,90.38,54.83,90.21,54.89,89.94z M63.31,99.26
	L82.7,98.5l-19.41,0.07c0,0-0.01,0-0.01,0c-0.19,0.01-0.34,0.17-0.33,0.36C62.96,99.12,63.12,99.27,63.31,99.26z M68.94,92.59
	c0.03-0.14-0.06-0.27-0.2-0.3l-9.5-1.97c0,0-0.01,0-0.01,0c-0.23-0.04-0.45,0.11-0.49,0.34c-0.04,0.23,0.12,0.45,0.35,0.49
	l9.56,1.63C68.78,92.81,68.91,92.72,68.94,92.59z M45.61,94.94l16.15,0.84c0.3,0.01,0.56-0.2,0.59-0.5c0.03-0.31-0.19-0.58-0.5-0.62
	l-16.09-1.7c-0.02,0-0.04,0-0.05,0c-0.55-0.03-1.02,0.39-1.05,0.94C44.64,94.45,45.06,94.91,45.61,94.94z M79.34,81.55
	C79.34,81.55,79.34,81.54,79.34,81.55c-0.08-0.06-0.18-0.05-0.24,0.02c-0.06,0.07-0.05,0.18,0.02,0.23l7.46,6.18L79.34,81.55z
	 M90.32,74.27c-0.04-0.1-0.15-0.15-0.25-0.11c-0.1,0.04-0.15,0.15-0.11,0.25l3.37,9.07L90.32,74.27
	C90.32,74.28,90.32,74.28,90.32,74.27z M97,28.71c-0.8,0.04-1.42,0.72-1.38,1.52l0.99,20.21c0.02,0.47,0.41,0.84,0.89,0.85
	c0.49,0,0.9-0.39,0.9-0.89l0.14-20.23c0-0.03,0-0.05,0-0.08C98.49,29.29,97.81,28.67,97,28.71z M96.54,82.75l-1.86-17.63
	c0,0,0-0.01,0-0.01c-0.03-0.18-0.2-0.31-0.38-0.29c-0.18,0.03-0.31,0.2-0.29,0.38L96.54,82.75z M97.53,52.82
	c-0.44,0.02-0.79,0.4-0.76,0.84l1.41,28.98l0.2-29.02c0-0.01,0-0.03,0-0.04C98.35,53.14,97.97,52.8,97.53,52.82z M96.9,23.57
	c0.42,0,0.84-0.17,1.14-0.47c0.3-0.3,0.48-0.72,0.48-1.14c0-0.43-0.17-0.84-0.48-1.14c-0.3-0.3-0.71-0.47-1.14-0.47
	c-0.43,0-0.84,0.17-1.14,0.47c-0.3,0.3-0.47,0.72-0.47,1.14c0,0.42,0.17,0.84,0.47,1.14C96.06,23.39,96.48,23.57,96.9,23.57z
	 M100.87,73.08c0.01-0.12-0.08-0.22-0.2-0.23c-0.12-0.01-0.22,0.08-0.23,0.2l-0.62,9.65L100.87,73.08
	C100.87,73.09,100.87,73.09,100.87,73.08z M98.25,142.96c0.01,0.33,0.29,0.59,0.62,0.58c0.33-0.01,0.59-0.29,0.58-0.62l-0.85-29
	l-0.36,29.01C98.25,142.94,98.25,142.95,98.25,142.96z M83.93,56.62c0.3-0.1,0.47-0.42,0.37-0.72l-3.01-9.19
	c0-0.01-0.01-0.02-0.01-0.03c-0.15-0.4-0.59-0.6-0.99-0.45s-0.6,0.59-0.45,0.98l3.37,9.07C83.32,56.56,83.64,56.71,83.93,56.62z
	 M74.65,60.42l15.71,24.43L75.77,59.73c0-0.01-0.01-0.02-0.02-0.03c-0.2-0.31-0.6-0.39-0.91-0.2
	C74.54,59.71,74.45,60.11,74.65,60.42z M91.55,67.27c0,0,0-0.01,0-0.01c-0.04-0.17-0.22-0.28-0.4-0.23
	c-0.17,0.04-0.28,0.22-0.23,0.39l4,15.62L91.55,67.27z M101.04,68.57c0.18,0.02,0.34-0.11,0.36-0.29l1.05-9.61c0-0.01,0-0.02,0-0.02
	c0.02-0.3-0.21-0.56-0.51-0.58c-0.3-0.02-0.56,0.21-0.58,0.51l-0.62,9.65C100.73,68.4,100.86,68.55,101.04,68.57z M48.26,143.25
	L36.39,153.8c-0.01,0.01-0.03,0.03-0.05,0.04c-0.58,0.56-0.59,1.48-0.03,2.05c0.56,0.57,1.48,0.59,2.06,0.03l11.4-11.05
	c0.42-0.41,0.45-1.09,0.05-1.53C49.42,142.88,48.72,142.84,48.26,143.25z M63.03,124.79c-0.18-0.25-0.53-0.31-0.78-0.12L43.91,137.9
	c-0.01,0.01-0.02,0.02-0.03,0.02c-0.43,0.34-0.51,0.96-0.17,1.4c0.34,0.43,0.97,0.51,1.4,0.17l17.81-13.93
	C63.16,125.37,63.21,125.03,63.03,124.79z M76.73,50.13c-0.25-0.49-0.86-0.69-1.36-0.44c-0.5,0.25-0.69,0.86-0.44,1.35l7.34,14.37
	c0.14,0.27,0.46,0.38,0.74,0.26c0.29-0.13,0.42-0.46,0.29-0.75l-6.55-14.74C76.74,50.16,76.74,50.14,76.73,50.13z M127.22,84.73
	l-14.57,6.99l14.9-6.27c0.01,0,0.01-0.01,0.02-0.01c0.2-0.09,0.28-0.33,0.19-0.53C127.65,84.72,127.41,84.64,127.22,84.73z
	 M141.03,84.56l9.26-2.9c0.01,0,0.02-0.01,0.02-0.01c0.36-0.13,0.55-0.52,0.42-0.88c-0.13-0.36-0.52-0.55-0.88-0.42l-9.15,3.22
	c-0.26,0.09-0.41,0.38-0.32,0.64C140.46,84.49,140.75,84.64,141.03,84.56z M164.2,77.31c0.5-0.17,0.76-0.72,0.58-1.21
	c-0.18-0.49-0.72-0.75-1.22-0.58l-9.15,3.22c-0.39,0.14-0.61,0.56-0.48,0.96c0.13,0.41,0.57,0.64,0.98,0.51l9.26-2.9
	C164.18,77.32,164.19,77.31,164.2,77.31z M166.34,69.11c0.71-0.34,1.01-1.19,0.67-1.9c-0.34-0.71-1.19-1-1.9-0.66l-14.57,6.99
	c-0.49,0.24-0.72,0.82-0.5,1.32c0.22,0.52,0.82,0.77,1.35,0.55l14.9-6.27C166.3,69.13,166.32,69.12,166.34,69.11z M181.77,81.47
	c0.78-0.19,1.26-0.97,1.07-1.75c-0.19-0.78-0.97-1.26-1.76-1.07l-17.08,4.1c-0.56,0.14-0.92,0.69-0.81,1.26
	c0.12,0.59,0.69,0.97,1.28,0.85l17.23-3.38C181.73,81.48,181.75,81.47,181.77,81.47z M178.39,87.93l-6.69,0.88
	c-0.69,0.09-1.19,0.71-1.13,1.4c0.06,0.72,0.69,1.24,1.41,1.18l6.73-0.58c0.02,0,0.04,0,0.06-0.01c0.8-0.11,1.36-0.83,1.25-1.63
	C179.92,88.38,179.18,87.83,178.39,87.93z M135.16,123.79c-0.26-0.18-0.62-0.12-0.81,0.13c-0.2,0.26-0.14,0.63,0.12,0.83l7.75,5.82
	c0.01,0.01,0.02,0.01,0.03,0.02c0.36,0.25,0.85,0.16,1.1-0.2c0.25-0.36,0.16-0.85-0.2-1.1L135.16,123.79z M143.95,125.12
	c0.42,0.23,0.94,0.07,1.16-0.34c0.23-0.42,0.07-0.93-0.34-1.16l-14.21-7.7c-0.23-0.12-0.51-0.05-0.65,0.17
	c-0.14,0.23-0.07,0.53,0.16,0.66l13.84,8.34C143.93,125.11,143.94,125.12,143.95,125.12z M138.45,89.41
	c0.06,0.29,0.34,0.48,0.64,0.43l19.04-3.73c0.01,0,0.03-0.01,0.04-0.01c0.51-0.12,0.82-0.63,0.7-1.14c-0.12-0.51-0.64-0.82-1.15-0.7
	l-18.87,4.53C138.57,88.85,138.39,89.13,138.45,89.41z M66.68,95.17c-0.01,0-0.02,0-0.02,0c-0.24-0.01-0.44,0.17-0.45,0.41
	c-0.01,0.24,0.17,0.44,0.41,0.45l16.15,0.84L66.68,95.17z M126.81,88.73c0.04,0.14,0.19,0.21,0.33,0.17l9.26-2.9c0,0,0.01,0,0.01,0
	c0.23-0.08,0.34-0.33,0.26-0.55c-0.08-0.22-0.33-0.34-0.55-0.26l-9.15,3.22C126.84,88.46,126.77,88.6,126.81,88.73z M114.08,98.07
	l19.4,0.21c0,0,0.01,0,0.01,0c0.18,0,0.33-0.16,0.33-0.34c0-0.18-0.16-0.33-0.34-0.33L114.08,98.07z M130.46,112.53
	c0.17,0.07,0.37-0.01,0.44-0.18c0.07-0.17-0.01-0.36-0.18-0.43l-17.9-7.47l17.63,8.08C130.45,112.53,130.46,112.53,130.46,112.53z
	 M160.08,60.7l-22.03,13.52c-0.27,0.17-0.36,0.52-0.21,0.8c0.16,0.29,0.52,0.39,0.81,0.23l22.54-12.66
	c0.01-0.01,0.03-0.01,0.04-0.02c0.52-0.32,0.68-0.99,0.36-1.5C161.27,60.55,160.59,60.39,160.08,60.7z M131.34,83.3
	c0.11,0.26,0.41,0.38,0.67,0.27l14.9-6.27c0.01-0.01,0.03-0.01,0.04-0.02c0.45-0.22,0.64-0.76,0.43-1.21
	c-0.22-0.45-0.76-0.64-1.22-0.42l-14.57,6.99C131.34,82.75,131.23,83.04,131.34,83.3z M136.56,94.47c0.28-0.04,0.47-0.29,0.44-0.57
	s-0.29-0.47-0.57-0.43l-22.45,2.96l22.56-1.96C136.54,94.47,136.55,94.47,136.56,94.47z M127.18,147.17
	c-0.42,0.23-0.57,0.76-0.34,1.18l7.85,14.09c0.01,0.01,0.02,0.03,0.03,0.04c0.35,0.57,1.09,0.75,1.66,0.4
	c0.57-0.35,0.75-1.09,0.4-1.66l-8.43-13.75C128.11,147.09,127.59,146.95,127.18,147.17z M108.03,141.35
	c-0.29,0.06-0.47,0.34-0.42,0.62l1.92,9.48c0,0.01,0,0.02,0.01,0.03c0.09,0.38,0.47,0.61,0.85,0.52c0.38-0.09,0.61-0.47,0.52-0.85
	l-2.26-9.4C108.58,141.47,108.31,141.3,108.03,141.35z M123.49,131.3c-0.16-0.21-0.46-0.26-0.68-0.1c-0.22,0.16-0.28,0.46-0.12,0.68
	l11.18,15.81c0.01,0.01,0.01,0.02,0.02,0.03c0.29,0.38,0.83,0.45,1.21,0.16c0.38-0.29,0.45-0.83,0.16-1.2L123.49,131.3z
	 M111.88,140.9c0.13,0.38,0.55,0.57,0.93,0.44c0.38-0.13,0.57-0.55,0.44-0.92l-9.8-27.32l8.42,27.77
	C111.87,140.88,111.88,140.89,111.88,140.9z M187.19,87.16c-0.3,0.3-0.48,0.72-0.48,1.14c0,0.43,0.17,0.84,0.48,1.14
	c0.3,0.3,0.72,0.47,1.14,0.47c0.42,0,0.84-0.17,1.14-0.47c0.3-0.3,0.47-0.72,0.47-1.14c0-0.43-0.17-0.84-0.47-1.14
	c-0.3-0.3-0.72-0.47-1.14-0.47C187.91,86.69,187.49,86.86,187.19,87.16z M182.69,71.53l8.37-2.62c0.01,0,0.03-0.01,0.05-0.02
	c0.76-0.27,1.15-1.1,0.89-1.85c-0.27-0.76-1.1-1.15-1.86-0.88l-8.27,2.91c-0.66,0.23-1.02,0.94-0.81,1.61
	C181.27,71.37,182,71.75,182.69,71.53z M104.95,127.44c-0.14,0.03-0.24,0.17-0.21,0.31l1.92,9.48c0,0,0,0.01,0,0.02
	c0.06,0.24,0.3,0.38,0.53,0.33c0.24-0.06,0.38-0.29,0.33-0.53l-2.26-9.4C105.22,127.5,105.09,127.42,104.95,127.44z M103.78,123.02
	c0.02,0.09,0.12,0.15,0.21,0.13c0.1-0.02,0.15-0.12,0.13-0.21l-2.26-9.4L103.78,123.02C103.78,123.02,103.78,123.02,103.78,123.02z
	 M163.01,41.2c0.3-0.3,0.47-0.71,0.47-1.14c0-0.43-0.17-0.84-0.47-1.14c-0.3-0.3-0.72-0.47-1.14-0.47c-0.42,0-0.84,0.17-1.14,0.47
	c-0.3,0.3-0.47,0.72-0.47,1.14c0,0.43,0.17,0.84,0.47,1.14c0.3,0.3,0.72,0.47,1.14,0.47C162.29,41.67,162.71,41.5,163.01,41.2z
	 M123.85,62.38c0.31,0.23,0.75,0.17,0.98-0.14l5.8-7.76c0.01-0.01,0.02-0.03,0.03-0.04c0.29-0.43,0.17-1.01-0.26-1.3
	c-0.43-0.29-1.01-0.17-1.3,0.25l-5.41,8.03C123.48,61.73,123.54,62.16,123.85,62.38z M156.11,47.26l0.93-0.81
	c0.02-0.01,0.03-0.03,0.05-0.05c0.58-0.56,0.6-1.47,0.04-2.05c-0.56-0.58-1.48-0.59-2.06-0.04l-0.89,0.85
	c-0.54,0.52-0.59,1.39-0.08,1.96C154.61,47.72,155.51,47.78,156.11,47.26z M135.03,32.91c-0.59-0.31-1.32-0.09-1.63,0.5l-7.6,14.23
	c-0.22,0.41-0.08,0.92,0.33,1.16c0.42,0.24,0.95,0.1,1.19-0.31l8.18-13.9c0.01-0.01,0.02-0.03,0.02-0.04
	C135.85,33.95,135.62,33.22,135.03,32.91z M132.05,50.82c0.47,0.35,1.13,0.25,1.48-0.22l5.8-7.76c0.01-0.02,0.03-0.03,0.04-0.05
	c0.4-0.59,0.24-1.39-0.35-1.78c-0.59-0.4-1.39-0.24-1.79,0.35l-5.41,8.03C131.49,49.85,131.6,50.48,132.05,50.82z M139.03,68.14
	c0.2,0.28,0.58,0.34,0.86,0.14l23.67-16.89c0.01-0.01,0.02-0.02,0.03-0.02c0.49-0.38,0.58-1.08,0.2-1.56
	c-0.38-0.49-1.08-0.58-1.57-0.2l-23.07,17.69C138.9,67.49,138.84,67.87,139.03,68.14z M177.29,70.69l-9.15,3.22
	c-0.52,0.19-0.81,0.75-0.65,1.29c0.17,0.55,0.75,0.85,1.3,0.68l9.26-2.9c0.01,0,0.03-0.01,0.04-0.01c0.63-0.22,0.96-0.91,0.74-1.54
	C178.61,70.79,177.92,70.46,177.29,70.69z M128.35,65.06c0.18-0.22,0.16-0.54-0.06-0.73c-0.22-0.18-0.54-0.16-0.73,0.06
	l-18.83,22.13l19.6-21.45C128.34,65.07,128.34,65.06,128.35,65.06z M116.14,73.87l5.8-7.76c0.01-0.01,0.01-0.02,0.02-0.02
	c0.18-0.27,0.11-0.63-0.16-0.81c-0.27-0.18-0.63-0.11-0.81,0.16l-5.41,8.03c-0.1,0.15-0.07,0.36,0.08,0.48
	C115.8,74.06,116.02,74.03,116.14,73.87z M113.18,77.42c-0.11-0.07-0.25-0.04-0.33,0.06l-5.41,8.03l5.8-7.76c0,0,0-0.01,0.01-0.01
	C113.32,77.63,113.29,77.49,113.18,77.42z M134.63,72.03c0,0,0.01-0.01,0.01-0.01c0.22-0.17,0.26-0.48,0.09-0.7
	c-0.17-0.22-0.49-0.26-0.71-0.09l-23.07,17.69L134.63,72.03z M175.91,50.99l-11.7,7.18c-0.54,0.33-0.73,1.04-0.41,1.59
	c0.32,0.57,1.05,0.77,1.62,0.45l11.97-6.72c0.01-0.01,0.03-0.02,0.05-0.03c0.68-0.42,0.9-1.31,0.48-2
	C177.49,50.78,176.59,50.57,175.91,50.99z M150.68,48.52l-18.64,17.89c-0.27,0.26-0.29,0.69-0.04,0.98c0.26,0.3,0.71,0.32,1.01,0.07
	l19.45-17.01c0.01-0.01,0.03-0.03,0.04-0.04c0.52-0.5,0.54-1.33,0.03-1.85C152.04,48.04,151.2,48.02,150.68,48.52z M128.55,69.77
	l-18.64,17.89l19.45-17.01c0.01-0.01,0.01-0.01,0.02-0.02c0.24-0.23,0.25-0.61,0.02-0.85C129.17,69.55,128.79,69.54,128.55,69.77z
	 M112.34,65.79c-0.18-0.07-0.39,0.01-0.46,0.2l-7.3,17.92l7.96-17.64c0,0,0-0.01,0.01-0.01C112.61,66.07,112.53,65.86,112.34,65.79z
	 M109.81,61.33c-0.24-0.07-0.49,0.07-0.56,0.31l-6.22,21.7l7.08-21.43c0-0.01,0-0.01,0.01-0.02
	C110.2,61.65,110.06,61.4,109.81,61.33z M106.48,57.17c-0.25-0.04-0.49,0.12-0.54,0.37l-4.5,25.39l5.41-25.22c0,0,0-0.01,0-0.02
	C106.9,57.45,106.73,57.21,106.48,57.17z M114.1,70.26c-0.16-0.09-0.37-0.02-0.45,0.14l-7.6,14.23l8.18-13.9c0,0,0-0.01,0.01-0.01
	C114.33,70.55,114.27,70.35,114.1,70.26z M124.57,51.59c-0.38-0.2-0.84-0.06-1.04,0.32l-7.6,14.23c-0.11,0.2-0.04,0.46,0.16,0.58
	c0.21,0.12,0.47,0.05,0.6-0.15l8.18-13.9c0-0.01,0.01-0.02,0.02-0.03C125.09,52.25,124.94,51.79,124.57,51.59z M122.7,41.64
	c-0.43-0.17-0.91,0.03-1.08,0.46l-7.3,17.92c-0.1,0.23,0.01,0.51,0.25,0.61c0.24,0.11,0.52,0,0.63-0.24l7.96-17.64
	c0-0.01,0.01-0.02,0.01-0.03C123.33,42.29,123.12,41.81,122.7,41.64z M133.91,76.76l-22.03,13.52l22.54-12.66
	c0,0,0.01-0.01,0.02-0.01c0.24-0.14,0.31-0.45,0.16-0.69C134.45,76.68,134.15,76.61,133.91,76.76z M165.59,91.95
	c0.63-0.08,1.08-0.66,1-1.3c-0.08-0.63-0.67-1.08-1.3-0.99l-22.45,2.96c-0.34,0.05-0.59,0.35-0.56,0.7
	c0.03,0.36,0.35,0.62,0.71,0.59l22.56-1.96C165.55,91.96,165.57,91.95,165.59,91.95z M126.72,124.02c0,0,0.01,0.01,0.02,0.01
	c0.21,0.18,0.53,0.16,0.71-0.05c0.18-0.21,0.16-0.52-0.05-0.7l-17.19-14.69L126.72,124.02z M118.96,113.12
	C118.97,113.12,118.97,113.12,118.96,113.12c0.1,0.07,0.22,0.04,0.28-0.05c0.06-0.09,0.04-0.21-0.05-0.27l-7.98-5.5L118.96,113.12z
	 M132.73,105.62c0.2,0.04,0.39-0.09,0.43-0.29c0.04-0.2-0.09-0.39-0.29-0.43l-19.07-3.58l18.92,4.29
	C132.72,105.61,132.72,105.62,132.73,105.62z M122.52,90.35c0.09-0.03,0.14-0.13,0.11-0.22c-0.03-0.09-0.13-0.14-0.22-0.11
	l-9.15,3.22L122.52,90.35C122.51,90.35,122.51,90.35,122.52,90.35z M132.76,91.08c0.22-0.05,0.35-0.27,0.3-0.49
	c-0.05-0.22-0.27-0.35-0.49-0.3l-18.87,4.53l19.04-3.73C132.74,91.08,132.75,91.08,132.76,91.08z M112.09,105.92l13.84,8.34
	c0,0,0.01,0.01,0.01,0.01c0.18,0.1,0.41,0.03,0.51-0.15c0.1-0.18,0.03-0.41-0.15-0.5L112.09,105.92z M139.02,107.04l18.92,4.29
	c0.01,0,0.02,0,0.03,0.01c0.46,0.09,0.91-0.22,1-0.68c0.09-0.46-0.22-0.91-0.68-0.99l-19.07-3.58c-0.26-0.05-0.51,0.11-0.57,0.37
	C138.59,106.72,138.76,106.98,139.02,107.04z M167.21,106.67c0.8,0.06,1.5-0.54,1.56-1.34c0.06-0.8-0.54-1.5-1.34-1.56l-17.93-1.37
	c-0.51-0.04-0.97,0.33-1.03,0.84c-0.07,0.53,0.3,1.01,0.83,1.08l17.83,2.34C167.16,106.67,167.19,106.67,167.21,106.67z
	 M159.35,97.01l-19.4,0.45c-0.24,0.01-0.43,0.2-0.44,0.44c0,0.25,0.19,0.45,0.44,0.45l19.4,0.21c0.01,0,0.02,0,0.03,0
	c0.43-0.01,0.77-0.37,0.76-0.8C160.14,97.34,159.78,97,159.35,97.01z M142.93,103.49c0.44,0.03,0.82-0.29,0.85-0.73
	s-0.29-0.81-0.73-0.85l-29.03-2.21l28.87,3.78C142.9,103.49,142.92,103.49,142.93,103.49z M130.61,121.85
	c0.22,0.15,0.53,0.1,0.69-0.13s0.1-0.53-0.13-0.69l-7.98-5.5c-0.13-0.09-0.31-0.06-0.41,0.07c-0.1,0.13-0.07,0.32,0.06,0.41
	l7.75,5.82C130.6,121.84,130.6,121.85,130.61,121.85z M135.08,109.37l-21.69-6.46l21.42,7.32c0.01,0,0.01,0,0.02,0.01
	c0.24,0.07,0.49-0.06,0.57-0.3C135.46,109.69,135.32,109.44,135.08,109.37z M46.87,122.29c-0.2-0.44-0.71-0.64-1.15-0.44
	l-14.78,6.54c-0.01,0.01-0.03,0.01-0.05,0.02c-0.6,0.3-0.85,1.02-0.55,1.62c0.3,0.6,1.02,0.84,1.62,0.55l14.49-7.15
	C46.87,123.22,47.06,122.72,46.87,122.29z M47.98,186.51c-0.42,0-0.84,0.17-1.14,0.47c-0.3,0.3-0.47,0.72-0.47,1.14
	c0,0.42,0.17,0.84,0.47,1.14c0.3,0.3,0.72,0.47,1.14,0.47c0.43,0,0.84-0.17,1.14-0.47c0.3-0.3,0.48-0.71,0.48-1.14
	c0-0.43-0.17-0.84-0.47-1.14C48.82,186.68,48.41,186.51,47.98,186.51z M68.42,167.82c-0.62-0.28-1.34-0.01-1.62,0.61L61.98,179
	c-0.01,0.02-0.02,0.04-0.02,0.05c-0.3,0.74,0.06,1.59,0.8,1.89c0.74,0.3,1.59-0.05,1.9-0.8l4.39-10.76
	C69.29,168.79,69.02,168.09,68.42,167.82z M62.84,161.67c-0.5-0.29-1.15-0.12-1.45,0.38l-4.89,8.35c-0.01,0.01-0.02,0.03-0.02,0.04
	c-0.32,0.6-0.1,1.34,0.5,1.66c0.6,0.32,1.35,0.1,1.67-0.5l4.58-8.52C63.51,162.58,63.34,161.96,62.84,161.67z M55.87,174.11
	c-0.63-0.37-1.44-0.15-1.81,0.47l-3.71,6.34c-0.01,0.01-0.02,0.03-0.03,0.05c-0.38,0.71-0.11,1.59,0.6,1.96
	c0.71,0.38,1.59,0.11,1.97-0.59l3.48-6.48C56.7,175.24,56.49,174.46,55.87,174.11z M40.31,162.63l-6.36,7
	c-0.01,0.01-0.02,0.03-0.03,0.04c-0.52,0.61-0.44,1.53,0.18,2.04c0.62,0.52,1.53,0.44,2.05-0.18l6.1-7.23
	c0.44-0.52,0.39-1.31-0.12-1.77C41.6,162.06,40.79,162.1,40.31,162.63z M65.15,137.18c0.22-0.26,0.2-0.65-0.06-0.89
	c-0.26-0.24-0.67-0.22-0.91,0.05l-19.53,21.51c-0.01,0.01-0.02,0.02-0.03,0.03c-0.42,0.49-0.35,1.23,0.14,1.64
	c0.49,0.41,1.23,0.35,1.65-0.14L65.15,137.18z M51.99,161.71l-5.2,7.06c-0.01,0.01-0.02,0.03-0.03,0.05
	c-0.45,0.66-0.27,1.57,0.39,2.01c0.67,0.45,1.57,0.27,2.02-0.39l4.91-7.26c0.38-0.56,0.25-1.33-0.3-1.74
	C53.21,161.02,52.41,161.14,51.99,161.71z M83.14,174.14c-0.62-0.14-1.23,0.25-1.37,0.87l-3.48,15.74c0,0.02-0.01,0.04-0.01,0.05
	c-0.14,0.78,0.38,1.53,1.16,1.67c0.78,0.14,1.54-0.38,1.68-1.16l2.9-15.86C84.13,174.86,83.74,174.27,83.14,174.14z M88.66,150.09
	l2.9-15.86c0.04-0.2-0.09-0.4-0.29-0.44c-0.21-0.05-0.41,0.08-0.46,0.29l-3.48,15.74c0,0.01,0,0.02,0,0.02
	c-0.07,0.37,0.18,0.72,0.54,0.79C88.24,150.7,88.6,150.46,88.66,150.09z M87.21,153.97c-0.41-0.09-0.82,0.17-0.91,0.58l-3.48,15.74
	c0,0.01-0.01,0.03-0.01,0.04c-0.11,0.57,0.28,1.12,0.85,1.23c0.58,0.1,1.13-0.28,1.23-0.85l2.9-15.86
	C87.87,154.45,87.61,154.06,87.21,153.97z M89.72,187.64c-0.42,0-0.84,0.17-1.14,0.47c-0.3,0.3-0.48,0.72-0.48,1.14
	c0,0.42,0.17,0.84,0.48,1.14c0.3,0.3,0.72,0.47,1.14,0.47c0.43,0,0.84-0.17,1.14-0.47c0.3-0.3,0.47-0.72,0.47-1.14
	c0-0.43-0.17-0.84-0.47-1.14C90.56,187.81,90.14,187.64,89.72,187.64z M72.95,179.74c-0.66-0.22-1.38,0.14-1.6,0.8l-3.4,10.22
	c0,0.01-0.01,0.03-0.02,0.05c-0.23,0.77,0.22,1.57,0.99,1.8c0.77,0.23,1.58-0.22,1.81-0.98l3.03-10.34
	C73.96,180.64,73.6,179.95,72.95,179.74z M31.72,158.51c-0.43,0-0.84,0.17-1.14,0.47c-0.3,0.3-0.48,0.72-0.48,1.14
	c0,0.43,0.17,0.84,0.48,1.14c0.3,0.3,0.72,0.47,1.14,0.47c0.43,0,0.84-0.17,1.14-0.47c0.3-0.3,0.47-0.72,0.47-1.14
	c0-0.42-0.17-0.84-0.47-1.14C32.57,158.68,32.15,158.51,31.72,158.51z M83.35,146.48c-0.33-0.11-0.69,0.07-0.8,0.4l-9.16,27.54
	c0,0.01-0.01,0.03-0.01,0.04c-0.18,0.61,0.17,1.24,0.78,1.42c0.61,0.18,1.25-0.17,1.42-0.78l8.17-27.84
	C83.85,146.93,83.67,146.59,83.35,146.48z M41.82,50.89c0.41,0.34,1.03,0.3,1.39-0.1c0.37-0.41,0.33-1.04-0.08-1.41l-7.24-6.43
	c-0.01-0.01-0.02-0.02-0.03-0.03c-0.5-0.41-1.23-0.34-1.64,0.15c-0.41,0.49-0.34,1.23,0.15,1.64L41.82,50.89z M71.16,54.99
	c0.23,0.36,0.71,0.48,1.08,0.26c0.39-0.22,0.52-0.71,0.29-1.1L58.16,29.42c-0.01-0.02-0.02-0.04-0.03-0.06
	c-0.43-0.67-1.33-0.87-2.01-0.44c-0.68,0.43-0.87,1.33-0.44,2L71.16,54.99z M30.63,41.62c0.52,0.43,1.28,0.37,1.73-0.13
	c0.46-0.51,0.41-1.3-0.1-1.76l-7.24-6.43c-0.01-0.01-0.03-0.02-0.04-0.03c-0.6-0.5-1.5-0.42-2,0.18c-0.5,0.6-0.42,1.49,0.18,1.99
	L30.63,41.62z M21.78,47c0.43,0,0.84-0.17,1.14-0.47c0.3-0.3,0.48-0.72,0.48-1.14c0-0.42-0.17-0.84-0.48-1.14
	c-0.3-0.3-0.71-0.47-1.14-0.47c-0.43,0-0.84,0.17-1.14,0.47c-0.3,0.3-0.48,0.72-0.48,1.14c0,0.43,0.17,0.84,0.48,1.14
	C20.94,46.83,21.35,47,21.78,47z M40.23,141.93c-0.36-0.5-1.06-0.61-1.57-0.25l-14.01,10.11c-0.01,0.01-0.03,0.02-0.04,0.03
	c-0.63,0.49-0.74,1.41-0.25,2.04c0.5,0.63,1.41,0.74,2.04,0.25l13.61-10.64C40.49,143.09,40.59,142.42,40.23,141.93z M49.88,36.45
	c0.39,0.48,1.09,0.58,1.6,0.22c0.52-0.38,0.63-1.1,0.25-1.62l-9.48-12.9c-0.01-0.01-0.02-0.03-0.03-0.04
	c-0.5-0.63-1.41-0.74-2.04-0.24c-0.63,0.5-0.74,1.41-0.24,2.04L49.88,36.45z M62.91,52.89c0.26,0.32,0.73,0.39,1.06,0.14
	c0.34-0.25,0.42-0.73,0.17-1.08l-9.56-13c-0.01-0.01-0.02-0.02-0.02-0.03c-0.37-0.46-1.04-0.54-1.5-0.18
	c-0.46,0.37-0.54,1.04-0.18,1.5L62.91,52.89z M91.56,170.39c-0.69-0.08-1.31,0.41-1.39,1.1l-1.08,9.12c0,0.02,0,0.04-0.01,0.06
	c-0.06,0.8,0.54,1.49,1.34,1.55c0.8,0.06,1.5-0.54,1.56-1.34l0.68-9.16C92.71,171.06,92.23,170.47,91.56,170.39z M17.53,126.17
	c-0.22-0.68-0.96-1.05-1.64-0.83l-8.18,2.66c-0.01,0-0.04,0.01-0.05,0.02c-0.75,0.28-1.14,1.11-0.86,1.86
	c0.28,0.75,1.11,1.14,1.87,0.86l8.08-2.96C17.4,127.55,17.75,126.84,17.53,126.17z M14,138.4c0-0.43-0.17-0.84-0.47-1.14
	c-0.3-0.3-0.72-0.47-1.14-0.47c-0.42,0-0.84,0.17-1.14,0.47c-0.3,0.3-0.48,0.72-0.48,1.14c0,0.42,0.17,0.84,0.48,1.14
	c0.3,0.3,0.72,0.47,1.14,0.47c0.43,0,0.84-0.17,1.14-0.47C13.82,139.24,14,138.83,14,138.4z M21.91,142.59l-8.4,4.84
	c-0.01,0.01-0.03,0.02-0.04,0.03c-0.68,0.42-0.88,1.32-0.46,1.99c0.43,0.68,1.32,0.88,2,0.46l8.22-5.13
	c0.58-0.36,0.77-1.12,0.43-1.72C23.3,142.44,22.52,142.23,21.91,142.59z M1.71,81.35l9.56,1.63c0.67,0.11,1.32-0.32,1.46-0.99
	c0.14-0.68-0.3-1.35-0.98-1.49l-9.5-1.97c-0.01,0-0.03-0.01-0.05-0.01c-0.78-0.13-1.53,0.39-1.66,1.17
	C0.4,80.47,0.93,81.21,1.71,81.35z M6.47,100.16c0-0.77-0.63-1.38-1.4-1.38L1.45,98.8c-0.02,0-0.04,0-0.05,0
	c-0.8,0.03-1.43,0.71-1.4,1.51c0.03,0.8,0.71,1.42,1.51,1.39l3.62-0.14C5.88,101.52,6.47,100.91,6.47,100.16z M27.42,114.75
	c-0.12-0.56-0.68-0.92-1.25-0.8l-22.1,4.74c-0.01,0-0.04,0.01-0.05,0.01c-0.78,0.2-1.25,0.99-1.05,1.76
	c0.2,0.78,0.99,1.25,1.77,1.05l21.91-5.53C27.19,115.85,27.54,115.3,27.42,114.75z M12.22,52.77l9.46,4.95
	c0.6,0.31,1.35,0.1,1.69-0.49c0.35-0.6,0.14-1.38-0.47-1.72l-9.28-5.28c-0.01-0.01-0.03-0.02-0.05-0.02
	c-0.71-0.37-1.59-0.1-1.96,0.61C11.23,51.52,11.5,52.39,12.22,52.77z M133.45,135.57c-0.22-0.24-0.6-0.26-0.85-0.04
	c-0.25,0.22-0.28,0.6-0.06,0.86l19.22,21.78c0.01,0.01,0.02,0.02,0.03,0.03c0.42,0.44,1.12,0.46,1.56,0.05
	c0.44-0.42,0.47-1.12,0.05-1.56L133.45,135.57z M139.2,151.8c-0.32-0.42-0.92-0.51-1.35-0.21c-0.44,0.31-0.55,0.93-0.24,1.37
	l11.18,15.81c0.01,0.01,0.02,0.03,0.03,0.04c0.45,0.59,1.3,0.71,1.9,0.25c0.59-0.45,0.71-1.3,0.25-1.89L139.2,151.8z M157.84,161.38
	c-0.45-0.47-1.2-0.51-1.69-0.08c-0.5,0.44-0.55,1.21-0.11,1.71l9.18,10.4c0.01,0.01,0.02,0.03,0.03,0.04
	c0.55,0.58,1.47,0.61,2.06,0.06c0.59-0.55,0.61-1.47,0.06-2.05L157.84,161.38z M157.07,176.11c-0.43,0-0.84,0.17-1.14,0.47
	c-0.3,0.3-0.48,0.72-0.48,1.14c0,0.42,0.17,0.84,0.48,1.14c0.3,0.3,0.71,0.47,1.14,0.47c0.43,0,0.84-0.17,1.14-0.47
	c0.3-0.3,0.47-0.72,0.47-1.14c0-0.43-0.17-0.84-0.47-1.14C157.91,176.28,157.5,176.11,157.07,176.11z M139.31,165.36
	c-0.36-0.59-1.14-0.8-1.75-0.46c-0.63,0.35-0.86,1.14-0.51,1.78l3.4,6.11c0.01,0.02,0.02,0.04,0.03,0.05c0.42,0.68,1.31,0.9,2,0.48
	c0.69-0.42,0.9-1.31,0.48-1.99L139.31,165.36z M135.51,176.54l-8.33-17.47c-0.22-0.47-0.78-0.68-1.26-0.47
	c-0.49,0.21-0.72,0.78-0.51,1.27l7.67,17.77c0.01,0.01,0.01,0.03,0.02,0.05c0.32,0.66,1.11,0.94,1.78,0.63
	C135.54,177.99,135.83,177.2,135.51,176.54z M138.29,182.36c-0.33-0.7-1.17-1.02-1.89-0.71c-0.74,0.32-1.08,1.17-0.76,1.9l0.04,0.08
	c0.01,0.01,0.02,0.03,0.02,0.05c0.35,0.72,1.21,1.03,1.94,0.69c0.73-0.34,1.03-1.21,0.69-1.93L138.29,182.36z M92.91,156.26
	c-0.52-0.06-0.99,0.31-1.05,0.82l-1.13,9.6c0,0.01,0,0.03,0,0.05c-0.05,0.63,0.43,1.18,1.06,1.23c0.63,0.05,1.19-0.43,1.23-1.06
	l0.72-9.64C93.78,156.76,93.41,156.32,92.91,156.26z M125.82,143.35l-8.43-13.75c-0.12-0.2-0.38-0.27-0.58-0.15
	c-0.21,0.12-0.29,0.38-0.17,0.59l7.85,14.09c0,0.01,0.01,0.02,0.02,0.03c0.22,0.36,0.7,0.48,1.06,0.26
	C125.93,144.19,126.04,143.72,125.82,143.35z M190.98,137.08l-6.57-2.74c-0.66-0.27-1.43,0.02-1.73,0.67
	c-0.31,0.67-0.01,1.46,0.65,1.76l6.47,2.96c0.01,0.01,0.03,0.01,0.05,0.02c0.74,0.31,1.59-0.04,1.9-0.78
	C192.07,138.23,191.72,137.38,190.98,137.08z M172.26,138.7c-0.43,0-0.84,0.17-1.14,0.47c-0.3,0.3-0.47,0.72-0.47,1.14
	c0,0.43,0.17,0.84,0.48,1.14c0.3,0.3,0.71,0.47,1.14,0.47c0.42,0,0.84-0.17,1.14-0.47c0.3-0.3,0.48-0.72,0.48-1.14
	c0-0.42-0.17-0.84-0.48-1.14C173.1,138.88,172.68,138.7,172.26,138.7z M198.51,96.1l-6.82,0.16c-0.72,0.02-1.3,0.6-1.31,1.32
	c-0.01,0.74,0.58,1.34,1.32,1.35l6.83,0.08c0.01,0,0.04,0,0.05,0c0.8-0.02,1.44-0.68,1.42-1.48
	C199.98,96.71,199.31,96.08,198.51,96.1z M178.45,131.84l-17.9-7.47c-0.44-0.18-0.95,0.01-1.15,0.45c-0.21,0.44-0.01,0.97,0.44,1.17
	l17.63,8.08c0.01,0.01,0.03,0.01,0.04,0.02c0.62,0.26,1.34-0.03,1.6-0.65C179.36,132.82,179.07,132.1,178.45,131.84z M183.87,125.41
	c0.23-0.77-0.21-1.58-0.98-1.81l-13.72-4.09c-0.6-0.18-1.24,0.15-1.44,0.74c-0.21,0.61,0.12,1.27,0.73,1.48l13.54,4.63
	c0.02,0.01,0.04,0.01,0.06,0.02C182.83,126.62,183.64,126.18,183.87,125.41z M190.6,125.98c-0.43,0-0.84,0.17-1.14,0.47
	c-0.3,0.3-0.47,0.72-0.47,1.14c0,0.43,0.17,0.84,0.47,1.14c0.3,0.3,0.72,0.47,1.14,0.47c0.42,0,0.84-0.17,1.14-0.47
	c0.3-0.3,0.48-0.72,0.48-1.14c0-0.43-0.17-0.84-0.48-1.14C191.44,126.15,191.02,125.98,190.6,125.98z M98.92,148.65
	c-0.41-0.01-0.74,0.32-0.75,0.73l-0.36,29.01c0,0.02,0,0.04,0,0.06c0.02,0.74,0.64,1.32,1.38,1.3c0.74-0.02,1.32-0.64,1.3-1.37
	l-0.85-29C99.63,148.98,99.31,148.66,98.92,148.65z M116.08,135.78c-0.11-0.23-0.39-0.34-0.63-0.24c-0.25,0.11-0.36,0.39-0.25,0.63
	l7.67,17.77c0,0.01,0.01,0.02,0.01,0.03c0.2,0.42,0.71,0.6,1.13,0.4c0.42-0.2,0.6-0.7,0.4-1.13L116.08,135.78z M95.83,123.47
	c-0.01,0.12,0.08,0.22,0.19,0.22c0.12,0.01,0.22-0.08,0.22-0.19l0.72-9.64L95.83,123.47C95.83,123.47,95.83,123.47,95.83,123.47z
	 M95.61,127.99c-0.17-0.02-0.33,0.1-0.35,0.27l-1.13,9.6c0,0.01,0,0.02,0,0.02c-0.02,0.29,0.2,0.54,0.48,0.56
	c0.29,0.02,0.54-0.19,0.56-0.48l0.72-9.64C95.9,128.16,95.78,128.01,95.61,127.99z M94.26,142.12c-0.34-0.04-0.66,0.21-0.7,0.55
	l-1.13,9.6c0,0.01,0,0.02,0,0.04c-0.03,0.46,0.31,0.86,0.77,0.89c0.46,0.03,0.86-0.31,0.9-0.77l0.72-9.64
	C94.84,142.46,94.6,142.16,94.26,142.12z M106.21,165.94c0.48-0.06,0.82-0.5,0.76-0.99l-2.94-22.37c-0.03-0.26-0.27-0.45-0.54-0.43
	c-0.27,0.03-0.47,0.27-0.45,0.54l2.18,22.46c0,0.01,0,0.02,0,0.03C105.29,165.66,105.73,166,106.21,165.94z M103.19,136.19
	l-2.94-22.37l2.18,22.46c0,0,0,0.01,0,0.01c0.03,0.21,0.22,0.36,0.43,0.33C103.07,136.59,103.22,136.4,103.19,136.19z
	 M120.63,196.78c-0.42,0-0.84,0.17-1.14,0.47c-0.3,0.3-0.48,0.71-0.48,1.14c0,0.43,0.17,0.84,0.48,1.14c0.3,0.3,0.72,0.47,1.14,0.47
	c0.43,0,0.84-0.17,1.14-0.47c0.3-0.3,0.47-0.72,0.47-1.14c0-0.43-0.17-0.84-0.47-1.14C121.47,196.95,121.05,196.78,120.63,196.78z
	 M115.97,148c-0.17-0.46-0.67-0.72-1.14-0.57c-0.49,0.15-0.77,0.66-0.62,1.15l6.15,20.29c0.01,0.02,0.02,0.05,0.02,0.07
	c0.27,0.75,1.1,1.15,1.86,0.88c0.76-0.27,1.15-1.1,0.88-1.85L115.97,148z M119.4,192.72c0.78-0.19,1.26-0.97,1.08-1.75l-1.66-6.9
	c-0.17-0.69-0.85-1.13-1.55-0.99c-0.72,0.14-1.18,0.84-1.04,1.56l1.41,6.96c0,0.02,0.01,0.04,0.01,0.05
	C117.83,192.43,118.62,192.91,119.4,192.72z M113.58,166.43c0.52-0.12,0.84-0.65,0.72-1.17l-2.26-9.4c-0.1-0.41-0.51-0.68-0.93-0.59
	c-0.43,0.09-0.71,0.5-0.62,0.93l1.92,9.48c0,0.01,0.01,0.02,0.01,0.03C112.53,166.23,113.06,166.55,113.58,166.43z M116.77,180.85
	c0.66-0.16,1.07-0.82,0.92-1.49l-2.26-9.4c-0.13-0.55-0.68-0.9-1.24-0.79c-0.57,0.12-0.95,0.67-0.83,1.24l1.92,9.48
	c0,0.01,0.01,0.03,0.01,0.04C115.44,180.6,116.11,181.01,116.77,180.85z M107.81,171.34c-0.07-0.53-0.55-0.91-1.08-0.86
	c-0.55,0.05-0.94,0.54-0.89,1.08l2.18,22.46c0,0.01,0,0.03,0.01,0.05c0.1,0.75,0.79,1.28,1.55,1.18c0.75-0.1,1.29-0.79,1.19-1.54
	L107.81,171.34z M43.5,38.08c-0.57-0.57-1.49-0.58-2.06-0.01c-0.57,0.56-0.58,1.48-0.01,2.05l46.3,46.68L43.54,38.13
	C43.53,38.11,43.51,38.1,43.5,38.08z M56.21,113.33l27.32-10.01l-27.67,9.01c-0.01,0-0.01,0-0.02,0.01
	c-0.28,0.1-0.42,0.41-0.32,0.68C55.63,113.29,55.94,113.43,56.21,113.33z M72.38,121.8c-0.17,0.16-0.17,0.42-0.01,0.59
	s0.43,0.17,0.59,0.01l13.91-13.49L72.4,121.78C72.39,121.79,72.39,121.79,72.38,121.8z M68.01,121.58l17.81-13.93l-18.34,13.23
	c0,0-0.01,0.01-0.01,0.01c-0.19,0.15-0.22,0.42-0.07,0.61C67.55,121.69,67.82,121.72,68.01,121.58z M64.35,119.12l8.22-5.13
	c0.12-0.07,0.16-0.22,0.09-0.34c-0.07-0.12-0.23-0.16-0.35-0.09l-8.4,4.84c0,0-0.01,0.01-0.01,0.01c-0.2,0.12-0.26,0.39-0.14,0.59
	C63.88,119.18,64.15,119.24,64.35,119.12z M27.07,92.53c-0.04,0.8,0.58,1.48,1.38,1.52l12.31,0.64c0.59,0.03,1.11-0.41,1.18-1
	c0.07-0.62-0.38-1.17-1-1.23l-12.26-1.29c-0.02,0-0.05,0-0.08-0.01C27.8,91.11,27.11,91.73,27.07,92.53z M54.02,104.44l28.79-4.31
	l-28.95,3.04c-0.01,0-0.02,0-0.03,0c-0.35,0.05-0.59,0.38-0.54,0.73C53.34,104.26,53.67,104.5,54.02,104.44z M37.45,100.28
	l19.39-0.76c0.25-0.01,0.45-0.21,0.45-0.46c0-0.26-0.21-0.46-0.47-0.46l-19.41,0.07c-0.01,0-0.02,0-0.03,0
	c-0.45,0.02-0.8,0.39-0.78,0.84C36.63,99.95,37.01,100.3,37.45,100.28z M85.91,120.53c0.09,0.05,0.19,0.01,0.24-0.07l4.58-8.52
	l-4.89,8.35c0,0,0,0,0,0.01C85.79,120.38,85.83,120.48,85.91,120.53z M80.3,124.42l9.04-13.36l-9.58,12.99c0,0-0.01,0.01-0.01,0.01
	c-0.1,0.15-0.06,0.35,0.09,0.45C80,124.61,80.2,124.57,80.3,124.42z M28.42,48.19c-0.67-0.44-1.57-0.26-2.02,0.41
	c-0.44,0.67-0.26,1.57,0.41,2.01l15.57,10.24c0.48,0.31,1.12,0.2,1.46-0.27c0.35-0.48,0.24-1.14-0.24-1.49L28.47,48.22
	C28.45,48.21,28.43,48.2,28.42,48.19z M67,55.83c-0.23-0.3-0.66-0.35-0.96-0.11c-0.3,0.23-0.35,0.66-0.11,0.96l10.03,12.64
	c0.13,0.16,0.36,0.19,0.53,0.07c0.17-0.13,0.21-0.37,0.08-0.54l-9.56-13C67.01,55.85,67,55.84,67,55.83z M73.5,93.27
	C73.49,93.27,73.49,93.27,73.5,93.27c-0.1-0.02-0.19,0.04-0.2,0.14c-0.02,0.09,0.05,0.18,0.14,0.19L83,95.24L73.5,93.27z
	 M79.43,72.75c-0.1-0.13-0.29-0.15-0.42-0.05c-0.13,0.1-0.15,0.29-0.05,0.42l10.03,12.64L79.43,72.75
	C79.43,72.75,79.43,72.75,79.43,72.75z M30.74,84.43c-0.01,0-0.02,0-0.03-0.01c-0.51-0.09-0.99,0.25-1.07,0.76
	c-0.09,0.5,0.25,0.98,0.76,1.07l9.56,1.63c0.4,0.07,0.79-0.19,0.87-0.59c0.09-0.41-0.18-0.81-0.59-0.9L30.74,84.43z M19.95,63.98
	c-0.75-0.29-1.59,0.07-1.89,0.82s0.08,1.59,0.82,1.88l10.88,4.25c0.6,0.23,1.29-0.04,1.55-0.64c0.27-0.61-0.01-1.32-0.62-1.59
	L20.01,64C19.99,63.99,19.97,63.98,19.95,63.98z M63.25,83.01c-0.01,0-0.01-0.01-0.02-0.01c-0.24-0.09-0.52,0.02-0.61,0.27
	c-0.1,0.24,0.02,0.51,0.27,0.61l21.08,8.24L63.25,83.01z M76.68,111.42l8.22-5.13l-8.4,4.84c0,0,0,0,0,0
	c-0.08,0.05-0.11,0.16-0.06,0.24C76.5,111.45,76.6,111.47,76.68,111.42z M69.36,111.38c0,0-0.01,0-0.01,0.01
	c-0.17,0.08-0.23,0.28-0.15,0.45c0.08,0.17,0.28,0.23,0.45,0.15l14.49-7.15L69.36,111.38z M58.77,85.74c-0.01,0-0.02-0.01-0.03-0.01
	c-0.32-0.09-0.65,0.1-0.73,0.42c-0.09,0.32,0.1,0.64,0.42,0.73l24.97,6.78L58.77,85.74z M60.94,106.49
	c-0.22,0.06-0.35,0.28-0.3,0.49c0.06,0.22,0.28,0.35,0.5,0.29l21.95-5.54l-22.13,4.75C60.95,106.49,60.94,106.49,60.94,106.49z
	 M29.47,76.32c-0.7-0.19-1.41,0.22-1.6,0.91c-0.19,0.69,0.22,1.41,0.92,1.6l24.97,6.78c0.36,0.1,0.74-0.1,0.86-0.46
	c0.12-0.37-0.08-0.77-0.46-0.89l-24.63-7.92C29.51,76.33,29.49,76.32,29.47,76.32z M68.48,71.9c0,0-0.01-0.01-0.01-0.01
	c-0.18-0.15-0.44-0.12-0.59,0.05c-0.15,0.18-0.12,0.44,0.05,0.59l7.46,6.18c0.1,0.09,0.26,0.07,0.35-0.03
	c0.09-0.1,0.08-0.26-0.02-0.35L68.48,71.9z M28.48,58.68c-0.56-0.29-1.26-0.08-1.55,0.48c-0.3,0.56-0.08,1.25,0.48,1.55l25.78,13.47
	c0.3,0.16,0.67,0.05,0.84-0.25c0.17-0.3,0.07-0.69-0.24-0.86L28.51,58.7C28.5,58.69,28.49,58.68,28.48,58.68z M46.75,52.59
	c-0.01-0.01-0.02-0.01-0.02-0.02c-0.39-0.32-0.97-0.27-1.29,0.12c-0.32,0.39-0.27,0.96,0.12,1.29l7.46,6.18
	c0.31,0.26,0.77,0.22,1.04-0.08c0.28-0.31,0.25-0.78-0.06-1.06L46.75,52.59z M35.79,73.28l21.08,8.24c0.3,0.12,0.64-0.02,0.78-0.32
	c0.14-0.31,0-0.66-0.31-0.8L36.62,71.3c-0.01-0.01-0.03-0.01-0.04-0.02c-0.55-0.22-1.18,0.06-1.4,0.61
	C34.96,72.44,35.23,73.07,35.79,73.28z M59.4,76.26c-0.25-0.13-0.57-0.04-0.7,0.22c-0.13,0.25-0.04,0.56,0.22,0.7l25.78,13.47
	L59.41,76.27C59.41,76.27,59.4,76.26,59.4,76.26z M48.81,62.85c-0.43-0.28-1.01-0.17-1.3,0.26c-0.28,0.43-0.17,1.01,0.27,1.29
	l16.2,10.66c0.24,0.16,0.56,0.1,0.73-0.13c0.17-0.24,0.12-0.57-0.12-0.74L48.84,62.87C48.83,62.86,48.82,62.85,48.81,62.85z
	 M57.61,62.24c0,0-0.01-0.01-0.02-0.01c-0.28-0.23-0.7-0.2-0.94,0.09c-0.24,0.28-0.2,0.7,0.09,0.94l7.46,6.18
	c0.21,0.17,0.51,0.15,0.69-0.05c0.18-0.21,0.17-0.52-0.04-0.7L57.61,62.24z M69.71,20.01l3.37,9.07c0.21,0.57,0.85,0.88,1.44,0.69
	c0.6-0.2,0.93-0.84,0.74-1.45l-3.01-9.19c0-0.02-0.01-0.04-0.02-0.05c-0.26-0.69-1.03-1.05-1.73-0.79
	C69.81,18.54,69.46,19.31,69.71,20.01z M91.31,41.02c-0.43,0.06-0.73,0.46-0.67,0.89l2.53,17.55c0.03,0.24,0.25,0.41,0.49,0.38
	c0.25-0.03,0.42-0.25,0.4-0.49L92.2,41.72c0-0.01,0-0.02,0-0.03C92.13,41.26,91.73,40.96,91.31,41.02z M86.39,3.22
	c0.43,0,0.84-0.17,1.14-0.47c0.3-0.3,0.48-0.72,0.48-1.14c0-0.42-0.17-0.84-0.48-1.14C87.23,0.17,86.82,0,86.39,0
	c-0.42,0-0.84,0.17-1.14,0.47c-0.3,0.3-0.47,0.72-0.47,1.14c0,0.43,0.17,0.84,0.47,1.14C85.55,3.05,85.97,3.22,86.39,3.22z
	 M86.85,5.46c-0.8,0.11-1.35,0.85-1.23,1.64l0.83,5.77c0.1,0.71,0.75,1.22,1.47,1.14c0.74-0.08,1.27-0.74,1.2-1.47l-0.61-5.8
	c0-0.02,0-0.04-0.01-0.05C88.38,5.9,87.64,5.35,86.85,5.46z M88.32,17.23c-0.67,0.1-1.14,0.72-1.05,1.39l2.53,17.55
	c0.07,0.47,0.5,0.81,0.98,0.76c0.49-0.05,0.85-0.49,0.8-0.98l-1.86-17.63c0-0.01,0-0.03-0.01-0.05C89.62,17.6,89,17.13,88.32,17.23z
	 M81.78,136.83c0.26,0.11,0.56-0.02,0.67-0.28l9.75-23.89l-10.7,23.48c0,0.01-0.01,0.01-0.01,0.02
	C81.39,136.42,81.52,136.72,81.78,136.83z M84.93,141.42c0.27,0.08,0.56-0.08,0.64-0.35l8.17-27.84l-9.16,27.54
	c0,0.01,0,0.01-0.01,0.02C84.5,141.05,84.66,141.34,84.93,141.42z M92.1,129.72c0.16,0.03,0.31-0.08,0.34-0.24l2.9-15.86
	l-3.48,15.74c0,0,0,0.01,0,0.01C91.83,129.54,91.94,129.69,92.1,129.72z M83.76,124.37c-0.13-0.07-0.29-0.03-0.36,0.09l-4.89,8.35
	c0,0-0.01,0.01-0.01,0.01c-0.11,0.21-0.03,0.48,0.18,0.59c0.21,0.11,0.48,0.03,0.6-0.18l4.58-8.52
	C83.93,124.6,83.88,124.44,83.76,124.37z M68.03,15.47c0.27,0.72,1.06,1.1,1.8,0.86c0.76-0.25,1.17-1.06,0.92-1.81l-0.25-0.77
	c-0.01-0.02-0.01-0.04-0.02-0.05c-0.28-0.75-1.12-1.13-1.87-0.86c-0.75,0.28-1.14,1.11-0.86,1.86L68.03,15.47z M64.71,28.89
	c0.43,0,0.84-0.17,1.14-0.47c0.3-0.3,0.47-0.72,0.47-1.14c0-0.43-0.17-0.84-0.47-1.14c-0.3-0.3-0.72-0.47-1.14-0.47
	c-0.43,0-0.84,0.17-1.14,0.47c-0.3,0.3-0.47,0.72-0.47,1.14c0,0.42,0.17,0.84,0.47,1.14C63.86,28.71,64.28,28.89,64.71,28.89z
	 M72.73,46.73c0.27,0.53,0.92,0.77,1.48,0.52c0.58-0.25,0.84-0.92,0.58-1.5l-4.72-10.63c-0.01-0.02-0.02-0.05-0.03-0.07
	c-0.36-0.71-1.24-1-1.96-0.63c-0.72,0.36-1,1.24-0.64,1.95L72.73,46.73z M81.35,25.39c-0.63,0.16-1,0.79-0.84,1.42l4,15.62
	c0.11,0.43,0.55,0.71,0.99,0.61c0.46-0.1,0.75-0.54,0.65-1l-3.37-15.76c0-0.01-0.01-0.03-0.01-0.05
	C82.61,25.61,81.97,25.23,81.35,25.39z M79.3,22.13c0.17,0.65,0.82,1.06,1.49,0.92c0.68-0.15,1.12-0.82,0.97-1.5l-1.96-9.16
	c0-0.02-0.01-0.04-0.01-0.06c-0.2-0.78-0.99-1.24-1.77-1.05c-0.78,0.2-1.25,0.99-1.05,1.76L79.3,22.13z M74.78,33.61l3.37,9.07
	c0.16,0.43,0.64,0.66,1.08,0.52c0.45-0.15,0.7-0.63,0.55-1.09l-3.01-9.19c0-0.01-0.01-0.03-0.01-0.04c-0.2-0.54-0.81-0.82-1.36-0.62
	C74.85,32.46,74.57,33.06,74.78,33.61z M16.45,81.47c-0.64-0.11-1.26,0.32-1.37,0.96c-0.11,0.64,0.32,1.25,0.97,1.36l9.56,1.63
	c0.54,0.09,1.05-0.26,1.17-0.79c0.11-0.55-0.24-1.08-0.79-1.2l-9.5-1.97C16.48,81.48,16.47,81.47,16.45,81.47z M17.73,109.88
	l28.3-4.24c0.43-0.07,0.74-0.46,0.7-0.9c-0.05-0.45-0.45-0.78-0.9-0.73L17.36,107c-0.02,0-0.04,0.01-0.06,0.01
	c-0.8,0.12-1.34,0.86-1.22,1.65C16.19,109.46,16.93,110,17.73,109.88z M32.92,114.4l21.95-5.54c0.27-0.07,0.44-0.34,0.38-0.62
	c-0.06-0.28-0.34-0.46-0.62-0.4l-22.13,4.75c-0.01,0-0.02,0.01-0.03,0.01c-0.5,0.13-0.8,0.63-0.67,1.13
	C31.91,114.23,32.42,114.53,32.92,114.4z M11.5,98.76c-0.7,0.03-1.25,0.62-1.22,1.32c0.03,0.7,0.62,1.25,1.32,1.22l19.39-0.76
	c0.5-0.02,0.89-0.43,0.89-0.93c0-0.51-0.42-0.92-0.93-0.92l-19.41,0.07C11.53,98.76,11.51,98.76,11.5,98.76z M23.31,74.34
	c-0.02-0.01-0.04-0.01-0.06-0.02c-0.78-0.21-1.58,0.25-1.79,1.02c-0.21,0.77,0.25,1.57,1.02,1.78l1.62,0.44
	c0.73,0.2,1.49-0.21,1.72-0.93c0.24-0.74-0.17-1.54-0.91-1.78L23.31,74.34z M22,123.36c-0.61,0.22-0.93,0.9-0.7,1.51
	c0.22,0.61,0.9,0.92,1.52,0.7l27.32-10.01c0.33-0.12,0.5-0.48,0.39-0.81c-0.11-0.34-0.48-0.53-0.82-0.41l-27.67,9.01
	C22.03,123.35,22.02,123.35,22,123.36z M16.4,90.6c-0.3,0.3-0.48,0.72-0.48,1.14c0,0.43,0.17,0.84,0.48,1.14
	c0.3,0.3,0.72,0.47,1.14,0.47c0.43,0,0.84-0.17,1.14-0.47c0.3-0.3,0.47-0.71,0.47-1.14c0-0.43-0.17-0.84-0.47-1.14
	c-0.3-0.3-0.72-0.47-1.14-0.47C17.12,90.13,16.7,90.3,16.4,90.6z M69.41,165.53c0.58,0.23,1.23-0.04,1.47-0.62l9.75-23.89
	c0.12-0.3-0.01-0.65-0.31-0.78c-0.31-0.14-0.67,0-0.81,0.3l-10.7,23.48c-0.01,0.01-0.01,0.03-0.02,0.04
	C68.55,164.64,68.83,165.29,69.41,165.53z M64.44,144.83l-9.58,12.99c-0.01,0.01-0.02,0.03-0.03,0.04
	c-0.36,0.54-0.22,1.27,0.32,1.63c0.54,0.36,1.27,0.22,1.64-0.32l9.04-13.36c0.25-0.38,0.17-0.89-0.2-1.16
	C65.25,144.37,64.72,144.45,64.44,144.83z M20.17,133.16c-0.72,0.36-1.02,1.23-0.66,1.94c0.36,0.72,1.23,1.01,1.95,0.66l6.15-3.04
	c0.63-0.31,0.9-1.06,0.62-1.7c-0.29-0.66-1.07-0.96-1.73-0.66l-6.28,2.78C20.21,133.14,20.18,133.15,20.17,133.16z M64.22,159.21
	c0.47,0.25,1.06,0.07,1.31-0.4l4.58-8.52c0.2-0.37,0.07-0.84-0.3-1.06c-0.38-0.22-0.86-0.09-1.08,0.28l-4.89,8.35
	c-0.01,0.01-0.01,0.02-0.02,0.03C63.57,158.38,63.75,158.96,64.22,159.21z M54.42,140.37l13.91-13.49c0.21-0.21,0.23-0.54,0.03-0.77
	c-0.2-0.23-0.56-0.25-0.79-0.04l-14.48,12.88c-0.01,0.01-0.02,0.02-0.03,0.03c-0.39,0.37-0.39,0.99-0.02,1.37
	C53.41,140.74,54.03,140.75,54.42,140.37z M27.34,142.21l8.22-5.13c0.46-0.29,0.62-0.9,0.34-1.38c-0.28-0.49-0.91-0.65-1.4-0.37
	l-8.4,4.84c-0.01,0.01-0.03,0.02-0.04,0.02c-0.56,0.35-0.73,1.08-0.38,1.64C26.04,142.39,26.78,142.56,27.34,142.21z M39.67,134.51
	l8.22-5.13c0.35-0.22,0.46-0.67,0.26-1.03c-0.21-0.37-0.68-0.49-1.05-0.28l-8.4,4.84c-0.01,0-0.02,0.01-0.03,0.02
	c-0.44,0.27-0.57,0.85-0.3,1.29C38.66,134.65,39.24,134.78,39.67,134.51z"/>
</svg>
