<?xml version="1.0" encoding="utf-8"?>
<!-- Generator: Adobe Illustrator 27.0.1, SVG Export Plug-In . SVG Version: 6.00 Build 0)  -->
<svg version="1.1" id="FLIP" xmlns="http://www.w3.org/2000/svg" xmlns:xlink="http://www.w3.org/1999/xlink" x="0px" y="0px"
	 viewBox="0 0 200 140" enable-background="new 0 0 200 140" xml:space="preserve">
<rect opacity="0.01" fill="#AB9B55" enable-background="new    " width="200" height="140"/>
<path fill="#9C834B" d="M46.38,97.25c32.92,19.12,81.36,21.04,114.87,7.61c27.69-12.74,30.19-28.11-2.83-46.1v-10.7
	c44.26,23.18,45.08,48.18,10.07,65.13c-35.06,18.37-104.23,16.66-134.07-7.92l-16.09,12.68L6.68,72.39l55.3,15.17L46.38,97.25z"/>
<g>
	<path fill="#9C834B" d="M65.28,50.35c0,2.77,0.22,5.54,1.42,7.11v0.3H54.95v-0.3c1.2-1.57,1.42-4.34,1.42-7.11V12.76
		c0-2.77-0.22-5.54-1.42-7.11v-0.3H70c2.62,0,4.79-0.07,7.34-0.45l1.2,10.33h-0.3c-2.77-2.32-7.41-2.55-11.83-2.55h-1.12v13.18h0.52
		c3.67,0,6.29-0.22,9.21-1.65h0.3v11.61h-0.3c-2.4-2.17-5.17-2.62-9.21-2.62h-0.52V50.35z"/>
	<path fill="#9C834B" d="M82.06,12.76c0-2.77-0.22-5.54-1.42-7.11v-0.3h11.76v0.3c-1.2,1.57-1.42,4.34-1.42,7.11v37.66h1.12
		c4.42,0,9.06-0.3,11.83-2.62h0.3l-1.2,10.48c-2.55-0.45-4.72-0.52-7.34-0.52H80.63v-0.3c1.2-1.57,1.42-4.34,1.42-7.11V12.76z"/>
	<path fill="#9C834B" d="M117.02,50.35c0,2.77,0.22,5.54,1.42,7.11v0.3c-3.89,0-7.79,0-11.76,0v-0.3c1.2-1.57,1.42-4.34,1.42-7.11
		V12.76c0-2.1-0.08-5.39-1.42-7.11v-0.3c3.97,0,7.86,0,11.76,0v0.3c-1.2,1.57-1.42,4.34-1.42,7.11V50.35z"/>
	<path fill="#9C834B" d="M132.22,5.35c2.62,0,5.09-0.07,7.64,0.52c7.04,1.65,10.11,8.69,10.11,15.5s-3.07,13.85-10.11,15.57
		c-2.55,0.6-5.02,0.45-7.64,0.45v12.95c0,2.77,0.22,5.54,1.42,7.11v0.3h-11.76v-0.3c1.2-1.57,1.42-4.34,1.42-7.11V12.76
		c0-2.77-0.22-5.54-1.42-7.11v-0.3H132.22z M137.84,29.38c2.32-1.42,2.92-5.47,2.92-8.01s-0.6-6.59-2.92-8.01
		c-1.5-0.9-3.89-0.75-5.62-0.67v17.37C133.87,30.13,136.34,30.28,137.84,29.38z"/>
</g>
</svg>
