<?xml version="1.0" encoding="utf-8"?>
<!-- Generator: Adobe Illustrator 27.3.1, SVG Export Plug-In . SVG Version: 6.00 Build 0)  -->
<svg version="1.1" id="Layer_1" xmlns="http://www.w3.org/2000/svg" xmlns:xlink="http://www.w3.org/1999/xlink" x="0px" y="0px"
	 viewBox="0 0 512 512" style="enable-background:new 0 0 512 512;" xml:space="preserve">
<style type="text/css">
	.st0{fill:#FFFFFF;}
</style>
<path class="st0" d="M510.509,307.541c-0.09-60.612,0.008-121.223-0.008-181.834c0.269-2.695-2.689-1.562-4.319-1.797
	c-48.403,0.809-97.011-1.667-145.318,1.141c-136.029,19.443-159.147,201.269-32.171,253.648c11.474,4.396,23.672,7.779,35.986,8.589
	c47.328,1.554,95.016,0.065,142.466,0.566c3.642,0,3.431,0.186,3.431-3.57c0-25.595-0.008-51.181-0.025-76.776L510.509,307.541z"/>
<path class="st0" d="M266.603,141.741c2.706-5.609,5.94-10.944,8.597-16.586c0.758-1.773-2.127-1.06-3.064-1.206
	c-90.168,0.04-180.343,0-270.502,0.097c-2.714,0.283,1.605,4.622,1.809,5.966C35.428,191.036,66.875,252.385,99.21,313.23
	c10.414,21.2,22.091,41.986,32.717,63.153c1.647,1.911,5.615,15.177,7.775,8.808c13.82-26.955,28.358-53.755,41.836-80.775
	c28.993-53.909,56.561-108.547,85.098-162.707l-0.041,0.024L266.603,141.741z"/>
</svg>
