<svg xmlns="http://www.w3.org/2000/svg" viewBox="0 0 168.84 220.04"><defs><style>.cls-1{fill:#fff;}</style></defs><g id="Layer_2" data-name="Layer 2"><g id="Layer_1-2" data-name="Layer 1"><path class="cls-1" d="M84.42,53.32A24.91,24.91,0,1,0,59.51,28.41,24.94,24.94,0,0,0,84.42,53.32Zm0-44.87a20,20,0,1,1-20,20A20,20,0,0,1,84.42,8.45Z"/><path class="cls-1" d="M84.42,56.82a28.41,28.41,0,1,1,28.41-28.41A28.44,28.44,0,0,1,84.42,56.82Zm0-44.87a16.46,16.46,0,1,0,16.46,16.46A16.47,16.47,0,0,0,84.42,12Z"/><path class="cls-1" d="M151.67,27.79a13.57,13.57,0,0,0-8.2,2.74l-44,33.09c-.14.08-.47.27-.95.51l-.14.07-.13.08A25.21,25.21,0,0,1,70.17,64L70,63.87l-.21-.09-.5-.22-43.92-33A13.66,13.66,0,1,0,9,52.36L60.72,91.29l.25.18v32.16c-.24.42-.47.85-.67,1.28L26.8,195.56A14.74,14.74,0,0,0,39,216.49c.38,0,.76,0,1.13,0a14.8,14.8,0,0,0,13.35-8.47L82.89,146a2.73,2.73,0,0,1,2.26-1.27A3,3,0,0,1,87.43,146l29.4,62a14.78,14.78,0,0,0,13.35,8.49c.37,0,.75,0,1.13,0a14.72,14.72,0,0,0,12.18-20.94L110,124.92a14,14,0,0,0-.89-1.6V90.52l50.76-38.16a13.66,13.66,0,0,0-8.21-24.57Zm8.63,14.88a8.68,8.68,0,0,1-3.39,5.74L104.17,88.05v36.82l.46.64a9.62,9.62,0,0,1,.9,1.52L139,197.66a9.77,9.77,0,0,1-4.7,13,9.86,9.86,0,0,1-3.39.9l-.74,0A9.84,9.84,0,0,1,121.3,206L91.83,143.78l-.1-.19a7.9,7.9,0,0,0-6.58-3.81,7.74,7.74,0,0,0-6.63,3.88l0,.06L49,206a9.82,9.82,0,0,1-8.87,5.63c-.25,0-.5,0-.74,0a9.79,9.79,0,0,1-8.1-13.89L64.77,127a10.94,10.94,0,0,1,.73-1.29l.42-.63V88.66L64.67,88a8.27,8.27,0,0,1-1-.62L11.92,48.41a8.71,8.71,0,0,1,5.24-15.67,8.63,8.63,0,0,1,5.22,1.75L66.5,67.65l.17.13.19.1.7.33a30.15,30.15,0,0,0,33.27.29c.81-.41,1.28-.7,1.33-.73l.09,0,44.2-33.23a8.71,8.71,0,0,1,13.85,8.18Z"/><path class="cls-1" d="M130.18,220a18.3,18.3,0,0,1-16.52-10.5L85.15,149.4,56.63,209.56A18.3,18.3,0,0,1,40.12,220c-.46,0-.94,0-1.4-.06a18.23,18.23,0,0,1-15.09-25.9l33.5-70.67c.11-.23.23-.46.35-.69V93.22L6.84,55.16A17.15,17.15,0,1,1,27.46,27.74L71.09,60.53l.11,0,.5.23.45.3a21.69,21.69,0,0,0,24.17.24L97,61c.26-.12.45-.23.58-.3l43.84-32.95A17.15,17.15,0,0,1,162,55.16L112.62,92.27v30.08c.2.36.38.72.55,1.08l33.48,70.62A18.23,18.23,0,0,1,131.58,220C131.11,220,130.64,220,130.18,220Zm-45-83.76a11.37,11.37,0,0,1,9.61,5.54l.24.46,29.47,62.17a6.31,6.31,0,0,0,6.18,3.62,6.14,6.14,0,0,0,2.17-.58,6.27,6.27,0,0,0,3-8.34l-33.48-70.62a5.66,5.66,0,0,0-.58-1L100.67,126V86.3l54.14-40.69a5.21,5.21,0,1,0-6.26-8.32L104,70.73a15.36,15.36,0,0,1-1.46.81,33.66,33.66,0,0,1-36.72-.26L65.26,71l-.86-.54L20.28,37.29a5.2,5.2,0,0,0-7.29,1,5.22,5.22,0,0,0,1,7.29L65.8,84.53a4.16,4.16,0,0,0,.59.37l3,1.71v39.56l-1,1.51a6.17,6.17,0,0,0-.47.82l-33.5,70.67a6.28,6.28,0,0,0,3,8.32,6.14,6.14,0,0,0,2.17.58,6.28,6.28,0,0,0,6.17-3.6l29.6-62.42A11.16,11.16,0,0,1,85.15,136.28Z"/></g></g></svg>