<svg width="1359" height="484" viewBox="0 0 1359 484" fill="none" xmlns="http://www.w3.org/2000/svg">
<path d="M479.44 153.039C478.873 151.233 464.102 167.841 463.621 167.775C462.85 168.435 412.67 166.411 412.828 168.533C412.827 168.634 412.846 168.733 412.884 168.825C412.921 168.918 412.977 169.003 413.048 169.074C413.118 169.145 413.202 169.201 413.294 169.24C413.387 169.278 413.486 169.298 413.586 169.298C414.12 169.08 464.095 169.713 464.471 169.074C464.359 168.652 481.279 153.546 479.44 153.039ZM456.891 189.155C456.891 189.116 465.46 189.32 465.038 188.931L470.417 183.553C471.128 182.894 470.034 181.767 469.342 182.472L464.188 187.633H456.911C456.706 187.633 456.51 187.714 456.366 187.859C456.221 188.003 456.14 188.199 456.14 188.404C456.14 188.608 456.221 188.805 456.366 188.949C456.51 189.094 456.706 189.175 456.911 189.175L456.891 189.155ZM370.683 167.775C370.493 167.793 370.317 167.881 370.189 168.022C370.06 168.163 369.989 168.346 369.989 168.537C369.989 168.727 370.06 168.911 370.189 169.052C370.317 169.192 370.493 169.28 370.683 169.298C371.039 168.955 386.614 170.135 385.744 168.533C385.744 168.433 385.724 168.334 385.686 168.242C385.647 168.149 385.591 168.066 385.52 167.995C385.449 167.925 385.364 167.869 385.272 167.831C385.179 167.794 385.079 167.775 384.979 167.775H370.683ZM532.5 112.382C532.5 112.181 532.421 111.988 532.278 111.846C532.136 111.704 531.943 111.624 531.742 111.624C531.541 111.624 531.349 111.704 531.206 111.846C531.064 111.988 530.984 112.181 530.984 112.382V120.884C529.482 122.142 531.327 123.289 532.303 121.74C532.883 121.576 532.309 112.81 532.5 112.382ZM532.5 44.993C532.5 44.792 532.421 44.5992 532.278 44.4571C532.136 44.3149 531.943 44.2351 531.742 44.2351C531.541 44.2351 531.349 44.3149 531.206 44.4571C531.064 44.5992 530.984 44.792 530.984 44.993V93.1042C530.984 93.3052 531.064 93.498 531.206 93.6401C531.349 93.7823 531.541 93.8621 531.742 93.8621C531.943 93.8621 532.136 93.7823 532.278 93.6401C532.421 93.498 532.5 93.3052 532.5 93.1042V44.993ZM504.514 119.605C503.017 119.21 504.026 127.085 503.749 127.659L498.595 132.812C498.483 132.919 498.406 133.056 498.374 133.206C498.342 133.357 498.356 133.514 498.414 133.656C498.473 133.799 498.573 133.92 498.701 134.005C498.83 134.089 498.981 134.133 499.135 134.131C499.682 134.131 505.265 128.542 505.272 127.995V120.363C505.272 120.263 505.252 120.164 505.213 120.071C505.175 119.979 505.118 119.895 505.047 119.825C504.976 119.754 504.892 119.698 504.799 119.661C504.706 119.623 504.607 119.604 504.507 119.605H504.514ZM503.749 45.3686C504.467 46.1332 502.352 97.7505 504.514 97.5924C506.629 97.7769 504.579 46.4231 505.272 45.685L510.261 40.6959C510.973 40.0039 509.872 38.9099 509.187 39.615C509.108 39.76 503.307 45.2237 503.742 45.3686H503.749ZM0.828747 189.175H8.45494C8.64463 189.157 8.82089 189.07 8.9492 188.929C9.07751 188.788 9.14863 188.604 9.14863 188.414C9.14863 188.223 9.07751 188.04 8.9492 187.899C8.82089 187.758 8.64463 187.67 8.45494 187.653H1.60653C1.32969 187.027 2.33817 179.744 0.84193 180.047C0.642031 180.047 0.450222 180.126 0.308256 180.267C0.166291 180.408 0.0856628 180.599 0.0839246 180.798V188.404C0.0830552 188.504 0.101972 188.604 0.139596 188.697C0.17722 188.79 0.232813 188.875 0.303201 188.947C0.373589 189.018 0.457393 189.075 0.549829 189.114C0.642264 189.154 0.741521 189.174 0.84193 189.175H0.828747ZM517.004 134.869L482.993 168.883C481.015 175.79 518.204 134.612 518.105 135.93C518.79 135.244 517.716 134.131 517.017 134.849L517.004 134.869ZM0.84193 9.14022C2.3118 9.37089 1.34287 3.25482 1.60653 2.60894L9.54911 10.5506V17.8398C9.56678 18.0294 9.65462 18.2057 9.79544 18.334C9.93626 18.4623 10.1199 18.5334 10.3104 18.5334C10.5009 18.5334 10.6846 18.4623 10.8254 18.334C10.9662 18.2057 11.054 18.0294 11.0717 17.8398V10.2342C11.3551 10.0893 0.934209 -0.798401 0.525545 0.0649652C-0.430201 -0.0404841 0.248708 7.97367 0.0575592 8.3757C0.057525 8.47778 0.0779377 8.57884 0.117593 8.67291C0.157248 8.76697 0.215343 8.85214 0.28845 8.92339C0.361557 8.99465 0.448196 9.05056 0.543255 9.08779C0.638315 9.12503 0.73987 9.14286 0.84193 9.14022ZM526.898 24.0547L530.984 19.9751V25.7419C530.984 25.9429 531.064 26.1357 531.206 26.2778C531.349 26.42 531.541 26.4998 531.742 26.4998C531.943 26.4998 532.136 26.42 532.278 26.2778C532.421 26.1357 532.5 25.9429 532.5 25.7419V18.1363C532.503 17.9824 532.459 17.8313 532.375 17.7027C532.29 17.5741 532.168 17.4741 532.026 17.4157C531.884 17.3573 531.727 17.3432 531.576 17.3754C531.426 17.4075 531.288 17.4844 531.182 17.5959L525.837 22.9738C525.118 23.6658 526.212 24.7599 526.898 24.0547ZM0.84193 163.413C0.942026 163.413 1.0413 163.394 1.13403 163.357C1.22676 163.319 1.3111 163.263 1.38219 163.193C1.45327 163.122 1.5097 163.039 1.5482 162.946C1.58671 162.854 1.60653 162.755 1.60653 162.655V117.278C1.58886 117.089 1.50101 116.913 1.3602 116.784C1.21938 116.656 1.03573 116.585 0.845226 116.585C0.654719 116.585 0.471073 116.656 0.330256 116.784C0.189439 116.913 0.101594 117.089 0.0839246 117.278V162.655C0.0839246 162.856 0.163786 163.048 0.305939 163.191C0.376327 163.261 0.459889 163.317 0.551854 163.355C0.643819 163.393 0.742387 163.413 0.84193 163.413ZM116.705 187.653C115.914 188.391 38.4786 186.223 38.6236 188.411C38.4522 190.599 115.94 188.411 116.705 189.175C116.894 189.157 117.071 189.07 117.199 188.929C117.327 188.788 117.398 188.604 117.398 188.414C117.398 188.223 117.327 188.04 117.199 187.899C117.071 187.758 116.894 187.67 116.705 187.653ZM78.4749 182.163C78.9165 182.334 84.3741 176.581 84.5653 176.231C85.2046 175.788 85.7602 175.234 86.2065 174.597C86.3151 174.559 86.4141 174.499 86.4966 174.419L91.651 169.265H98.9476C99.1373 169.247 99.3136 169.159 99.4419 169.019C99.5702 168.878 99.6413 168.694 99.6413 168.504C99.6413 168.313 99.5702 168.13 99.4419 167.989C99.3136 167.848 99.1373 167.76 98.9476 167.743H91.3544C90.893 167.578 85.4617 173.312 85.2574 173.635C84.6199 174.081 84.0665 174.636 83.6227 175.276C83.5114 175.308 83.4096 175.367 83.3261 175.447L78.1717 180.607H70.8751C70.6854 180.625 70.5091 180.713 70.3808 180.854C70.2525 180.994 70.1814 181.178 70.1814 181.369C70.1814 181.559 70.2525 181.743 70.3808 181.883C70.5091 182.024 70.6854 182.112 70.8751 182.13L78.4749 182.163ZM0.84193 72.6668C0.942338 72.6668 1.04176 72.6471 1.13453 72.6086C1.22729 72.5702 1.31158 72.5139 1.38258 72.4429C1.45358 72.3719 1.5099 72.2876 1.54833 72.1949C1.58675 72.1021 1.60653 72.0027 1.60653 71.9023V26.5262C1.58886 26.3365 1.50101 26.1602 1.3602 26.0319C1.21938 25.9036 1.03573 25.8326 0.845226 25.8326C0.654719 25.8326 0.471073 25.9036 0.330256 26.0319C0.189439 26.1602 0.101594 26.3365 0.0839246 26.5262V71.9023C0.0839171 72.1039 0.163567 72.2974 0.305534 72.4406C0.447502 72.5838 0.640291 72.6651 0.84193 72.6668ZM0.84193 99.8925C0.942338 99.8925 1.04176 99.8727 1.13453 99.8343C1.22729 99.7959 1.31158 99.7396 1.38258 99.6686C1.45358 99.5976 1.5099 99.5133 1.54833 99.4206C1.58675 99.3278 1.60653 99.2284 1.60653 99.128V90.0528C1.58886 89.8631 1.50101 89.6869 1.3602 89.5586C1.21938 89.4303 1.03573 89.3592 0.845226 89.3592C0.654719 89.3592 0.471073 89.4303 0.330256 89.5586C0.189439 89.6869 0.101594 89.8631 0.0839246 90.0528V99.128C0.0839171 99.3296 0.163567 99.5231 0.305534 99.6663C0.447502 99.8094 0.640291 99.8907 0.84193 99.8925ZM163.095 187.653C162.633 188.022 146.227 186.763 146.867 188.411C146.168 190.052 162.686 188.806 163.095 189.175C163.284 189.157 163.461 189.07 163.589 188.929C163.717 188.788 163.788 188.604 163.788 188.414C163.788 188.223 163.717 188.04 163.589 187.899C163.461 187.758 163.284 187.67 163.095 187.653ZM126.803 168.533C126.644 170.708 198.306 168.566 199.07 169.298C199.17 169.298 199.269 169.278 199.362 169.24C199.454 169.201 199.538 169.145 199.609 169.074C199.679 169.003 199.735 168.918 199.772 168.825C199.81 168.733 199.829 168.634 199.828 168.533C199.986 166.359 128.325 168.533 127.561 167.769C127.36 167.772 127.168 167.854 127.026 167.997C126.885 168.14 126.804 168.332 126.803 168.533ZM193.263 188.411C193.099 190.599 270.58 188.411 271.344 189.175C271.445 189.175 271.544 189.155 271.636 189.117C271.728 189.078 271.812 189.022 271.883 188.951C271.953 188.88 272.009 188.795 272.047 188.703C272.084 188.61 272.103 188.511 272.102 188.411C272.267 186.223 194.786 188.411 194.021 187.653C193.82 187.653 193.627 187.733 193.485 187.875C193.343 188.017 193.263 188.21 193.263 188.411ZM348.661 189.175C349.452 188.43 426.887 190.599 426.742 188.417C426.914 186.223 349.426 188.417 348.661 187.653C348.471 187.67 348.295 187.758 348.167 187.899C348.038 188.04 347.967 188.223 347.967 188.414C347.967 188.604 348.038 188.788 348.167 188.929C348.295 189.07 348.471 189.157 348.661 189.175ZM302.271 189.175C302.733 188.799 319.138 190.058 318.499 188.411C319.198 186.77 302.68 188.022 302.271 187.653C302.081 187.67 301.905 187.758 301.777 187.899C301.649 188.04 301.577 188.223 301.577 188.414C301.577 188.604 301.649 188.788 301.777 188.929C301.905 189.07 302.081 189.157 302.271 189.175ZM241.973 169.298C242.163 169.28 242.339 169.192 242.468 169.052C242.596 168.911 242.667 168.727 242.667 168.537C242.667 168.346 242.596 168.163 242.468 168.022C242.339 167.881 242.163 167.793 241.973 167.775C241.617 168.112 226.036 166.938 226.912 168.533C226.912 168.735 226.992 168.929 227.134 169.072C227.276 169.215 227.469 169.296 227.67 169.298H241.973ZM342.083 167.775C341.318 168.507 269.657 166.359 269.822 168.533C269.657 170.708 341.318 168.566 342.083 169.298C342.273 169.28 342.449 169.192 342.577 169.052C342.705 168.911 342.777 168.727 342.777 168.537C342.777 168.346 342.705 168.163 342.577 168.022C342.449 167.881 342.273 167.793 342.083 167.775ZM5.98978 181.398C5.98891 181.498 6.00787 181.598 6.04557 181.69C6.08328 181.783 6.13897 181.867 6.20945 181.938C6.27992 182.01 6.36378 182.066 6.45618 182.104C6.54857 182.143 6.64768 182.163 6.74778 182.163H14.3476C14.5373 182.145 14.7136 182.057 14.8419 181.916C14.9702 181.776 15.0413 181.592 15.0413 181.402C15.0413 181.211 14.9702 181.027 14.8419 180.887C14.7136 180.746 14.5373 180.658 14.3476 180.64H7.50579V173.793C7.5044 173.705 7.48882 173.618 7.45965 173.536C7.5453 172.948 7.5453 172.351 7.45965 171.763C7.61125 171.44 7.45965 164.513 7.50579 164.217C7.69035 163.815 13.438 158.839 12.8514 158.325C13.5105 158.707 15.4154 156.123 15.8768 155.847C15.9728 155.75 16.0407 155.629 16.0732 155.496C16.1057 155.364 16.1016 155.225 16.0614 155.095C16.1882 155.138 16.3245 155.143 16.4542 155.11C16.5839 155.077 16.7015 155.008 16.793 154.911C16.76 154.911 22.9955 148.9 22.3957 148.979V141.407C22.3957 141.306 22.3758 141.207 22.3373 141.115C22.2988 141.023 22.2424 140.939 22.1713 140.868C22.1002 140.798 22.0159 140.742 21.9232 140.704C21.8304 140.667 21.7312 140.648 21.6311 140.649C20.148 140.233 21.1433 148.142 20.8731 148.702C20.6951 149.098 14.9408 154.08 15.5341 154.588C14.8749 154.232 12.97 156.789 12.5086 157.066C12.4161 157.161 12.3503 157.278 12.3179 157.407C12.2854 157.535 12.2876 157.67 12.3241 157.797C11.8824 157.138 6.55663 163.228 6.20729 163.36C5.85795 163.492 6.01614 171.44 6.03592 171.763C5.95027 172.351 5.95027 172.948 6.03592 173.536C5.88432 173.845 6.04251 181.088 5.98978 181.398ZM10.3071 45.5795C10.2065 45.5795 10.1068 45.5995 10.014 45.6385C9.92112 45.6774 9.83697 45.7344 9.76641 45.8061C9.69585 45.8779 9.64029 45.9631 9.60298 46.0565C9.56567 46.15 9.54736 46.25 9.54911 46.3506V74.321C9.54879 74.4215 9.56844 74.521 9.60691 74.6138C9.64538 74.7065 9.70191 74.7907 9.77321 74.8615L20.8731 85.9534C21.3608 86.7904 19.8053 113.779 21.6311 113.634C21.8261 113.634 22.0139 113.56 22.156 113.426C22.2982 113.293 22.3839 113.11 22.3957 112.915V85.637C22.3958 85.5376 22.3761 85.4392 22.3376 85.3475C22.2991 85.2558 22.2427 85.1727 22.1715 85.1032L11.0519 74.0311V46.3506C11.0537 46.1501 10.9767 45.9569 10.8373 45.8127C10.698 45.6684 10.5076 45.5847 10.3071 45.5795ZM26.1593 181.398C26.1584 181.498 26.1774 181.598 26.2151 181.69C26.2528 181.783 26.3085 181.867 26.379 181.938C26.4495 182.01 26.5333 182.066 26.6257 182.104C26.7181 182.143 26.8172 182.163 26.9173 182.163H58.3185C58.5082 182.145 58.6845 182.057 58.8128 181.916C58.9411 181.776 59.0122 181.592 59.0122 181.402C59.0122 181.211 58.9411 181.027 58.8128 180.887C58.6845 180.746 58.5082 180.658 58.3185 180.64H26.9173C26.8175 180.639 26.7186 180.658 26.6262 180.696C26.5338 180.734 26.4499 180.79 26.3794 180.86C26.3088 180.931 26.253 181.015 26.2152 181.107C26.1774 181.199 26.1584 181.298 26.1593 181.398ZM0.551911 483.122C0.914435 484.025 11.2958 473.13 11.0981 472.952V465.347C11.0981 465.247 11.0783 465.148 11.0398 465.055C11.0012 464.963 10.9448 464.879 10.8737 464.809C10.8026 464.738 10.7183 464.682 10.6256 464.645C10.5329 464.607 10.4336 464.588 10.3335 464.589C8.85042 464.167 9.84572 472.082 9.57547 472.643L1.66585 480.551C1.3956 479.892 2.37772 473.809 0.901252 474.02C0.699613 474.022 0.506824 474.103 0.364857 474.246C0.222889 474.389 0.143239 474.583 0.143247 474.784C0.275074 475.285 -0.403836 483.188 0.551911 483.122ZM0.84193 457.418C0.942026 457.419 1.0413 457.4 1.13403 457.363C1.22676 457.325 1.3111 457.269 1.38219 457.199C1.45327 457.128 1.5097 457.044 1.5482 456.952C1.58671 456.86 1.60653 456.76 1.60653 456.66V411.284C1.58886 411.095 1.50101 410.918 1.3602 410.79C1.21938 410.662 1.03573 410.591 0.845226 410.591C0.654719 410.591 0.471073 410.662 0.330256 410.79C0.189439 410.918 0.101594 411.095 0.0839246 411.284V456.66C0.0839246 456.76 0.103531 456.859 0.141624 456.951C0.179718 457.042 0.235552 457.126 0.305939 457.196C0.376327 457.267 0.459889 457.323 0.551854 457.361C0.643819 457.399 0.742387 457.418 0.84193 457.418ZM0.84193 366.666C0.942026 366.667 1.0413 366.648 1.13403 366.61C1.22676 366.573 1.3111 366.517 1.38219 366.446C1.45327 366.376 1.5097 366.292 1.5482 366.2C1.58671 366.107 1.60653 366.008 1.60653 365.908V320.519C1.58886 320.329 1.50101 320.153 1.3602 320.025C1.21938 319.896 1.03573 319.825 0.845226 319.825C0.654719 319.825 0.471073 319.896 0.330256 320.025C0.189439 320.153 0.101594 320.329 0.0839246 320.519V365.895C0.0839246 366.096 0.163786 366.289 0.305939 366.431C0.448093 366.573 0.640895 366.653 0.84193 366.653V366.666ZM0.84193 393.892C0.942026 393.893 1.0413 393.874 1.13403 393.836C1.22676 393.798 1.3111 393.743 1.38219 393.672C1.45327 393.602 1.5097 393.518 1.5482 393.425C1.58671 393.333 1.60653 393.234 1.60653 393.134V384.059C1.58886 383.869 1.50101 383.693 1.3602 383.564C1.21938 383.436 1.03573 383.365 0.845226 383.365C0.654719 383.365 0.471073 383.436 0.330256 383.564C0.189439 383.693 0.101594 383.869 0.0839246 384.059V393.134C0.0839246 393.335 0.163786 393.528 0.305939 393.67C0.376327 393.74 0.459889 393.796 0.551854 393.834C0.643819 393.872 0.742387 393.892 0.84193 393.892ZM0.84193 303.146C2.33158 303.489 1.33628 296.134 1.60653 295.534H8.45494C8.65598 295.534 8.84878 295.454 8.99093 295.312C9.13309 295.17 9.21295 294.977 9.21295 294.776C9.21295 294.575 9.13309 294.382 8.99093 294.24C8.84878 294.098 8.65598 294.018 8.45494 294.018H0.84193C0.640895 294.018 0.448093 294.098 0.305939 294.24C0.163786 294.382 0.0839246 294.575 0.0839246 294.776V302.381C0.0839171 302.583 0.163567 302.777 0.305534 302.92C0.447502 303.063 0.640291 303.144 0.84193 303.146ZM342.847 314.68C343.006 312.505 271.338 314.647 270.573 313.915C270.372 313.918 270.18 314 270.039 314.143C269.897 314.286 269.817 314.478 269.815 314.68C269.657 316.854 341.318 314.68 342.083 315.444C342.185 315.443 342.287 315.422 342.381 315.382C342.475 315.341 342.56 315.283 342.631 315.209C342.702 315.135 342.758 315.048 342.795 314.953C342.832 314.857 342.85 314.755 342.847 314.653V314.68ZM302.271 295.567C302.733 295.198 319.138 296.457 318.499 294.809C319.198 293.168 302.68 294.414 302.271 294.044C302.103 294.083 301.953 294.178 301.845 294.314C301.738 294.449 301.679 294.616 301.679 294.789C301.679 294.962 301.738 295.13 301.845 295.265C301.953 295.4 302.103 295.495 302.271 295.534V295.567ZM59.0502 301.821C59.051 301.722 59.032 301.623 58.9943 301.53C58.9565 301.438 58.9007 301.354 58.8301 301.283C58.7595 301.213 58.6756 301.157 58.5833 301.119C58.4909 301.081 58.3919 301.062 58.2922 301.063H26.9173C26.7276 301.081 26.5514 301.169 26.4231 301.31C26.2948 301.45 26.2236 301.634 26.2236 301.825C26.2236 302.015 26.2948 302.199 26.4231 302.339C26.5514 302.48 26.7276 302.568 26.9173 302.586H58.3185C58.4215 302.586 58.5234 302.565 58.618 302.525C58.7127 302.484 58.7981 302.425 58.869 302.35C58.9399 302.275 58.9949 302.187 59.0306 302.091C59.0663 301.994 59.0819 301.891 59.0765 301.788L59.0502 301.821ZM117.463 294.815C117.628 292.627 40.1396 294.816 39.3816 294.051C39.1793 294.053 38.9858 294.134 38.8428 294.277C38.6998 294.42 38.6187 294.613 38.617 294.815C38.4522 297.004 115.94 294.816 116.705 295.58C116.808 295.578 116.909 295.556 117.004 295.515C117.098 295.473 117.183 295.413 117.253 295.338C117.324 295.263 117.379 295.175 117.415 295.078C117.451 294.982 117.467 294.879 117.463 294.776V294.815ZM194.021 295.573C194.812 294.835 272.241 297.004 272.102 294.815C272.267 292.627 194.786 294.816 194.021 294.051C193.856 294.093 193.709 294.188 193.605 294.322C193.5 294.457 193.443 294.622 193.443 294.792C193.443 294.963 193.5 295.128 193.605 295.263C193.709 295.397 193.856 295.492 194.021 295.534V295.573ZM227.67 315.451C228.026 315.115 243.608 316.294 242.731 314.693C242.732 314.593 242.713 314.494 242.675 314.402C242.638 314.309 242.582 314.225 242.511 314.155C242.441 314.084 242.357 314.029 242.264 313.991C242.172 313.953 242.073 313.934 241.973 313.935H227.67C227.503 313.974 227.355 314.068 227.248 314.202C227.142 314.336 227.084 314.502 227.084 314.673C227.084 314.844 227.142 315.01 227.248 315.144C227.355 315.278 227.503 315.372 227.67 315.411V315.451ZM163.075 294.058C162.613 294.427 146.208 293.168 146.847 294.815C146.148 296.457 162.666 295.211 163.075 295.573C163.281 295.576 163.48 295.497 163.628 295.353C163.775 295.209 163.86 295.012 163.863 294.806C163.865 294.599 163.786 294.401 163.642 294.253C163.498 294.105 163.301 294.021 163.095 294.018L163.075 294.058ZM5.98978 319.286C5.50202 319.57 11.5463 324.935 11.5924 325.218C11.6839 325.315 11.8015 325.385 11.9312 325.417C12.0609 325.45 12.1972 325.445 12.3241 325.402C11.9615 326.061 14.5256 327.966 14.8024 328.427C14.8939 328.525 15.0115 328.594 15.1412 328.627C15.2709 328.66 15.4072 328.655 15.5341 328.612C14.9211 329.1 20.7149 334.128 20.8731 334.504C21.1499 335.084 20.1414 342.953 21.6311 342.558C21.8338 342.558 22.0283 342.477 22.1717 342.334C22.3151 342.19 22.3957 341.996 22.3957 341.793V334.174C22.7977 333.825 16.8985 328.572 16.793 328.243C16.6978 328.151 16.5801 328.086 16.4518 328.053C16.3234 328.021 16.1888 328.023 16.0614 328.058C16.4239 327.399 13.8599 325.495 13.583 325.033C13.4882 324.941 13.3705 324.875 13.242 324.843C13.1135 324.81 12.9788 324.812 12.8514 324.849C13.4644 324.361 7.67057 319.333 7.50579 318.963V311.681C7.5044 311.595 7.4888 311.511 7.45965 311.43C7.54538 310.84 7.54538 310.241 7.45965 309.651C7.48882 309.568 7.5044 309.481 7.50579 309.394V302.553H14.3476C14.5373 302.535 14.7136 302.447 14.8419 302.307C14.9702 302.166 15.0413 301.982 15.0413 301.792C15.0413 301.601 14.9702 301.418 14.8419 301.277C14.7136 301.136 14.5373 301.048 14.3476 301.03H6.74778C6.648 301.03 6.54903 301.049 6.45667 301.086C6.36431 301.124 6.2804 301.18 6.20983 301.25C6.13927 301.321 6.08347 301.405 6.04569 301.497C6.0079 301.59 5.9889 301.689 5.98978 301.788V309.394C5.99116 309.481 6.00675 309.568 6.03592 309.651C5.95018 310.241 5.95018 310.84 6.03592 311.43C5.88432 311.734 6.04251 318.977 5.98978 319.286ZM91.6774 313.895L86.5229 308.735C86.4418 308.655 86.3422 308.596 86.2329 308.563C85.7892 307.922 85.2332 307.366 84.5917 306.922C84.4005 306.599 78.9495 300.866 78.5013 301.03H70.8751C70.674 301.03 70.4812 301.11 70.3391 301.252C70.1969 301.395 70.1171 301.587 70.1171 301.788C69.7084 303.278 77.6114 302.276 78.1717 302.553L83.3261 307.707C83.411 307.787 83.5122 307.847 83.6227 307.885C84.0678 308.521 84.6211 309.074 85.2574 309.519C85.4551 309.842 90.8996 315.576 91.3544 315.411H98.9608C99.0606 315.412 99.1596 315.393 99.2519 315.355C99.3443 315.317 99.4282 315.262 99.4988 315.191C99.5693 315.12 99.6251 315.037 99.6629 314.944C99.7007 314.852 99.7197 314.753 99.7188 314.653C100.134 313.164 92.231 314.165 91.6642 313.928L91.6774 313.895ZM10.3071 437.607C10.5065 437.602 10.6959 437.519 10.835 437.376C10.9742 437.233 11.052 437.042 11.0519 436.843V409.162L22.1518 398.064C22.2231 397.993 22.2796 397.909 22.3181 397.816C22.3566 397.723 22.3762 397.624 22.3759 397.523V370.284C22.3759 370.081 22.2953 369.887 22.1519 369.744C22.0085 369.6 21.8141 369.52 21.6113 369.52C19.7921 369.302 21.3344 396.541 20.8533 397.2L9.75344 408.305C9.68233 408.375 9.62587 408.458 9.58738 408.55C9.54889 408.641 9.52915 408.74 9.52933 408.839C10.083 410.032 8.4154 437.291 10.3071 437.607ZM531.202 465.591C531.308 465.702 531.445 465.779 531.596 465.811C531.747 465.843 531.903 465.829 532.046 465.771C532.188 465.712 532.31 465.612 532.394 465.484C532.479 465.355 532.523 465.204 532.52 465.05V457.445C532.521 457.345 532.502 457.246 532.464 457.154C532.427 457.061 532.371 456.977 532.3 456.907C532.23 456.836 532.146 456.78 532.053 456.743C531.961 456.705 531.862 456.686 531.762 456.687C530.292 456.45 531.268 462.579 531.004 463.218L526.918 459.138C526.258 458.427 525.138 459.521 525.843 460.213L531.202 465.591ZM532.527 361.993C532.573 361.571 531.98 361.163 531.736 360.886C530.681 360.056 529.91 361.736 531.011 362.31V370.812C531.011 370.911 531.03 371.01 531.068 371.102C531.107 371.194 531.162 371.277 531.233 371.347C531.303 371.418 531.387 371.474 531.479 371.512C531.571 371.55 531.669 371.569 531.769 371.569C531.868 371.569 531.967 371.55 532.059 371.512C532.151 371.474 532.234 371.418 532.305 371.347C532.375 371.277 532.431 371.194 532.469 371.102C532.507 371.01 532.527 370.911 532.527 370.812V361.993ZM531.769 389.298C531.568 389.298 531.375 389.378 531.233 389.52C531.091 389.662 531.011 389.855 531.011 390.056V438.167C531.011 438.368 531.091 438.561 531.233 438.703C531.375 438.845 531.568 438.925 531.769 438.925C531.97 438.925 532.163 438.845 532.305 438.703C532.447 438.561 532.527 438.368 532.527 438.167V390.056C532.527 389.855 532.447 389.662 532.305 389.52C532.163 389.378 531.97 389.298 531.769 389.298ZM456.911 295.534H464.207L469.362 300.694C470.021 301.399 471.148 300.305 470.436 299.62L465.058 294.236C465.097 293.702 457.214 294.17 456.911 294.011C456.721 294.029 456.545 294.117 456.417 294.258C456.288 294.399 456.217 294.582 456.217 294.773C456.217 294.963 456.288 295.147 456.417 295.288C456.545 295.428 456.721 295.516 456.911 295.534ZM412.828 314.647C412.67 316.775 462.863 314.712 463.627 315.404C463.627 314.706 481.424 335.176 479.447 329.067C478.847 328.803 464.735 313.75 463.95 313.908C463.219 314.587 412.663 312.518 412.828 314.653V314.647ZM504.507 363.575C504.607 363.576 504.706 363.557 504.798 363.519C504.89 363.481 504.974 363.426 505.045 363.355C505.115 363.284 505.171 363.201 505.209 363.108C505.247 363.016 505.266 362.917 505.265 362.817V355.218C505.667 354.836 499.774 349.643 499.662 349.287C499.003 348.581 497.876 349.669 498.588 350.361L503.742 355.515C504.019 356.141 503.011 363.971 504.507 363.582V363.575ZM426.729 294.769C426.894 292.581 349.406 294.769 348.641 294.005C348.44 294.008 348.248 294.09 348.107 294.233C347.965 294.376 347.885 294.568 347.883 294.769C347.718 296.957 425.206 294.769 425.964 295.534C426.066 295.536 426.166 295.517 426.261 295.48C426.355 295.443 426.441 295.388 426.514 295.317C426.586 295.247 426.645 295.163 426.685 295.07C426.725 294.977 426.747 294.877 426.749 294.776L426.729 294.769ZM370.703 313.882C370.502 313.882 370.309 313.962 370.167 314.104C370.024 314.246 369.945 314.439 369.945 314.64C369.945 314.841 370.024 315.034 370.167 315.176C370.309 315.318 370.502 315.398 370.703 315.398C371.058 315.062 386.634 316.242 385.764 314.64C385.764 314.54 385.744 314.441 385.705 314.348C385.667 314.256 385.611 314.172 385.539 314.102C385.468 314.031 385.384 313.976 385.291 313.938C385.199 313.9 385.099 313.881 384.999 313.882H370.703ZM199.07 313.928C198.306 314.653 126.644 312.511 126.803 314.686C126.644 316.861 198.306 314.686 199.07 315.451C199.26 315.433 199.436 315.345 199.565 315.204C199.693 315.064 199.764 314.88 199.764 314.689C199.764 314.499 199.693 314.315 199.565 314.174C199.436 314.034 199.26 313.946 199.07 313.928ZM484.054 313.23C483.395 312.531 482.261 313.612 482.98 314.304C483.995 314.343 516.727 349.972 518.092 348.344C519.726 346.973 484.087 314.245 484.054 313.23ZM505.265 437.502C504.415 438.332 507.242 379.867 503.749 386.359C503.96 386.893 503.327 437.983 503.967 438.358L509.18 443.571C509.839 444.27 510.967 443.189 510.255 442.497L505.265 437.502ZM828.058 121.233L827.709 120.884V112.382C827.719 112.276 827.706 112.169 827.672 112.068C827.639 111.967 827.584 111.874 827.513 111.796C827.441 111.717 827.354 111.654 827.256 111.611C827.159 111.568 827.054 111.546 826.948 111.546C826.841 111.546 826.736 111.568 826.639 111.611C826.541 111.654 826.454 111.717 826.382 111.796C826.311 111.874 826.256 111.967 826.222 112.068C826.189 112.169 826.176 112.276 826.186 112.382V121.2C826.147 121.628 826.74 122.03 826.984 122.307C827.689 123.012 828.763 121.918 828.058 121.233ZM874.633 169.957C875.292 170.656 876.425 169.575 875.714 168.883C874.699 168.883 841.966 133.215 840.601 134.849C838.967 136.213 874.6 168.935 874.633 169.957ZM973.701 167.775C973.511 167.793 973.335 167.881 973.206 168.022C973.078 168.163 973.007 168.346 973.007 168.537C973.007 168.727 973.078 168.911 973.206 169.052C973.335 169.192 973.511 169.28 973.701 169.298C974.057 168.955 989.638 170.135 988.762 168.533C988.763 168.434 988.744 168.335 988.706 168.242C988.668 168.15 988.612 168.066 988.542 167.996C988.471 167.925 988.387 167.869 988.295 167.831C988.203 167.794 988.104 167.775 988.004 167.775H973.701ZM945.859 168.533C946.024 166.411 895.824 168.467 895.066 167.775C895.125 168.52 877.21 147.964 879.247 154.113C880.051 154.522 893.701 169.272 894.743 169.272C895.507 168.593 946.024 170.669 945.859 168.533ZM901.776 187.646H894.486L889.325 182.486C888.666 181.78 887.539 182.875 888.25 183.567C888.25 183.527 894.281 189.775 894.182 189.169H901.789C901.973 189.143 902.141 189.051 902.262 188.91C902.383 188.77 902.449 188.59 902.447 188.405C902.445 188.219 902.376 188.041 902.253 187.902C902.129 187.764 901.96 187.675 901.776 187.653V187.646ZM854.186 119.605C853.985 119.605 853.791 119.685 853.648 119.826C853.505 119.968 853.423 120.161 853.422 120.363V127.975C853.118 128.482 858.827 133.445 859.024 133.906C859.683 134.612 860.81 133.518 860.099 132.826L854.944 127.672C854.667 127.046 855.676 119.216 854.186 119.605ZM853.395 45.6916C854.252 44.9468 851.418 103.273 854.918 96.8411C854.7 96.3006 855.34 45.2105 854.694 44.8414L849.48 39.6217C849.333 39.4979 849.145 39.4339 848.953 39.4423C848.762 39.4507 848.58 39.531 848.445 39.6671C848.309 39.8033 848.23 39.9854 848.223 40.1772C848.216 40.369 848.281 40.5565 848.406 40.7025L853.395 45.6916ZM826.924 44.2416C826.723 44.2416 826.529 44.3213 826.386 44.4632C826.243 44.6052 826.162 44.7979 826.16 44.9996V93.1108C826.177 93.3005 826.265 93.4767 826.406 93.605C826.547 93.7333 826.731 93.8044 826.921 93.8044C827.112 93.8044 827.295 93.7333 827.436 93.605C827.577 93.4767 827.665 93.3005 827.682 93.1108V44.9996C827.684 44.8019 827.609 44.6113 827.472 44.4685C827.335 44.3257 827.148 44.2419 826.951 44.2351L826.924 44.2416ZM1164.67 187.653C1163.87 188.391 1086.45 186.223 1086.59 188.411C1086.42 190.599 1163.91 188.411 1164.67 189.175C1164.86 189.157 1165.03 189.07 1165.16 188.929C1165.29 188.788 1165.36 188.604 1165.36 188.414C1165.36 188.223 1165.29 188.04 1165.16 187.899C1165.03 187.758 1164.86 187.67 1164.67 187.653ZM1010.03 187.653C1009.23 188.391 931.806 186.223 931.944 188.411C931.78 190.599 1009.27 188.411 1010.03 189.175C1010.22 189.157 1010.39 189.07 1010.52 188.929C1010.65 188.788 1010.72 188.604 1010.72 188.414C1010.72 188.223 1010.65 188.04 1010.52 187.899C1010.39 187.758 1010.22 187.67 1010.03 187.653ZM1299.63 181.398C1299.63 181.601 1299.71 181.795 1299.85 181.939C1300 182.082 1300.19 182.163 1300.39 182.163H1331.79C1331.9 182.173 1332 182.16 1332.1 182.126C1332.2 182.093 1332.3 182.038 1332.38 181.967C1332.45 181.895 1332.52 181.808 1332.56 181.71C1332.6 181.613 1332.62 181.508 1332.62 181.402C1332.62 181.295 1332.6 181.19 1332.56 181.093C1332.52 180.995 1332.45 180.908 1332.38 180.836C1332.3 180.765 1332.2 180.71 1332.1 180.677C1332 180.643 1331.9 180.63 1331.79 180.64H1300.39C1300.29 180.639 1300.2 180.658 1300.1 180.696C1300.01 180.734 1299.93 180.789 1299.85 180.86C1299.78 180.93 1299.73 181.014 1299.69 181.107C1299.65 181.199 1299.63 181.298 1299.63 181.398ZM1267.02 169.285L1272.18 174.439C1272.26 174.519 1272.36 174.579 1272.47 174.617C1272.92 175.256 1273.47 175.81 1274.11 176.251C1274.31 176.574 1279.75 182.308 1280.21 182.182H1287.81C1288.01 182.182 1288.21 182.102 1288.35 181.959C1288.5 181.815 1288.58 181.621 1288.58 181.418C1288.98 179.929 1281.08 180.93 1280.52 180.66L1275.36 175.5C1275.28 175.42 1275.18 175.361 1275.07 175.328C1274.63 174.687 1274.07 174.131 1273.43 173.687C1273.24 173.364 1267.79 167.631 1267.34 167.795H1259.73C1259.63 167.794 1259.53 167.813 1259.44 167.851C1259.35 167.889 1259.26 167.944 1259.19 168.015C1259.12 168.085 1259.06 168.169 1259.03 168.262C1258.99 168.354 1258.97 168.453 1258.97 168.553C1258.56 170.023 1266.46 169.021 1267.02 169.298V169.285ZM1241.23 188.411C1241.07 190.599 1318.55 188.411 1319.31 189.175C1319.51 189.173 1319.71 189.092 1319.85 188.949C1319.99 188.806 1320.07 188.612 1320.07 188.411C1320.23 186.223 1242.75 188.411 1241.99 187.653C1241.79 187.653 1241.59 187.733 1241.45 187.875C1241.31 188.017 1241.23 188.21 1241.23 188.411ZM1357.84 89.2948C1357.75 89.2939 1357.65 89.313 1357.55 89.3507C1357.46 89.3885 1357.38 89.4443 1357.31 89.5149C1357.24 89.5854 1357.18 89.6693 1357.14 89.7617C1357.1 89.854 1357.09 89.953 1357.09 90.0528V99.128C1357.08 99.2339 1357.09 99.3407 1357.12 99.4416C1357.16 99.5425 1357.21 99.6352 1357.28 99.7138C1357.35 99.7924 1357.44 99.8553 1357.54 99.8982C1357.64 99.9412 1357.74 99.9634 1357.85 99.9634C1357.95 99.9634 1358.06 99.9412 1358.16 99.8982C1358.25 99.8553 1358.34 99.7924 1358.41 99.7138C1358.48 99.6352 1358.54 99.5425 1358.57 99.4416C1358.61 99.3407 1358.62 99.2339 1358.61 99.128V90.0528C1358.61 89.9527 1358.59 89.8536 1358.55 89.7612C1358.51 89.6688 1358.46 89.585 1358.39 89.5145C1358.31 89.444 1358.23 89.3883 1358.14 89.3506C1358.04 89.3129 1357.94 89.294 1357.84 89.2948ZM1357.84 180.047C1356.36 179.698 1357.36 187.06 1357.09 187.653H1350.24C1350.05 187.67 1349.87 187.758 1349.74 187.899C1349.62 188.04 1349.54 188.223 1349.54 188.414C1349.54 188.604 1349.62 188.788 1349.74 188.929C1349.87 189.07 1350.05 189.157 1350.24 189.175H1357.84C1358.05 189.175 1358.24 189.095 1358.39 188.951C1358.53 188.808 1358.61 188.613 1358.61 188.411V180.798C1358.61 180.699 1358.59 180.601 1358.55 180.509C1358.51 180.417 1358.45 180.334 1358.38 180.264C1358.31 180.195 1358.23 180.14 1358.14 180.102C1358.04 180.065 1357.94 180.046 1357.84 180.047ZM1348.38 45.5993C1348.28 45.5993 1348.18 45.6189 1348.09 45.657C1348 45.6951 1347.91 45.7509 1347.84 45.8213C1347.77 45.8917 1347.72 45.9752 1347.68 46.0672C1347.64 46.1591 1347.62 46.2577 1347.62 46.3572V74.0377L1336.54 85.1032C1336.4 85.246 1336.32 85.4375 1336.32 85.637V112.915C1336.32 113.117 1336.4 113.309 1336.55 113.451C1336.69 113.594 1336.88 113.673 1337.08 113.673C1338.9 113.878 1337.36 86.6916 1337.84 85.993L1348.95 74.8944C1349.02 74.8237 1349.07 74.7395 1349.11 74.6467C1349.15 74.5539 1349.17 74.4544 1349.17 74.354V46.3506C1349.17 46.25 1349.15 46.1502 1349.11 46.057C1349.08 45.9639 1349.02 45.8793 1348.95 45.8081C1348.88 45.7369 1348.79 45.6806 1348.7 45.6425C1348.61 45.6044 1348.51 45.5852 1348.41 45.5861L1348.38 45.5993ZM1357.84 116.534C1357.75 116.533 1357.65 116.552 1357.55 116.59C1357.46 116.627 1357.38 116.683 1357.31 116.754C1357.24 116.824 1357.18 116.908 1357.14 117.001C1357.1 117.093 1357.09 117.192 1357.09 117.292V162.668C1357.1 162.857 1357.19 163.034 1357.33 163.162C1357.47 163.29 1357.66 163.361 1357.85 163.361C1358.04 163.361 1358.22 163.29 1358.36 163.162C1358.5 163.034 1358.59 162.857 1358.61 162.668V117.278C1358.61 117.178 1358.59 117.079 1358.55 116.987C1358.51 116.895 1358.46 116.811 1358.39 116.74C1358.31 116.67 1358.23 116.614 1358.14 116.576C1358.04 116.539 1357.94 116.52 1357.84 116.521V116.534ZM1352.7 163.913C1353.12 163.551 1347.21 158.325 1347.1 157.982C1347.01 157.89 1346.89 157.824 1346.76 157.792C1346.63 157.76 1346.5 157.762 1346.37 157.797C1346.73 157.138 1344.17 155.234 1343.89 154.772C1343.8 154.68 1343.68 154.615 1343.55 154.582C1343.42 154.55 1343.29 154.552 1343.16 154.588C1343.77 154.1 1337.97 149.071 1337.81 148.702C1337.54 148.116 1338.55 140.26 1337.06 140.649C1336.96 140.648 1336.86 140.667 1336.76 140.705C1336.67 140.742 1336.59 140.798 1336.52 140.869C1336.45 140.939 1336.39 141.023 1336.35 141.115C1336.32 141.208 1336.3 141.307 1336.3 141.407V149.012C1335.92 149.46 1341.76 154.535 1341.9 154.944C1341.99 155.041 1342.11 155.11 1342.24 155.143C1342.37 155.176 1342.51 155.171 1342.63 155.128C1342.27 155.787 1344.83 157.692 1345.1 158.153C1345.2 158.251 1345.32 158.32 1345.45 158.352C1345.58 158.385 1345.71 158.38 1345.84 158.338C1345.23 158.825 1351.02 163.854 1351.18 164.23V171.506C1351.18 171.594 1351.2 171.682 1351.23 171.763C1351.15 172.351 1351.15 172.948 1351.23 173.536C1351.2 173.617 1351.18 173.704 1351.18 173.793V180.64H1344.33C1344.14 180.658 1343.97 180.746 1343.84 180.887C1343.71 181.027 1343.64 181.211 1343.64 181.402C1343.64 181.592 1343.71 181.776 1343.84 181.916C1343.97 182.057 1344.14 182.145 1344.33 182.163H1351.94C1352.14 182.163 1352.34 182.082 1352.48 181.939C1352.62 181.795 1352.7 181.601 1352.7 181.398V173.793C1352.7 173.704 1352.69 173.617 1352.65 173.536C1352.74 172.948 1352.74 172.351 1352.65 171.763C1352.81 171.453 1352.65 164.21 1352.7 163.9V163.913ZM1159.62 169.311C1160.38 168.58 1232.05 170.721 1231.88 168.547C1232.05 166.372 1160.38 168.547 1159.62 167.782C1159.43 167.807 1159.26 167.898 1159.14 168.038C1159.02 168.178 1158.95 168.357 1158.96 168.543C1158.96 168.728 1159.02 168.907 1159.15 169.046C1159.27 169.185 1159.44 169.274 1159.62 169.298V169.311ZM1056.41 187.653C1055.94 188.022 1039.54 186.763 1040.18 188.411C1039.48 190.052 1056 188.806 1056.41 189.175C1056.6 189.157 1056.77 189.07 1056.9 188.929C1057.03 188.788 1057.1 188.604 1057.1 188.414C1057.1 188.223 1057.03 188.04 1056.9 187.899C1056.77 187.758 1056.6 187.67 1056.41 187.653ZM1357.84 25.7551C1357.64 25.7551 1357.45 25.8349 1357.31 25.977C1357.17 26.1192 1357.09 26.312 1357.09 26.513V71.8891C1357.08 71.995 1357.09 72.1018 1357.12 72.2027C1357.16 72.3036 1357.21 72.3963 1357.28 72.4749C1357.35 72.5536 1357.44 72.6164 1357.54 72.6594C1357.64 72.7024 1357.74 72.7245 1357.85 72.7245C1357.95 72.7245 1358.06 72.7024 1358.16 72.6594C1358.25 72.6164 1358.34 72.5536 1358.41 72.4749C1358.48 72.3963 1358.54 72.3036 1358.57 72.2027C1358.61 72.1018 1358.62 71.995 1358.61 71.8891V26.5262C1358.61 26.3246 1358.53 26.1318 1358.38 25.9898C1358.24 25.8479 1358.05 25.7682 1357.84 25.7682V25.7551ZM1358.13 0.0518121C1357.75 -0.837916 1347.42 10.0233 1347.59 10.2145V17.82C1347.59 18.0216 1347.67 18.2151 1347.81 18.3583C1347.95 18.5015 1348.14 18.5828 1348.35 18.5845C1349.84 18.9997 1348.83 11.0844 1349.11 10.5308L1357.05 2.58917C1357.32 3.24822 1356.34 9.33134 1357.81 9.12045C1358.01 9.12045 1358.21 9.03991 1358.35 8.89654C1358.5 8.75317 1358.58 8.55868 1358.58 8.35592C1358.42 7.90776 1359.09 -0.000939421 1358.13 0.071557V0.0518121ZM827.485 17.5762C827.378 17.4647 827.241 17.3878 827.091 17.3556C826.94 17.3235 826.783 17.3375 826.641 17.3959C826.498 17.4543 826.377 17.5543 826.292 17.6829C826.208 17.8115 826.164 17.9627 826.166 18.1166V25.7221C826.166 25.9249 826.247 26.1193 826.39 26.2627C826.534 26.4061 826.728 26.4866 826.931 26.4866C828.401 26.7173 827.425 20.5946 827.689 19.9553L831.769 24.0349C832.428 24.7401 833.555 23.6461 832.843 22.9541L827.485 17.5762ZM1211.06 187.613C1210.59 187.982 1194.19 186.723 1194.83 188.371C1194.14 190.012 1210.65 188.767 1211.06 189.136C1211.23 189.094 1211.37 188.999 1211.48 188.864C1211.58 188.73 1211.64 188.564 1211.64 188.394C1211.64 188.224 1211.58 188.058 1211.48 187.924C1211.37 187.79 1211.23 187.694 1211.06 187.653V187.613ZM1015.85 168.533C1015.69 170.708 1087.35 168.566 1088.11 169.298C1088.21 169.298 1088.31 169.278 1088.4 169.24C1088.5 169.201 1088.58 169.145 1088.65 169.074C1088.72 169.003 1088.78 168.918 1088.82 168.825C1088.85 168.733 1088.87 168.634 1088.87 168.533C1089.03 166.359 1017.37 168.533 1016.6 167.769C1016.4 167.772 1016.21 167.854 1016.07 167.997C1015.93 168.14 1015.85 168.332 1015.85 168.533ZM1115.96 168.533C1115.96 168.736 1116.04 168.931 1116.18 169.074C1116.32 169.217 1116.52 169.298 1116.72 169.298H1131.02C1131.12 169.308 1131.23 169.295 1131.33 169.262C1131.43 169.228 1131.52 169.173 1131.6 169.102C1131.68 169.03 1131.74 168.943 1131.79 168.846C1131.83 168.748 1131.85 168.643 1131.85 168.537C1131.85 168.43 1131.83 168.325 1131.79 168.228C1131.74 168.131 1131.68 168.043 1131.6 167.972C1131.52 167.9 1131.43 167.846 1131.33 167.812C1131.23 167.778 1131.12 167.766 1131.02 167.775H1116.72C1116.62 167.775 1116.52 167.794 1116.43 167.831C1116.34 167.869 1116.25 167.925 1116.18 167.995C1116.11 168.066 1116.05 168.149 1116.01 168.242C1115.98 168.334 1115.96 168.433 1115.96 168.533ZM1348.41 437.607C1348.61 437.607 1348.8 437.526 1348.95 437.383C1349.09 437.24 1349.17 437.045 1349.17 436.843V408.872C1349.17 408.773 1349.15 408.674 1349.11 408.583C1349.07 408.491 1349.02 408.408 1348.95 408.338L1337.84 397.233C1337.36 396.409 1338.91 369.395 1337.08 369.553C1336.98 369.553 1336.88 369.573 1336.79 369.611C1336.7 369.65 1336.61 369.706 1336.54 369.777C1336.47 369.848 1336.42 369.932 1336.38 370.025C1336.34 370.118 1336.32 370.217 1336.32 370.317V397.582C1336.32 397.784 1336.4 397.978 1336.54 398.123L1347.65 409.221V436.902C1347.66 437.093 1347.75 437.272 1347.89 437.402C1348.03 437.533 1348.21 437.606 1348.41 437.607ZM1352.73 301.788C1352.73 301.688 1352.71 301.589 1352.67 301.497C1352.63 301.404 1352.58 301.321 1352.51 301.25C1352.43 301.18 1352.35 301.124 1352.26 301.086C1352.16 301.049 1352.07 301.03 1351.97 301.03H1344.36C1344.17 301.048 1343.99 301.136 1343.86 301.277C1343.74 301.418 1343.67 301.601 1343.67 301.792C1343.67 301.982 1343.74 302.166 1343.86 302.307C1343.99 302.447 1344.17 302.535 1344.36 302.553H1351.21V309.394C1351.21 309.482 1351.23 309.57 1351.26 309.651C1351.17 310.241 1351.17 310.84 1351.26 311.43C1351.1 311.971 1351.26 318.502 1351.21 318.977C1351.03 319.372 1345.27 324.348 1345.87 324.862C1345.21 324.5 1343.3 327.063 1342.84 327.34C1342.75 327.434 1342.68 327.552 1342.65 327.68C1342.62 327.809 1342.62 327.944 1342.66 328.072C1342.53 328.035 1342.4 328.033 1342.27 328.065C1342.14 328.098 1342.02 328.164 1341.93 328.256C1341.93 328.256 1335.74 334.234 1336.32 334.188V341.793C1336.32 341.893 1336.34 341.992 1336.38 342.085C1336.42 342.178 1336.47 342.262 1336.54 342.333C1336.61 342.404 1336.7 342.461 1336.79 342.499C1336.88 342.538 1336.98 342.558 1337.08 342.558C1338.57 342.966 1337.57 335.064 1337.84 334.504C1338.02 334.109 1343.77 329.126 1343.19 328.612C1343.84 328.994 1345.74 326.411 1346.21 326.134C1346.3 326.039 1346.37 325.922 1346.4 325.793C1346.43 325.665 1346.43 325.53 1346.4 325.402C1346.84 326.061 1352.16 319.972 1352.51 319.84C1352.95 319.734 1352.7 311.766 1352.68 311.444C1352.76 310.853 1352.76 310.254 1352.68 309.664C1352.81 309.315 1352.65 302.098 1352.7 301.788H1352.73ZM1211.06 294.018C1210.59 294.387 1194.19 293.128 1194.83 294.776C1194.14 296.417 1210.65 295.171 1211.06 295.534C1211.26 295.534 1211.46 295.454 1211.6 295.312C1211.74 295.17 1211.82 294.977 1211.82 294.776C1211.82 294.575 1211.74 294.382 1211.6 294.24C1211.46 294.098 1211.26 294.018 1211.06 294.018ZM1056.42 294.018C1055.95 294.387 1039.55 293.128 1040.19 294.776C1039.5 296.417 1056.01 295.171 1056.42 295.534C1056.62 295.532 1056.82 295.451 1056.96 295.307C1057.1 295.164 1057.18 294.97 1057.17 294.769C1057.17 294.568 1057.09 294.376 1056.95 294.235C1056.8 294.094 1056.61 294.016 1056.41 294.018H1056.42ZM879.253 330.154C879.82 331.953 894.585 315.345 895.072 315.411C895.837 314.752 946.024 316.775 945.865 314.653C945.866 314.553 945.847 314.454 945.809 314.362C945.772 314.27 945.716 314.186 945.645 314.115C945.575 314.045 945.491 313.989 945.398 313.951C945.306 313.913 945.207 313.894 945.107 313.895C944.567 314.113 894.598 313.473 894.222 314.113C894.334 314.535 877.414 329.64 879.253 330.154ZM1016.6 315.411C1017.37 314.686 1089.03 316.828 1088.87 314.653C1089.03 312.478 1017.37 314.62 1016.6 313.889C1016.41 313.906 1016.24 313.994 1016.11 314.135C1015.98 314.276 1015.91 314.459 1015.91 314.65C1015.91 314.84 1015.98 315.024 1016.11 315.165C1016.24 315.306 1016.41 315.393 1016.6 315.411ZM1131.78 314.653C1131.78 314.553 1131.76 314.454 1131.72 314.362C1131.68 314.269 1131.63 314.185 1131.56 314.115C1131.49 314.044 1131.4 313.989 1131.31 313.951C1131.22 313.913 1131.12 313.894 1131.02 313.895H1116.72C1116.52 313.895 1116.33 313.975 1116.18 314.117C1116.04 314.259 1115.96 314.452 1115.96 314.653C1115.96 314.854 1116.04 315.047 1116.18 315.189C1116.33 315.331 1116.52 315.411 1116.72 315.411H1131.02C1131.12 315.412 1131.22 315.393 1131.31 315.355C1131.4 315.318 1131.49 315.262 1131.56 315.191C1131.63 315.121 1131.68 315.037 1131.72 314.945C1131.76 314.852 1131.78 314.753 1131.78 314.653ZM1300.37 302.579H1331.77C1331.88 302.589 1331.98 302.577 1332.08 302.543C1332.18 302.509 1332.28 302.455 1332.36 302.383C1332.43 302.311 1332.5 302.224 1332.54 302.127C1332.58 302.03 1332.6 301.924 1332.6 301.818C1332.6 301.712 1332.58 301.606 1332.54 301.509C1332.5 301.412 1332.43 301.325 1332.36 301.253C1332.28 301.181 1332.18 301.127 1332.08 301.093C1331.98 301.059 1331.88 301.047 1331.77 301.057H1300.37C1300.2 301.093 1300.05 301.187 1299.94 301.323C1299.83 301.459 1299.77 301.629 1299.77 301.805C1299.77 301.98 1299.83 302.15 1299.94 302.286C1300.05 302.423 1300.2 302.517 1300.37 302.553V302.579ZM1320.06 294.776C1320.23 292.588 1242.74 294.776 1241.98 294.011C1241.78 294.013 1241.59 294.095 1241.45 294.238C1241.3 294.381 1241.22 294.574 1241.22 294.776C1241.06 296.964 1318.54 294.776 1319.31 295.54C1319.51 295.537 1319.7 295.455 1319.84 295.312C1319.98 295.17 1320.06 294.977 1320.06 294.776ZM1280.2 301.03C1279.75 300.852 1274.27 306.613 1274.1 306.922C1273.46 307.366 1272.91 307.922 1272.47 308.563C1272.36 308.596 1272.25 308.654 1272.17 308.735L1267.02 313.895H1259.73C1259.52 313.895 1259.33 313.975 1259.19 314.117C1259.05 314.259 1258.97 314.452 1258.97 314.653C1258.97 314.854 1259.05 315.047 1259.19 315.189C1259.33 315.331 1259.52 315.411 1259.73 315.411H1267.33C1267.79 315.576 1273.22 309.842 1273.42 309.519C1274.06 309.075 1274.62 308.522 1275.06 307.885C1275.17 307.847 1275.27 307.786 1275.35 307.707L1280.52 302.553H1287.81C1287.99 302.535 1288.17 302.447 1288.3 302.307C1288.43 302.166 1288.5 301.982 1288.5 301.792C1288.5 301.601 1288.43 301.418 1288.3 301.277C1288.17 301.136 1287.99 301.048 1287.81 301.03H1280.2ZM1165.42 294.776C1165.59 292.588 1088.1 294.776 1087.34 294.011C1087.14 294.013 1086.95 294.094 1086.8 294.237C1086.66 294.38 1086.58 294.574 1086.58 294.776C1086.41 296.964 1163.9 294.776 1164.66 295.54C1164.86 295.54 1165.06 295.46 1165.2 295.317C1165.35 295.174 1165.43 294.979 1165.43 294.776H1165.42ZM1231.88 314.653C1232.04 312.478 1160.37 314.62 1159.61 313.889C1159.41 313.892 1159.22 313.974 1159.08 314.117C1158.93 314.26 1158.85 314.452 1158.85 314.653C1158.69 316.828 1230.35 314.653 1231.12 315.418C1231.32 315.418 1231.52 315.337 1231.66 315.194C1231.81 315.051 1231.89 314.857 1231.89 314.653H1231.88ZM889.305 300.701L894.466 295.54H901.756C901.957 295.54 902.15 295.461 902.292 295.318C902.434 295.176 902.514 294.984 902.514 294.783C902.514 294.582 902.434 294.389 902.292 294.247C902.15 294.105 901.957 294.025 901.756 294.025C901.756 294.025 893.141 293.88 893.609 294.242L888.231 299.627C887.545 300.305 888.639 301.406 889.325 300.694L889.305 300.701ZM987.984 315.418C988.185 315.418 988.378 315.338 988.52 315.196C988.662 315.054 988.742 314.861 988.742 314.66C988.742 314.459 988.662 314.266 988.52 314.124C988.378 313.982 988.185 313.902 987.984 313.902C987.628 314.238 972.046 313.058 972.923 314.66C972.922 314.76 972.941 314.858 972.979 314.951C973.017 315.043 973.072 315.127 973.143 315.198C973.214 315.268 973.297 315.324 973.39 315.362C973.482 315.4 973.581 315.419 973.681 315.418H987.984ZM1010.01 294.025C1009.21 294.763 931.786 292.595 931.925 294.783C931.76 296.971 1009.25 294.783 1010.01 295.547C1010.11 295.548 1010.21 295.53 1010.3 295.493C1010.39 295.455 1010.48 295.4 1010.55 295.33C1010.62 295.26 1010.68 295.177 1010.72 295.084C1010.76 294.992 1010.78 294.893 1010.78 294.792C1010.78 294.692 1010.76 294.592 1010.73 294.499C1010.69 294.406 1010.63 294.321 1010.56 294.249C1010.49 294.177 1010.41 294.12 1010.32 294.08C1010.23 294.04 1010.13 294.019 1010.03 294.018L1010.01 294.025ZM1357.82 410.52C1357.73 410.519 1357.63 410.538 1357.53 410.576C1357.44 410.613 1357.36 410.669 1357.29 410.74C1357.22 410.81 1357.16 410.894 1357.12 410.987C1357.09 411.079 1357.07 411.178 1357.07 411.278V456.654C1357.08 456.844 1357.17 457.02 1357.31 457.148C1357.45 457.276 1357.64 457.347 1357.83 457.347C1358.02 457.347 1358.2 457.276 1358.34 457.148C1358.48 457.02 1358.57 456.844 1358.59 456.654V411.278C1358.59 411.08 1358.51 410.891 1358.37 410.751C1358.23 410.61 1358.04 410.53 1357.84 410.526L1357.82 410.52ZM1357.82 383.294C1357.73 383.293 1357.63 383.312 1357.53 383.35C1357.44 383.388 1357.36 383.444 1357.29 383.514C1357.22 383.585 1357.16 383.669 1357.12 383.761C1357.09 383.853 1357.07 383.952 1357.07 384.052V393.127C1357.08 393.317 1357.17 393.493 1357.31 393.621C1357.45 393.75 1357.64 393.821 1357.83 393.821C1358.02 393.821 1358.2 393.75 1358.34 393.621C1358.48 393.493 1358.57 393.317 1358.59 393.127V384.059C1358.59 383.86 1358.51 383.669 1358.37 383.527C1358.23 383.386 1358.04 383.304 1357.84 383.301L1357.82 383.294ZM1357.82 294.011H1350.22C1350.02 294.011 1349.82 294.091 1349.68 294.233C1349.54 294.376 1349.46 294.568 1349.46 294.769C1349.46 294.97 1349.54 295.163 1349.68 295.305C1349.82 295.447 1350.02 295.527 1350.22 295.527H1357.07C1357.34 296.153 1356.34 303.436 1357.82 303.139C1358.03 303.139 1358.22 303.059 1358.37 302.915C1358.51 302.772 1358.59 302.578 1358.59 302.375V294.776C1358.59 294.577 1358.51 294.386 1358.37 294.245C1358.23 294.103 1358.04 294.022 1357.84 294.018L1357.82 294.011ZM1357.82 319.767C1357.73 319.767 1357.63 319.786 1357.53 319.823C1357.44 319.861 1357.36 319.917 1357.29 319.987C1357.22 320.058 1357.16 320.142 1357.12 320.234C1357.09 320.327 1357.07 320.426 1357.07 320.525V365.901C1357.08 366.091 1357.17 366.267 1357.31 366.396C1357.45 366.524 1357.64 366.595 1357.83 366.595C1358.02 366.595 1358.2 366.524 1358.34 366.396C1358.48 366.267 1358.57 366.091 1358.59 365.901V320.519C1358.59 320.322 1358.51 320.135 1358.37 319.996C1358.23 319.857 1358.04 319.777 1357.84 319.774L1357.82 319.767ZM1357.82 474.04C1356.36 473.816 1357.33 479.932 1357.07 480.571L1349.12 472.662V465.367C1349.11 465.177 1349.02 465.001 1348.88 464.872C1348.74 464.744 1348.55 464.673 1348.36 464.673C1348.17 464.673 1347.99 464.744 1347.85 464.872C1347.71 465.001 1347.62 465.177 1347.6 465.367V472.972C1347.6 473.073 1347.62 473.172 1347.66 473.265C1347.7 473.358 1347.75 473.442 1347.83 473.513L1357.29 482.977C1357.4 483.088 1357.53 483.165 1357.69 483.197C1357.84 483.229 1357.99 483.215 1358.13 483.157C1358.28 483.098 1358.4 482.998 1358.48 482.87C1358.57 482.741 1358.61 482.59 1358.61 482.436V474.831C1358.61 474.63 1358.52 474.439 1358.38 474.299C1358.24 474.158 1358.05 474.079 1357.84 474.079L1357.82 474.04ZM827.689 362.303C829.185 361.044 827.346 359.898 826.371 361.453C825.804 361.512 826.318 370.456 826.147 370.805C826.137 370.911 826.149 371.018 826.183 371.119C826.217 371.219 826.271 371.312 826.343 371.391C826.414 371.469 826.502 371.532 826.599 371.575C826.696 371.618 826.801 371.64 826.908 371.64C827.014 371.64 827.119 371.618 827.217 371.575C827.314 371.532 827.401 371.469 827.473 371.391C827.545 371.312 827.599 371.219 827.633 371.119C827.667 371.018 827.679 370.911 827.669 370.805L827.689 362.303ZM826.931 389.298C826.83 389.298 826.731 389.318 826.638 389.356C826.546 389.395 826.461 389.451 826.39 389.522C826.319 389.593 826.263 389.677 826.225 389.77C826.186 389.863 826.166 389.962 826.166 390.063V438.174C826.184 438.363 826.272 438.54 826.413 438.668C826.554 438.796 826.737 438.867 826.928 438.867C827.118 438.867 827.302 438.796 827.443 438.668C827.583 438.54 827.671 438.363 827.689 438.174V390.063C827.691 389.864 827.614 389.672 827.476 389.529C827.338 389.386 827.15 389.303 826.951 389.298H826.931ZM859.037 349.3C859.037 349.339 852.868 355.231 853.435 355.231V362.837C853.435 362.937 853.455 363.036 853.493 363.128C853.532 363.221 853.588 363.305 853.659 363.375C853.73 363.446 853.815 363.501 853.907 363.539C854 363.577 854.099 363.596 854.199 363.595C855.689 364.003 854.687 356.108 854.957 355.541L860.112 350.387C860.81 349.689 859.716 348.588 859.024 349.3H859.037ZM854.944 437.831C854.285 437.093 856.309 385.423 854.186 385.614C852.064 385.423 854.12 436.777 853.422 437.515L848.432 442.51C847.727 443.169 848.821 444.29 849.506 443.585C849.585 443.407 855.373 437.963 854.944 437.831ZM875.714 313.243C874.343 311.615 841.61 347.244 840.595 347.277C840.452 347.42 840.371 347.614 840.371 347.817C840.371 348.02 840.452 348.214 840.595 348.357C841.966 349.985 874.699 314.35 875.714 314.317C875.786 314.246 875.844 314.162 875.884 314.068C875.923 313.975 875.943 313.875 875.943 313.773C875.943 313.672 875.923 313.572 875.884 313.478C875.844 313.385 875.786 313.3 875.714 313.23V313.243ZM831.782 459.152L827.702 463.231V457.458C827.684 457.268 827.597 457.092 827.456 456.964C827.315 456.835 827.131 456.764 826.941 456.764C826.75 456.764 826.567 456.835 826.426 456.964C826.285 457.092 826.197 457.268 826.18 457.458V465.063C826.177 465.217 826.221 465.368 826.305 465.497C826.39 465.626 826.512 465.726 826.654 465.784C826.797 465.842 826.953 465.856 827.104 465.824C827.254 465.792 827.392 465.715 827.498 465.604L832.876 460.226C833.575 459.527 832.481 458.427 831.789 459.138L831.782 459.152Z" fill="white"/>
</svg>
