<svg width="71" height="71" viewBox="0 0 71 71" fill="none" xmlns="http://www.w3.org/2000/svg">
<g clip-path="url(#clip0_157_6071)">
<path d="M52.1504 3.66483H67.335V18.8495L70.9999 22.5143V0H48.4856L52.1504 3.66483Z" fill="white" fill-opacity="0.32"/>
<path d="M25.4705 71H31.9695L28.3046 67.3352H21.8057L25.4705 71Z" fill="white" fill-opacity="0.32"/>
<path d="M3.66483 49.2554V42.7564L0 39.0916V45.6638L3.66483 49.2554Z" fill="white" fill-opacity="0.32"/>
<path d="M3.66483 59.2848V50.9656L0 47.3008V55.6077L3.66483 59.2848Z" fill="white" fill-opacity="0.32"/>
<path d="M15.3802 71H23.7604L20.0956 67.3352H11.7153L15.3802 71Z" fill="white" fill-opacity="0.32"/>
<path d="M10.005 67.3351H3.66483V60.9949L0 57.3301V70.9999H13.6698L10.005 67.3351Z" fill="white" fill-opacity="0.32"/>
<path d="M1.22168 1.22168V69.7785H69.7785V1.22168H1.22168ZM68.5568 68.5568H2.44329V2.44329H68.5568V68.5568Z" fill="white" fill-opacity="0.32"/>
<path d="M18.3974 17.2126C18.4872 17.3012 18.5585 17.4068 18.6071 17.5232C18.6557 17.6396 18.6808 17.7644 18.6808 17.8906C18.6808 18.0167 18.6557 18.1416 18.6071 18.258C18.5585 18.3744 18.4872 18.4799 18.3974 18.5686C18.3088 18.6583 18.2032 18.7296 18.0869 18.7782C17.9705 18.8269 17.8456 18.8519 17.7194 18.8519C17.5933 18.8519 17.4684 18.8269 17.352 18.7782C17.2356 18.7296 17.1301 18.6583 17.0414 18.5686L6.54781 6.96328C6.52987 6.94837 6.51543 6.9297 6.50553 6.90859C6.49562 6.88748 6.49048 6.86444 6.49048 6.84112C6.49048 6.81779 6.49562 6.79476 6.50553 6.77364C6.51543 6.75253 6.52987 6.73386 6.54781 6.71896C6.56272 6.70101 6.58139 6.68658 6.6025 6.67667C6.62361 6.66676 6.64665 6.66162 6.66997 6.66162C6.6933 6.66162 6.71633 6.66676 6.73745 6.67667C6.75856 6.68658 6.77723 6.70101 6.79214 6.71896L18.3974 17.2126Z" fill="white" fill-opacity="0.32"/>
<path d="M64.8798 64.7453C64.9098 64.7789 64.9265 64.8224 64.9265 64.8675C64.9265 64.9126 64.9098 64.956 64.8798 64.9896C64.8637 65.0078 64.844 65.0224 64.8219 65.0324C64.7998 65.0424 64.7758 65.0475 64.7515 65.0475C64.7273 65.0475 64.7033 65.0424 64.6812 65.0324C64.659 65.0224 64.6393 65.0078 64.6233 64.9896L53.018 54.496C52.9282 54.4074 52.8569 54.3018 52.8083 54.1854C52.7597 54.069 52.7346 53.9442 52.7346 53.818C52.7346 53.6919 52.7597 53.567 52.8083 53.4506C52.8569 53.3342 52.9282 53.2287 53.018 53.14C53.1066 53.0503 53.2122 52.979 53.3285 52.9304C53.4449 52.8817 53.5698 52.8567 53.696 52.8567C53.8221 52.8567 53.947 52.8817 54.0634 52.9304C54.1797 52.979 54.2853 53.0503 54.3739 53.14L64.8798 64.7453Z" fill="white" fill-opacity="0.32"/>
<path d="M54.3739 18.5684C54.2853 18.6582 54.1797 18.7294 54.0634 18.7781C53.947 18.8267 53.8221 18.8517 53.696 18.8517C53.5698 18.8517 53.4449 18.8267 53.3285 18.7781C53.2122 18.7294 53.1066 18.6582 53.018 18.5684C52.9282 18.4798 52.8569 18.3742 52.8083 18.2578C52.7597 18.1414 52.7346 18.0166 52.7346 17.8904C52.7346 17.7643 52.7597 17.6394 52.8083 17.523C52.8569 17.4066 52.9282 17.3011 53.018 17.2124L64.6233 6.71879C64.6393 6.70059 64.659 6.68602 64.6812 6.67604C64.7033 6.66605 64.7273 6.66089 64.7515 6.66089C64.7758 6.66089 64.7998 6.66605 64.8219 6.67604C64.844 6.68602 64.8637 6.70059 64.8798 6.71879C64.9098 6.75239 64.9265 6.79588 64.9265 6.84095C64.9265 6.88603 64.9098 6.92952 64.8798 6.96311L54.3739 18.5684Z" fill="white" fill-opacity="0.32"/>
<path d="M6.79214 65.0385C6.77723 65.0564 6.75856 65.0709 6.73745 65.0808C6.71633 65.0907 6.6933 65.0958 6.66997 65.0958C6.64665 65.0958 6.62361 65.0907 6.6025 65.0808C6.58139 65.0709 6.56272 65.0564 6.54781 65.0385C6.52987 65.0236 6.51543 65.0049 6.50553 64.9838C6.49562 64.9627 6.49048 64.9396 6.49048 64.9163C6.49048 64.893 6.49562 64.87 6.50553 64.8488C6.51543 64.8277 6.52987 64.8091 6.54781 64.7942L17.1025 53.1889C17.1912 53.0991 17.2967 53.0278 17.4131 52.9792C17.5295 52.9306 17.6544 52.9055 17.7805 52.9055C17.9067 52.9055 18.0315 52.9306 18.1479 52.9792C18.2643 53.0278 18.3699 53.0991 18.4585 53.1889C18.5483 53.2775 18.6195 53.3831 18.6682 53.4994C18.7168 53.6158 18.7419 53.7407 18.7419 53.8668C18.7419 53.993 18.7168 54.1179 18.6682 54.2343C18.6195 54.3506 18.5483 54.4562 18.4585 54.5448L6.79214 65.0385Z" fill="white" fill-opacity="0.32"/>
<path d="M35.7931 33.6798C35.7931 33.7025 35.7841 33.7242 35.768 33.7402C35.752 33.7563 35.7303 33.7653 35.7076 33.7653C35.6849 33.7653 35.6632 33.7563 35.6471 33.7402C35.6311 33.7242 35.6221 33.7025 35.6221 33.6798V27.9749L35.7931 33.6798Z" fill="white" fill-opacity="0.32"/>
<path d="M35.7444 43.7826V38.0777C35.7444 38.055 35.7534 38.0333 35.7694 38.0172C35.7855 38.0012 35.8072 37.9922 35.8299 37.9922C35.8526 37.9922 35.8743 38.0012 35.8904 38.0172C35.9064 38.0333 35.9154 38.055 35.9154 38.0777L35.7444 43.7826Z" fill="white" fill-opacity="0.32"/>
<path d="M37.8699 35.9642C37.8473 35.9642 37.8255 35.9552 37.8095 35.9392C37.7934 35.9232 37.7844 35.9014 37.7844 35.8787C37.7844 35.856 37.7934 35.8343 37.8095 35.8183C37.8255 35.8022 37.8473 35.7932 37.8699 35.7932H43.5749L37.8699 35.9642Z" fill="white" fill-opacity="0.32"/>
<path d="M27.804 35.9153H33.5089C33.5316 35.9153 33.5533 35.9243 33.5693 35.9403C33.5854 35.9564 33.5944 35.9781 33.5944 36.0008C33.5944 36.0235 33.5854 36.0452 33.5693 36.0613C33.5533 36.0773 33.5316 36.0863 33.5089 36.0863L27.804 35.9153Z" fill="white" fill-opacity="0.32"/>
</g>
<defs>
<clipPath id="clip0_157_6071">
<rect width="71" height="71" fill="white"/>
</clipPath>
</defs>
</svg>
