<svg width="478" height="257" viewBox="0 0 478 257" fill="none" xmlns="http://www.w3.org/2000/svg">
<path d="M41.535 145.12C45.567 148.741 47.583 153.595 47.583 159.68C47.583 165.765 45.567 170.619 41.535 174.24C37.5404 177.861 31.9217 179.672 24.679 179.672C17.399 179.672 11.7617 177.861 7.76703 174.24C3.77236 170.619 1.77503 165.765 1.77503 159.68C1.77503 153.595 3.77236 148.741 7.76703 145.12C11.799 141.499 17.4364 139.688 24.679 139.688C31.9217 139.688 37.5404 141.499 41.535 145.12ZM32.631 166.736C34.535 164.944 35.487 162.555 35.487 159.568C35.487 156.581 34.535 154.192 32.631 152.4C30.727 150.608 28.0764 149.712 24.679 149.712C21.2817 149.712 18.631 150.608 16.727 152.4C14.823 154.192 13.871 156.581 13.871 159.568C13.871 162.555 14.823 164.944 16.727 166.736C18.631 168.528 21.2817 169.424 24.679 169.424C28.0764 169.424 30.727 168.528 32.631 166.736ZM92.6657 140.36V159.344C92.6657 165.653 90.967 170.619 87.5697 174.24C84.1723 177.861 78.983 179.672 72.0017 179.672C64.9083 179.672 59.775 177.992 56.6017 174.632C53.4657 171.235 51.8977 166.139 51.8977 159.344V140.36H63.6577V159.288C63.6577 166.045 66.6443 169.424 72.6177 169.424C75.4177 169.424 77.5457 168.565 79.0017 166.848C80.4577 165.131 81.1857 162.611 81.1857 159.288V140.36H92.6657ZM136.76 140.36V150.272H121.92V179H110.16V150.272H95.3204V140.36H136.76ZM193.676 145.12C197.708 148.741 199.724 153.595 199.724 159.68C199.724 165.765 197.708 170.619 193.676 174.24C189.681 177.861 184.062 179.672 176.82 179.672C169.54 179.672 163.902 177.861 159.908 174.24C155.913 170.619 153.916 165.765 153.916 159.68C153.916 153.595 155.913 148.741 159.908 145.12C163.94 141.499 169.577 139.688 176.82 139.688C184.062 139.688 189.681 141.499 193.676 145.12ZM184.772 166.736C186.676 164.944 187.628 162.555 187.628 159.568C187.628 156.581 186.676 154.192 184.772 152.4C182.868 150.608 180.217 149.712 176.82 149.712C173.422 149.712 170.772 150.608 168.868 152.4C166.964 154.192 166.012 156.581 166.012 159.568C166.012 162.555 166.964 164.944 168.868 166.736C170.772 168.528 173.422 169.424 176.82 169.424C180.217 169.424 182.868 168.528 184.772 166.736ZM235.846 140.36V150.272H216.022V158.224H234.054V168.08H216.022V179H204.206V140.36H235.846ZM299.333 159.456C299.333 165.467 297.279 170.227 293.173 173.736C289.103 177.245 282.589 179 273.629 179H256.269V140.36H273.629C282.701 140.36 289.253 141.965 293.285 145.176C297.317 148.349 299.333 153.109 299.333 159.456ZM287.237 159.568C287.237 158.075 287.031 156.805 286.621 155.76C286.21 154.677 285.482 153.707 284.437 152.848C283.429 151.989 281.973 151.355 280.069 150.944C278.165 150.496 275.813 150.272 273.013 150.272H268.085V168.92H273.013C278.239 168.92 281.917 168.099 284.045 166.456C286.173 164.813 287.237 162.517 287.237 159.568ZM342.207 145.12C346.239 148.741 348.255 153.595 348.255 159.68C348.255 165.765 346.239 170.619 342.207 174.24C338.212 177.861 332.594 179.672 325.351 179.672C318.071 179.672 312.434 177.861 308.439 174.24C304.444 170.619 302.447 165.765 302.447 159.68C302.447 153.595 304.444 148.741 308.439 145.12C312.471 141.499 318.108 139.688 325.351 139.688C332.594 139.688 338.212 141.499 342.207 145.12ZM333.303 166.736C335.207 164.944 336.159 162.555 336.159 159.568C336.159 156.581 335.207 154.192 333.303 152.4C331.399 150.608 328.748 149.712 325.351 149.712C321.954 149.712 319.303 150.608 317.399 152.4C315.495 154.192 314.543 156.581 314.543 159.568C314.543 162.555 315.495 164.944 317.399 166.736C319.303 168.528 321.954 169.424 325.351 169.424C328.748 169.424 331.399 168.528 333.303 166.736ZM391.262 145.12C395.294 148.741 397.31 153.595 397.31 159.68C397.31 165.765 395.294 170.619 391.262 174.24C387.267 177.861 381.648 179.672 374.406 179.672C367.126 179.672 361.488 177.861 357.494 174.24C353.499 170.619 351.502 165.765 351.502 159.68C351.502 153.595 353.499 148.741 357.494 145.12C361.526 141.499 367.163 139.688 374.406 139.688C381.648 139.688 387.267 141.499 391.262 145.12ZM382.358 166.736C384.262 164.944 385.214 162.555 385.214 159.568C385.214 156.581 384.262 154.192 382.358 152.4C380.454 150.608 377.803 149.712 374.406 149.712C371.008 149.712 368.358 150.608 366.454 152.4C364.55 154.192 363.598 156.581 363.598 159.568C363.598 162.555 364.55 164.944 366.454 166.736C368.358 168.528 371.008 169.424 374.406 169.424C377.803 169.424 380.454 168.528 382.358 166.736ZM440.992 179H426.656L419.88 167.912H413.608V179H401.792V140.36H420.496C433.19 140.36 439.536 145.027 439.536 154.36C439.536 159.96 436.979 163.861 431.864 166.064L440.992 179ZM427.44 154.528C427.44 153.035 426.88 151.952 425.76 151.28C424.678 150.608 422.792 150.272 420.104 150.272H413.608V158.784H419.768C424.883 158.784 427.44 157.365 427.44 154.528ZM475.766 143.832L471.846 152.4C468.112 150.16 464.323 149.04 460.478 149.04C456.558 149.04 454.598 149.712 454.598 151.056C454.598 151.84 455.139 152.456 456.222 152.904C457.304 153.352 459.918 154.024 464.062 154.92C468.28 155.853 471.435 157.272 473.526 159.176C475.654 161.043 476.718 163.6 476.718 166.848C476.718 170.619 475.168 173.699 472.07 176.088C469.008 178.477 464.715 179.672 459.19 179.672C452.432 179.672 446.608 178.085 441.718 174.912L445.638 165.84C449.894 168.752 454.206 170.208 458.574 170.208C462.68 170.208 464.734 169.405 464.734 167.8C464.734 167.016 464.192 166.381 463.11 165.896C462.064 165.411 459.563 164.701 455.606 163.768C451.424 162.723 448.27 161.285 446.142 159.456C444.051 157.627 443.006 155.107 443.006 151.896C443.006 148.275 444.518 145.344 447.542 143.104C450.603 140.827 454.803 139.688 460.142 139.688C466.19 139.688 471.398 141.069 475.766 143.832Z" fill="white"/>
<g clip-path="url(#clip0_115_1414)">
<path d="M249.59 219.8H248.97L248.85 217.67C248.55 213.39 245.23 210 241.21 210H239.67C235.65 210 232.34 213.4 232.03 217.67H232L231.89 219.8H231.3V221.93H231.78L231.41 228.97C231.34 229.39 231.3 229.82 231.3 230.26C231.3 230.41 231.34 230.95 231.35 231.1C231.74 234.75 234.62 237.62 238.09 237.62H242.81C246.28 237.62 249.16 234.76 249.55 231.1C249.55 230.95 249.6 230.41 249.6 230.26C249.6 229.8 249.56 229.35 249.48 228.92L249.1 221.93H249.6V219.8H249.59ZM240.45 218.5H246.79V218.81H240.45V218.5V218.5ZM238.19 219.27H246.8V224.91H240.28L237.87 219.27H238.19ZM236.19 219.27L238.6 224.91H238.28L235.87 219.27H236.19ZM237.76 224.91H234.11V219.27H235.35L237.76 224.91ZM232.97 216.97C232.97 216.97 234.17 213.34 235.23 212.86C236.29 212.38 233.61 215.82 232.97 216.97ZM234.12 226V225.69H246.8V226H234.12ZM246.7 235.08C245.64 235.56 248.28 232.25 248.91 231.1C248.91 231.1 247.76 234.6 246.7 235.08Z" fill="white"/>
<path d="M266.12 247.67C264.93 245.89 263.11 246.1 261.78 246.99C259.85 248.29 258.71 250.15 258.34 252.42C258.04 254.24 258.83 255.46 260.63 255.83C261.87 256.08 263.17 256.09 264.43 256.2C264.53 256.2 264.64 256.16 264.84 256.12C264.65 255.97 264.54 255.87 264.41 255.79C263.69 255.29 262.98 254.78 262.25 254.3C261.9 254.07 261.75 253.77 261.81 253.38C262.01 252.05 262.61 250.96 263.79 250.25C264.29 249.95 264.8 249.93 265.31 250.31C265.96 250.8 266.64 251.24 267.3 251.7C267.44 251.8 267.59 251.88 267.73 251.96C267.78 251.94 267.83 251.91 267.88 251.89C267.77 251.41 267.73 250.9 267.53 250.45C267.11 249.5 266.7 248.52 266.12 247.67V247.67Z" fill="white"/>
<path d="M214.48 239.71C215.56 241.56 217.39 241.47 218.77 240.67C220.78 239.5 222.04 237.72 222.56 235.47C222.97 233.67 222.27 232.4 220.49 231.92C219.27 231.59 217.98 231.5 216.72 231.31C216.62 231.3 216.51 231.34 216.31 231.36C216.49 231.52 216.6 231.63 216.71 231.72C217.39 232.26 218.07 232.82 218.77 233.35C219.1 233.6 219.24 233.91 219.15 234.3C218.87 235.61 218.2 236.66 216.97 237.29C216.45 237.56 215.94 237.55 215.46 237.13C214.85 236.6 214.2 236.11 213.56 235.61C213.43 235.51 213.28 235.42 213.15 235.32C213.1 235.34 213.05 235.36 213 235.38C213.08 235.87 213.09 236.38 213.26 236.84C213.62 237.82 213.97 238.82 214.49 239.71H214.48Z" fill="white"/>
<path d="M261.27 246.96C258.47 247.62 256.56 246.86 256.38 246.8H256.37L254.94 246.33L254.7 246.25L246.62 243.59L240.37 241.53L228.24 237.54L227.32 237.23L227.03 237.13L226.74 237.03L225.88 236.75C223.91 236.1 223.11 234.28 223.11 234.28C222.67 238.73 219.75 240.35 219.75 240.35C222.55 239.69 224.46 240.45 224.64 240.51H224.65L226.08 240.98L228.25 241.7L234.12 243.63L240.37 245.69L253.45 250L253.69 250.08L255.13 250.55C257.1 251.2 257.9 253.02 257.9 253.02C258.34 248.57 261.26 246.95 261.26 246.95L261.27 246.96Z" fill="white"/>
<path d="M219.1 246.99C217.77 246.1 215.96 245.89 214.76 247.67C214.18 248.53 213.77 249.5 213.35 250.45C213.15 250.89 213.11 251.41 213 251.89C213.05 251.92 213.1 251.94 213.15 251.96C213.29 251.87 213.44 251.79 213.58 251.7C214.25 251.24 214.93 250.8 215.57 250.31C216.08 249.93 216.59 249.95 217.09 250.25C218.27 250.96 218.88 252.05 219.07 253.38C219.13 253.78 218.97 254.07 218.63 254.3C217.9 254.78 217.19 255.29 216.47 255.79C216.35 255.88 216.24 255.97 216.04 256.12C216.24 256.16 216.35 256.21 216.45 256.2C217.72 256.09 219.01 256.09 220.25 255.83C222.05 255.46 222.84 254.24 222.54 252.42C222.17 250.14 221.03 248.29 219.1 246.99Z" fill="white"/>
<path d="M267.74 235.32C267.6 235.42 267.46 235.5 267.33 235.61C266.69 236.11 266.04 236.6 265.43 237.13C264.95 237.54 264.44 237.56 263.92 237.29C262.69 236.66 262.02 235.61 261.74 234.3C261.66 233.91 261.79 233.6 262.12 233.35C262.82 232.82 263.5 232.27 264.18 231.72C264.3 231.63 264.4 231.52 264.58 231.36C264.38 231.33 264.27 231.29 264.17 231.31C262.91 231.5 261.62 231.59 260.4 231.92C258.62 232.4 257.92 233.67 258.33 235.47C258.85 237.72 260.11 239.5 262.12 240.67C263.5 241.47 265.33 241.57 266.41 239.71C266.93 238.82 267.28 237.82 267.64 236.84C267.81 236.38 267.82 235.87 267.9 235.38C267.85 235.36 267.8 235.34 267.75 235.32H267.74Z" fill="white"/>
<path d="M226.19 246.24L225.95 246.32L224.52 246.79H224.51C224.34 246.85 222.42 247.6 219.62 246.95C219.62 246.95 222.55 248.57 222.98 253.02C222.98 253.02 223.78 251.2 225.75 250.55L227.19 250.08L227.43 250L239.73 245.95L233.4 243.87L226.19 246.24V246.24Z" fill="white"/>
<path d="M234.26 243.59L234.11 243.64L240.44 245.72L240.5 245.7L246.75 243.64H246.76L240.43 241.56L234.26 243.59Z" fill="white"/>
<path d="M261.13 240.35C261.13 240.35 258.2 238.73 257.77 234.28C257.77 234.28 256.97 236.1 255 236.75L254.14 237.03L253.85 237.12L253.56 237.22L252.64 237.53L241.15 241.31L247.48 243.39L252.63 241.7L254.8 240.98L256.23 240.51H256.24C256.41 240.45 258.33 239.7 261.13 240.35V240.35Z" fill="white"/>
</g>
<path d="M198.94 43.08C198.94 46.44 197.521 49.1093 194.684 51.088C191.847 53.0293 187.367 54 181.244 54H161.14V15.36H181.076C191.903 15.36 197.316 18.6827 197.316 25.328C197.316 27.4933 196.719 29.3413 195.524 30.872C194.329 32.3653 192.705 33.4293 190.652 34.064V34.176C193.153 34.6613 195.151 35.7067 196.644 37.312C198.175 38.88 198.94 40.8027 198.94 43.08ZM185.668 27.176C185.668 26.2427 185.201 25.5333 184.268 25.048C183.372 24.5627 181.823 24.32 179.62 24.32H172.956V30.368H179.62C183.652 30.368 185.668 29.304 185.668 27.176ZM185.668 43.752C186.639 43.192 187.124 42.3893 187.124 41.344C187.124 40.2987 186.62 39.5147 185.612 38.992C184.641 38.4693 182.887 38.208 180.348 38.208H172.956V44.536H180.404C182.943 44.536 184.697 44.2747 185.668 43.752ZM235.107 15.36V25.104H215.395V29.864H233.147V38.824H215.395V44.032H235.555V54H203.523V15.36H235.107ZM266.869 15.36L283.501 54H270.733L267.597 45.824H252.869L249.845 54H237.357L253.989 15.36H266.869ZM264.741 38.152L260.317 26.448H260.205L255.781 38.152H264.741ZM319.335 15.36V25.272H304.495V54H292.735V25.272H277.895V15.36H319.335Z" fill="white"/>
<path d="M21.3318 79.8H27.4918V113.4H37.6278V119H21.3318V79.8ZM62.707 119.56C59.683 119.56 57.3684 118.701 55.763 116.984C54.1577 115.267 53.355 112.84 53.355 109.704V89.096C53.355 85.96 54.1577 83.5333 55.763 81.816C57.3684 80.0987 59.683 79.24 62.707 79.24C65.731 79.24 68.0457 80.0987 69.651 81.816C71.2564 83.5333 72.059 85.96 72.059 89.096V109.704C72.059 112.84 71.2564 115.267 69.651 116.984C68.0457 118.701 65.731 119.56 62.707 119.56ZM62.707 113.96C64.835 113.96 65.899 112.672 65.899 110.096V88.704C65.899 86.128 64.835 84.84 62.707 84.84C60.579 84.84 59.515 86.128 59.515 88.704V110.096C59.515 112.672 60.579 113.96 62.707 113.96ZM97.6729 119.56C94.6862 119.56 92.4276 118.72 90.8969 117.04C89.3662 115.323 88.6009 112.877 88.6009 109.704V107.464H94.4249V110.152C94.4249 112.691 95.4889 113.96 97.6169 113.96C98.6622 113.96 99.4462 113.661 99.9689 113.064C100.529 112.429 100.809 111.421 100.809 110.04C100.809 108.397 100.436 106.96 99.6889 105.728C98.9422 104.459 97.5609 102.947 95.5449 101.192C93.0062 98.952 91.2329 96.936 90.2249 95.144C89.2169 93.3147 88.7129 91.2613 88.7129 88.984C88.7129 85.8853 89.4969 83.496 91.0649 81.816C92.6329 80.0987 94.9102 79.24 97.8969 79.24C100.846 79.24 103.068 80.0987 104.561 81.816C106.092 83.496 106.857 85.9227 106.857 89.096V90.72H101.033V88.704C101.033 87.36 100.772 86.3893 100.249 85.792C99.7262 85.1573 98.9609 84.84 97.9529 84.84C95.8996 84.84 94.8729 86.0907 94.8729 88.592C94.8729 90.0107 95.2462 91.336 95.9929 92.568C96.7769 93.8 98.1769 95.2933 100.193 97.048C102.769 99.288 104.542 101.323 105.513 103.152C106.484 104.981 106.969 107.128 106.969 109.592C106.969 112.803 106.166 115.267 104.561 116.984C102.993 118.701 100.697 119.56 97.6729 119.56ZM128.757 85.4H122.317V79.8H141.357V85.4H134.917V119H128.757V85.4ZM157.779 79.8H166.571L170.491 107.856H170.603L174.523 79.8H183.315V119H177.491V89.32H177.379L172.899 119H167.747L163.267 89.32H163.155V119H157.779V79.8ZM201.352 79.8H218.152V85.4H207.512V95.76H215.968V101.36H207.512V113.4H218.152V119H201.352V79.8ZM243.816 119.56C240.867 119.56 238.608 118.72 237.04 117.04C235.509 115.36 234.744 112.989 234.744 109.928V88.872C234.744 85.8107 235.509 83.44 237.04 81.76C238.608 80.08 240.867 79.24 243.816 79.24C246.765 79.24 249.005 80.08 250.536 81.76C252.104 83.44 252.888 85.8107 252.888 88.872V93.016H247.064V88.48C247.064 86.0533 246.037 84.84 243.984 84.84C241.931 84.84 240.904 86.0533 240.904 88.48V110.376C240.904 112.765 241.931 113.96 243.984 113.96C246.037 113.96 247.064 112.765 247.064 110.376V104.384H252.888V109.928C252.888 112.989 252.104 115.36 250.536 117.04C249.005 118.72 246.765 119.56 243.816 119.56ZM270.013 79.8H276.173V95.76H282.781V79.8H288.941V119H282.781V101.36H276.173V119H270.013V79.8ZM311.729 79.8H320.073L326.457 119H320.297L319.177 111.216V111.328H312.177L311.057 119H305.345L311.729 79.8ZM318.449 106.008L315.705 86.632H315.593L312.905 106.008H318.449ZM342.886 79.8H350.614L356.606 103.264H356.718V79.8H362.206V119H355.878L348.486 90.384H348.374V119H342.886V79.8ZM380.224 79.8H386.384V119H380.224V79.8ZM413.117 119.56C410.168 119.56 407.909 118.72 406.341 117.04C404.811 115.36 404.045 112.989 404.045 109.928V88.872C404.045 85.8107 404.811 83.44 406.341 81.76C407.909 80.08 410.168 79.24 413.117 79.24C416.067 79.24 418.307 80.08 419.837 81.76C421.405 83.44 422.189 85.8107 422.189 88.872V93.016H416.365V88.48C416.365 86.0533 415.339 84.84 413.285 84.84C411.232 84.84 410.205 86.0533 410.205 88.48V110.376C410.205 112.765 411.232 113.96 413.285 113.96C415.339 113.96 416.365 112.765 416.365 110.376V104.384H422.189V109.928C422.189 112.989 421.405 115.36 419.837 117.04C418.307 118.72 416.067 119.56 413.117 119.56ZM447.432 119.56C444.446 119.56 442.187 118.72 440.656 117.04C439.126 115.323 438.36 112.877 438.36 109.704V107.464H444.184V110.152C444.184 112.691 445.248 113.96 447.376 113.96C448.422 113.96 449.206 113.661 449.728 113.064C450.288 112.429 450.568 111.421 450.568 110.04C450.568 108.397 450.195 106.96 449.448 105.728C448.702 104.459 447.32 102.947 445.304 101.192C442.766 98.952 440.992 96.936 439.984 95.144C438.976 93.3147 438.472 91.2613 438.472 88.984C438.472 85.8853 439.256 83.496 440.824 81.816C442.392 80.0987 444.67 79.24 447.656 79.24C450.606 79.24 452.827 80.0987 454.32 81.816C455.851 83.496 456.616 85.9227 456.616 89.096V90.72H450.792V88.704C450.792 87.36 450.531 86.3893 450.008 85.792C449.486 85.1573 448.72 84.84 447.712 84.84C445.659 84.84 444.632 86.0907 444.632 88.592C444.632 90.0107 445.006 91.336 445.752 92.568C446.536 93.8 447.936 95.2933 449.952 97.048C452.528 99.288 454.302 101.323 455.272 103.152C456.243 104.981 456.728 107.128 456.728 109.592C456.728 112.803 455.926 115.267 454.32 116.984C452.752 118.701 450.456 119.56 447.432 119.56Z" fill="black"/>
<path d="M21.3318 79.8V78.8H20.3318V79.8H21.3318ZM27.4918 79.8H28.4918V78.8H27.4918V79.8ZM27.4918 113.4H26.4918V114.4H27.4918V113.4ZM37.6278 113.4H38.6278V112.4H37.6278V113.4ZM37.6278 119V120H38.6278V119H37.6278ZM21.3318 119H20.3318V120H21.3318V119ZM21.3318 80.8H27.4918V78.8H21.3318V80.8ZM26.4918 79.8V113.4H28.4918V79.8H26.4918ZM27.4918 114.4H37.6278V112.4H27.4918V114.4ZM36.6278 113.4V119H38.6278V113.4H36.6278ZM37.6278 118H21.3318V120H37.6278V118ZM22.3318 119V79.8H20.3318V119H22.3318ZM55.763 116.984L56.4936 116.301L55.763 116.984ZM55.763 81.816L56.4936 82.4989L55.763 81.816ZM69.651 81.816L68.9205 82.4989L68.9205 82.4989L69.651 81.816ZM69.651 116.984L68.9205 116.301H68.9205L69.651 116.984ZM62.707 118.56C59.8761 118.56 57.8593 117.762 56.4936 116.301L55.0325 117.667C56.8775 119.641 59.49 120.56 62.707 120.56V118.56ZM56.4936 116.301C55.1126 114.824 54.355 112.673 54.355 109.704H52.355C52.355 113.007 53.2028 115.71 55.0325 117.667L56.4936 116.301ZM54.355 109.704V89.096H52.355V109.704H54.355ZM54.355 89.096C54.355 86.127 55.1126 83.9762 56.4936 82.4989L55.0325 81.1331C53.2028 83.0905 52.355 85.793 52.355 89.096H54.355ZM56.4936 82.4989C57.8593 81.0379 59.8761 80.24 62.707 80.24V78.24C59.49 78.24 56.8775 79.1594 55.0325 81.1331L56.4936 82.4989ZM62.707 80.24C65.538 80.24 67.5548 81.0379 68.9205 82.4989L70.3816 81.1331C68.5366 79.1594 65.9241 78.24 62.707 78.24V80.24ZM68.9205 82.4989C70.3014 83.9762 71.059 86.127 71.059 89.096H73.059C73.059 85.793 72.2113 83.0905 70.3816 81.1331L68.9205 82.4989ZM71.059 89.096V109.704H73.059V89.096H71.059ZM71.059 109.704C71.059 112.673 70.3014 114.824 68.9205 116.301L70.3816 117.667C72.2113 115.71 73.059 113.007 73.059 109.704H71.059ZM68.9205 116.301C67.5548 117.762 65.538 118.56 62.707 118.56V120.56C65.9241 120.56 68.5366 119.641 70.3816 117.667L68.9205 116.301ZM62.707 114.96C63.9809 114.96 65.1001 114.565 65.872 113.631C66.6137 112.733 66.899 111.497 66.899 110.096H64.899C64.899 111.271 64.6524 111.967 64.3301 112.357C64.038 112.711 63.5612 112.96 62.707 112.96V114.96ZM66.899 110.096V88.704H64.899V110.096H66.899ZM66.899 88.704C66.899 87.3034 66.6137 86.067 65.872 85.1691C65.1001 84.2347 63.9809 83.84 62.707 83.84V85.84C63.5612 85.84 64.038 86.0893 64.3301 86.4429C64.6524 86.833 64.899 87.5286 64.899 88.704H66.899ZM62.707 83.84C61.4332 83.84 60.314 84.2347 59.5421 85.1691C58.8004 86.067 58.515 87.3034 58.515 88.704H60.515C60.515 87.5286 60.7617 86.833 61.084 86.4429C61.3761 86.0893 61.8528 85.84 62.707 85.84V83.84ZM58.515 88.704V110.096H60.515V88.704H58.515ZM58.515 110.096C58.515 111.497 58.8004 112.733 59.5421 113.631C60.314 114.565 61.4332 114.96 62.707 114.96V112.96C61.8528 112.96 61.3761 112.711 61.084 112.357C60.7617 111.967 60.515 111.271 60.515 110.096H58.515ZM90.8969 117.04L90.1503 117.705L90.1577 117.713L90.8969 117.04ZM88.6009 107.464V106.464H87.6009V107.464H88.6009ZM94.4249 107.464H95.4249V106.464H94.4249V107.464ZM99.9689 113.064L99.2191 112.402L99.2163 112.405L99.9689 113.064ZM99.6889 105.728L98.8269 106.235L98.8337 106.246L99.6889 105.728ZM95.5449 101.192L94.8833 101.942L94.8884 101.946L95.5449 101.192ZM90.2249 95.144L89.349 95.6266L89.3533 95.6343L90.2249 95.144ZM91.0649 81.816L91.796 82.4984L91.8034 82.4903L91.0649 81.816ZM104.561 81.816L103.806 82.4722L103.814 82.4809L103.822 82.4895L104.561 81.816ZM106.857 90.72V91.72H107.857V90.72H106.857ZM101.033 90.72H100.033V91.72H101.033V90.72ZM100.249 85.792L99.477 86.4277L99.4865 86.4392L99.4963 86.4505L100.249 85.792ZM95.9929 92.568L95.1377 93.0863L95.1434 93.0956L95.1492 93.1049L95.9929 92.568ZM100.193 97.048L99.5364 97.8023L99.5367 97.8026L100.193 97.048ZM105.513 103.152L104.63 103.621L105.513 103.152ZM104.561 116.984L103.83 116.301L103.822 116.31L104.561 116.984ZM97.6729 118.56C94.8744 118.56 92.9225 117.778 91.6361 116.367L90.1577 117.713C91.9326 119.662 94.498 120.56 97.6729 120.56V118.56ZM91.6434 116.375C90.329 114.9 89.6009 112.725 89.6009 109.704H87.6009C87.6009 113.029 88.4035 115.745 90.1504 117.705L91.6434 116.375ZM89.6009 109.704V107.464H87.6009V109.704H89.6009ZM88.6009 108.464H94.4249V106.464H88.6009V108.464ZM93.4249 107.464V110.152H95.4249V107.464H93.4249ZM93.4249 110.152C93.4249 111.537 93.7114 112.761 94.4565 113.65C95.23 114.573 96.3479 114.96 97.6169 114.96V112.96C96.7579 112.96 96.2798 112.712 95.9893 112.366C95.6704 111.985 95.4249 111.306 95.4249 110.152H93.4249ZM97.6169 114.96C98.8537 114.96 99.9533 114.6 100.721 113.723L99.2163 112.405C98.9392 112.722 98.4708 112.96 97.6169 112.96V114.96ZM100.719 113.726C101.515 112.823 101.809 111.521 101.809 110.04H99.8089C99.8089 111.322 99.5428 112.035 99.2191 112.402L100.719 113.726ZM101.809 110.04C101.809 108.241 101.398 106.619 100.544 105.21L98.8337 106.246C99.4729 107.301 99.8089 108.554 99.8089 110.04H101.809ZM100.551 105.221C99.7219 103.812 98.2439 102.215 96.2014 100.438L94.8884 101.946C96.878 103.678 98.1626 105.106 98.827 106.235L100.551 105.221ZM96.2065 100.442C93.7049 98.2348 92.0255 96.3053 91.0965 94.6537L89.3533 95.6343C90.4403 97.5667 92.3076 99.6692 94.8833 101.942L96.2065 100.442ZM91.1007 94.6614C90.1814 92.993 89.7129 91.1082 89.7129 88.984H87.7129C87.7129 91.4145 88.2524 93.6363 89.3491 95.6266L91.1007 94.6614ZM89.7129 88.984C89.7129 86.0488 90.4536 83.9365 91.796 82.4983L90.3338 81.1337C88.5402 83.0555 87.7129 85.7219 87.7129 88.984H89.7129ZM91.8034 82.4903C93.1314 81.0358 95.1064 80.24 97.8969 80.24V78.24C94.7141 78.24 92.1344 79.1616 90.3264 81.1417L91.8034 82.4903ZM97.8969 80.24C100.648 80.24 102.556 81.0339 103.806 82.4722L105.316 81.1598C103.58 79.1634 101.044 78.24 97.8969 78.24V80.24ZM103.822 82.4895C105.128 83.9234 105.857 86.0729 105.857 89.096H107.857C107.857 85.7724 107.055 83.0686 105.3 81.1425L103.822 82.4895ZM105.857 89.096V90.72H107.857V89.096H105.857ZM106.857 89.72H101.033V91.72H106.857V89.72ZM102.033 90.72V88.704H100.033V90.72H102.033ZM102.033 88.704C102.033 87.2725 101.762 86.0031 101.001 85.1335L99.4963 86.4505C99.7808 86.7756 100.033 87.4475 100.033 88.704H102.033ZM101.021 85.1563C100.266 84.2393 99.1856 83.84 97.9529 83.84V85.84C98.7362 85.84 99.1869 86.0754 99.477 86.4277L101.021 85.1563ZM97.9529 83.84C96.7143 83.84 95.6225 84.2268 94.87 85.1435C94.1484 86.0225 93.8729 87.2299 93.8729 88.592H95.8729C95.8729 87.4528 96.1107 86.7842 96.4158 86.4125C96.6899 86.0786 97.1382 85.84 97.9529 85.84V83.84ZM93.8729 88.592C93.8729 90.1964 94.2979 91.7006 95.1377 93.0863L96.8481 92.0497C96.1946 90.9714 95.8729 89.825 95.8729 88.592H93.8729ZM95.1492 93.1049C96.0111 94.4592 97.4974 96.0276 99.5364 97.8023L100.849 96.2937C98.8564 94.5591 97.5427 93.1408 96.8366 92.0311L95.1492 93.1049ZM99.5367 97.8026C102.072 100.007 103.742 101.948 104.63 103.621L106.396 102.683C105.343 100.698 103.466 98.5686 100.849 96.2934L99.5367 97.8026ZM104.63 103.621C105.51 105.281 105.969 107.261 105.969 109.592H107.969C107.969 106.995 107.457 104.682 106.396 102.683L104.63 103.621ZM105.969 109.592C105.969 112.643 105.208 114.828 103.83 116.301L105.291 117.667C107.125 115.705 107.969 112.962 107.969 109.592H105.969ZM103.822 116.31C102.497 117.762 100.505 118.56 97.6729 118.56V120.56C100.889 120.56 103.489 119.641 105.299 117.658L103.822 116.31ZM128.757 85.4H129.757V84.4H128.757V85.4ZM122.317 85.4H121.317V86.4H122.317V85.4ZM122.317 79.8V78.8H121.317V79.8H122.317ZM141.357 79.8H142.357V78.8H141.357V79.8ZM141.357 85.4V86.4H142.357V85.4H141.357ZM134.917 85.4V84.4H133.917V85.4H134.917ZM134.917 119V120H135.917V119H134.917ZM128.757 119H127.757V120H128.757V119ZM128.757 84.4H122.317V86.4H128.757V84.4ZM123.317 85.4V79.8H121.317V85.4H123.317ZM122.317 80.8H141.357V78.8H122.317V80.8ZM140.357 79.8V85.4H142.357V79.8H140.357ZM141.357 84.4H134.917V86.4H141.357V84.4ZM133.917 85.4V119H135.917V85.4H133.917ZM134.917 118H128.757V120H134.917V118ZM129.757 119V85.4H127.757V119H129.757ZM157.779 79.8V78.8H156.779V79.8H157.779ZM166.571 79.8L167.562 79.6616L167.441 78.8H166.571V79.8ZM170.491 107.856L169.501 107.994L169.621 108.856H170.491V107.856ZM170.603 107.856V108.856H171.473L171.594 107.994L170.603 107.856ZM174.523 79.8V78.8H173.653L173.533 79.6616L174.523 79.8ZM183.315 79.8H184.315V78.8H183.315V79.8ZM183.315 119V120H184.315V119H183.315ZM177.491 119H176.491V120H177.491V119ZM177.491 89.32H178.491V88.32H177.491V89.32ZM177.379 89.32V88.32H176.519L176.39 89.1707L177.379 89.32ZM172.899 119V120H173.76L173.888 119.149L172.899 119ZM167.747 119L166.758 119.149L166.887 120H167.747V119ZM163.267 89.32L164.256 89.1707L164.128 88.32H163.267V89.32ZM163.155 89.32V88.32H162.155V89.32H163.155ZM163.155 119V120H164.155V119H163.155ZM157.779 119H156.779V120H157.779V119ZM157.779 80.8H166.571V78.8H157.779V80.8ZM165.581 79.9384L169.501 107.994L171.482 107.718L167.562 79.6616L165.581 79.9384ZM170.491 108.856H170.603V106.856H170.491V108.856ZM171.594 107.994L175.514 79.9384L173.533 79.6616L169.613 107.718L171.594 107.994ZM174.523 80.8H183.315V78.8H174.523V80.8ZM182.315 79.8V119H184.315V79.8H182.315ZM183.315 118H177.491V120H183.315V118ZM178.491 119V89.32H176.491V119H178.491ZM177.491 88.32H177.379V90.32H177.491V88.32ZM176.39 89.1707L171.91 118.851L173.888 119.149L178.368 89.4693L176.39 89.1707ZM172.899 118H167.747V120H172.899V118ZM168.736 118.851L164.256 89.1707L162.278 89.4693L166.758 119.149L168.736 118.851ZM163.267 88.32H163.155V90.32H163.267V88.32ZM162.155 89.32V119H164.155V89.32H162.155ZM163.155 118H157.779V120H163.155V118ZM158.779 119V79.8H156.779V119H158.779ZM201.352 79.8V78.8H200.352V79.8H201.352ZM218.152 79.8H219.152V78.8H218.152V79.8ZM218.152 85.4V86.4H219.152V85.4H218.152ZM207.512 85.4V84.4H206.512V85.4H207.512ZM207.512 95.76H206.512V96.76H207.512V95.76ZM215.968 95.76H216.968V94.76H215.968V95.76ZM215.968 101.36V102.36H216.968V101.36H215.968ZM207.512 101.36V100.36H206.512V101.36H207.512ZM207.512 113.4H206.512V114.4H207.512V113.4ZM218.152 113.4H219.152V112.4H218.152V113.4ZM218.152 119V120H219.152V119H218.152ZM201.352 119H200.352V120H201.352V119ZM201.352 80.8H218.152V78.8H201.352V80.8ZM217.152 79.8V85.4H219.152V79.8H217.152ZM218.152 84.4H207.512V86.4H218.152V84.4ZM206.512 85.4V95.76H208.512V85.4H206.512ZM207.512 96.76H215.968V94.76H207.512V96.76ZM214.968 95.76V101.36H216.968V95.76H214.968ZM215.968 100.36H207.512V102.36H215.968V100.36ZM206.512 101.36V113.4H208.512V101.36H206.512ZM207.512 114.4H218.152V112.4H207.512V114.4ZM217.152 113.4V119H219.152V113.4H217.152ZM218.152 118H201.352V120H218.152V118ZM202.352 119V79.8H200.352V119H202.352ZM237.04 117.04L236.301 117.714L236.309 117.722L237.04 117.04ZM237.04 81.76L236.309 81.0776L236.301 81.0865L237.04 81.76ZM250.536 81.76L249.797 82.4335L249.805 82.4423L250.536 81.76ZM252.888 93.016V94.016H253.888V93.016H252.888ZM247.064 93.016H246.064V94.016H247.064V93.016ZM247.064 104.384V103.384H246.064V104.384H247.064ZM252.888 104.384H253.888V103.384H252.888V104.384ZM250.536 117.04L249.805 116.358L249.797 116.367L250.536 117.04ZM243.816 118.56C241.061 118.56 239.1 117.781 237.771 116.358L236.309 117.722C238.116 119.659 240.672 120.56 243.816 120.56V118.56ZM237.779 116.367C236.467 114.927 235.744 112.828 235.744 109.928H233.744C233.744 113.151 234.551 115.793 236.301 117.713L237.779 116.367ZM235.744 109.928V88.872H233.744V109.928H235.744ZM235.744 88.872C235.744 85.9721 236.467 83.8734 237.779 82.4335L236.301 81.0865C234.551 83.0066 233.744 85.6493 233.744 88.872H235.744ZM237.771 82.4423C239.1 81.0186 241.061 80.24 243.816 80.24V78.24C240.672 78.24 238.116 79.1414 236.309 81.0777L237.771 82.4423ZM243.816 80.24C246.572 80.24 248.508 81.019 249.797 82.4335L251.275 81.0865C249.502 79.141 246.958 78.24 243.816 78.24V80.24ZM249.805 82.4423C251.149 83.8826 251.888 85.9779 251.888 88.872H253.888C253.888 85.6434 253.059 82.9974 251.267 81.0777L249.805 82.4423ZM251.888 88.872V93.016H253.888V88.872H251.888ZM252.888 92.016H247.064V94.016H252.888V92.016ZM248.064 93.016V88.48H246.064V93.016H248.064ZM248.064 88.48C248.064 87.1495 247.786 85.9652 247.057 85.1041C246.301 84.2109 245.212 83.84 243.984 83.84V85.84C244.809 85.84 245.26 86.0758 245.53 86.3959C245.828 86.7481 246.064 87.3838 246.064 88.48H248.064ZM243.984 83.84C242.755 83.84 241.666 84.2109 240.91 85.1041C240.182 85.9652 239.904 87.1495 239.904 88.48H241.904C241.904 87.3838 242.139 86.7481 242.437 86.3959C242.708 86.0758 243.159 85.84 243.984 85.84V83.84ZM239.904 88.48V110.376H241.904V88.48H239.904ZM239.904 110.376C239.904 111.691 240.183 112.864 240.915 113.716C241.673 114.597 242.76 114.96 243.984 114.96V112.96C243.154 112.96 242.702 112.726 242.432 112.412C242.138 112.07 241.904 111.451 241.904 110.376H239.904ZM243.984 114.96C245.208 114.96 246.295 114.597 247.052 113.716C247.785 112.864 248.064 111.691 248.064 110.376H246.064C246.064 111.451 245.83 112.07 245.535 112.412C245.266 112.726 244.813 112.96 243.984 112.96V114.96ZM248.064 110.376V104.384H246.064V110.376H248.064ZM247.064 105.384H252.888V103.384H247.064V105.384ZM251.888 104.384V109.928H253.888V104.384H251.888ZM251.888 109.928C251.888 112.822 251.149 114.917 249.805 116.358L251.267 117.722C253.059 115.803 253.888 113.157 253.888 109.928H251.888ZM249.797 116.367C248.508 117.781 246.572 118.56 243.816 118.56V120.56C246.958 120.56 249.502 119.659 251.275 117.713L249.797 116.367ZM270.013 79.8V78.8H269.013V79.8H270.013ZM276.173 79.8H277.173V78.8H276.173V79.8ZM276.173 95.76H275.173V96.76H276.173V95.76ZM282.781 95.76V96.76H283.781V95.76H282.781ZM282.781 79.8V78.8H281.781V79.8H282.781ZM288.941 79.8H289.941V78.8H288.941V79.8ZM288.941 119V120H289.941V119H288.941ZM282.781 119H281.781V120H282.781V119ZM282.781 101.36H283.781V100.36H282.781V101.36ZM276.173 101.36V100.36H275.173V101.36H276.173ZM276.173 119V120H277.173V119H276.173ZM270.013 119H269.013V120H270.013V119ZM270.013 80.8H276.173V78.8H270.013V80.8ZM275.173 79.8V95.76H277.173V79.8H275.173ZM276.173 96.76H282.781V94.76H276.173V96.76ZM283.781 95.76V79.8H281.781V95.76H283.781ZM282.781 80.8H288.941V78.8H282.781V80.8ZM287.941 79.8V119H289.941V79.8H287.941ZM288.941 118H282.781V120H288.941V118ZM283.781 119V101.36H281.781V119H283.781ZM282.781 100.36H276.173V102.36H282.781V100.36ZM275.173 101.36V119H277.173V101.36H275.173ZM276.173 118H270.013V120H276.173V118ZM271.013 119V79.8H269.013V119H271.013ZM311.729 79.8V78.8H310.879L310.742 79.6393L311.729 79.8ZM320.073 79.8L321.06 79.6393L320.923 78.8H320.073V79.8ZM326.457 119V120H327.633L327.444 118.839L326.457 119ZM320.297 119L319.307 119.142L319.431 120H320.297V119ZM319.177 111.216L320.167 111.074L318.177 111.216H319.177ZM319.177 111.328V112.328H320.177V111.328H319.177ZM312.177 111.328V110.328H311.312L311.187 111.184L312.177 111.328ZM311.057 119V120H311.922L312.046 119.144L311.057 119ZM305.345 119L304.358 118.839L304.169 120H305.345V119ZM318.449 106.008V107.008H319.601L319.439 105.868L318.449 106.008ZM315.705 86.632L316.695 86.4918L316.573 85.632H315.705V86.632ZM315.593 86.632V85.632H314.722L314.602 86.4946L315.593 86.632ZM312.905 106.008L311.914 105.871L311.757 107.008H312.905V106.008ZM311.729 80.8H320.073V78.8H311.729V80.8ZM319.086 79.9607L325.47 119.161L327.444 118.839L321.06 79.6393L319.086 79.9607ZM326.457 118H320.297V120H326.457V118ZM321.287 118.858L320.167 111.074L318.187 111.358L319.307 119.142L321.287 118.858ZM318.177 111.216V111.328H320.177V111.216H318.177ZM319.177 110.328H312.177V112.328H319.177V110.328ZM311.187 111.184L310.067 118.856L312.046 119.144L313.166 111.472L311.187 111.184ZM311.057 118H305.345V120H311.057V118ZM306.332 119.161L312.716 79.9607L310.742 79.6393L304.358 118.839L306.332 119.161ZM319.439 105.868L316.695 86.4918L314.715 86.7722L317.459 106.148L319.439 105.868ZM315.705 85.632H315.593V87.632H315.705V85.632ZM314.602 86.4946L311.914 105.871L313.895 106.145L316.583 86.7694L314.602 86.4946ZM312.905 107.008H318.449V105.008H312.905V107.008ZM342.886 79.8V78.8H341.886V79.8H342.886ZM350.614 79.8L351.582 79.5526L351.39 78.8H350.614V79.8ZM356.606 103.264L355.637 103.511L355.829 104.264H356.606V103.264ZM356.718 103.264V104.264H357.718V103.264H356.718ZM356.718 79.8V78.8H355.718V79.8H356.718ZM362.206 79.8H363.206V78.8H362.206V79.8ZM362.206 119V120H363.206V119H362.206ZM355.878 119L354.909 119.25L355.103 120H355.878V119ZM348.486 90.384L349.454 90.1339L349.26 89.384H348.486V90.384ZM348.374 90.384V89.384H347.374V90.384H348.374ZM348.374 119V120H349.374V119H348.374ZM342.886 119H341.886V120H342.886V119ZM342.886 80.8H350.614V78.8H342.886V80.8ZM349.645 80.0474L355.637 103.511L357.574 103.017L351.582 79.5526L349.645 80.0474ZM356.606 104.264H356.718V102.264H356.606V104.264ZM357.718 103.264V79.8H355.718V103.264H357.718ZM356.718 80.8H362.206V78.8H356.718V80.8ZM361.206 79.8V119H363.206V79.8H361.206ZM362.206 118H355.878V120H362.206V118ZM356.846 118.75L349.454 90.1339L347.517 90.6341L354.909 119.25L356.846 118.75ZM348.486 89.384H348.374V91.384H348.486V89.384ZM347.374 90.384V119H349.374V90.384H347.374ZM348.374 118H342.886V120H348.374V118ZM343.886 119V79.8H341.886V119H343.886ZM380.224 79.8V78.8H379.224V79.8H380.224ZM386.384 79.8H387.384V78.8H386.384V79.8ZM386.384 119V120H387.384V119H386.384ZM380.224 119H379.224V120H380.224V119ZM380.224 80.8H386.384V78.8H380.224V80.8ZM385.384 79.8V119H387.384V79.8H385.384ZM386.384 118H380.224V120H386.384V118ZM381.224 119V79.8H379.224V119H381.224ZM406.341 117.04L405.602 117.714L405.61 117.722L406.341 117.04ZM406.341 81.76L405.61 81.0776L405.602 81.0865L406.341 81.76ZM419.837 81.76L419.098 82.4335L419.106 82.4423L419.837 81.76ZM422.189 93.016V94.016H423.189V93.016H422.189ZM416.365 93.016H415.365V94.016H416.365V93.016ZM416.365 104.384V103.384H415.365V104.384H416.365ZM422.189 104.384H423.189V103.384H422.189V104.384ZM419.837 117.04L419.106 116.358L419.098 116.367L419.837 117.04ZM413.117 118.56C410.362 118.56 408.401 117.781 407.072 116.358L405.61 117.722C407.418 119.659 409.974 120.56 413.117 120.56V118.56ZM407.081 116.367C405.769 114.927 405.045 112.828 405.045 109.928H403.045C403.045 113.151 403.853 115.793 405.602 117.713L407.081 116.367ZM405.045 109.928V88.872H403.045V109.928H405.045ZM405.045 88.872C405.045 85.9721 405.769 83.8734 407.081 82.4335L405.602 81.0865C403.853 83.0066 403.045 85.6493 403.045 88.872H405.045ZM407.072 82.4423C408.401 81.0186 410.362 80.24 413.117 80.24V78.24C409.974 78.24 407.418 79.1414 405.61 81.0777L407.072 82.4423ZM413.117 80.24C415.874 80.24 417.81 81.019 419.098 82.4335L420.577 81.0865C418.804 79.141 416.259 78.24 413.117 78.24V80.24ZM419.106 82.4423C420.451 83.8826 421.189 85.9779 421.189 88.872H423.189C423.189 85.6434 422.36 82.9974 420.568 81.0777L419.106 82.4423ZM421.189 88.872V93.016H423.189V88.872H421.189ZM422.189 92.016H416.365V94.016H422.189V92.016ZM417.365 93.016V88.48H415.365V93.016H417.365ZM417.365 88.48C417.365 87.1495 417.087 85.9652 416.359 85.1041C415.603 84.2109 414.514 83.84 413.285 83.84V85.84C414.11 85.84 414.561 86.0758 414.832 86.3959C415.13 86.7481 415.365 87.3838 415.365 88.48H417.365ZM413.285 83.84C412.057 83.84 410.968 84.2109 410.212 85.1041C409.483 85.9652 409.205 87.1495 409.205 88.48H411.205C411.205 87.3838 411.441 86.7481 411.739 86.3959C412.01 86.0758 412.461 85.84 413.285 85.84V83.84ZM409.205 88.48V110.376H411.205V88.48H409.205ZM409.205 110.376C409.205 111.691 409.485 112.864 410.217 113.716C410.974 114.597 412.062 114.96 413.285 114.96V112.96C412.456 112.96 412.003 112.726 411.734 112.412C411.44 112.07 411.205 111.451 411.205 110.376H409.205ZM413.285 114.96C414.509 114.96 415.597 114.597 416.354 113.716C417.086 112.864 417.365 111.691 417.365 110.376H415.365C415.365 111.451 415.131 112.07 414.837 112.412C414.568 112.726 414.115 112.96 413.285 112.96V114.96ZM417.365 110.376V104.384H415.365V110.376H417.365ZM416.365 105.384H422.189V103.384H416.365V105.384ZM421.189 104.384V109.928H423.189V104.384H421.189ZM421.189 109.928C421.189 112.822 420.451 114.917 419.106 116.358L420.568 117.722C422.36 115.803 423.189 113.157 423.189 109.928H421.189ZM419.098 116.367C417.81 117.781 415.874 118.56 413.117 118.56V120.56C416.259 120.56 418.804 119.659 420.577 117.713L419.098 116.367ZM440.656 117.04L439.91 117.705L439.917 117.713L440.656 117.04ZM438.36 107.464V106.464H437.36V107.464H438.36ZM444.184 107.464H445.184V106.464H444.184V107.464ZM449.728 113.064L448.978 112.402L448.976 112.405L449.728 113.064ZM449.448 105.728L448.586 106.235L448.593 106.246L449.448 105.728ZM445.304 101.192L444.643 101.942L444.648 101.946L445.304 101.192ZM439.984 95.144L439.108 95.6266L439.113 95.6343L439.984 95.144ZM440.824 81.816L441.555 82.4984L441.563 82.4903L440.824 81.816ZM454.32 81.816L453.566 82.4722L453.573 82.4809L453.581 82.4895L454.32 81.816ZM456.616 90.72V91.72H457.616V90.72H456.616ZM450.792 90.72H449.792V91.72H450.792V90.72ZM450.008 85.792L449.236 86.4277L449.246 86.4392L449.256 86.4505L450.008 85.792ZM445.752 92.568L444.897 93.0863L444.903 93.0956L444.909 93.1049L445.752 92.568ZM449.952 97.048L449.296 97.8023L449.296 97.8026L449.952 97.048ZM455.272 103.152L454.389 103.621L455.272 103.152ZM454.32 116.984L453.59 116.301L453.582 116.31L454.32 116.984ZM447.432 118.56C444.634 118.56 442.682 117.778 441.395 116.367L439.917 117.713C441.692 119.662 444.257 120.56 447.432 120.56V118.56ZM441.403 116.375C440.088 114.9 439.36 112.725 439.36 109.704H437.36C437.36 113.029 438.163 115.745 439.91 117.705L441.403 116.375ZM439.36 109.704V107.464H437.36V109.704H439.36ZM438.36 108.464H444.184V106.464H438.36V108.464ZM443.184 107.464V110.152H445.184V107.464H443.184ZM443.184 110.152C443.184 111.537 443.471 112.761 444.216 113.65C444.989 114.573 446.107 114.96 447.376 114.96V112.96C446.517 112.96 446.039 112.712 445.749 112.366C445.43 111.985 445.184 111.306 445.184 110.152H443.184ZM447.376 114.96C448.613 114.96 449.713 114.6 450.481 113.723L448.976 112.405C448.699 112.722 448.23 112.96 447.376 112.96V114.96ZM450.478 113.726C451.274 112.823 451.568 111.521 451.568 110.04H449.568C449.568 111.322 449.302 112.035 448.978 112.402L450.478 113.726ZM451.568 110.04C451.568 108.241 451.158 106.619 450.303 105.21L448.593 106.246C449.232 107.301 449.568 108.554 449.568 110.04H451.568ZM450.31 105.221C449.481 103.812 448.003 102.215 445.961 100.438L444.648 101.946C446.637 103.678 447.922 105.106 448.586 106.235L450.31 105.221ZM445.966 100.442C443.464 98.2348 441.785 96.3053 440.856 94.6537L439.113 95.6343C440.2 97.5667 442.067 99.6692 444.643 101.942L445.966 100.442ZM440.86 94.6614C439.941 92.993 439.472 91.1082 439.472 88.984H437.472C437.472 91.4145 438.012 93.6363 439.108 95.6266L440.86 94.6614ZM439.472 88.984C439.472 86.0488 440.213 83.9365 441.555 82.4983L440.093 81.1337C438.3 83.0555 437.472 85.7219 437.472 88.984H439.472ZM441.563 82.4903C442.891 81.0358 444.866 80.24 447.656 80.24V78.24C444.473 78.24 441.894 79.1616 440.086 81.1417L441.563 82.4903ZM447.656 80.24C450.408 80.24 452.315 81.0339 453.566 82.4722L455.075 81.1598C453.339 79.1634 450.804 78.24 447.656 78.24V80.24ZM453.581 82.4895C454.888 83.9234 455.616 86.0729 455.616 89.096H457.616C457.616 85.7724 456.814 83.0686 455.059 81.1425L453.581 82.4895ZM455.616 89.096V90.72H457.616V89.096H455.616ZM456.616 89.72H450.792V91.72H456.616V89.72ZM451.792 90.72V88.704H449.792V90.72H451.792ZM451.792 88.704C451.792 87.2725 451.522 86.0031 450.761 85.1335L449.256 86.4505C449.54 86.7756 449.792 87.4475 449.792 88.704H451.792ZM450.78 85.1563C450.025 84.2393 448.945 83.84 447.712 83.84V85.84C448.496 85.84 448.946 86.0754 449.236 86.4277L450.78 85.1563ZM447.712 83.84C446.474 83.84 445.382 84.2268 444.629 85.1435C443.908 86.0225 443.632 87.2299 443.632 88.592H445.632C445.632 87.4528 445.87 86.7842 446.175 86.4125C446.449 86.0786 446.898 85.84 447.712 85.84V83.84ZM443.632 88.592C443.632 90.1964 444.057 91.7006 444.897 93.0863L446.607 92.0497C445.954 90.9714 445.632 89.825 445.632 88.592H443.632ZM444.909 93.1049C445.77 94.4592 447.257 96.0276 449.296 97.8023L450.609 96.2937C448.616 94.5591 447.302 93.1408 446.596 92.0311L444.909 93.1049ZM449.296 97.8026C451.832 100.007 453.501 101.948 454.389 103.621L456.156 102.683C455.102 100.698 453.225 98.5686 450.608 96.2934L449.296 97.8026ZM454.389 103.621C455.27 105.281 455.728 107.261 455.728 109.592H457.728C457.728 106.995 457.216 104.682 456.156 102.683L454.389 103.621ZM455.728 109.592C455.728 112.643 454.967 114.828 453.59 116.301L455.051 117.667C456.884 115.705 457.728 112.962 457.728 109.592H455.728ZM453.582 116.31C452.256 117.762 450.265 118.56 447.432 118.56V120.56C450.648 120.56 453.249 119.641 455.059 117.658L453.582 116.31Z" fill="white"/>
<g clip-path="url(#clip1_115_1414)">
<path fill-rule="evenodd" clip-rule="evenodd" d="M333 46.7872C337.01 42.3989 340.993 38.0106 345.194 33.4096C343.312 32.984 341.621 32.5851 339.575 32.1064C348.168 26.9734 356.488 22 364.836 17C364.891 17.0798 364.945 17.133 365 17.2128C360.608 21.6543 356.243 26.0957 351.687 30.6968C353.433 31.0957 354.988 31.4681 356.898 31.9202C348.85 37.0532 341.048 42.0266 333.246 47C333.164 46.9202 333.082 46.867 333 46.8138V46.7872Z" fill="white"/>
</g>
<path fill-rule="evenodd" clip-rule="evenodd" d="M147 46.7872C142.99 42.3989 139.007 38.0106 134.806 33.4096C136.688 32.984 138.379 32.5851 140.425 32.1064C131.832 26.9734 123.512 22 115.164 17C115.109 17.0798 115.055 17.133 115 17.2128C119.392 21.6543 123.757 26.0957 128.313 30.6968C126.567 31.0957 125.012 31.4681 123.102 31.9202C131.15 37.0532 138.952 42.0266 146.754 47C146.836 46.9202 146.918 46.867 147 46.8138V46.7872Z" fill="white"/>
<defs>
<clipPath id="clip0_115_1414">
<rect width="54.89" height="46.2" fill="white" transform="translate(213 210)"/>
</clipPath>
<clipPath id="clip1_115_1414">
<rect width="32" height="30" fill="white" transform="translate(333 17)"/>
</clipPath>
</defs>
</svg>
