<svg width="30" height="27" viewBox="0 0 30 27" fill="none" xmlns="http://www.w3.org/2000/svg">
<path d="M29.8942 25.054L26.7537 19.6148C26.6701 19.4706 26.5427 19.3569 26.39 19.2903C26.2372 19.2236 26.0672 19.2075 25.9047 19.2443L18.7003 6.76734C18.8133 6.64486 18.8841 6.48953 18.9027 6.32397C18.9212 6.15841 18.8864 5.99126 18.8033 5.84685C18.4235 5.50712 15.7079 -0.319746 14.9833 0.0156908C14.2746 -0.341918 11.5267 5.52858 11.1634 5.84685C11.0811 5.99152 11.0468 6.15857 11.0654 6.32397C11.084 6.48938 11.1546 6.6446 11.2671 6.76734L4.06342 19.2443C3.90122 19.208 3.73167 19.2243 3.57939 19.291C3.42711 19.3576 3.30003 19.471 3.2166 19.6148C3.10503 20.1154 -0.569753 25.3737 0.0760874 25.8372C0.121861 26.6296 6.57955 26.0746 7.03658 26.2298C7.20308 26.2295 7.36513 26.176 7.49916 26.0772C7.63319 25.9784 7.73222 25.8395 7.78183 25.6805H22.187C22.2366 25.8395 22.3357 25.9784 22.4697 26.0772C22.6037 26.176 22.7658 26.2295 22.9323 26.2298H29.2126C29.7976 26.2484 30.2017 25.5518 29.8942 25.054ZM7.03586 24.6613H2.11374L4.57552 20.4001C4.65858 20.2557 4.69338 20.0885 4.67485 19.923C4.65633 19.7574 4.58545 19.6021 4.47252 19.4796L11.6748 7.00264C11.8372 7.03938 12.0071 7.02325 12.1597 6.9566C12.3123 6.88995 12.4396 6.77627 12.523 6.63216L14.9833 2.3709L17.4437 6.63216C17.527 6.77686 17.6544 6.8911 17.8073 6.95816C17.9602 7.02521 18.1305 7.04155 18.2934 7.00479L25.4956 19.4796C25.3833 19.6024 25.3128 19.7577 25.2943 19.9231C25.2758 20.0885 25.3102 20.2555 25.3926 20.4001L27.853 24.6613H22.9323C22.7658 24.6617 22.6037 24.7151 22.4697 24.8139C22.3357 24.9127 22.2366 25.0517 22.187 25.2106H7.77969C7.73007 25.0517 7.63105 24.9127 7.49702 24.8139C7.36298 24.7151 7.20093 24.6617 7.03443 24.6613H7.03586Z" fill="white"/>
<path d="M13.5239 22.4007C13.481 20.3981 16.5106 20.3559 16.4448 22.4007C16.5128 24.3925 13.4831 24.4469 13.5239 22.4007ZM14.1182 18.0443L13.8321 8.16642C13.8267 8.01151 13.8525 7.85708 13.908 7.71235C13.9635 7.56762 14.0476 7.43556 14.1553 7.32403C14.263 7.21251 14.392 7.12381 14.5347 7.06324C14.6774 7.00266 14.8308 6.97144 14.9858 6.97144C15.1408 6.97144 15.2942 7.00266 15.4369 7.06324C15.5796 7.12381 15.7086 7.21251 15.8163 7.32403C15.924 7.43556 16.0081 7.56762 16.0636 7.71235C16.1191 7.85708 16.1449 8.01151 16.1394 8.16642L15.8533 18.0443C15.8443 18.2679 15.749 18.4793 15.5876 18.6344C15.4262 18.7894 15.211 18.8759 14.9872 18.8759C14.7634 18.8759 14.5483 18.7894 14.3868 18.6344C14.2254 18.4793 14.1302 18.2679 14.1211 18.0443H14.1182Z" fill="white"/>
</svg>
