<?xml version="1.0" encoding="utf-8"?>
<!-- Generator: Adobe Illustrator 27.8.0, SVG Export Plug-In . SVG Version: 6.00 Build 0)  -->
<svg version="1.1" xmlns="http://www.w3.org/2000/svg" xmlns:xlink="http://www.w3.org/1999/xlink" x="0px" y="0px"
     viewBox="0 0 841.9 595.3" style="enable-background:new 0 0 841.9 595.3;" xml:space="preserve">
<style type="text/css">
	.st0{fill:#25284C;}
	
		.st1{opacity:0.6;clip-path:url(#SVGID_00000139265766671736081930000016415273792900961165_);fill:url(#SVGID_00000148637835277100607040000016400730993798040767_);}
	.st2{fill:#29487F;}
	.st3{opacity:0.5;fill:url(#SVGID_00000000926044552482330770000007916578673809863063_);}
	.st4{opacity:0.5;fill:url(#SVGID_00000115481083003504403710000014398178704232754316_);}
	.st5{opacity:0.5;fill:url(#SVGID_00000154396791928084234250000010820860232210674348_);}
	.st6{opacity:0.5;fill:url(#SVGID_00000177485123938681562610000015266991145639265682_);}
	.st7{opacity:0.5;fill:url(#SVGID_00000009570245384133807030000000759211297751431578_);}
	.st8{opacity:0.5;fill:url(#SVGID_00000148643476632706245750000009434457443590960275_);}
	.st9{opacity:0.5;fill:url(#SVGID_00000084498234034471589890000001354200600844049805_);}
	.st10{opacity:0.5;fill:url(#SVGID_00000169558454030859834470000017625972660384237218_);}
	.st11{opacity:0.5;fill:url(#SVGID_00000011727054182734533620000002350285493420662439_);}
	.st12{opacity:0.5;fill:url(#SVGID_00000127012881109815479770000016167371074825205169_);}
	.st13{fill:#0B182C;}
	.st14{fill:url(#SVGID_00000142155388887023879820000016869776719606239370_);}
	.st15{fill:url(#SVGID_00000006692199210046609430000009081821556490304645_);}
	.st16{fill:url(#SVGID_00000069373319982042396260000017013939348139336840_);}
	.st17{fill:url(#SVGID_00000145761545888193734120000006067927394107937930_);}
	.st18{fill:url(#SVGID_00000157295497799974193650000007413570589644842131_);}
	.st19{fill:url(#SVGID_00000057126755123972557290000016865960728907310245_);}
	.st20{fill:url(#SVGID_00000161622203874895470150000006994486466495836553_);}
	.st21{fill:url(#SVGID_00000098203815911039443820000010615249715235254203_);}
	.st22{fill:url(#SVGID_00000127748791587950179230000004584678884254691479_);}
	.st23{fill:url(#SVGID_00000064335465038278212390000017677715549187514247_);}
	.st24{fill:url(#SVGID_00000003820639397765359600000011735476991941559729_);}
	.st25{fill:#FFF91D;}
	.st26{fill:url(#SVGID_00000018231108124943156480000015389636583208245123_);}
	.st27{fill:url(#SVGID_00000139265260368397044290000015030993752984033967_);}
	.st28{fill:url(#SVGID_00000022547011186732981160000000288428682559748758_);}
	.st29{fill:url(#SVGID_00000158732396414405177860000013991700618077924767_);}
	.st30{fill:#363666;}
	.st31{fill:#28284C;}
	.st32{fill:#1C1C33;}
</style>
    <!--<g id="BG_00000078729526224661328430000006324637910792230552_">-->
    <!--	<g id="BG">-->
    <!--		<rect x="-0.6" y="-4.1" class="st0" width="849.6" height="490.9"/>-->
    <!--		<g>-->
    <!--			<defs>-->
    <!--				<rect id="SVGID_1_" x="-0.8" y="-4.1" width="849.6" height="490.9"/>-->
    <!--			</defs>-->
    <!--			<clipPath id="SVGID_00000011730502060685129090000004163715058408234919_">-->
    <!--				<use xlink:href="#SVGID_1_"  style="overflow:visible;"/>-->
    <!--			</clipPath>-->
    <!--			-->
    <!--				<radialGradient id="SVGID_00000055688952406605849440000011871539502053510799_" cx="428.1287" cy="403.5418" r="631.9046" gradientTransform="matrix(1.0096 0 0 1 -8.1792 0)" gradientUnits="userSpaceOnUse">-->
    <!--				<stop  offset="0" style="stop-color:#172749;stop-opacity:0"/>-->
    <!--				<stop  offset="1" style="stop-color:#0F0F12"/>-->
    <!--			</radialGradient>-->
    <!--			-->
    <!--				<ellipse style="opacity:0.6;clip-path:url(#SVGID_00000011730502060685129090000004163715058408234919_);fill:url(#SVGID_00000055688952406605849440000011871539502053510799_);" cx="424.1" cy="403.5" rx="638" ry="631.9"/>-->
    <!--		</g>-->
    <!--	</g>-->
    <!--</g>-->
    <g id="ND_00000133497258482377497600000005252922125145155748_">
	<g id="ND">
		<polygon class="st2" points="262.5,313.4 256.7,287.7 238.9,287.7 238.9,293.5 191.2,293.5 191.2,225.6 194,225.6 194,209.8
			185.8,209.8 185.8,218 181.6,218 181.6,199 181.6,191.9 172.9,191.9 172.9,198.2 168.9,198.2 168.9,218 164.4,218 164.4,210.6
			159.6,210.6 159.6,225.3 165.8,225.3 165.8,258.3 159.9,258.3 159.9,242.5 150.3,232.9 150.3,221.3 146.6,221.3 146.6,232.6
			135,244.2 135,258.3 126.3,258.3 123.2,264.8 123.2,284 110.6,284 110.6,288.7 102.7,288.7 102.7,327.9 112.8,327.9 154.2,322.1
			289.6,328.1 273.4,313.4 		"/>
        <polygon style="opacity:0.5;fill:#96BAE1;" points="176.6,191.9
			181.6,191.9 181.6,218 176.6,218 		"/>
        <polygon style="opacity:0.5;fill:#96BAE1" points="194,209.8
			194,225.6 190.9,222.5 190.9,209.8 		"/>
        <polyline style="opacity:0.5;fill:#96BAE1" points="148.4,221.3
			150.1,221.3 150.1,232.9 165.8,245.8 165.8,258.3 151.6,258.3 151.6,237.2 148.3,234.3 148.4,221.3 		"/>
        <polyline style="opacity:0.5;fill:#96BAE1;" points="163.4,258.3
			165.8,258.3 165.8,271.9 155.1,275.2 155.1,295 143.2,295 143.2,269.2 146.1,269.2 163.4,260.7 163.4,258.3 		"/>
        <polyline style="opacity:0.5;fill:#96BAE1;" points="191.2,264.7
			191.2,225.3 180.8,225.3 180.8,267.5 191.2,264.7 		"/>
        <polyline style="opacity:0.5;fill:#96BAE1;" points="123.5,287.4
			139.4,287.4 143.2,290.9 123.5,290.9 123.5,287.4 		"/>
        <polygon style="opacity:0.5;fill:#96BAE1" points="123.5,295
			143.2,295 151.9,302.1 151.9,305.5 148.4,302.8 123.5,302.8 		"/>
        <polygon style="opacity:0.5;fill:#96BAE1" points="123.5,305.1
			148.4,305.1 151.6,307.4 151.6,322.6 123.5,322.6 		"/>
        <polygon style="opacity:0.5;fill:#96BAE1" points="155.9,295.5
			172.2,304.6 172.2,293.5 179.9,293.5 193.9,321.6 155.9,321.6 		"/>
        <polygon style="opacity:0.5;fill:#96BAE1;" points="238.9,287.7
			256.7,287.7 262.5,313.4 271.2,327.4 238.9,326 		"/>
        <rect x="174.6" y="229.2" class="st13" width="2.1" height="12"/>
        <rect x="178.7" y="229.2" class="st13" width="2.1" height="12"/>
        <rect x="182.5" y="229.2" class="st13" width="2.1" height="12"/>

        <polygon data-z="3.5" style="fill:#0B182C" points="262.5,313.4 273.4,313.4
			289.6,328.1 271.2,327.4 		"/>
        <polygon data-z="3.5" style="fill:#0B182C" points="155.1,275.2 155.1,295
			172.2,304.6 172.2,293.5 191.2,293.5 191.2,264.7 		"/>
        <polygon data-z="3.5" style="fill:#0B182C" points="128.3,284 128.4,260.7
			131.1,260.7 142,269.2 146.1,269.2 163.4,260.7 163.4,258.3 134.9,258.3 126.1,258.3 123,264.8 123,284 		"/>
        <path data-z="3.5" style="fill:#0B182C" d="M123.2,284c-6.5,0-12.6,0-12.6,0v4.5
			h-7.9v7.9h-8.8v12.8H73.3v18.6h39.4v-33.2h29V291h-29v-3.6l26.7,0.1c0,0,0-3.6,0-3.5c0,0.1-5.1,0.1-11.1,0.1L123.2,284z"/>
        <polygon data-z="3.5" style="fill:#0B182C;" points="148.4,221.3 146.6,221.3
			146.6,232.6 135,244.2 134.9,258.3 145.4,258.3 145.4,237.8 148.4,234.3 		"/>
        <polygon data-z="3.5" style="fill:#0B182C;" points="176.6,191.9 172.9,191.9
			172.9,198.2 168.9,198.2 168.9,208.5 168.9,218 176.6,218 		"/>
        <polygon data-z="3.5" style="fill:#0B182C;" points="185.8,218 164.4,218
			164.4,210.6 159.5,210.6 159.6,225.3 194,225.6 		"/>
        <polygon data-z="3.5" style="fill:#0B182C" points="174.6,269.3 165.8,271.9
			165.8,225.3 174.6,225.3 		"/>
        <polygon data-z="3.5" style="fill:#0B182C" points="118.8,302.8 148.4,302.8
			155.1,307.9 155.1,322.6 151.6,322.6 151.6,307.4 148.4,305.1 118.8,305.1 		"/>
        <polygon data-z="3.5" style="fill:#0B182C" points="190.6,293.7 222,293.7
			203.6,307.3 196.7,307.3 		"/>
        <polygon data-z="3.5" style="fill:#0B182C" points="222,293.5 222,325.4
			238.9,326.4 238.9,287.4 238.9,287.7 238.9,293.5 		"/>
	</g>
        <path class="st25" d="M174.4,189.1v-12.8l-0.8-5.1l-0.8-0.8l1.6-4.5l1.2-1.6l0.4-2.3l-0.9-1.2l1.3-0.7l2.3,0.3l-0.4,1.2l0.8,1.4
		l-0.4,2.3l0.4,1.5c0,0,0.4-0.5,0.4-0.8c0-0.3,0.4-1.6,0.4-1.6l2-0.1l0.4,1.5l-0.6,1c0.8,0.6,1.5,0.4,1.5,0.4v-1.1l0.9,0.6v1.1
		c0,0-0.5,0.8-0.7,0.9s-1.2,0.7-1.2,0.7l0.7,3.7l-1,1l1,7.3l-0.6,5.4l-1.4-0.8l0.7,5.7l-8.8,0L174.4,189.1z"/>
        <path style="fill:#FDDF4F" d="M181.6,191.9l-0.7-5.7l1.4,0.8l0.6-5.4
		l-1-7.3l1-1l-0.7-3.7c0,0,1-0.6,1.2-0.7s0.7-0.9,0.7-0.9v-1.1l-0.9-0.6v1.1c0,0-0.7,0.1-1.5-0.4l0.6-1l-0.4-1.5l-2,0.1l1.3,0.5
		l0.4,0.8l-0.3,1.9l0.9,0.4l-0.9,1.4l0.6,3l-1.1,1.8l-0.9,17.6L181.6,191.9z"/>
        <polygon style="fill:#FFF91D" points="176.4,160.1 175.1,160.8
		176,162.1 175.6,164.3 174.4,165.9 172.8,170.4 173.6,171.2 174.4,176.4 174.4,189.1 172.8,191.9 180,191.9 175.9,176 175.2,169.9
		176.1,166.2 177.7,162.3 177.7,160.2 	"/>
        <rect x="148.2" y="208.5" style="fill:#FFF91D;"
              width="0.4" height="12.9"/>

        <polygon style="fill:#FFFFFF" points="145.5,211.8 145.5,211.4
		151.3,211.4 151.3,211.8 	"/>
</g>
    <g id="_x33__00000174561496761361280370000004905732861190038719_">
	<path data-z="3" id="_x33_" class="st30" d="M-0.8,328.4c4.2,1.7,12.9,0,12.9,0l8.7-9.3l12.8,16.1l32.6-8h42.4l21.2-8h24h24.3l91.6,8v-16.5
		l19.3,16.1l44.9,3.4l55.9,5.1h19.5l16.2,12.7l30.9,13l33.3-4.9l58.4,31.2l92.3,29.6v44l-386.3,18.6L24.8,510.5h-41.6L-0.8,328.4z"
    />
</g>
    <g id="_x32__00000101071076450631614290000010793754037689611394_">
	<g id="_x32_">
		<polygon data-z="2" class="st31" points="-0.8,378.3 35.6,360.8 61.1,369.6 64.4,360.8 85.3,360.8 106.8,378.3 114.1,383.4 120.3,378.3
			164.4,378.3 176.5,390.5 176.5,402 206.2,402 206.2,395.8 222,395.8 222,389.6 297.7,389.6 297.7,459.1 93.8,459.1 59.4,493.5
			-11.2,493.5 		"/>
        <polygon data-z="2" class="st31" points="418.5,445.5 418.5,366.5 456.3,360.8 485.7,377.8 485.7,463 		"/>
        <polygon data-z="2" class="st31" points="521.3,381.7 585.7,381.7 590.2,389.1 621.8,389.1 625.2,381.7 662.5,381.7 670.4,385.4 781.6,385.4
			781.6,411.9 832.4,411.9 832.4,433.1 859,433.1 859,479.4 622.4,479.4 622.4,421.2 554.6,411.9 		"/>
	</g>
</g>
    <g id="_x31__00000002375068979703642950000008583441666107735739_">
	<polygon id="_x31_" class="st32" data-z="1" points="-10,479.4 62.9,475.3 67.1,463.6 82.9,463.6 94.2,448.9 131.8,448.9 131.8,452.7
		167.2,452.7 176.6,452.7 207.9,438.8 235,438.8 247.4,451.2 305.8,451.2 305.8,442.1 330.6,431.6 483.7,445 484.9,453.4 
		495.9,453.4 495.9,439.9 549.2,439.9 549.2,450.6 567.6,450.6 567.6,456.3 580.3,456.3 580.3,450.9 647.8,450.9 647.8,413.1 
		681.9,413.1 697.8,424.1 697.8,441.9 709.6,438.5 754.5,438.5 754.5,458 766.9,458 766.9,435.1 782.5,435.1 782.5,421.8 
		786.1,421.8 786.1,416.7 804.5,416.7 804.5,427.2 813,432.5 813,444.2 827.6,449.8 827.6,462.8 851.6,462.8 851.6,607.9 
		-0.8,607.9 	"/>
</g>
</svg>
