# Blender v2.79 (sub 0) OBJ File: ''
# www.blender.org
mtllib 2.mtl
o House3_pCube3
v 2.514363 -1.174922 4.833813
v 4.250020 -1.174922 4.833813
v 4.250020 3.268037 4.833814
v 2.514363 3.911606 4.833814
v 4.250020 3.268039 2.448080
v 2.514363 3.911608 2.448080
v 4.250020 -1.174921 2.448078
v 2.514363 -1.174921 2.448078
vt 0.629557 0.155697
vt 0.668180 0.155697
vt 0.668180 0.239522
vt 0.629557 0.266113
vt 0.760146 0.269525
vt 0.824012 0.269525
vt 0.824012 0.317598
vt 0.760146 0.317598
vt 0.629557 0.266113
vt 0.668180 0.239522
vt 0.668180 0.155697
vt 0.629557 0.155697
vt 0.375000 0.750000
vt 0.625000 0.750000
vt 0.625000 1.000000
vt 0.375000 1.000000
vt 0.669228 0.154687
vt 0.721281 0.154687
vt 0.721281 0.240928
vt 0.669228 0.240928
vt 0.125000 0.000000
vt 0.375000 0.000000
vt 0.375000 0.250000
vt 0.125000 0.250000
vn -0.0000 -0.0000 1.0000
vn 0.3477 0.9376 0.0000
vn -0.0000 0.0000 -1.0000
vn 0.0000 -1.0000 -0.0000
vn 1.0000 0.0000 0.0000
vn -1.0000 -0.0000 0.0000
usemtl phong1SG
s 1
f 1/1/1 2/2/1 3/3/1 4/4/1
f 4/5/2 3/6/2 5/7/2 6/8/2
f 6/9/3 5/10/3 7/11/3 8/12/3
f 8/13/4 7/14/4 2/15/4 1/16/4
f 2/17/5 7/18/5 5/19/5 3/20/5
f 8/21/6 1/22/6 4/23/6 6/24/6
o polySurface10_House3
v -3.626607 -4.041770 -5.097239
v -3.626607 -4.041775 4.842418
v -3.626607 5.114194 4.842420
v -3.626607 5.114198 -5.097238
v 3.023162 5.114198 -5.097238
v 3.023162 5.114194 4.842419
v 3.023162 -4.041775 4.842417
v 3.023162 -4.041770 -5.097239
v -0.301723 7.762479 4.771228
v -0.301723 7.762483 -5.114767
vt 0.381864 0.270770
vt 0.548218 0.270770
vt 0.548218 0.393390
vt 0.379703 0.393390
vt 0.000265 0.394567
vt 0.240663 0.394567
vt 0.240663 0.270770
vt 0.000265 0.270770
vt 0.241578 0.270770
vt 0.376298 0.270770
vt 0.376298 0.394567
vt 0.241578 0.394567
vt 0.749848 0.270831
vt 0.619535 0.270831
vt 0.619535 0.387994
vt 0.749848 0.387994
vt 0.242390 0.394283
vt 0.375596 0.394283
vt 0.309148 0.452890
vt 0.621225 0.387742
vt 0.751538 0.387742
vt 0.686381 0.453133
vn -1.0000 0.0000 0.0000
vn 1.0000 -0.0000 0.0000
vn 0.0000 -0.0000 1.0000
vn 0.0000 0.0000 -1.0000
vn 0.0000 0.0269 0.9996
vn 0.0000 -0.0066 -1.0000
usemtl phong1SG
s 1
f 9/25/7 10/26/7 11/27/7 12/28/7
f 13/29/8 14/30/8 15/31/8 16/32/8
f 10/33/9 15/34/9 14/35/9 11/36/9
f 16/37/10 9/38/10 12/39/10 13/40/10
f 11/41/11 14/42/11 17/43/11
f 13/44/12 12/45/12 18/46/12
o House3_polySurface11
v -0.311613 7.797340 5.402910
v 3.454175 4.790825 5.402910
v 3.454175 4.790828 -5.661358
v -0.311613 7.797344 -5.661355
v -3.978167 4.824074 5.402910
v -3.978167 4.824079 -5.661356
vt 0.612586 0.404195
vt 0.612586 0.508062
vt 0.366364 0.508062
vt 0.366364 0.404195
vt 0.612586 0.507657
vt 0.612586 0.614110
vt 0.366364 0.614110
vt 0.366364 0.507657
vn 0.6239 0.7815 0.0000
vn -0.6299 0.7767 0.0000
usemtl phong1SG
s 1
f 19/47/13 20/48/13 21/49/13 22/50/13
f 23/51/14 19/52/14 22/53/14 24/54/14
o House3_pCube2
v -0.889417 -4.311399 -5.037581
v 1.025986 -4.311399 -5.037581
v 1.025986 6.698984 -5.112766
v -0.889417 6.698985 -5.112766
v -0.496023 7.988192 -5.346841
v 0.632592 7.988192 -5.346841
v 0.632592 7.988192 -6.018384
v -0.496023 7.988192 -6.018384
v -0.889417 6.698985 -6.252460
v 1.025986 6.698984 -6.252460
v 1.025986 -4.311399 -6.252463
v -0.889417 -4.311399 -6.252463
vt 0.970859 0.094316
vt 0.898850 0.094316
vt 0.970859 0.309702
vt 0.898850 0.309702
vt 0.915580 0.309966
vt 0.952554 0.309966
vt 0.952554 0.329852
vt 0.915580 0.329852
vt 0.898850 0.309702
vt 0.970859 0.309702
vt 0.898850 0.094316
vt 0.970859 0.094316
vt 0.898156 0.091973
vt 0.970359 0.091973
vt 0.970359 0.309359
vt 0.898156 0.309359
vt 0.970359 0.091973
vt 0.898156 0.091973
vt 0.898156 0.309359
vt 0.970359 0.309359
vt 0.971941 0.302704
vt 0.899012 0.302704
vt 0.911441 0.198879
vt 0.959512 0.198879
vt 0.916593 0.406451
vt 0.948586 0.406451
vt 0.942016 0.330284
vt 0.923164 0.330284
vt 0.904630 0.238104
vt 0.963733 0.238103
vt 0.957151 0.124521
vt 0.911213 0.124521
vt 0.948586 0.406451
vt 0.916593 0.406451
vt 0.923164 0.330284
vt 0.942016 0.330284
vn -0.0000 0.0068 1.0000
vn 0.0000 1.0000 0.0000
vn 0.0000 0.0000 -1.0000
vn 1.0000 0.0000 0.0000
vn -1.0000 0.0000 0.0000
vn 0.0000 0.1786 0.9839
vn 0.9565 0.2919 0.0000
vn 0.0000 0.1786 -0.9839
vn -0.9565 0.2919 0.0000
usemtl phong1SG
s 1
f 25/55/15 26/56/15 27/57/15 28/58/15
f 29/59/16 30/60/16 31/61/16 32/62/16
f 33/63/17 34/64/17 35/65/17 36/66/17
f 26/67/18 35/68/18 34/69/18 27/70/18
f 36/71/19 25/72/19 28/73/19 33/74/19
f 28/75/20 27/76/20 30/77/20 29/78/20
f 27/79/21 34/80/21 31/81/21 30/82/21
f 34/83/22 33/84/22 32/85/22 31/86/22
f 33/87/23 28/88/23 29/89/23 32/90/23
