<svg width="1024" height="1024" viewBox="0 0 1024 1024" fill="none" xmlns="http://www.w3.org/2000/svg">

<style>
    path {
        fill: #B2B2B1;
    }
    @media (prefers-color-scheme: dark) {
        path {
            fill: #B2B2B1;
        }
    }
</style>
<path d="M480.448 674.9L461.998 693.35L408.898 640.25C375.598 662.75 332.848 674 280.648 674C239.548 674 204.448 667.25 175.348 653.75C146.548 639.95 124.648 620.45 109.648 595.25C94.6484 570.05 87.1484 540.65 87.1484 507.05C87.1484 473.45 94.6484 444.2 109.648 419.3C124.648 394.4 146.548 375.2 175.348 361.7C204.448 347.9 239.548 341 280.648 341C321.448 341 356.398 347.9 385.498 361.7C414.598 375.2 436.648 394.55 451.648 419.75C466.648 444.65 474.148 473.75 474.148 507.05C474.148 531.05 470.248 552.95 462.448 572.75C454.948 592.25 443.848 609.2 429.148 623.6L480.448 674.9ZM280.648 650.15C325.648 650.15 362.098 640.55 389.998 621.35L323.398 554.75L341.848 536.3L410.248 604.7C434.248 579.8 446.248 547.25 446.248 507.05C446.248 477.65 439.648 452.3 426.448 431C413.548 409.7 394.648 393.35 369.748 381.95C345.148 370.55 315.448 364.85 280.648 364.85C245.848 364.85 215.998 370.55 191.098 381.95C166.198 393.35 147.148 409.7 133.948 431C121.048 452.3 114.598 477.65 114.598 507.05C114.598 536.75 121.048 562.4 133.948 584C147.148 605.3 166.198 621.65 191.098 633.05C215.998 644.45 245.848 650.15 280.648 650.15Z" fill="black"/>
<path d="M835.998 464.75V350H948.498V674H835.998V559.25H651.498V674H538.998V350H651.498V464.75H835.998Z" fill="black"/>
</svg>
